<svg width="200" height="76" viewBox="0 0 200 76" fill="none" xmlns="http://www.w3.org/2000/svg">
<rect x="0.5" y="20.5" width="62" height="41" rx="5.5" fill="#FFE6CC" stroke="#BC4D4D"/>
<path d="M30.721 34.1283C32.0134 34.1283 32.6596 33.6035 32.6596 32.554C32.6596 32.0423 32.343 31.6086 31.7098 31.253C31.4236 31.0882 31.107 30.932 30.76 30.7846C30.4218 30.6371 30.0792 30.4767 29.7322 30.3032C29.3853 30.1297 29.0687 29.9432 28.7824 29.7437C28.5049 29.5443 28.275 29.2927 28.0929 28.9891C27.9194 28.6856 27.8327 28.3429 27.8327 27.9613C27.8327 27.3368 28.0842 26.8077 28.5873 26.374C29.099 25.9317 29.7973 25.7105 30.682 25.7105C31.5667 25.7105 32.4991 25.9794 33.4792 26.5171C33.4792 27.0115 33.4185 27.6317 33.2971 28.3776C33.1063 28.4037 32.8547 28.4167 32.5425 28.4167L32.1522 26.9075C32.0481 26.8554 31.8399 26.8034 31.5277 26.7513C31.2241 26.6993 30.9552 26.6733 30.721 26.6733C30.2179 26.6733 29.8276 26.7817 29.5501 26.9985C29.2725 27.2067 29.1337 27.5016 29.1337 27.8832C29.1337 28.2562 29.2942 28.5945 29.6151 28.8981C29.9447 29.193 30.3394 29.4488 30.7991 29.6657C31.2675 29.8739 31.7315 30.0907 32.1912 30.3162C32.6596 30.5417 33.0542 30.8366 33.3752 31.2009C33.7048 31.5565 33.8696 31.9729 33.8696 32.4499C33.8696 33.3173 33.579 33.9895 32.9979 34.4666C32.4167 34.9349 31.6578 35.1691 30.721 35.1691C30.2093 35.1691 29.6541 35.0911 29.0557 34.9349C28.4659 34.7701 27.9758 34.562 27.5855 34.3104C27.6028 33.7293 27.6679 33.0571 27.7806 32.2938C27.9715 32.2678 28.223 32.2548 28.5352 32.2548L28.8085 33.816C28.9993 33.8941 29.2855 33.9678 29.6672 34.0372C30.0575 34.0979 30.4088 34.1283 30.721 34.1283Z" fill="#BC4D4D"/>
<path d="M19.3255 45.0033C24.1689 44.9384 29.6122 45.7946 53.7582 49.9574C53.9999 49.999 54.0979 50.5354 53.8754 50.6445C53.4501 50.853 32.7696 53.4162 19.1487 53.981C15.2396 54.1431 7.99547 53.2994 8 50.2719C8.00507 46.8567 15.1754 45.0589 19.3255 45.0033Z" fill="#BC4D4D" stroke="#BC4D4D" stroke-width="0.999999"/>
<rect x="137.5" y="20.5" width="62" height="41" rx="5.5" fill="#FFE6CC" stroke="#BC4D4D"/>
<path d="M167.721 34.1283C169.013 34.1283 169.66 33.6035 169.66 32.554C169.66 32.0423 169.343 31.6086 168.71 31.253C168.424 31.0882 168.107 30.932 167.76 30.7846C167.422 30.6371 167.079 30.4767 166.732 30.3032C166.385 30.1297 166.069 29.9432 165.782 29.7437C165.505 29.5443 165.275 29.2927 165.093 28.9891C164.919 28.6856 164.833 28.3429 164.833 27.9613C164.833 27.3368 165.084 26.8077 165.587 26.374C166.099 25.9317 166.797 25.7105 167.682 25.7105C168.567 25.7105 169.499 25.9794 170.479 26.5171C170.479 27.0115 170.419 27.6317 170.297 28.3776C170.106 28.4037 169.855 28.4167 169.542 28.4167L169.152 26.9075C169.048 26.8554 168.84 26.8034 168.528 26.7513C168.224 26.6993 167.955 26.6733 167.721 26.6733C167.218 26.6733 166.828 26.7817 166.55 26.9985C166.273 27.2067 166.134 27.5016 166.134 27.8832C166.134 28.2562 166.294 28.5945 166.615 28.8981C166.945 29.193 167.339 29.4488 167.799 29.6657C168.267 29.8739 168.731 30.0907 169.191 30.3162C169.66 30.5417 170.054 30.8366 170.375 31.2009C170.705 31.5565 170.87 31.9729 170.87 32.4499C170.87 33.3173 170.579 33.9895 169.998 34.4666C169.417 34.9349 168.658 35.1691 167.721 35.1691C167.209 35.1691 166.654 35.0911 166.056 34.9349C165.466 34.7701 164.976 34.562 164.585 34.3104C164.603 33.7293 164.668 33.0571 164.781 32.2938C164.971 32.2678 165.223 32.2548 165.535 32.2548L165.808 33.816C165.999 33.8941 166.286 33.9678 166.667 34.0372C167.057 34.0979 167.409 34.1283 167.721 34.1283ZM173.592 25.4373C173.644 25.6801 173.67 25.9924 173.67 26.374C173.67 26.7557 173.518 27.1677 173.215 27.61C172.92 28.0524 172.646 28.3516 172.395 28.5077C172.247 28.447 172.109 28.3473 171.979 28.2085C172.074 27.9223 172.343 27.5233 172.785 27.0115C172.898 26.8814 172.963 26.8077 172.98 26.7904C172.677 26.7904 172.469 26.7817 172.356 26.7643C172.304 26.5995 172.278 26.374 172.278 26.0878C172.278 25.8016 172.287 25.5977 172.304 25.4763C172.495 25.4329 172.694 25.4112 172.902 25.4112C173.119 25.4112 173.349 25.4199 173.592 25.4373Z" fill="#BC4D4D"/>
<path d="M144 49.2713C143.988 47.7982 145.989 47.1106 148.816 46.4576C151.717 45.7878 157.747 45.1005 162.231 45.0406C168.36 44.9588 173.33 44.9377 178.603 45.6082C181.671 45.9985 189.688 47.7124 195 49.2624C195 49.2624 190.41 49.1875 188.039 49.3554C185.491 49.5359 182.822 49.8629 180.255 50.333C179.612 50.4508 176.201 51.2347 174.248 51.4907C171.662 51.8298 169.244 51.9423 166.645 52C158.472 51.9361 153.732 51.8491 145.889 50.3157C144.631 50.0683 144.005 49.8242 144 49.2713Z" fill="#BC4D4D" stroke="#BC4D4D"/>
<path d="M82.0947 4.16585C82.2508 4.11381 82.6758 4.05743 83.3697 3.99672C84.0636 3.92733 84.6925 3.89263 85.2563 3.89263C85.8287 3.89263 86.2711 3.91865 86.5833 3.9707C86.592 4.00539 86.5963 4.04876 86.5963 4.1008C86.5963 4.14417 86.5703 4.25259 86.5183 4.42606C86.4749 4.59954 86.4402 4.71229 86.4142 4.76434C86.3448 4.83373 86.1496 4.88577 85.8287 4.92046L88.3137 12.1153L89.5497 12.2194C89.5497 12.4622 89.476 12.7224 89.3285 13H86.3361L86.2971 12.5446C86.4966 12.4405 86.7872 12.3495 87.1688 12.2714L86.5053 10.4109H82.8753L82.2638 12.1153L83.3177 12.2194C83.3177 12.4622 83.244 12.7224 83.0965 13H80.1041L80.0651 12.5446C80.4033 12.4232 80.7633 12.3278 81.1449 12.2584L83.669 4.88143C82.897 4.7947 82.3549 4.69061 82.0427 4.56918L82.0947 4.16585ZM85.4774 7.50956L84.7879 4.95949C84.7358 4.95082 84.6621 4.94648 84.5667 4.94648L83.8641 7.60063L83.1095 9.57823H86.2711L85.4774 7.50956ZM93.183 13.1561C92.1422 13.1561 91.3659 12.8656 90.8541 12.2844C90.3424 11.6946 90.0865 10.8576 90.0865 9.77339C90.0865 7.41415 91.136 6.23453 93.2351 6.23453C93.5733 6.23453 93.9246 6.28657 94.2889 6.39065C94.6532 6.48606 94.9394 6.59448 95.1476 6.71592C95.1216 7.52257 95.0392 8.09503 94.9004 8.43331C94.7443 8.47667 94.6185 8.49836 94.5231 8.49836H94.3019C94.2586 8.49836 94.2065 8.49402 94.1458 8.48535L93.8205 7.05419C93.5343 7.02817 93.3695 7.01516 93.3261 7.01516C92.7016 7.01516 92.2029 7.20598 91.8299 7.58762C91.4656 7.96926 91.2835 8.61112 91.2835 9.51318C91.2835 10.4152 91.4223 11.1005 91.6998 11.5688C91.986 12.0372 92.5325 12.2714 93.3391 12.2714C93.7208 12.2714 94.3193 12.0893 95.1346 11.725C95.2994 11.9505 95.3861 12.15 95.3948 12.3235C94.9524 12.5837 94.5188 12.7875 94.0938 12.9349C93.6687 13.0824 93.3652 13.1561 93.183 13.1561ZM97.1861 12.1933L97.082 7.28838H96.0802L96.0412 6.83301C96.1279 6.77229 96.3794 6.65954 96.7958 6.49474L97.8626 4.82939C98.0361 4.84674 98.1706 4.89011 98.266 4.95949L98.253 6.39065C98.9035 6.39065 99.4369 6.43402 99.8532 6.52076C99.8532 6.75495 99.7795 7.01082 99.6321 7.28838H98.2269C98.2096 8.32922 98.1922 9.90783 98.1749 12.0242C98.6606 12.0502 99.1463 12.137 99.6321 12.2844L99.6191 12.7398C99.4976 12.8179 99.1854 12.9089 98.6823 13.013C98.1879 13.1171 97.7802 13.1691 97.4593 13.1691C97.4159 13.0997 97.3596 12.9523 97.2902 12.7268C97.2208 12.4926 97.1861 12.3148 97.1861 12.1933ZM103.088 5.15465C102.863 5.20669 102.642 5.23272 102.425 5.23272C102.217 5.23272 102.009 5.21971 101.8 5.19368C101.748 4.95082 101.722 4.70796 101.722 4.46509C101.722 4.21356 101.731 4.02707 101.748 3.90564C101.939 3.86227 102.139 3.84059 102.347 3.84059C102.564 3.84059 102.793 3.84926 103.036 3.86661C103.088 4.09213 103.114 4.31331 103.114 4.53015C103.114 4.73832 103.106 4.94648 103.088 5.15465ZM100.72 6.52076C101.458 6.39065 102.03 6.3256 102.438 6.3256C102.846 6.3256 103.106 6.33427 103.219 6.35162C103.219 6.55979 103.192 6.78964 103.14 7.04118C103.088 7.29272 103.058 7.41415 103.049 7.40547L102.932 12.1153L104.025 12.2194C104.025 12.4622 103.951 12.7224 103.804 13H100.812L100.773 12.5446C101.172 12.4059 101.562 12.3018 101.943 12.2324C101.891 10.064 101.848 8.43764 101.813 7.35343C101.31 7.35343 100.929 7.30139 100.668 7.19731L100.72 6.52076ZM107.754 12.3755C108.483 12.3755 108.973 12.15 109.224 11.6989C109.485 11.2392 109.615 10.5887 109.615 9.74737C109.615 8.41162 109.32 7.57461 108.73 7.23634C108.487 7.09756 108.145 7.02817 107.702 7.02817C107.268 7.02817 106.856 7.11924 106.466 7.30139C106.119 7.96926 105.946 8.74556 105.946 9.63027C105.946 10.4803 106.058 11.1352 106.284 11.5949C106.544 12.1153 107.034 12.3755 107.754 12.3755ZM104.749 9.74737C104.749 8.64581 105 7.78712 105.503 7.17128C106.006 6.54678 106.783 6.23453 107.832 6.23453C108.882 6.23453 109.641 6.52076 110.109 7.09322C110.577 7.65701 110.812 8.49402 110.812 9.60425C110.812 10.7145 110.56 11.5862 110.057 12.2194C109.563 12.8525 108.808 13.1691 107.793 13.1691C106.778 13.1691 106.015 12.8742 105.503 12.2844C105 11.6946 104.749 10.8489 104.749 9.74737ZM115.809 6.23453C116.642 6.23453 117.244 6.44269 117.617 6.85903C117.99 7.26669 118.177 7.8912 118.177 8.73255C118.177 8.97541 118.142 10.103 118.073 12.1153L119.166 12.2194C119.166 12.4622 119.092 12.7224 118.944 13H115.952L115.913 12.5446C116.312 12.4059 116.702 12.3018 117.084 12.2324C117.032 9.95987 116.984 8.69785 116.941 8.44632C116.906 8.18611 116.845 7.96059 116.759 7.76977C116.672 7.57895 116.542 7.44451 116.368 7.36644C116.195 7.28838 115.965 7.24935 115.679 7.24935C115.106 7.24935 114.551 7.38813 114.013 7.66568C113.961 9.64328 113.927 11.1265 113.909 12.1153L115.002 12.2194C115.002 12.4622 114.928 12.7224 114.781 13H111.789L111.75 12.5446C112.149 12.4059 112.539 12.3018 112.92 12.2324C112.868 10.0293 112.825 8.39861 112.79 7.34042C112.313 7.3144 111.932 7.26236 111.645 7.18429L111.698 6.50775C112.166 6.37764 112.847 6.31259 113.74 6.31259C113.844 6.46872 113.922 6.69423 113.974 6.98914C114.347 6.78964 114.72 6.61617 115.093 6.46872C115.475 6.31259 115.713 6.23453 115.809 6.23453Z" fill="#BC4D4D"/>
<path d="M81.996 63.9335C81.7185 63.8467 81.3499 63.8034 80.8901 63.8034H79.8103L79.7712 67.082L80.76 67.069C81.4019 67.0603 81.9136 66.9302 82.2953 66.6787C82.6769 66.4272 82.8677 65.9501 82.8677 65.2475C82.8677 64.5363 82.5772 64.0983 81.996 63.9335ZM79.7582 67.9147L79.7192 71.1283L80.7991 71.2194C80.7991 71.4622 80.7253 71.7224 80.5779 72H77.5855L77.5464 71.5446C77.9107 71.4145 78.2837 71.3148 78.6653 71.2454C78.6133 67.9494 78.5699 65.434 78.5352 63.6993C78.2924 63.6646 77.9107 63.5605 77.3903 63.387C77.3903 63.2743 77.412 63.1095 77.4554 62.8926H80.3827C81.97 62.8926 83.0022 63.0878 83.4792 63.4781C83.9476 63.8511 84.1818 64.4365 84.1818 65.2345C84.1818 66.5789 83.4445 67.4507 81.97 67.8496L84.1948 71.1413L85.2747 71.2324C85.2747 71.4666 85.201 71.7224 85.0535 72H83.4532L80.721 67.9147H79.7582ZM89.3112 71.2714C89.6929 71.2714 90.2913 71.0893 91.1067 70.725C91.2715 70.9505 91.3582 71.15 91.3669 71.3235C90.9245 71.5837 90.4908 71.7875 90.0658 71.9349C89.6408 72.0824 89.3372 72.1561 89.1551 72.1561C88.1489 72.1561 87.3813 71.8569 86.8522 71.2584C86.3231 70.6512 86.0586 69.8056 86.0586 68.7213C86.0586 67.6371 86.3145 66.7871 86.8262 66.1713C87.3466 65.5468 88.1229 65.2345 89.1551 65.2345C89.9531 65.2345 90.5602 65.5208 90.9766 66.0932C91.4016 66.6657 91.6141 67.4333 91.6141 68.3961C91.5447 68.5175 91.4883 68.5999 91.4449 68.6433L87.2555 68.5782C87.2642 69.4543 87.416 70.1221 87.7109 70.5819C88.0145 71.0416 88.5479 71.2714 89.3112 71.2714ZM90.4301 67.8366C90.4301 67.2642 90.326 66.8218 90.1179 66.5096C89.9097 66.1886 89.5627 66.0282 89.077 66.0282C88.5913 66.0282 88.1576 66.1192 87.776 66.3014C87.5158 66.8218 87.351 67.3552 87.2816 67.9017C87.9668 67.893 89.0163 67.8713 90.4301 67.8366ZM97.7644 66.8869H97.7124L96.2292 72H94.9411L93.1587 66.2754L92.0658 66.1713C92.0658 65.9284 92.1395 65.6682 92.287 65.3907H95.2794L95.3184 65.846C95.0409 65.9675 94.7329 66.0629 94.3947 66.1323L95.3184 69.6841L95.5526 70.8291H95.6827L95.9429 69.6711L97.257 65.3907C97.3611 65.382 97.4348 65.3776 97.4782 65.3776L98.3759 65.4037L99.768 69.6841L100.054 70.8291H100.171L100.38 69.6711L101.472 66.1323L100.38 65.846L100.419 65.3907H103.346C103.493 65.6682 103.567 65.9284 103.567 66.1713C103.211 66.2147 102.856 66.245 102.5 66.2624L100.718 72H99.4297L97.7644 66.8869ZM109.075 67.7456L109.01 71.1023C109.383 71.1283 109.756 71.189 110.129 71.2844L110.103 71.7398C109.964 71.8092 109.713 71.8872 109.349 71.974C108.993 72.052 108.642 72.0911 108.295 72.0911C108.139 71.7788 108.052 71.4796 108.035 71.1933C107.046 71.8439 106.352 72.1691 105.953 72.1691C105.337 72.1691 104.843 72.0043 104.47 71.6747C104.097 71.3451 103.91 70.8854 103.91 70.2956C103.91 68.9339 104.743 68.2313 106.408 68.1879C107.38 68.1619 107.87 68.1489 107.878 68.1489L107.865 67.7065C107.848 67.108 107.735 66.6787 107.527 66.4185C107.319 66.1496 106.946 66.0152 106.408 66.0152C106.183 66.0152 105.94 66.0672 105.68 66.1713L105.367 67.4723C105.324 67.481 105.25 67.4853 105.146 67.4853L104.613 67.4463C104.474 67.0733 104.4 66.5573 104.392 65.8981C104.556 65.8113 104.934 65.6812 105.524 65.5077C106.113 65.3256 106.491 65.2345 106.655 65.2345C107.54 65.2345 108.165 65.4297 108.529 65.82C108.893 66.2103 109.075 66.8522 109.075 67.7456ZM106.239 71.2844C106.491 71.2844 107.072 71.0025 107.983 70.4387L107.917 68.8124C107.328 68.8645 106.833 68.9122 106.434 68.9555C106.035 68.9989 105.714 69.116 105.472 69.3068C105.229 69.489 105.107 69.7795 105.107 70.1785C105.107 70.9158 105.485 71.2844 106.239 71.2844ZM114.853 66.3274C114.81 66.284 114.714 66.2624 114.567 66.2624C114.419 66.2624 114.198 66.3144 113.903 66.4185C113.617 66.5226 113.357 66.644 113.123 66.7828C113.07 68.7083 113.036 70.1525 113.018 71.1153L114.111 71.2194C114.111 71.4622 114.038 71.7224 113.89 72H110.898L110.859 71.5446C111.258 71.4059 111.648 71.3018 112.03 71.2324C111.978 69.0293 111.934 67.3986 111.9 66.3404C111.422 66.3144 111.041 66.2624 110.755 66.1843L110.807 65.5077C111.266 65.3776 111.947 65.3126 112.849 65.3126C112.988 65.5294 113.075 65.807 113.109 66.1453C114.107 65.5381 114.701 65.2345 114.892 65.2345C115.083 65.2345 115.304 65.2736 115.555 65.3516C115.807 65.421 115.993 65.4991 116.115 65.5858C116.115 66.4532 116.033 67.1601 115.868 67.7065C115.746 67.7412 115.603 67.7586 115.438 67.7586C115.282 67.7586 115.174 67.7542 115.113 67.7456L114.853 66.3274ZM121.179 65.9761L121.14 63.374C120.663 63.348 120.281 63.296 119.995 63.2179L120.047 62.5413C120.489 62.4112 121.131 62.3462 121.973 62.3462C122.241 62.3462 122.432 62.3549 122.545 62.3722C122.545 62.5283 122.519 62.7365 122.467 62.9967C122.424 63.2483 122.393 63.387 122.376 63.4131L122.259 71.1023C122.614 71.1196 122.992 71.1803 123.391 71.2844L123.365 71.7398C122.766 72.0173 122.237 72.1561 121.777 72.1561C121.682 72.1561 121.608 72.1518 121.556 72.1431C121.487 72.013 121.4 71.7138 121.296 71.2454C120.298 71.8092 119.6 72.1128 119.201 72.1561C118.369 72.1561 117.744 71.8395 117.328 71.2064C116.911 70.5732 116.703 69.7622 116.703 68.7734C116.703 67.7759 116.911 66.9389 117.328 66.2624C117.753 65.5771 118.377 65.2345 119.201 65.2345C119.843 65.2345 120.502 65.4817 121.179 65.9761ZM119.422 66.1192C118.408 66.1192 117.9 66.9519 117.9 68.6173C117.9 69.2678 118.004 69.8316 118.212 70.3086C118.317 70.5688 118.468 70.777 118.668 70.9331C118.876 71.0893 119.115 71.1673 119.383 71.1673C119.652 71.1673 119.965 71.1066 120.32 70.9852C120.684 70.8637 120.997 70.725 121.257 70.5688L121.179 66.8608C120.945 66.6613 120.658 66.4879 120.32 66.3404C119.982 66.193 119.683 66.1192 119.422 66.1192Z" fill="#BC4D4D"/>
<path d="M63 30L100 17" stroke="#BC4D4D" stroke-linecap="round"/>
<path d="M100.166 16.5283C99.9052 16.4367 99.6198 16.5737 99.5283 16.8343C99.4367 17.0948 99.5737 17.3802 99.8343 17.4717L100.166 16.5283ZM137 30L133.24 25.619L131.326 31.0661L137 30ZM100 17L99.8343 17.4717L132.589 28.98L132.754 28.5083L132.92 28.0366L100.166 16.5283L100 17Z" fill="#BC4D4D"/>
<path d="M102.5 27H97.5V47.5H93L100 62L107 47.5H102.5V27Z" fill="#FFE6CC" stroke="#BC4D4D"/>
</svg>
