<svg width="163" height="113" viewBox="0 0 163 113" fill="none" xmlns="http://www.w3.org/2000/svg">
<mask id="mask0_3_227" style="mask-type:luminance" maskUnits="userSpaceOnUse" x="0" y="0" width="163" height="113">
<path d="M0 0H163V113H0V0Z" fill="white"/>
</mask>
<g mask="url(#mask0_3_227)">
<path d="M48.262 47.18H122.457C123.094 47.18 123.727 47.242 124.352 47.367C124.98 47.492 125.586 47.676 126.176 47.922C126.766 48.168 127.328 48.465 127.859 48.82C128.391 49.176 128.879 49.578 129.332 50.031C129.785 50.48 130.188 50.973 130.543 51.504C130.895 52.035 131.195 52.594 131.441 53.184C131.684 53.773 131.867 54.383 131.992 55.008C132.117 55.637 132.18 56.266 132.18 56.906V102.285C132.18 102.926 132.117 103.559 131.992 104.184C131.867 104.809 131.684 105.418 131.441 106.008C131.195 106.598 130.895 107.16 130.543 107.688C130.188 108.219 129.785 108.711 129.332 109.164C128.879 109.613 128.391 110.016 127.859 110.371C127.328 110.727 126.766 111.027 126.176 111.27C125.586 111.516 124.98 111.699 124.352 111.824C123.727 111.949 123.094 112.012 122.457 112.012H48.262C47.625 112.012 46.992 111.949 46.363 111.824C45.738 111.699 45.129 111.516 44.539 111.27C43.949 111.027 43.391 110.727 42.859 110.371C42.328 110.016 41.836 109.613 41.387 109.164C40.934 108.711 40.531 108.219 40.176 107.688C39.82 107.16 39.523 106.598 39.277 106.008C39.035 105.418 38.848 104.809 38.723 104.184C38.602 103.559 38.539 102.926 38.539 102.285V56.906C38.539 56.266 38.602 55.637 38.723 55.008C38.848 54.383 39.035 53.773 39.277 53.184C39.523 52.594 39.82 52.035 40.176 51.504C40.531 50.973 40.934 50.48 41.387 50.031C41.836 49.578 42.328 49.176 42.859 48.82C43.391 48.465 43.949 48.168 44.539 47.922C45.129 47.676 45.738 47.492 46.363 47.367C46.992 47.242 47.625 47.18 48.262 47.18Z" fill="#F5F5F5"/>
<path d="M48.262 47.18H122.457C123.094 47.18 123.727 47.242 124.352 47.367C124.98 47.492 125.586 47.676 126.176 47.922C126.766 48.168 127.328 48.465 127.859 48.82C128.391 49.176 128.879 49.578 129.332 50.031C129.785 50.48 130.188 50.973 130.543 51.504C130.895 52.035 131.195 52.594 131.441 53.184C131.684 53.773 131.867 54.383 131.992 55.008C132.117 55.637 132.18 56.266 132.18 56.906V102.285C132.18 102.926 132.117 103.559 131.992 104.184C131.867 104.809 131.684 105.418 131.441 106.008C131.195 106.598 130.895 107.16 130.543 107.688C130.188 108.219 129.785 108.711 129.332 109.164C128.879 109.613 128.391 110.016 127.859 110.371C127.328 110.727 126.766 111.027 126.176 111.27C125.586 111.516 124.98 111.699 124.352 111.824C123.727 111.949 123.094 112.012 122.457 112.012H48.262C47.625 112.012 46.992 111.949 46.363 111.824C45.738 111.699 45.129 111.516 44.539 111.27C43.949 111.027 43.391 110.727 42.859 110.371C42.328 110.016 41.836 109.613 41.387 109.164C40.934 108.711 40.531 108.219 40.176 107.688C39.82 107.16 39.523 106.598 39.277 106.008C39.035 105.418 38.848 104.809 38.723 104.184C38.602 103.559 38.539 102.926 38.539 102.285V56.906C38.539 56.266 38.602 55.637 38.723 55.008C38.848 54.383 39.035 53.773 39.277 53.184C39.523 52.594 39.82 52.035 40.176 51.504C40.531 50.973 40.934 50.48 41.387 50.031C41.836 49.578 42.328 49.176 42.859 48.82C43.391 48.465 43.949 48.168 44.539 47.922C45.129 47.676 45.738 47.492 46.363 47.367C46.992 47.242 47.625 47.18 48.262 47.18Z" stroke="#666666" stroke-width="0.720329" stroke-miterlimit="10"/>
<path d="M62.6171 102.951L62.5739 105.034H63.9396L64.0088 104.412C64.1701 104.412 64.343 104.461 64.5274 104.559V106.201L64.2249 106.227C64.1384 105.979 64.0808 105.772 64.052 105.605H62.5739C62.5624 106.106 62.5508 106.847 62.5393 107.826H64.5188L64.7262 107.014L65.2276 107.048C65.3083 107.377 65.3486 107.668 65.3486 107.921C65.3486 108.169 65.3428 108.33 65.3313 108.405H61.1303L61.1044 108.103C61.358 108.011 61.6029 107.944 61.8392 107.904C61.8046 105.657 61.7758 103.985 61.7527 102.891C61.6259 102.879 61.3724 102.81 60.992 102.683L61.0353 102.355H65.2016C65.2132 102.43 65.2189 102.545 65.2189 102.7C65.2189 103.017 65.1786 103.36 65.0979 103.729C64.9711 103.758 64.804 103.772 64.5966 103.772L64.3891 102.951H62.6171ZM68.8816 103.911C69.4348 103.911 69.8353 104.049 70.0831 104.325C70.3309 104.596 70.4548 105.011 70.4548 105.57C70.4548 105.732 70.4318 106.481 70.3857 107.818L71.1117 107.887C71.1117 108.048 71.0628 108.221 70.9648 108.405H68.9767L68.9508 108.103C69.2158 108.011 69.4752 107.942 69.7287 107.895C69.6941 106.386 69.6624 105.547 69.6336 105.38C69.6106 105.207 69.5702 105.057 69.5126 104.931C69.455 104.804 69.3685 104.714 69.2533 104.663C69.138 104.611 68.9853 104.585 68.7952 104.585C68.4148 104.585 68.046 104.677 67.6887 104.861C67.6542 106.175 67.6311 107.161 67.6196 107.818L68.3457 107.887C68.3457 108.048 68.2967 108.221 68.1987 108.405H66.2106L66.1847 108.103C66.4498 108.011 66.7091 107.942 66.9626 107.895C66.9281 106.432 66.8993 105.348 66.8762 104.645C66.5593 104.628 66.3057 104.593 66.1155 104.542L66.1501 104.092C66.4613 104.006 66.9137 103.962 67.5072 103.962C67.5764 104.066 67.6282 104.216 67.6628 104.412C67.9106 104.279 68.1584 104.164 68.4062 104.066C68.6597 103.962 68.8182 103.911 68.8816 103.911ZM75.7208 104.593L74.0352 108.405H73.4215L71.8397 104.602L71.1136 104.533C71.1136 104.372 71.1626 104.199 71.2605 104.014H73.3524L73.3783 104.317C73.1939 104.398 72.9893 104.461 72.7646 104.507L73.5425 106.867L73.7413 107.627H73.8451L74.0612 106.858L74.865 104.507L74.1389 104.317L74.1649 104.014H76.2826C76.3806 104.199 76.4296 104.372 76.4296 104.533C76.1933 104.562 75.9571 104.582 75.7208 104.593ZM78.1657 103.193C78.0159 103.228 77.8689 103.245 77.7248 103.245C77.5865 103.245 77.4482 103.236 77.3099 103.219C77.2754 103.058 77.2581 102.896 77.2581 102.735C77.2581 102.568 77.2638 102.444 77.2754 102.363C77.4021 102.334 77.5347 102.32 77.673 102.32C77.817 102.32 77.9697 102.326 78.1311 102.337C78.1657 102.487 78.183 102.634 78.183 102.778C78.183 102.917 78.1772 103.055 78.1657 103.193ZM76.5925 104.101C77.0823 104.014 77.4626 103.971 77.7335 103.971C78.0043 103.971 78.1772 103.977 78.2521 103.988C78.2521 104.127 78.2348 104.279 78.2003 104.446C78.1657 104.614 78.1455 104.694 78.1397 104.689L78.062 107.818L78.788 107.887C78.788 108.048 78.7391 108.221 78.6411 108.405H76.653L76.6271 108.103C76.8921 108.011 77.1515 107.942 77.405 107.895C77.3704 106.455 77.3416 105.374 77.3186 104.654C76.9843 104.654 76.7308 104.619 76.5579 104.55L76.5925 104.101ZM81.9225 104.637C81.8937 104.608 81.8303 104.593 81.7323 104.593C81.6344 104.593 81.4874 104.628 81.2915 104.697C81.1013 104.766 80.9284 104.847 80.7728 104.939C80.7383 106.218 80.7152 107.178 80.7037 107.818L81.4298 107.887C81.4298 108.048 81.3808 108.221 81.2828 108.405H79.2947L79.2688 108.103C79.5339 108.011 79.7932 107.942 80.0468 107.895C80.0122 106.432 79.9834 105.348 79.9603 104.645C79.6434 104.628 79.3898 104.593 79.1996 104.542L79.2342 104.092C79.5396 104.006 79.992 103.962 80.5913 103.962C80.6835 104.106 80.7411 104.291 80.7642 104.516C81.4269 104.112 81.8216 103.911 81.9484 103.911C82.0752 103.911 82.2221 103.936 82.3893 103.988C82.5564 104.034 82.6803 104.086 82.761 104.144C82.761 104.72 82.7062 105.19 82.5967 105.553C82.516 105.576 82.421 105.587 82.3115 105.587C82.2077 105.587 82.1357 105.585 82.0954 105.579L81.9225 104.637ZM85.1486 107.991C85.6326 107.991 85.9582 107.841 86.1253 107.541C86.2982 107.236 86.3847 106.803 86.3847 106.244C86.3847 105.357 86.1887 104.801 85.7969 104.576C85.6355 104.484 85.4079 104.438 85.114 104.438C84.8259 104.438 84.5521 104.498 84.2928 104.619C84.0623 105.063 83.9471 105.579 83.9471 106.167C83.9471 106.731 84.022 107.166 84.1718 107.472C84.3447 107.818 84.6703 107.991 85.1486 107.991ZM83.1518 106.244C83.1518 105.513 83.3189 104.942 83.6532 104.533C83.9874 104.118 84.5032 103.911 85.2004 103.911C85.8977 103.911 86.4019 104.101 86.7131 104.481C87.0243 104.856 87.1799 105.412 87.1799 106.149C87.1799 106.887 87.0128 107.466 86.6785 107.887C86.3501 108.307 85.8487 108.518 85.1745 108.518C84.5003 108.518 83.9932 108.322 83.6532 107.93C83.3189 107.538 83.1518 106.976 83.1518 106.244ZM90.4999 103.911C91.0531 103.911 91.4536 104.049 91.7014 104.325C91.9492 104.596 92.0731 105.011 92.0731 105.57C92.0731 105.732 92.0501 106.481 92.004 107.818L92.7301 107.887C92.7301 108.048 92.6811 108.221 92.5831 108.405H90.595L90.5691 108.103C90.8341 108.011 91.0935 107.942 91.347 107.895C91.3124 106.386 91.2808 105.547 91.2519 105.38C91.2289 105.207 91.1886 105.057 91.1309 104.931C91.0733 104.804 90.9869 104.714 90.8716 104.663C90.7564 104.611 90.6036 104.585 90.4135 104.585C90.0331 104.585 89.6643 104.677 89.3071 104.861C89.2725 106.175 89.2494 107.161 89.2379 107.818L89.964 107.887C89.964 108.048 89.915 108.221 89.817 108.405H87.8289L87.803 108.103C88.0681 108.011 88.3274 107.942 88.581 107.895C88.5464 106.432 88.5176 105.348 88.4945 104.645C88.1776 104.628 87.924 104.593 87.7339 104.542L87.7684 104.092C88.0796 104.006 88.532 103.962 89.1255 103.962C89.1947 104.066 89.2465 104.216 89.2811 104.412C89.5289 104.279 89.7767 104.164 90.0245 104.066C90.2781 103.962 90.4365 103.911 90.4999 103.911ZM97.3218 104.879C97.3449 105.063 97.3564 105.276 97.3564 105.518C97.3564 105.76 97.3333 106.527 97.2872 107.818L98.0133 107.887C98.0133 108.048 97.9643 108.221 97.8664 108.405H95.8783L95.8523 108.103C96.1174 108.011 96.3767 107.942 96.6303 107.895C96.5957 106.363 96.564 105.51 96.5352 105.337C96.5122 105.164 96.4718 105.02 96.4142 104.905C96.3566 104.784 96.2673 104.7 96.1462 104.654C96.0252 104.608 95.8408 104.585 95.593 104.585C95.351 104.585 95.0312 104.677 94.6335 104.861C94.599 106.175 94.5759 107.161 94.5644 107.818L95.2905 107.887C95.2905 108.048 95.2415 108.221 95.1435 108.405H93.1554L93.1295 108.103C93.3946 108.011 93.6539 107.942 93.9075 107.895C93.9017 107.481 93.8873 106.896 93.8642 106.141C93.8412 105.38 93.8268 104.882 93.821 104.645C93.5041 104.628 93.2505 104.593 93.0603 104.542L93.0949 104.092C93.4061 104.006 93.8585 103.962 94.452 103.962C94.5327 104.106 94.5846 104.256 94.6076 104.412C94.8612 104.279 95.1118 104.164 95.3596 104.066C95.6074 103.962 95.763 103.911 95.8264 103.911C96.4661 103.911 96.9127 104.106 97.1662 104.498C97.4313 104.354 97.705 104.222 97.9874 104.101C98.2755 103.974 98.4484 103.911 98.506 103.911C99.0304 103.911 99.4223 104.04 99.6816 104.3C99.9467 104.553 100.079 104.971 100.079 105.553C100.079 105.726 100.056 106.481 100.01 107.818L100.736 107.887C100.736 108.048 100.687 108.221 100.589 108.405H98.6011L98.5752 108.103C98.8403 108.011 99.0996 107.942 99.3531 107.895C99.3301 106.985 99.3099 106.296 99.2926 105.83C99.2753 105.363 99.2091 105.04 99.0938 104.861C98.9786 104.677 98.7481 104.585 98.4023 104.585C98.0565 104.585 97.6964 104.683 97.3218 104.879ZM103.327 107.921C103.581 107.921 103.979 107.8 104.52 107.558C104.63 107.708 104.687 107.841 104.693 107.956C104.399 108.129 104.111 108.264 103.829 108.362C103.546 108.46 103.345 108.509 103.224 108.509C102.555 108.509 102.045 108.31 101.694 107.913C101.342 107.509 101.166 106.947 101.166 106.227C101.166 105.507 101.336 104.942 101.676 104.533C102.022 104.118 102.538 103.911 103.224 103.911C103.754 103.911 104.157 104.101 104.434 104.481C104.716 104.861 104.857 105.371 104.857 106.011C104.811 106.092 104.774 106.146 104.745 106.175L101.962 106.132C101.967 106.714 102.068 107.158 102.264 107.463C102.466 107.769 102.82 107.921 103.327 107.921ZM104.071 105.639C104.071 105.259 104.002 104.965 103.863 104.758C103.725 104.544 103.495 104.438 103.172 104.438C102.849 104.438 102.561 104.498 102.307 104.619C102.135 104.965 102.025 105.32 101.979 105.683C102.434 105.677 103.132 105.662 104.071 105.639ZM108.252 103.911C108.805 103.911 109.206 104.049 109.454 104.325C109.701 104.596 109.825 105.011 109.825 105.57C109.825 105.732 109.802 106.481 109.756 107.818L110.482 107.887C110.482 108.048 110.433 108.221 110.335 108.405H108.347L108.321 108.103C108.586 108.011 108.846 107.942 109.099 107.895C109.065 106.386 109.033 105.547 109.004 105.38C108.981 105.207 108.941 105.057 108.883 104.931C108.825 104.804 108.739 104.714 108.624 104.663C108.509 104.611 108.356 104.585 108.166 104.585C107.785 104.585 107.417 104.677 107.059 104.861C107.025 106.175 107.002 107.161 106.99 107.818L107.716 107.887C107.716 108.048 107.667 108.221 107.569 108.405H105.581L105.555 108.103C105.82 108.011 106.08 107.942 106.333 107.895C106.299 106.432 106.27 105.348 106.247 104.645C105.93 104.628 105.676 104.593 105.486 104.542L105.521 104.092C105.832 104.006 106.284 103.962 106.878 103.962C106.947 104.066 106.999 104.216 107.033 104.412C107.281 104.279 107.529 104.164 107.777 104.066C108.03 103.962 108.189 103.911 108.252 103.911ZM111.521 107.869L111.452 104.611H110.787L110.761 104.308C110.818 104.268 110.985 104.193 111.262 104.083L111.971 102.977C112.086 102.989 112.175 103.017 112.239 103.063L112.23 104.014C112.662 104.014 113.017 104.043 113.293 104.101C113.293 104.256 113.244 104.426 113.146 104.611H112.213C112.201 105.302 112.19 106.351 112.178 107.757C112.501 107.774 112.824 107.832 113.146 107.93L113.138 108.233C113.057 108.284 112.85 108.345 112.515 108.414C112.187 108.483 111.916 108.518 111.703 108.518C111.674 108.472 111.637 108.374 111.59 108.224C111.544 108.068 111.521 107.95 111.521 107.869Z" fill="#333333"/>
<path d="M56.547 83.918H114.172V98.324H56.547V83.918Z" fill="#F8CECC"/>
<path d="M56.547 83.918H114.172V98.324H56.547V83.918Z" stroke="#B85450" stroke-width="0.720329" stroke-miterlimit="10"/>
<path d="M61.8768 88.1296C61.9805 88.095 62.2629 88.0576 62.7239 88.0172C63.1849 87.9711 63.6027 87.9481 63.9773 87.9481C64.3576 87.9481 64.6515 87.9654 64.859 87.9999C64.8647 88.023 64.8676 88.0518 64.8676 88.0864C64.8676 88.1152 64.8503 88.1872 64.8158 88.3025C64.7869 88.4177 64.7639 88.4926 64.7466 88.5272C64.7005 88.5733 64.5708 88.6079 64.3576 88.6309L66.0086 93.4111L66.8298 93.4802C66.8298 93.6416 66.7808 93.8144 66.6828 93.9988H64.6947L64.6688 93.6963C64.8013 93.6272 64.9944 93.5666 65.248 93.5148L64.8071 92.2787H62.3955L61.9892 93.4111L62.6893 93.4802C62.6893 93.6416 62.6404 93.8144 62.5424 93.9988H60.5543L60.5284 93.6963C60.7531 93.6156 60.9922 93.5522 61.2458 93.5061L62.9227 88.605C62.4099 88.5474 62.0497 88.4782 61.8422 88.3976L61.8768 88.1296ZM64.1242 90.3511L63.6661 88.6569C63.6315 88.6511 63.5826 88.6482 63.5192 88.6482L63.0524 90.4116L62.551 91.7255H64.6515L64.1242 90.3511ZM68.7423 88.7865C68.5925 88.8211 68.4456 88.8384 68.3015 88.8384C68.1632 88.8384 68.0249 88.8298 67.8866 88.8125C67.852 88.6511 67.8347 88.4898 67.8347 88.3284C67.8347 88.1613 67.8405 88.0374 67.852 87.9567C67.9788 87.9279 68.1113 87.9135 68.2496 87.9135C68.3937 87.9135 68.5464 87.9193 68.7078 87.9308C68.7423 88.0806 68.7596 88.2276 68.7596 88.3716C68.7596 88.5099 68.7539 88.6482 68.7423 88.7865ZM67.1691 89.6942C67.659 89.6077 68.0393 89.5645 68.3101 89.5645C68.581 89.5645 68.7539 89.5703 68.8288 89.5818C68.8288 89.7201 68.8115 89.8728 68.7769 90.0399C68.7423 90.207 68.7222 90.2877 68.7164 90.2819L68.6386 93.4111L69.3647 93.4802C69.3647 93.6416 69.3157 93.8144 69.2178 93.9988H67.2296L67.2037 93.6963C67.4688 93.6041 67.7281 93.5349 67.9817 93.4888C67.9471 92.0482 67.9183 90.9677 67.8952 90.2474C67.561 90.2474 67.3074 90.2128 67.1346 90.1436L67.1691 89.6942ZM72.4991 90.2301C72.4703 90.2013 72.4069 90.1869 72.309 90.1869C72.211 90.1869 72.0641 90.2214 71.8681 90.2906C71.678 90.3597 71.5051 90.4404 71.3495 90.5326C71.3149 91.8119 71.2919 92.7714 71.2803 93.4111L72.0064 93.4802C72.0064 93.6416 71.9575 93.8144 71.8595 93.9988H69.8714L69.8455 93.6963C70.1105 93.6041 70.3699 93.5349 70.6234 93.4888C70.5888 92.0251 70.56 90.9418 70.537 90.2387C70.22 90.2214 69.9665 90.1869 69.7763 90.135L69.8109 89.6855C70.1163 89.5991 70.5687 89.5559 71.168 89.5559C71.2602 89.6999 71.3178 89.8843 71.3409 90.1091C72.0036 89.7057 72.3983 89.504 72.5251 89.504C72.6519 89.504 72.7988 89.5299 72.9659 89.5818C73.133 89.6279 73.2569 89.6797 73.3376 89.7374C73.3376 90.3136 73.2829 90.7833 73.1734 91.1463C73.0927 91.1694 72.9976 91.1809 72.8881 91.1809C72.7844 91.1809 72.7124 91.178 72.672 91.1723L72.4991 90.2301ZM76.6156 88.9248L76.4773 88.9162H76.4427L76.1747 88.0691C76.0479 88.046 75.9356 88.0345 75.8376 88.0345C75.5552 88.0345 75.3564 88.144 75.2412 88.363C75.1317 88.582 75.0769 88.9652 75.0769 89.5126V89.6164H75.2066C75.6042 89.6164 75.9096 89.6394 76.1228 89.6855C76.1286 89.6855 76.1401 89.6884 76.1574 89.6942C76.1517 89.8613 76.1027 90.0313 76.0105 90.2041H75.0251V93.4111H75.1547C75.3795 93.4111 75.5783 93.4226 75.7512 93.4456C75.924 93.4687 76.0162 93.486 76.0278 93.4975C76.0278 93.6473 75.9788 93.8144 75.8808 93.9988H73.6161L73.5902 93.6963C73.8553 93.6041 74.0973 93.5349 74.3163 93.4888V90.2041H73.6507L73.6247 89.9016C73.8322 89.8209 74.0627 89.7575 74.3163 89.7114V89.357C74.3163 88.7059 74.4373 88.2304 74.6793 87.9308C74.7773 87.8155 74.9156 87.7205 75.0942 87.6455C75.2729 87.5649 75.4803 87.5245 75.7166 87.5245C76.1776 87.5245 76.6156 87.6254 77.0305 87.8271C77.0305 88.1843 76.9959 88.5416 76.9267 88.8989C76.8633 88.9162 76.7596 88.9248 76.6156 88.9248ZM78.9076 93.5839C79.3917 93.5839 79.7173 93.4341 79.8844 93.1344C80.0573 92.829 80.1437 92.3968 80.1437 91.8379C80.1437 90.9504 79.9478 90.3943 79.5559 90.1696C79.3946 90.0774 79.1669 90.0313 78.873 90.0313C78.5849 90.0313 78.3112 90.0918 78.0519 90.2128C77.8214 90.6565 77.7061 91.1723 77.7061 91.7601C77.7061 92.3248 77.781 92.7599 77.9309 93.0653C78.1037 93.4111 78.4293 93.5839 78.9076 93.5839ZM76.9109 91.8379C76.9109 91.106 77.078 90.5355 77.4122 90.1264C77.7464 89.7114 78.2622 89.504 78.9595 89.504C79.6568 89.504 80.161 89.6942 80.4722 90.0745C80.7834 90.4491 80.9389 91.0052 80.9389 91.7428C80.9389 92.4804 80.7718 93.0595 80.4376 93.4802C80.1091 93.9009 79.6078 94.1112 78.9336 94.1112C78.2593 94.1112 77.7522 93.9153 77.4122 93.5234C77.078 93.1316 76.9109 92.5697 76.9109 91.8379ZM83.118 88.7865C82.9681 88.8211 82.8212 88.8384 82.6771 88.8384C82.5388 88.8384 82.4005 88.8298 82.2622 88.8125C82.2276 88.6511 82.2103 88.4898 82.2103 88.3284C82.2103 88.1613 82.2161 88.0374 82.2276 87.9567C82.3544 87.9279 82.487 87.9135 82.6253 87.9135C82.7693 87.9135 82.922 87.9193 83.0834 87.9308C83.118 88.0806 83.1353 88.2276 83.1353 88.3716C83.1353 88.5099 83.1295 88.6482 83.118 88.7865ZM81.5448 89.6942C82.0346 89.6077 82.4149 89.5645 82.6858 89.5645C82.9566 89.5645 83.1295 89.5703 83.2044 89.5818C83.2044 89.7201 83.1871 89.8728 83.1525 90.0399C83.118 90.207 83.0978 90.2877 83.092 90.2819L83.0142 93.4111L83.7403 93.4802C83.7403 93.6416 83.6913 93.8144 83.5934 93.9988H81.6053L81.5793 93.6963C81.8444 93.6041 82.1037 93.5349 82.3573 93.4888C82.3227 92.0482 82.2939 90.9677 82.2709 90.2474C81.9366 90.2474 81.6831 90.2128 81.5102 90.1436L81.5448 89.6942ZM85.388 87.5764C85.5667 87.5764 85.6934 87.5821 85.7683 87.5937C85.7683 87.7954 85.7309 88.0259 85.656 88.2852C85.6041 91.6851 85.5782 93.3938 85.5782 93.4111L86.3043 93.4802C86.3043 93.6416 86.2553 93.8144 86.1573 93.9988H84.1692L84.1433 93.6963C84.4084 93.6041 84.6677 93.5349 84.9212 93.4888L84.8348 88.2593C84.5179 88.242 84.2643 88.2074 84.0741 88.1555L84.1087 87.706C84.4026 87.6196 84.829 87.5764 85.388 87.5764ZM91.1768 93.4197C92.0354 93.4197 92.4647 93.0711 92.4647 92.3738C92.4647 92.0338 92.2544 91.7457 91.8337 91.5094C91.6435 91.3999 91.4332 91.2962 91.2027 91.1982C90.9779 91.1002 90.7503 90.9936 90.5198 90.8784C90.2893 90.7631 90.079 90.6392 89.8888 90.5067C89.7044 90.3741 89.5517 90.207 89.4307 90.0053C89.3154 89.8036 89.2578 89.576 89.2578 89.3225C89.2578 88.9076 89.4249 88.556 89.7591 88.2679C90.0991 87.974 90.563 87.8271 91.1508 87.8271C91.7386 87.8271 92.3581 88.0057 93.0093 88.363C93.0093 88.6915 92.9689 89.1035 92.8883 89.5991C92.7615 89.6164 92.5944 89.625 92.3869 89.625L92.1276 88.6223C92.0584 88.5877 91.9201 88.5532 91.7127 88.5186C91.511 88.484 91.3323 88.4667 91.1768 88.4667C90.8425 88.4667 90.5832 88.5387 90.3988 88.6828C90.2144 88.8211 90.1222 89.017 90.1222 89.2706C90.1222 89.5184 90.2288 89.7431 90.442 89.9448C90.661 90.1408 90.9232 90.3108 91.2286 90.4548C91.5398 90.5931 91.8481 90.7372 92.1535 90.887C92.4647 91.0368 92.7269 91.2328 92.9401 91.4748C93.1591 91.7111 93.2686 91.9877 93.2686 92.3046C93.2686 92.8809 93.0755 93.3275 92.6894 93.6444C92.3034 93.9556 91.7991 94.1112 91.1768 94.1112C90.8368 94.1112 90.468 94.0593 90.0703 93.9556C89.6785 93.8461 89.3529 93.7078 89.0936 93.5407C89.1051 93.1546 89.1483 92.708 89.2232 92.2009C89.35 92.1836 89.5171 92.175 89.7246 92.175L89.9061 93.2122C90.0329 93.2641 90.223 93.3131 90.4766 93.3592C90.7359 93.3995 90.9693 93.4197 91.1768 93.4197ZM95.181 87.5764C95.3596 87.5764 95.4864 87.5821 95.5613 87.5937C95.5613 87.6974 95.544 87.8328 95.5095 87.9999C95.4807 88.1613 95.4605 88.2564 95.449 88.2852C95.449 88.412 95.4432 88.6742 95.4317 89.0718C95.4201 89.4694 95.4144 89.7777 95.4144 89.9967C95.6622 89.8642 95.9071 89.7489 96.1491 89.6509C96.3969 89.553 96.5525 89.504 96.6159 89.504C97.1691 89.504 97.5696 89.6423 97.8174 89.9189C98.0652 90.1897 98.1891 90.6047 98.1891 91.1636C98.1891 91.325 98.166 92.0741 98.1199 93.4111L98.846 93.4802C98.846 93.6416 98.7971 93.8144 98.6991 93.9988H96.711L96.685 93.6963C96.9501 93.6041 97.2094 93.5349 97.463 93.4888C97.4284 91.979 97.3967 91.1406 97.3679 90.9735C97.3449 90.8006 97.3045 90.6508 97.2469 90.524C97.1893 90.3972 97.1028 90.3079 96.9876 90.256C96.8723 90.2041 96.7196 90.1782 96.5295 90.1782C96.1376 90.1782 95.763 90.2704 95.4057 90.4548L95.3539 93.4111L96.08 93.4802C96.08 93.6416 96.031 93.8144 95.933 93.9988H93.9449L93.919 93.6963C94.1841 93.6041 94.4434 93.5349 94.6969 93.4888L94.5932 88.2593C94.2763 88.242 94.0227 88.2074 93.8325 88.1555L93.8671 87.706C94.161 87.6196 94.599 87.5764 95.181 87.5764ZM102.781 91.1723L102.737 93.4024C102.985 93.4197 103.233 93.46 103.481 93.5234L103.464 93.826C103.371 93.8721 103.204 93.9239 102.962 93.9816C102.726 94.0334 102.493 94.0593 102.262 94.0593C102.158 93.8519 102.101 93.6531 102.089 93.4629C101.432 93.8951 100.971 94.1112 100.706 94.1112C100.297 94.1112 99.9685 94.0017 99.7207 93.7827C99.4729 93.5638 99.349 93.2583 99.349 92.8665C99.349 91.9617 99.9022 91.495 101.009 91.4662C101.654 91.4489 101.98 91.4402 101.985 91.4402L101.977 91.1463C101.965 90.7487 101.89 90.4635 101.752 90.2906C101.614 90.1119 101.366 90.0226 101.009 90.0226C100.859 90.0226 100.697 90.0572 100.525 90.1264L100.317 90.9907C100.288 90.9965 100.239 90.9994 100.17 90.9994L99.8158 90.9735C99.7236 90.7257 99.6746 90.3828 99.6688 89.9448C99.7783 89.8872 100.029 89.8008 100.421 89.6855C100.813 89.5645 101.063 89.504 101.173 89.504C101.761 89.504 102.176 89.6336 102.418 89.893C102.66 90.1523 102.781 90.5787 102.781 91.1723ZM100.896 93.5234C101.063 93.5234 101.449 93.3361 102.055 92.9616L102.011 91.8811C101.619 91.9156 101.291 91.9473 101.026 91.9762C100.761 92.005 100.548 92.0828 100.386 92.2095C100.225 92.3306 100.144 92.5236 100.144 92.7887C100.144 93.2785 100.395 93.5234 100.896 93.5234ZM105.323 93.558L105.279 95.4078L106.031 95.4683C106.031 95.6297 105.982 95.8025 105.884 95.9869H103.879L103.853 95.6844C104.118 95.598 104.377 95.5317 104.631 95.4856C104.596 93.1344 104.568 91.3855 104.545 90.2387C104.285 90.233 104.032 90.1984 103.784 90.135L103.818 89.6855C104.153 89.5991 104.619 89.5559 105.219 89.5559C105.271 89.6481 105.32 89.8181 105.366 90.0658C106.103 89.6913 106.57 89.504 106.766 89.504C107.302 89.504 107.7 89.7143 107.959 90.135C108.218 90.5499 108.348 91.0916 108.348 91.7601C108.348 92.4228 108.201 92.9789 107.907 93.4283C107.619 93.8778 107.198 94.1026 106.645 94.1026C106.438 94.1026 106.21 94.0507 105.962 93.947C105.72 93.8432 105.507 93.7136 105.323 93.558ZM106.61 90.1523C106.253 90.1523 105.838 90.2791 105.366 90.5326C105.354 91.6045 105.343 92.4084 105.331 92.9443C105.475 93.0883 105.665 93.2209 105.902 93.3419C106.144 93.4572 106.354 93.5148 106.533 93.5148C107.213 93.5148 107.553 92.9558 107.553 91.8379C107.553 91.4114 107.504 91.0772 107.406 90.8352C107.308 90.5874 107.195 90.4116 107.069 90.3079C106.942 90.2041 106.789 90.1523 106.61 90.1523ZM111.167 93.5148C111.42 93.5148 111.818 93.3938 112.36 93.1517C112.469 93.3016 112.527 93.4341 112.532 93.5494C112.239 93.7222 111.95 93.8577 111.668 93.9556C111.386 94.0536 111.184 94.1026 111.063 94.1026C110.395 94.1026 109.885 93.9038 109.533 93.5061C109.181 93.1028 109.006 92.5409 109.006 91.8206C109.006 91.1002 109.176 90.5355 109.516 90.1264C109.861 89.7114 110.377 89.504 111.063 89.504C111.593 89.504 111.997 89.6942 112.273 90.0745C112.555 90.4548 112.697 90.9648 112.697 91.6045C112.651 91.6851 112.613 91.7399 112.584 91.7687L109.801 91.7255C109.807 92.3075 109.908 92.7512 110.103 93.0567C110.305 93.3621 110.66 93.5148 111.167 93.5148ZM111.91 91.2328C111.91 90.8524 111.841 90.5585 111.703 90.3511C111.564 90.1379 111.334 90.0313 111.011 90.0313C110.688 90.0313 110.4 90.0918 110.147 90.2128C109.974 90.5585 109.864 90.913 109.818 91.276C110.273 91.2702 110.971 91.2558 111.91 91.2328Z" fill="black"/>
<path d="M56.547 55.105H114.172V69.511H56.547V55.105Z" fill="#D5E8D4"/>
<path d="M56.547 55.105H114.172V69.511H56.547V55.105Z" stroke="#82B366" stroke-width="0.720329" stroke-miterlimit="10"/>
<path d="M65.3716 65.298C63.6774 65.298 62.8303 64.2348 62.8303 62.1084C62.8303 61.1 63.0348 60.3335 63.444 59.8091C63.8589 59.2847 64.5187 59.0225 65.4234 59.0225C66.1495 59.0225 66.7949 59.2242 67.3597 59.6276C67.3597 59.9503 67.3193 60.3595 67.2387 60.8551C67.158 60.8723 66.9909 60.881 66.7373 60.881L66.478 59.8091C66.0689 59.7342 65.7404 59.6968 65.4926 59.6968C65.0373 59.6968 64.6368 59.7602 64.2911 59.8869L64.1269 59.9474C64.0923 60.0051 64.0491 60.0915 63.9972 60.2068C63.9453 60.3162 63.8762 60.5496 63.7897 60.9069C63.7091 61.2642 63.6687 61.6301 63.6687 62.0047C63.6687 62.8172 63.8013 63.4626 64.0663 63.9409C64.3372 64.4192 64.7665 64.6584 65.3543 64.6584C65.775 64.6584 66.0919 64.6152 66.3051 64.5287C66.3628 64.4999 66.4463 64.4567 66.5558 64.3991L66.7373 63.3618L67.2387 63.3877C67.3251 63.9813 67.3683 64.4625 67.3683 64.8313C67.2473 64.9235 66.9851 65.0243 66.5817 65.1338C66.1841 65.2433 65.7807 65.298 65.3716 65.298ZM69.6142 62.4801L69.571 64.6065L70.2971 64.667C70.2971 64.8284 70.2481 65.0013 70.1501 65.1857H68.162L68.1361 64.8831C68.3896 64.7909 68.6346 64.7247 68.8708 64.6843C68.8362 62.4369 68.8074 60.7657 68.7844 59.6708C68.6576 59.6593 68.4041 59.5902 68.0237 59.4634L68.0669 59.1349H72.2333C72.2448 59.2098 72.2506 59.3251 72.2506 59.4807C72.2506 59.7918 72.2103 60.1376 72.1296 60.5179C72.0028 60.541 71.8357 60.5525 71.6282 60.5525L71.4208 59.7313H69.6488C69.6373 60.2154 69.6257 60.9415 69.6142 61.9096H70.9799L71.0491 61.2872C71.2105 61.2872 71.3833 61.3362 71.5677 61.4342V63.0765L71.2652 63.1025C71.1788 62.8547 71.1211 62.6472 71.0923 62.4801H69.6142ZM77.9873 62.022C77.9873 63.3243 77.6905 64.2089 77.097 64.6757C76.8492 64.8716 76.5812 65.007 76.2931 65.0819C76.0049 65.1511 75.6275 65.1857 75.1607 65.1857H72.9652L72.9392 64.8831C72.9623 64.8658 73.0804 64.8284 73.2936 64.7708C73.5068 64.7131 73.6336 64.6843 73.674 64.6843C73.6394 62.4369 73.6106 60.7657 73.5875 59.6708C73.3282 59.6363 73.0746 59.5671 72.8268 59.4634C72.8384 59.2674 72.8528 59.158 72.8701 59.1349H75.0483C75.6477 59.1349 76.1202 59.1897 76.466 59.2991C76.8175 59.4086 77.1229 59.6103 77.3822 59.9042C77.7856 60.3479 77.9873 61.0539 77.9873 62.022ZM77.1488 62.0911C77.1488 61.3132 77.0019 60.7283 76.708 60.3364C76.4198 59.9388 75.9329 59.74 75.2472 59.74H74.3655C74.3424 60.8003 74.3136 62.4196 74.279 64.5979H75.1866C75.9761 64.5979 76.5005 64.4221 76.7598 64.0706C77.0192 63.7133 77.1488 63.0535 77.1488 62.0911ZM83.0505 64.6065C83.9092 64.6065 84.3385 64.2579 84.3385 63.5606C84.3385 63.2206 84.1282 62.9325 83.7075 62.6962C83.5173 62.5867 83.307 62.483 83.0765 62.385C82.8517 62.2871 82.6241 62.1805 82.3936 62.0652C82.1631 61.95 81.9528 61.8261 81.7626 61.6935C81.5782 61.561 81.4255 61.3939 81.3045 61.1922C81.1892 60.9905 81.1316 60.7628 81.1316 60.5093C81.1316 60.0944 81.2987 59.7429 81.6329 59.4547C81.9729 59.1608 82.4368 59.0139 83.0246 59.0139C83.6124 59.0139 84.2319 59.1925 84.8831 59.5498C84.8831 59.8783 84.8427 60.2903 84.762 60.7859C84.6353 60.8032 84.4682 60.8118 84.2607 60.8118L84.0014 59.8091C83.9322 59.7746 83.7939 59.74 83.5865 59.7054C83.3848 59.6708 83.2061 59.6535 83.0505 59.6535C82.7163 59.6535 82.457 59.7256 82.2726 59.8696C82.0882 60.0079 81.996 60.2039 81.996 60.4574C81.996 60.7052 82.1026 60.93 82.3158 61.1317C82.5348 61.3276 82.797 61.4976 83.1024 61.6417C83.4136 61.78 83.7219 61.924 84.0273 62.0738C84.3385 62.2237 84.6007 62.4196 84.8139 62.6616C85.0329 62.8979 85.1424 63.1745 85.1424 63.4915C85.1424 64.0677 84.9493 64.5143 84.5632 64.8313C84.1771 65.1424 83.6729 65.298 83.0505 65.298C82.7106 65.298 82.3417 65.2462 81.9441 65.1424C81.5523 65.033 81.2267 64.8947 80.9674 64.7275C80.9789 64.3414 81.0221 63.8948 81.097 63.3877C81.2238 63.3704 81.3909 63.3618 81.5984 63.3618L81.7799 64.3991C81.9067 64.4509 82.0968 64.4999 82.3504 64.546C82.6097 64.5864 82.8431 64.6065 83.0505 64.6065ZM87.8414 64.7708C88.3254 64.7708 88.651 64.6209 88.8182 64.3213C88.991 64.0159 89.0775 63.5837 89.0775 63.0247C89.0775 62.1372 88.8815 61.5811 88.4897 61.3564C88.3283 61.2642 88.1007 61.2181 87.8068 61.2181C87.5187 61.2181 87.245 61.2786 86.9856 61.3996C86.7551 61.8433 86.6399 62.3591 86.6399 62.9469C86.6399 63.5116 86.7148 63.9467 86.8646 64.2521C87.0375 64.5979 87.3631 64.7708 87.8414 64.7708ZM85.8446 63.0247C85.8446 62.2928 86.0117 61.7223 86.346 61.3132C86.6802 60.8983 87.196 60.6908 87.8932 60.6908C88.5905 60.6908 89.0948 60.881 89.4059 61.2613C89.7171 61.6359 89.8727 62.192 89.8727 62.9296C89.8727 63.6672 89.7056 64.2464 89.3714 64.667C89.0429 65.0877 88.5415 65.298 87.8673 65.298C87.1931 65.298 86.686 65.1021 86.346 64.7103C86.0117 64.3184 85.8446 63.7565 85.8446 63.0247ZM91.6628 58.7632C91.8414 58.7632 91.9682 58.769 92.0431 58.7805C92.0431 58.9822 92.0056 59.2127 91.9307 59.472C91.8789 62.872 91.8529 64.5806 91.8529 64.5979L92.579 64.667C92.579 64.8284 92.53 65.0013 92.4321 65.1857H90.444L90.418 64.8831C90.6831 64.7909 90.9424 64.7218 91.196 64.6757L91.1095 59.4461C90.7926 59.4288 90.539 59.3942 90.3489 59.3424L90.3834 58.8929C90.6773 58.8064 91.1038 58.7632 91.6628 58.7632ZM97.2547 61.3737L95.5691 65.1857H94.9554L93.3736 61.3823L92.6475 61.3132C92.6475 61.1518 92.6965 60.9789 92.7944 60.7945H94.8863L94.9122 61.0971C94.7278 61.1778 94.5232 61.2411 94.2985 61.2872L95.0764 63.647L95.2752 64.4077H95.379L95.5951 63.6384L96.399 61.2872L95.6729 61.0971L95.6988 60.7945H97.8166C97.9145 60.9789 97.9635 61.1518 97.9635 61.3132C97.7272 61.342 97.491 61.3622 97.2547 61.3737ZM100.339 64.7016C100.593 64.7016 100.99 64.5806 101.532 64.3386C101.642 64.4884 101.699 64.6209 101.705 64.7362C101.411 64.9091 101.123 65.0445 100.841 65.1424C100.558 65.2404 100.357 65.2894 100.236 65.2894C99.5671 65.2894 99.0571 65.0906 98.7055 64.693C98.354 64.2896 98.1783 63.7277 98.1783 63.0074C98.1783 62.2871 98.3483 61.7223 98.6883 61.3132C99.034 60.8983 99.5498 60.6908 100.236 60.6908C100.766 60.6908 101.169 60.881 101.446 61.2613C101.728 61.6417 101.869 62.1516 101.869 62.7913C101.823 62.872 101.786 62.9267 101.757 62.9555L98.9735 62.9123C98.9793 63.4943 99.0801 63.9381 99.276 64.2435C99.4777 64.5489 99.8321 64.7016 100.339 64.7016ZM101.083 62.4196C101.083 62.0393 101.013 61.7454 100.875 61.5379C100.737 61.3247 100.506 61.2181 100.184 61.2181C99.861 61.2181 99.5728 61.2786 99.3193 61.3996C99.1464 61.7454 99.0369 62.0998 98.9908 62.4628C99.446 62.4571 100.143 62.4427 101.083 62.4196ZM105.221 61.4169C105.192 61.3881 105.128 61.3737 105.03 61.3737C104.933 61.3737 104.786 61.4083 104.59 61.4774C104.399 61.5466 104.227 61.6272 104.071 61.7194C104.036 62.9988 104.013 63.9582 104.002 64.5979L104.728 64.667C104.728 64.8284 104.679 65.0013 104.581 65.1857H102.593L102.567 64.8831C102.832 64.7909 103.091 64.7218 103.345 64.6757C103.31 63.212 103.282 62.1286 103.258 61.4256C102.942 61.4083 102.688 61.3737 102.498 61.3218L102.532 60.8723C102.838 60.7859 103.29 60.7427 103.889 60.7427C103.982 60.8867 104.039 61.0711 104.062 61.2959C104.725 60.8925 105.12 60.6908 105.247 60.6908C105.373 60.6908 105.52 60.7167 105.687 60.7686C105.855 60.8147 105.978 60.8666 106.059 60.9242C106.059 61.5005 106.004 61.9701 105.895 62.3332C105.814 62.3562 105.719 62.3677 105.61 62.3677C105.506 62.3677 105.434 62.3649 105.394 62.3591L105.221 61.4169Z" fill="black"/>
<path d="M85.359 83.918V74.102" stroke="black" stroke-width="0.720329" stroke-miterlimit="10"/>
<path d="M85.359 70.32L87.879 75.359L85.359 74.102L82.836 75.359L85.359 70.32Z" fill="black"/>
<path d="M85.359 70.32L87.879 75.359L85.359 74.102L82.836 75.359L85.359 70.32Z" stroke="black" stroke-width="0.720329" stroke-miterlimit="10"/>
<path d="M56.188 0.359009H114.531C114.961 0.359009 115.375 0.441009 115.773 0.605009C116.168 0.770009 116.52 1.00401 116.824 1.30901C117.129 1.61301 117.363 1.96501 117.527 2.35901C117.691 2.75801 117.773 3.17201 117.773 3.60201V18.73C117.773 19.16 117.691 19.57 117.527 19.969C117.363 20.367 117.129 20.715 116.824 21.02C116.52 21.324 116.168 21.559 115.773 21.723C115.375 21.887 114.961 21.969 114.531 21.969H56.188C55.754 21.969 55.344 21.887 54.945 21.723C54.547 21.559 54.199 21.324 53.895 21.02C53.59 20.715 53.355 20.367 53.191 19.969C53.027 19.57 52.945 19.16 52.945 18.73V3.60201C52.945 3.17201 53.027 2.75801 53.191 2.35901C53.355 1.96501 53.59 1.61301 53.895 1.30901C54.199 1.00401 54.547 0.770009 54.945 0.605009C55.344 0.441009 55.754 0.359009 56.188 0.359009Z" fill="#DAE8FC"/>
<path d="M56.188 0.359009H114.531C114.961 0.359009 115.375 0.441009 115.773 0.605009C116.168 0.770009 116.52 1.00401 116.824 1.30901C117.129 1.61301 117.363 1.96501 117.527 2.35901C117.691 2.75801 117.773 3.17201 117.773 3.60201V18.73C117.773 19.16 117.691 19.57 117.527 19.969C117.363 20.367 117.129 20.715 116.824 21.02C116.52 21.324 116.168 21.559 115.773 21.723C115.375 21.887 114.961 21.969 114.531 21.969H56.188C55.754 21.969 55.344 21.887 54.945 21.723C54.547 21.559 54.199 21.324 53.895 21.02C53.59 20.715 53.355 20.367 53.191 19.969C53.027 19.57 52.945 19.16 52.945 18.73V3.60201C52.945 3.17201 53.027 2.75801 53.191 2.35901C53.355 1.96501 53.59 1.61301 53.895 1.30901C54.199 1.00401 54.547 0.770009 54.945 0.605009C55.344 0.441009 55.754 0.359009 56.188 0.359009Z" stroke="#6C8EBF" stroke-width="0.720329" stroke-miterlimit="10"/>
<path d="M70.6926 8.68305C70.5081 8.62542 70.2632 8.59661 69.9578 8.59661H69.2404L69.2144 10.7749L69.8714 10.7662C70.2978 10.7605 70.6378 10.674 70.8914 10.5069C71.1449 10.3398 71.2717 10.0229 71.2717 9.55609C71.2717 9.08355 71.0786 8.79254 70.6926 8.68305ZM69.2058 11.3281L69.1799 13.4632L69.8973 13.5237C69.8973 13.685 69.8483 13.8579 69.7504 14.0423H67.7623L67.7363 13.7398C67.9784 13.6533 68.2261 13.587 68.4797 13.5409C68.4451 11.3511 68.4163 9.67998 68.3933 8.52746C68.2319 8.50441 67.9784 8.43526 67.6326 8.32C67.6326 8.24509 67.647 8.1356 67.6758 7.99153H69.6207C70.6753 7.99153 71.361 8.12119 71.678 8.38051C71.9891 8.6283 72.1447 9.01728 72.1447 9.54744C72.1447 10.4407 71.6549 11.0198 70.6753 11.2849L72.1534 13.4718L72.8708 13.5323C72.8708 13.6879 72.8218 13.8579 72.7239 14.0423H71.6607L69.8454 11.3281H69.2058ZM77.7914 12.6852C77.8087 12.7198 77.8317 12.8523 77.8605 13.0828C77.8951 13.3133 77.9124 13.5093 77.9124 13.6706C77.9124 13.8262 77.9038 13.9501 77.8865 14.0423H73.7806L73.7547 13.7398C74.0255 13.6418 74.2704 13.5755 74.4894 13.5409C74.4548 11.2705 74.426 9.59643 74.403 8.51881C74.2531 8.49576 73.9996 8.42661 73.6423 8.31136L73.6855 7.99153H75.7687C75.8667 8.15289 75.9157 8.32288 75.9157 8.50153C75.6045 8.51305 75.3797 8.5217 75.2414 8.52746C75.2299 9.63388 75.2184 10.6423 75.2069 11.5528C75.2011 12.4576 75.1953 13.0943 75.1896 13.4632H77.0826L77.29 12.642C77.5782 12.642 77.7453 12.6564 77.7914 12.6852ZM81.7984 8.17306C81.9021 8.13848 82.1845 8.10102 82.6455 8.06069C83.1065 8.01458 83.5243 7.99153 83.8989 7.99153C84.2792 7.99153 84.5731 8.00882 84.7806 8.0434C84.7863 8.06645 84.7892 8.09526 84.7892 8.12984C84.7892 8.15865 84.7719 8.23068 84.7373 8.34594C84.7085 8.46119 84.6855 8.5361 84.6682 8.57068C84.6221 8.61678 84.4924 8.65136 84.2792 8.67441L85.9302 13.4545L86.7514 13.5237C86.7514 13.685 86.7024 13.8579 86.6044 14.0423H84.6163L84.5904 13.7398C84.7229 13.6706 84.916 13.6101 85.1695 13.5582L84.7287 12.3222H82.317L81.9108 13.4545L82.6109 13.5237C82.6109 13.685 82.562 13.8579 82.464 14.0423H80.4759L80.4499 13.7398C80.6747 13.6591 80.9138 13.5957 81.1674 13.5496L82.8443 8.64847C82.3314 8.59085 81.9713 8.5217 81.7638 8.44102L81.7984 8.17306ZM84.0458 10.3946L83.5877 8.70034C83.5531 8.69457 83.5041 8.69169 83.4408 8.69169L82.974 10.4551L82.4726 11.7689H84.5731L84.0458 10.3946ZM89.39 13.515L90.1593 13.4977C90.9546 13.4977 91.3522 13.8262 91.3522 14.4831C91.3522 14.7886 91.2197 15.0709 90.9546 15.3302C90.6953 15.5953 90.3841 15.7941 90.021 15.9267C89.658 16.0592 89.318 16.1255 89.001 16.1255C88.6899 16.1255 88.3988 16.0794 88.128 15.9872C87.8572 15.9007 87.6267 15.7567 87.4365 15.555C87.2463 15.3533 87.1512 15.1199 87.1512 14.8548C87.1512 14.7914 87.2521 14.6243 87.4538 14.3535C87.6612 14.0884 87.7966 13.9328 87.86 13.8867C87.8082 13.8521 87.7073 13.7542 87.5575 13.5928C87.4077 13.4257 87.3241 13.3104 87.3068 13.2471C87.4509 12.982 87.6785 12.7227 87.9897 12.4691C87.5287 12.1925 87.2982 11.7372 87.2982 11.1034C87.2982 10.5962 87.4595 10.2101 87.7822 9.94507C88.105 9.67998 88.5083 9.54744 88.9924 9.54744C89.4765 9.54744 89.851 9.62524 90.1161 9.78083C90.5771 9.68863 91.0295 9.64253 91.4732 9.64253C91.5827 9.64253 91.6374 9.7088 91.6374 9.84134C91.6374 10.0718 91.5942 10.2303 91.5078 10.3168L90.5137 10.1525C90.7212 10.4176 90.8249 10.7345 90.8249 11.1034C90.8249 11.6796 90.6549 12.0945 90.3149 12.3481C89.9749 12.5959 89.5571 12.7198 89.0615 12.7198C88.906 12.7198 88.7216 12.6996 88.5083 12.6593C88.4219 12.8379 88.3124 13.031 88.1799 13.2384C88.2836 13.4228 88.687 13.515 89.39 13.515ZM90.4878 15.1055C90.5454 14.9441 90.5742 14.777 90.5742 14.6042C90.5742 14.437 90.508 14.3016 90.3754 14.1979C90.2429 14.0942 90.0729 14.0423 89.8654 14.0423C89.0414 14.0423 88.5371 14.0337 88.3527 14.0164C88.1972 14.2642 88.0877 14.4716 88.0243 14.6387C87.9666 14.8116 87.9378 14.9096 87.9378 14.9326C87.9378 15.1574 88.0444 15.3245 88.2577 15.434C88.4709 15.5435 88.7158 15.5982 88.9924 15.5982C89.2748 15.5982 89.5571 15.5521 89.8395 15.4599C90.1276 15.3677 90.3437 15.2496 90.4878 15.1055ZM90.047 11.1379C90.047 10.4234 89.7185 10.0661 89.0615 10.0661C88.4046 10.0661 88.0761 10.4118 88.0761 11.1034C88.0761 11.4549 88.1626 11.7257 88.3355 11.9159C88.5083 12.1061 88.759 12.2011 89.0875 12.2011C89.7271 12.2011 90.047 11.8467 90.047 11.1379ZM94.3009 13.5582C94.5544 13.5582 94.952 13.4372 95.4937 13.1952C95.6032 13.345 95.6608 13.4776 95.6666 13.5928C95.3727 13.7657 95.0846 13.9011 94.8022 13.9991C94.5198 14.097 94.3181 14.146 94.1971 14.146C93.5287 14.146 93.0187 13.9472 92.6672 13.5496C92.3156 13.1462 92.1399 12.5844 92.1399 11.864C92.1399 11.1437 92.3099 10.579 92.6499 10.1698C92.9956 9.7549 93.5114 9.54744 94.1971 9.54744C94.7273 9.54744 95.1307 9.73761 95.4073 10.1179C95.6897 10.4983 95.8308 11.0083 95.8308 11.6479C95.7847 11.7286 95.7473 11.7833 95.7185 11.8122L92.9351 11.7689C92.9409 12.351 93.0417 12.7947 93.2377 13.1001C93.4393 13.4055 93.7938 13.5582 94.3009 13.5582ZM95.0442 11.2762C95.0442 10.8959 94.9751 10.602 94.8368 10.3946C94.6985 10.1813 94.468 10.0747 94.1453 10.0747C93.8226 10.0747 93.5344 10.1352 93.2809 10.2562C93.108 10.602 92.9985 10.9564 92.9524 11.3195C93.4077 11.3137 94.1049 11.2993 95.0442 11.2762ZM99.2255 9.54744C99.7787 9.54744 100.179 9.68575 100.427 9.96235C100.675 10.2332 100.799 10.6481 100.799 11.2071C100.799 11.3684 100.776 12.1176 100.73 13.4545L101.456 13.5237C101.456 13.685 101.407 13.8579 101.309 14.0423H99.3206L99.2946 13.7398C99.5597 13.6476 99.819 13.5784 100.073 13.5323C100.038 12.0225 100.006 11.184 99.9775 11.0169C99.9545 10.844 99.9141 10.6942 99.8565 10.5674C99.7989 10.4407 99.7124 10.3513 99.5972 10.2995C99.4819 10.2476 99.3292 10.2217 99.139 10.2217C98.7587 10.2217 98.3899 10.3139 98.0326 10.4983C97.998 11.8122 97.975 12.7976 97.9635 13.4545L98.6896 13.5237C98.6896 13.685 98.6406 13.8579 98.5426 14.0423H96.5545L96.5286 13.7398C96.7936 13.6476 97.053 13.5784 97.3065 13.5323C97.2719 12.0686 97.2431 10.9852 97.2201 10.2822C96.9031 10.2649 96.6496 10.2303 96.4594 10.1785L96.494 9.72897C96.8052 9.64253 97.2575 9.59931 97.8511 9.59931C97.9202 9.70304 97.9721 9.85286 98.0067 10.0488C98.2545 9.91625 98.5023 9.801 98.7501 9.70304C99.0036 9.59931 99.1621 9.54744 99.2255 9.54744ZM102.495 13.5064L102.426 10.2476H101.76L101.734 9.94507C101.792 9.90473 101.959 9.82981 102.235 9.72032L102.944 8.6139C103.059 8.62542 103.149 8.65424 103.212 8.70034L103.204 9.65117C103.636 9.65117 103.99 9.67998 104.267 9.73761C104.267 9.8932 104.218 10.0632 104.12 10.2476H103.186C103.175 10.9391 103.163 11.9879 103.152 13.394C103.474 13.4113 103.797 13.4689 104.12 13.5669L104.111 13.8694C104.03 13.9213 103.823 13.9818 103.489 14.0509C103.16 14.1201 102.889 14.1547 102.676 14.1547C102.647 14.1086 102.61 14.0106 102.564 13.8608C102.518 13.7052 102.495 13.587 102.495 13.5064Z" fill="black"/>
<path d="M85.453 46.664L85.375 26.559" stroke="black" stroke-width="0.720329" stroke-miterlimit="10"/>
<path d="M85.359 22.777L87.902 27.805L85.375 26.559L82.859 27.828L85.359 22.777Z" fill="black"/>
<path d="M85.359 22.777L87.902 27.805L85.375 26.559L82.859 27.828L85.359 22.777Z" stroke="black" stroke-width="0.720329" stroke-miterlimit="10"/>
<path d="M75.0427 33.0874C74.8736 33.0345 74.6491 33.0081 74.3692 33.0081H73.7115L73.6877 35.0049L74.2899 34.9969C74.6808 34.9917 74.9925 34.9124 75.2249 34.7592C75.4573 34.606 75.5736 34.3155 75.5736 33.8876C75.5736 33.4545 75.3966 33.1877 75.0427 33.0874ZM73.6798 35.512L73.656 37.4691L74.3137 37.5246C74.3137 37.6725 74.2688 37.831 74.179 38H72.3566L72.3328 37.7227C72.5547 37.6434 72.7818 37.5827 73.0142 37.5404C72.9825 35.5331 72.9561 34.0012 72.935 32.9447C72.7871 32.9236 72.5547 32.8602 72.2377 32.7546C72.2377 32.6859 72.2509 32.5855 72.2773 32.4535H74.0601C75.0268 32.4535 75.6554 32.5723 75.946 32.81C76.2312 33.0372 76.3738 33.3937 76.3738 33.8797C76.3738 34.6985 75.9248 35.2294 75.0268 35.4724L76.3818 37.477L77.0394 37.5325C77.0394 37.6751 76.9945 37.831 76.9047 38H75.9301L74.2662 35.512H73.6798ZM79.4977 37.5563C79.7302 37.5563 80.0946 37.4453 80.5912 37.2235C80.6915 37.3608 80.7444 37.4823 80.7497 37.588C80.4803 37.7464 80.2161 37.8706 79.9573 37.9604C79.6985 38.0502 79.5136 38.0951 79.4026 38.0951C78.7899 38.0951 78.3224 37.9128 78.0002 37.5484C77.6779 37.1786 77.5168 36.6635 77.5168 36.0032C77.5168 35.3429 77.6727 34.8253 77.9843 34.4502C78.3013 34.0699 78.774 33.8797 79.4026 33.8797C79.8886 33.8797 80.2584 34.054 80.5119 34.4027C80.7708 34.7513 80.9002 35.2188 80.9002 35.8052C80.8579 35.8791 80.8236 35.9293 80.7972 35.9557L78.2458 35.9161C78.2511 36.4496 78.3435 36.8564 78.5231 37.1363C78.708 37.4163 79.0329 37.5563 79.4977 37.5563ZM80.1792 35.4644C80.1792 35.1158 80.1158 34.8464 79.989 34.6562C79.8622 34.4608 79.6509 34.3631 79.3551 34.3631C79.0593 34.3631 78.7952 34.4185 78.5627 34.5295C78.4043 34.8464 78.3039 35.1713 78.2616 35.5041C78.679 35.4988 79.3181 35.4856 80.1792 35.4644ZM84.6458 34.886H84.6142L83.7109 38H82.9264L81.8409 34.5136L81.1753 34.4502C81.1753 34.3023 81.2202 34.1438 81.31 33.9748H83.1324L83.1562 34.2521C82.9872 34.3261 82.7996 34.3842 82.5936 34.4264L83.1562 36.5896L83.2988 37.2869H83.3781L83.5365 36.5817L84.3368 33.9748C84.4002 33.9695 84.4451 33.9669 84.4715 33.9669L85.0183 33.9827L85.8661 36.5896L86.0404 37.2869H86.1117L86.2385 36.5817L86.9041 34.4264L86.2385 34.2521L86.2623 33.9748H88.0451C88.1349 34.1438 88.1798 34.3023 88.1798 34.4502C87.9632 34.4766 87.7466 34.4951 87.53 34.5057L86.4445 38H85.6601L84.6458 34.886ZM91.5344 35.409L91.4948 37.4533C91.722 37.4691 91.9491 37.5061 92.1763 37.5642L92.1604 37.8415C92.0759 37.8838 91.9227 37.9313 91.7008 37.9842C91.4843 38.0317 91.2703 38.0555 91.059 38.0555C90.9639 37.8653 90.9111 37.6831 90.9006 37.5087C90.2984 37.9049 89.8758 38.103 89.6328 38.103C89.2577 38.103 88.9566 38.0026 88.7295 37.8019C88.5023 37.6012 88.3888 37.3212 88.3888 36.962C88.3888 36.1327 88.8959 35.7048 89.9101 35.6784C90.5017 35.6625 90.8002 35.6546 90.8055 35.6546L90.7975 35.3852C90.787 35.0207 90.7183 34.7592 90.5915 34.6008C90.4648 34.437 90.2376 34.3551 89.9101 34.3551C89.7728 34.3551 89.6249 34.3868 89.4664 34.4502L89.2762 35.2426C89.2498 35.2479 89.2049 35.2505 89.1415 35.2505L88.8166 35.2267C88.7321 34.9996 88.6872 34.6853 88.6819 34.2838C88.7823 34.231 89.0121 34.1518 89.3713 34.0461C89.7305 33.9352 89.9603 33.8797 90.0607 33.8797C90.5995 33.8797 90.9798 33.9986 91.2017 34.2363C91.4235 34.474 91.5344 34.8649 91.5344 35.409ZM89.8071 37.5642C89.9603 37.5642 90.3142 37.3925 90.8689 37.0492L90.8292 36.0587C90.47 36.0904 90.1689 36.1195 89.926 36.1459C89.683 36.1723 89.4875 36.2436 89.3396 36.3598C89.1917 36.4707 89.1177 36.6477 89.1177 36.8907C89.1177 37.3397 89.3475 37.5642 89.8071 37.5642ZM95.053 34.5453C95.0266 34.5189 94.9685 34.5057 94.8787 34.5057C94.7889 34.5057 94.6542 34.5374 94.4746 34.6008C94.3003 34.6642 94.1418 34.7381 93.9992 34.8226C93.9675 35.9953 93.9464 36.8748 93.9358 37.4612L94.6014 37.5246C94.6014 37.6725 94.5565 37.831 94.4667 38H92.6442L92.6205 37.7227C92.8635 37.6382 93.1012 37.5748 93.3336 37.5325C93.3019 36.1908 93.2755 35.1977 93.2544 34.5532C92.9638 34.5374 92.7314 34.5057 92.5571 34.4581L92.5888 34.0461C92.8687 33.9669 93.2834 33.9273 93.8328 33.9273C93.9173 34.0593 93.9701 34.2284 93.9913 34.4344C94.5987 34.0646 94.9606 33.8797 95.0768 33.8797C95.193 33.8797 95.3277 33.9035 95.4809 33.951C95.6341 33.9933 95.7477 34.0408 95.8216 34.0937C95.8216 34.6219 95.7714 35.0524 95.6711 35.3852C95.5971 35.4063 95.51 35.4169 95.4096 35.4169C95.3145 35.4169 95.2485 35.4143 95.2115 35.409L95.053 34.5453ZM98.9056 34.3314L98.8819 32.7466C98.5913 32.7308 98.3589 32.6991 98.1846 32.6516L98.2163 32.2395C98.4857 32.1603 98.8766 32.1207 99.389 32.1207C99.5527 32.1207 99.6689 32.126 99.7376 32.1365C99.7376 32.2316 99.7218 32.3584 99.6901 32.5169C99.6637 32.67 99.6452 32.7546 99.6346 32.7704L99.5633 37.4533C99.7799 37.4638 100.01 37.5008 100.253 37.5642L100.237 37.8415C99.8723 38.0106 99.5501 38.0951 99.2701 38.0951C99.212 38.0951 99.1671 38.0924 99.1354 38.0872C99.0932 38.0079 99.0403 37.8257 98.977 37.5404C98.3695 37.8838 97.9442 38.0687 97.7012 38.0951C97.1941 38.0951 96.8138 37.9023 96.5602 37.5167C96.3067 37.131 96.1799 36.6371 96.1799 36.0349C96.1799 35.4275 96.3067 34.9177 96.5602 34.5057C96.8191 34.0884 97.1994 33.8797 97.7012 33.8797C98.0921 33.8797 98.4936 34.0303 98.9056 34.3314ZM97.8359 34.4185C97.2179 34.4185 96.9089 34.9256 96.9089 35.9399C96.9089 36.336 96.9723 36.6794 97.0991 36.9699C97.1624 37.1284 97.2549 37.2552 97.3764 37.3503C97.5032 37.4453 97.6484 37.4929 97.8122 37.4929C97.9759 37.4929 98.1661 37.4559 98.3827 37.382C98.6045 37.308 98.7947 37.2235 98.9532 37.1284L98.9056 34.8702C98.763 34.7487 98.5887 34.643 98.3827 34.5532C98.1767 34.4634 97.9944 34.4185 97.8359 34.4185Z" fill="black"/>
<path d="M117.773 11.164H150.188V75.996L136.957 75.879" stroke="black" stroke-width="0.720329" stroke-miterlimit="10"/>
<path d="M133.176 75.844L138.238 73.367L136.957 75.879L138.195 78.406L133.176 75.844Z" fill="black"/>
<path d="M133.176 75.844L138.238 73.367L136.957 75.879L138.195 78.406L133.176 75.844Z" stroke="black" stroke-width="0.720329" stroke-miterlimit="10"/>
<path d="M139.276 29.6199C139.371 29.5882 139.63 29.5538 140.052 29.5169C140.475 29.4746 140.858 29.4535 141.201 29.4535C141.55 29.4535 141.819 29.4693 142.009 29.501C142.015 29.5221 142.017 29.5485 142.017 29.5802C142.017 29.6067 142.001 29.6727 141.97 29.7783C141.943 29.884 141.922 29.9527 141.906 29.9843C141.864 30.0266 141.745 30.0583 141.55 30.0794L143.063 34.4612L143.816 34.5246C143.816 34.6725 143.771 34.831 143.681 35H141.859L141.835 34.7227C141.957 34.6593 142.133 34.6038 142.366 34.5563L141.962 33.4232H139.751L139.379 34.4612L140.021 34.5246C140.021 34.6725 139.976 34.831 139.886 35H138.063L138.04 34.7227C138.246 34.6487 138.465 34.5906 138.697 34.5484L140.234 30.0557C139.764 30.0028 139.434 29.9394 139.244 29.8655L139.276 29.6199ZM141.336 31.6562L140.916 30.1032C140.884 30.0979 140.839 30.0953 140.781 30.0953L140.353 31.7117L139.894 32.9161H141.819L141.336 31.6562ZM146.029 35.0951C145.395 35.0951 144.922 34.9181 144.61 34.5642C144.299 34.205 144.143 33.6952 144.143 33.0349C144.143 31.5981 144.782 30.8797 146.06 30.8797C146.266 30.8797 146.48 30.9114 146.702 30.9748C146.924 31.0329 147.098 31.0989 147.225 31.1729C147.209 31.6642 147.159 32.0128 147.075 32.2188C146.98 32.2452 146.903 32.2584 146.845 32.2584H146.71C146.684 32.2584 146.652 32.2558 146.615 32.2505L146.417 31.3789C146.243 31.3631 146.142 31.3551 146.116 31.3551C145.735 31.3551 145.432 31.4713 145.205 31.7038C144.983 31.9362 144.872 32.3271 144.872 32.8765C144.872 33.4258 144.956 33.8432 145.125 34.1284C145.3 34.4137 145.632 34.5563 146.124 34.5563C146.356 34.5563 146.721 34.4453 147.217 34.2235C147.318 34.3608 147.37 34.4823 147.376 34.588C147.106 34.7464 146.842 34.8706 146.583 34.9604C146.324 35.0502 146.14 35.0951 146.029 35.0951ZM148.467 34.5087L148.403 31.5215H147.793L147.769 31.2442C147.822 31.2072 147.975 31.1386 148.229 31.0382L148.879 30.024C148.984 30.0345 149.066 30.0609 149.124 30.1032L149.116 30.9748C149.513 30.9748 149.837 31.0012 150.091 31.054C150.091 31.1967 150.046 31.3525 149.956 31.5215H149.1C149.09 32.1554 149.079 33.1168 149.069 34.4057C149.365 34.4216 149.66 34.4744 149.956 34.5642L149.948 34.8415C149.874 34.8891 149.684 34.9445 149.378 35.0079C149.077 35.0713 148.828 35.103 148.633 35.103C148.607 35.0607 148.572 34.9709 148.53 34.8336C148.488 34.691 148.467 34.5827 148.467 34.5087ZM152.061 30.2221C151.924 30.2538 151.789 30.2696 151.657 30.2696C151.53 30.2696 151.404 30.2617 151.277 30.2458C151.245 30.0979 151.229 29.95 151.229 29.8021C151.229 29.6489 151.235 29.5353 151.245 29.4614C151.361 29.435 151.483 29.4218 151.61 29.4218C151.742 29.4218 151.882 29.4271 152.03 29.4376C152.061 29.575 152.077 29.7097 152.077 29.8417C152.077 29.9685 152.072 30.0953 152.061 30.2221ZM150.619 31.054C151.068 30.9748 151.417 30.9352 151.665 30.9352C151.913 30.9352 152.072 30.9405 152.14 30.951C152.14 31.0778 152.125 31.2178 152.093 31.371C152.061 31.5242 152.043 31.5981 152.037 31.5928L151.966 34.4612L152.632 34.5246C152.632 34.6725 152.587 34.831 152.497 35H150.675L150.651 34.7227C150.894 34.6382 151.131 34.5748 151.364 34.5325C151.332 33.2119 151.306 32.2215 151.285 31.5611C150.978 31.5611 150.746 31.5295 150.587 31.4661L150.619 31.054ZM154.903 34.6197C155.346 34.6197 155.645 34.4823 155.798 34.2076C155.957 33.9277 156.036 33.5315 156.036 33.0191C156.036 32.2056 155.856 31.6959 155.497 31.4898C155.349 31.4053 155.14 31.3631 154.871 31.3631C154.607 31.3631 154.356 31.4185 154.118 31.5295C153.907 31.9362 153.801 32.409 153.801 32.9478C153.801 33.4655 153.87 33.8643 154.007 34.1442C154.166 34.4612 154.464 34.6197 154.903 34.6197ZM153.072 33.0191C153.072 32.3482 153.226 31.8253 153.532 31.4502C153.838 31.0699 154.311 30.8797 154.95 30.8797C155.589 30.8797 156.052 31.054 156.337 31.4027C156.622 31.746 156.765 32.2558 156.765 32.9319C156.765 33.6081 156.612 34.139 156.305 34.5246C156.004 34.9102 155.545 35.103 154.927 35.103C154.308 35.103 153.844 34.9234 153.532 34.5642C153.226 34.205 153.072 33.69 153.072 33.0191ZM159.808 30.8797C160.315 30.8797 160.682 31.0065 160.91 31.2601C161.137 31.5083 161.25 31.8887 161.25 32.4011C161.25 32.549 161.229 33.2357 161.187 34.4612L161.852 34.5246C161.852 34.6725 161.808 34.831 161.718 35H159.895L159.872 34.7227C160.115 34.6382 160.352 34.5748 160.585 34.5325C160.553 33.1485 160.524 32.3799 160.498 32.2267C160.476 32.0683 160.439 31.9309 160.387 31.8147C160.334 31.6985 160.255 31.6166 160.149 31.5691C160.043 31.5215 159.903 31.4978 159.729 31.4978C159.38 31.4978 159.042 31.5823 158.715 31.7513C158.683 32.9557 158.662 33.859 158.651 34.4612L159.317 34.5246C159.317 34.6725 159.272 34.831 159.182 35H157.36L157.336 34.7227C157.579 34.6382 157.817 34.5748 158.049 34.5325C158.017 33.1908 157.991 32.1977 157.97 31.5532C157.679 31.5374 157.447 31.5057 157.273 31.4581L157.304 31.0461C157.59 30.9669 158.004 30.9273 158.548 30.9273C158.612 31.0223 158.659 31.1597 158.691 31.3393C158.918 31.2178 159.145 31.1121 159.372 31.0223C159.605 30.9273 159.75 30.8797 159.808 30.8797Z" fill="black"/>
<path d="M38.07 76.094L20.531 75.996V11.164H48.355" stroke="black" stroke-width="0.720329" stroke-miterlimit="10"/>
<path d="M52.137 11.164L47.094 13.688L48.355 11.164L47.094 8.64502L52.137 11.164Z" fill="black"/>
<path d="M52.137 11.164L47.094 13.688L48.355 11.164L47.094 8.64502L52.137 11.164Z" stroke="black" stroke-width="0.720329" stroke-miterlimit="10"/>
</g>
<path d="M2.59102 34.485C3.65807 34.485 4.19159 33.7349 4.19159 32.2347C4.19159 30.7292 3.65807 29.9764 2.59102 29.9764C2.08919 29.9764 1.67981 30.0504 1.36286 30.1983C1.07761 30.7635 0.934987 31.4159 0.934987 32.1554C0.934987 32.8897 1.05648 33.4628 1.29947 33.8748C1.54775 34.2816 1.97826 34.485 2.59102 34.485ZM0.158472 32.2584C0.158472 31.3287 0.348639 30.613 0.728973 30.1111C1.11459 29.604 1.73791 29.3505 2.59895 29.3505C3.46526 29.3505 4.07538 29.5829 4.4293 30.0477C4.78851 30.5073 4.96811 31.2046 4.96811 32.1396C4.96811 33.0746 4.7753 33.8009 4.38968 34.3186C4.00935 34.8362 3.39923 35.0951 2.55933 35.0951C1.72471 35.0951 1.11459 34.8547 0.728973 34.374C0.348639 33.8933 0.158472 33.1881 0.158472 32.2584ZM7.74503 31.474C7.40167 31.474 7.02398 31.5849 6.61195 31.8068C6.60139 32.2928 6.59082 32.7444 6.58026 33.1617C6.57497 33.5737 6.56969 33.8616 6.56441 34.0254C6.69647 34.1575 6.87343 34.279 7.09529 34.3899C7.31715 34.5008 7.50996 34.5563 7.67372 34.5563C8.29704 34.5563 8.6087 34.0439 8.6087 33.0191C8.6087 32.6282 8.5638 32.3218 8.474 32.1C8.3842 31.8728 8.28119 31.7117 8.16498 31.6166C8.04877 31.5215 7.90878 31.474 7.74503 31.474ZM6.39009 29.1128C6.55384 29.1128 6.67006 29.118 6.73873 29.1286C6.73873 29.2871 6.70439 29.4984 6.63572 29.7625C6.63572 29.884 6.63308 30.0557 6.6278 30.2775C6.61723 30.7107 6.61195 31.0778 6.61195 31.3789C7.26697 31.0461 7.6922 30.8797 7.88765 30.8797C8.37892 30.8797 8.7434 31.0725 8.98111 31.4581C9.21882 31.8385 9.33768 32.335 9.33768 32.9478C9.33768 33.5553 9.20297 34.065 8.93357 34.477C8.66945 34.8891 8.28383 35.0951 7.77672 35.0951C7.57071 35.0951 7.34356 35.037 7.09529 34.9208C6.8523 34.8046 6.64365 34.6672 6.46933 34.5087C6.4482 34.7042 6.40594 34.8838 6.34255 35.0475C6.32142 35.0528 6.2818 35.0555 6.22369 35.0555C6.16559 35.0555 6.08107 35.0475 5.97014 35.0317L5.88298 29.7466C5.61886 29.7308 5.38643 29.6965 5.1857 29.6436L5.21739 29.2316C5.4868 29.1524 5.8777 29.1128 6.39009 29.1128ZM10.5689 34.4929C10.7538 34.5721 10.9783 34.6117 11.2424 34.6117C11.5118 34.6117 11.7231 34.5616 11.8763 34.4612C12.0295 34.3608 12.1061 34.2235 12.1061 34.0492C12.1061 33.8748 12.0347 33.7296 11.8921 33.6134C11.7495 33.4972 11.5752 33.3941 11.3692 33.3043C11.1631 33.2145 10.9571 33.1195 10.7511 33.0191C10.5451 32.9187 10.3708 32.7867 10.2282 32.6229C10.0855 32.4592 10.0142 32.269 10.0142 32.0524C10.0142 31.6879 10.1357 31.4027 10.3787 31.1967C10.6217 30.9854 10.9571 30.8797 11.385 30.8797C11.8182 30.8797 12.2249 30.9774 12.6052 31.1729C12.6105 31.2257 12.6132 31.3683 12.6132 31.6008C12.6132 31.8279 12.5894 32.0234 12.5419 32.1871C12.4151 32.2294 12.2645 32.2505 12.0902 32.2505L11.8287 31.4423C11.7125 31.3842 11.554 31.3551 11.3533 31.3551C11.1579 31.3551 11.002 31.408 10.8858 31.5136C10.7696 31.614 10.7115 31.7434 10.7115 31.9019C10.7115 32.0551 10.7828 32.1898 10.9254 32.306C11.0733 32.4222 11.2503 32.5278 11.4563 32.6229C11.6623 32.7127 11.8683 32.8104 12.0744 32.9161C12.2804 33.0165 12.4547 33.1512 12.5973 33.3202C12.7452 33.4839 12.8192 33.6741 12.8192 33.8907C12.8192 34.271 12.6713 34.5695 12.3755 34.7861C12.0849 34.9974 11.7257 35.103 11.2978 35.103C11.0654 35.103 10.8171 35.066 10.553 34.9921C10.2889 34.9128 10.067 34.8125 9.88744 34.691C9.88744 34.3371 9.91913 34.0228 9.98252 33.7481C10.104 33.7269 10.2678 33.7164 10.4738 33.7164L10.5689 34.4929ZM15.5065 34.5563C15.7389 34.5563 16.1034 34.4453 16.5999 34.2235C16.7003 34.3608 16.7531 34.4823 16.7584 34.588C16.489 34.7464 16.2249 34.8706 15.966 34.9604C15.7072 35.0502 15.5223 35.0951 15.4114 35.0951C14.7986 35.0951 14.3311 34.9128 14.0089 34.5484C13.6867 34.1786 13.5256 33.6635 13.5256 33.0032C13.5256 32.3429 13.6814 31.8253 13.993 31.4502C14.31 31.0699 14.7828 30.8797 15.4114 30.8797C15.8974 30.8797 16.2671 31.054 16.5207 31.4027C16.7795 31.7513 16.9089 32.2188 16.9089 32.8052C16.8667 32.8791 16.8323 32.9293 16.8059 32.9557L14.2545 32.9161C14.2598 33.4496 14.3523 33.8564 14.5319 34.1363C14.7167 34.4163 15.0416 34.5563 15.5065 34.5563ZM16.1879 32.4644C16.1879 32.1158 16.1245 31.8464 15.9977 31.6562C15.8709 31.4608 15.6597 31.3631 15.3638 31.3631C15.068 31.3631 14.8039 31.4185 14.5715 31.5295C14.413 31.8464 14.3126 32.1713 14.2704 32.5041C14.6877 32.4988 15.3269 32.4856 16.1879 32.4644ZM19.9811 31.5453C19.9547 31.5189 19.8966 31.5057 19.8068 31.5057C19.717 31.5057 19.5823 31.5374 19.4027 31.6008C19.2283 31.6642 19.0699 31.7381 18.9272 31.8226C18.8955 32.9953 18.8744 33.8748 18.8638 34.4612L19.5294 34.5246C19.5294 34.6725 19.4845 34.831 19.3947 35H17.5723L17.5485 34.7227C17.7915 34.6382 18.0292 34.5748 18.2617 34.5325C18.23 33.1908 18.2035 32.1977 18.1824 31.5532C17.8919 31.5374 17.6595 31.5057 17.4851 31.4581L17.5168 31.0461C17.7968 30.9669 18.2115 30.9273 18.7608 30.9273C18.8454 31.0593 18.8982 31.2284 18.9193 31.4344C19.5268 31.0646 19.8886 30.8797 20.0048 30.8797C20.1211 30.8797 20.2558 30.9035 20.409 30.951C20.5621 30.9933 20.6757 31.0408 20.7497 31.0937C20.7497 31.6219 20.6995 32.0524 20.5991 32.3852C20.5252 32.4063 20.438 32.4169 20.3376 32.4169C20.2426 32.4169 20.1765 32.4143 20.1395 32.409L19.9811 31.5453ZM24.9668 31.5057L23.4217 35H22.8591L21.4091 31.5136L20.7435 31.4502C20.7435 31.3023 20.7884 31.1438 20.8782 30.9748H22.7957L22.8195 31.2521C22.6504 31.3261 22.4629 31.3842 22.2569 31.4264L22.97 33.5896L23.1523 34.2869H23.2473L23.4454 33.5817L24.1823 31.4264L23.5167 31.2521L23.5405 30.9748H25.4818C25.5716 31.1438 25.6165 31.3023 25.6165 31.4502C25.3999 31.4766 25.1833 31.4951 24.9668 31.5057ZM28.967 32.409L28.9273 34.4533C29.1545 34.4691 29.3816 34.5061 29.6088 34.5642L29.5929 34.8415C29.5084 34.8838 29.3552 34.9313 29.1334 34.9842C28.9168 35.0317 28.7028 35.0555 28.4915 35.0555C28.3965 34.8653 28.3436 34.6831 28.3331 34.5087C27.7309 34.9049 27.3083 35.103 27.0653 35.103C26.6902 35.103 26.3891 35.0026 26.162 34.8019C25.9349 34.6012 25.8213 34.3212 25.8213 33.962C25.8213 33.1327 26.3284 32.7048 27.3426 32.6784C27.9342 32.6625 28.2327 32.6546 28.238 32.6546L28.2301 32.3852C28.2195 32.0207 28.1508 31.7592 28.024 31.6008C27.8973 31.437 27.6701 31.3551 27.3426 31.3551C27.2053 31.3551 27.0574 31.3868 26.8989 31.4502L26.7087 32.2426C26.6823 32.2479 26.6374 32.2505 26.574 32.2505L26.2492 32.2267C26.1646 31.9996 26.1197 31.6853 26.1145 31.2838C26.2148 31.231 26.4446 31.1518 26.8038 31.0461C27.163 30.9352 27.3928 30.8797 27.4932 30.8797C28.032 30.8797 28.4123 30.9986 28.6342 31.2363C28.856 31.474 28.967 31.8649 28.967 32.409ZM27.2396 34.5642C27.3928 34.5642 27.7467 34.3925 28.3014 34.0492L28.2618 33.0587C27.9025 33.0904 27.6015 33.1195 27.3585 33.1459C27.1155 33.1723 26.92 33.2436 26.7721 33.3598C26.6242 33.4707 26.5503 33.6477 26.5503 33.8907C26.5503 34.3397 26.78 34.5642 27.2396 34.5642ZM30.6393 34.5087L30.5759 31.5215H29.9658L29.9421 31.2442C29.9949 31.2072 30.1481 31.1386 30.4016 31.0382L31.0514 30.024C31.157 30.0345 31.2389 30.0609 31.297 30.1032L31.2891 30.9748C31.6853 30.9748 32.0101 31.0012 32.2637 31.054C32.2637 31.1967 32.2188 31.3525 32.129 31.5215H31.2732C31.2627 32.1554 31.2521 33.1168 31.2415 34.4057C31.5373 34.4216 31.8332 34.4744 32.129 34.5642L32.1211 34.8415C32.0471 34.8891 31.8569 34.9445 31.5506 35.0079C31.2495 35.0713 31.0012 35.103 30.8057 35.103C30.7793 35.0607 30.745 34.9709 30.7027 34.8336C30.6605 34.691 30.6393 34.5827 30.6393 34.5087ZM34.2339 30.2221C34.0966 30.2538 33.9619 30.2696 33.8298 30.2696C33.703 30.2696 33.5763 30.2617 33.4495 30.2458C33.4178 30.0979 33.402 29.95 33.402 29.8021C33.402 29.6489 33.4072 29.5353 33.4178 29.4614C33.534 29.435 33.6555 29.4218 33.7823 29.4218C33.9143 29.4218 34.0543 29.4271 34.2022 29.4376C34.2339 29.575 34.2498 29.7097 34.2498 29.8417C34.2498 29.9685 34.2445 30.0953 34.2339 30.2221ZM32.7918 31.054C33.2408 30.9748 33.5895 30.9352 33.8378 30.9352C34.086 30.9352 34.2445 30.9405 34.3132 30.951C34.3132 31.0778 34.2973 31.2178 34.2656 31.371C34.2339 31.5242 34.2154 31.5981 34.2102 31.5928L34.1388 34.4612L34.8044 34.5246C34.8044 34.6725 34.7595 34.831 34.6697 35H32.8473L32.8235 34.7227C33.0665 34.6382 33.3042 34.5748 33.5367 34.5325C33.505 33.2119 33.4785 32.2215 33.4574 31.5611C33.151 31.5611 32.9186 31.5295 32.7601 31.4661L32.7918 31.054ZM37.0755 34.6197C37.5192 34.6197 37.8177 34.4823 37.9708 34.2076C38.1293 33.9277 38.2086 33.5315 38.2086 33.0191C38.2086 32.2056 38.029 31.6959 37.6698 31.4898C37.5218 31.4053 37.3132 31.3631 37.0438 31.3631C36.7797 31.3631 36.5287 31.4185 36.291 31.5295C36.0797 31.9362 35.9741 32.409 35.9741 32.9478C35.9741 33.4655 36.0428 33.8643 36.1801 34.1442C36.3386 34.4612 36.637 34.6197 37.0755 34.6197ZM35.2451 33.0191C35.2451 32.3482 35.3983 31.8253 35.7047 31.4502C36.0111 31.0699 36.4838 30.8797 37.123 30.8797C37.7622 30.8797 38.2244 31.054 38.5097 31.4027C38.7949 31.746 38.9375 32.2558 38.9375 32.9319C38.9375 33.6081 38.7843 34.139 38.478 34.5246C38.1769 34.9102 37.7173 35.103 37.0993 35.103C36.4812 35.103 36.0164 34.9234 35.7047 34.5642C35.3983 34.205 35.2451 33.69 35.2451 33.0191ZM41.9809 30.8797C42.488 30.8797 42.8551 31.0065 43.0823 31.2601C43.3094 31.5083 43.423 31.8887 43.423 32.4011C43.423 32.549 43.4018 33.2357 43.3596 34.4612L44.0252 34.5246C44.0252 34.6725 43.9803 34.831 43.8905 35H42.068L42.0443 34.7227C42.2873 34.6382 42.525 34.5748 42.7574 34.5325C42.7257 33.1485 42.6966 32.3799 42.6702 32.2267C42.6491 32.0683 42.6121 31.9309 42.5593 31.8147C42.5065 31.6985 42.4272 31.6166 42.3216 31.5691C42.2159 31.5215 42.076 31.4978 41.9016 31.4978C41.553 31.4978 41.2149 31.5823 40.8874 31.7513C40.8557 32.9557 40.8346 33.859 40.824 34.4612L41.4896 34.5246C41.4896 34.6725 41.4447 34.831 41.3549 35H39.5325L39.5087 34.7227C39.7517 34.6382 39.9894 34.5748 40.2218 34.5325C40.1901 33.1908 40.1637 32.1977 40.1426 31.5532C39.8521 31.5374 39.6196 31.5057 39.4453 31.4581L39.477 31.0461C39.7623 30.9669 40.1769 30.9273 40.721 30.9273C40.7844 31.0223 40.832 31.1597 40.8637 31.3393C41.0908 31.2178 41.3179 31.1121 41.5451 31.0223C41.7775 30.9273 41.9228 30.8797 41.9809 30.8797Z" fill="black"/>
</svg>
