<svg width="103" height="170" viewBox="0 0 103 170" fill="none" xmlns="http://www.w3.org/2000/svg">
<path fill-rule="evenodd" clip-rule="evenodd" d="M95.9063 119.843C92.4997 115.85 85.4672 109.427 79.9204 104.999C74.3737 100.572 68.391 96.8384 62.6257 93.279C56.8604 89.7196 50.2203 86.6815 45.3287 83.6431C40.4371 80.6046 37.8621 78.9547 33.2762 75.0483C28.6902 71.1419 22.2244 64.9791 17.813 60.2048C13.4016 55.4306 9.42842 51.1335 6.80802 46.4025C4.18765 41.6715 2.39631 36.333 2.09067 31.8188C1.78505 27.3046 2.13534 23.3538 4.97424 19.3172C7.81316 15.2806 14.8003 10.3768 19.1241 7.59917C23.448 4.82152 25.5453 3.43271 30.9175 2.65136C36.2897 1.87 45.2863 1.60919 51.3572 2.91107C57.4281 4.21296 62.8446 7.68463 67.343 10.4626C71.8415 13.2406 75.2035 16.063 78.348 19.5791C81.4925 23.0952 84.7253 27.2187 86.2103 31.5591C87.6952 35.8994 88.0441 41.3241 87.2578 45.6211C86.4716 49.9182 84.5064 53.9559 81.4929 57.3414C78.4794 60.7268 73.6317 63.6773 69.1769 65.934C64.7219 68.1907 59.4368 69.3191 54.7635 70.8818C50.09 72.4445 45.7222 73.0098 41.1362 75.3102C36.5503 77.6106 30.96 80.9513 27.2477 84.6842C23.5355 88.417 20.6969 93.3667 18.8628 97.7074C17.0286 102.048 16.4177 106.518 16.2428 110.728C16.0678 114.939 16.6776 118.845 17.813 122.968C18.9484 127.091 20.6966 131.604 23.0553 135.467C25.4139 139.331 28.2528 142.414 31.9651 146.147C35.6773 149.879 40.7427 154.696 45.3287 157.865C49.9146 161.033 54.3271 163.507 59.4808 165.156C64.6344 166.806 70.7914 168.672 76.2507 167.76C81.71 166.849 88.2619 163.42 92.2365 159.687C96.2112 155.955 98.7448 150.487 100.099 145.365C101.453 140.244 101.059 133.211 100.36 128.957C99.6614 124.703 99.3129 123.836 95.9063 119.843Z" stroke="#BC4D4D" stroke-width="3"/>
</svg>
