<svg width="193" height="193" viewBox="0 0 193 193" fill="none" xmlns="http://www.w3.org/2000/svg">
<path d="M38.3462 154.654V147.385H45.6154V140.115H38.3462H31.0769V132.846H38.3462V125.577H45.6154V132.846H52.8846V125.577V118.308H60.1539V125.577H67.4231V118.308H74.6923V111.038H67.4231H60.1539V103.769H67.4231V96.5H60.1539V89.2308H52.8846V96.5V103.769H45.6154V96.5H38.3462H31.0769V89.2308H23.8077V96.5V103.769H16.5385V96.5H9.26923V89.2308H16.5385V81.9615H9.26923H2V74.6923H9.26923V67.4231H16.5385V74.6923H23.8077V67.4231V60.1538H31.0769V67.4231H38.3462V60.1538H45.6154V52.8846H38.3462H31.0769V45.6154H38.3462V38.3461H45.6154V45.6154H52.8846V38.3461V31.0769H60.1539V38.3461H67.4231V45.6154H60.1539V52.8846H67.4231H74.6923V60.1538H67.4231V67.4231H74.6923V74.6923H81.9616V67.4231V60.1538H89.2308V67.4231H96.5V60.1538H103.769V52.8846H96.5H89.2308V45.6154H96.5V38.3461V31.0769H103.769V23.8077H96.5H89.2308V16.5385H96.5V9.26923H103.769V16.5385H111.038V9.26923V2H118.308V9.26923H125.577V16.5385H118.308V23.8077H125.577H132.846V31.0769H125.577V38.3461H132.846V45.6154H140.115V38.3461V31.0769H147.385V38.3461H154.654V45.6154H147.385V52.8846H154.654H161.923V60.1538H154.654V67.4231H147.385V60.1538H140.115V67.4231V74.6923H132.846V67.4231H125.577V74.6923H118.308V81.9615H125.577H132.846V89.2308H125.577V96.5H132.846V103.769H140.115V96.5V89.2308H147.385V96.5H154.654H161.923V103.769H169.192V96.5V89.2308H176.462V96.5H183.731V103.769H176.462V111.038H183.731H191V118.308H183.731V125.577H176.462V118.308H169.192V125.577V132.846H161.923V125.577H154.654V132.846H147.385V140.115H154.654H161.923V147.385H154.654V154.654H147.385V147.385H140.115V154.654V161.923H132.846V154.654H125.577V147.385H132.846V140.115H125.577H118.308V132.846H125.577V125.577H118.308V118.308H111.038V125.577V132.846H103.769V125.577H96.5V132.846H89.2308V140.115H96.5H103.769V147.385H96.5V154.654V161.923H89.2308V169.192H96.5H103.769V176.462H96.5V183.731H89.2308V176.462H81.9616V183.731V191H74.6923V183.731H67.4231V176.462H74.6923V169.192H67.4231H60.1539V161.923H67.4231V154.654H60.1539V147.385H52.8846V154.654V161.923H45.6154V154.654H38.3462Z" stroke="#BC4D4D" stroke-width="3"/>
</svg>
