<svg width="94" height="100" viewBox="0 0 94 100" fill="none" xmlns="http://www.w3.org/2000/svg">
<path d="M25.7998 16.9767C30.7519 12.1302 32.181 10.9938 39.8584 5.67937C43.5475 3.10572 46.8711 1 47.2034 1C49.0646 1 50.7928 2.73805 51.7566 5.61253C53.9834 12.1971 50.8593 16.6759 41.3872 20.4194C38.529 21.5558 30.2866 26.6363 29.3893 27.8396C28.6249 28.8423 28.5584 29.1097 28.791 30.6138C29.1234 32.6192 30.6522 35.5605 31.616 36.0285C32.0149 36.229 33.2113 36.5633 34.2749 36.7638C35.3052 36.9643 37.0334 37.4991 38.0969 37.9336C40.2905 38.8027 41.2543 38.7358 47.1369 37.332C55.1466 35.36 60.6305 34.9255 64.2531 35.8948C67.6431 36.7972 72.994 40.0728 76.0517 43.1144C77.9129 44.9527 80.6714 48.7631 81.9343 51.3033C83.3967 54.1778 84.6929 60.3278 84.6929 64.4055C84.6929 65.1743 84.859 66.5447 85.0585 67.4471L85.3908 69.0849L87.5511 69.2855C88.7476 69.4192 90.1767 69.7534 90.7085 70.0877C92.902 71.3578 93.5667 74.7336 92.5032 78.9116C91.7388 81.8529 90.7085 83.5241 88.4485 85.4627C87.3185 86.432 76.2511 94.8549 76.384 94.9552C68.2746 97.1278 67.6764 97.228 60.6969 97.7628C56.8084 98.0636 51.3911 98.4982 48.6325 98.7321C43.0822 99.2335 40.7225 99.0664 37.2993 97.9299C35.139 97.1946 34.8399 97.1612 29.8878 97.4954C22.2437 97.9968 19.7178 97.5289 18.5878 95.3563C17.8898 93.9191 17.8566 93.7185 18.2554 92.6489C18.4881 92.0139 18.4216 91.8468 17.7901 91.6128C16.5272 91.1114 15.8957 89.8747 16.1948 88.4709C16.7266 86.0978 18.3884 84.4266 21.5457 83.0896C23.9719 82.0201 24.5369 81.4853 24.5369 80.1817L24.5369 80.1502C24.5372 79.0452 24.5372 79.0359 21.0472 78.0426C17.2251 76.9396 16.5604 76.5385 13.7687 73.898C10.4119 70.7561 8.01894 67.4806 6.35718 63.8373C5.02776 60.8626 4.92806 60.4949 4.92806 57.6205C4.92806 55.8824 5.12747 53.877 5.42659 52.9411C6.09129 50.7685 6.09129 50.8354 4.86159 50.3006C3.33276 49.6321 2.10305 48.4957 1.43835 47.1587C0.973051 46.1894 0.90658 45.5209 1.10599 42.8136C1.23893 41.0421 1.53805 39.1035 1.80393 38.5019C2.50188 37.6663 3.29952 32.1847 2.93394 30.079C2.50188 27.7393 2.9007 25.667 3.931 24.564C4.82835 23.5947 7.25453 22.5251 10.2789 21.7564C11.5419 21.4221 12.6387 21.1213 12.7051 21.021C12.7716 20.9542 12.9045 18.3137 13.0042 15.2052C13.2701 7.18346 14.0013 4.8772 16.6601 3.6405C18.3551 2.90517 19.8507 2.83833 21.4128 3.50681C23.706 4.44268 24.5037 8.38673 23.2407 12.2639C22.8751 13.3335 22.5096 15.6063 22.4098 17.3444L22.2437 20.4863L25.7998 16.9767Z" fill="#F5F99E" stroke="#BC4D4D" stroke-width="2" stroke-linejoin="round"/>
</svg>
