<svg width="207" height="191" viewBox="0 0 207 191" fill="none" xmlns="http://www.w3.org/2000/svg">
<path d="M43.723 188.007C43.9402 187.273 44.725 185.313 45.467 183.653C46.209 181.992 46.8161 180.572 46.8161 180.498C46.8161 180.423 44.9896 179.001 42.7572 177.339C38.2123 173.954 38.322 173.765 44.6257 174.122L48.4313 174.337L50.4327 168.748C51.5334 165.675 52.3697 163.096 52.2912 163.018C52.2126 162.94 50.0142 161.228 47.4057 159.213L42.663 155.549L38.7243 158.293C36.558 159.802 34.6967 160.948 34.5881 160.839C34.4795 160.73 35.0337 158.789 35.8197 156.526C36.6056 154.262 37.065 152.233 36.8404 152.016C36.6159 151.8 34.7962 150.318 32.7965 148.724L29.1608 145.825L34.047 146.01L38.9332 146.196L40.446 141.839C41.278 139.443 42.1481 137.482 42.3794 137.482C42.8114 137.482 43.4891 139.357 44.5516 143.491L45.1568 145.845L51.2934 146.021L57.43 146.196L59.2233 141.136C60.2096 138.354 61.1079 135.824 61.2196 135.514C61.3313 135.204 59.598 133.56 57.3678 131.86C53.4792 128.895 53.3789 128.761 54.9211 128.583C55.8055 128.48 57.9939 128.48 59.7841 128.583L63.0391 128.769L65.0333 123.196C66.1301 120.132 66.9633 117.56 66.8847 117.483C66.8062 117.405 64.6066 115.692 61.9968 113.675L57.2516 110.01L53.8581 112.384C51.9916 113.69 50.1736 114.938 49.8181 115.157C49.033 115.641 50.1722 111.552 51.5843 108.817C52.0944 107.829 52.43 106.94 52.3301 106.84C52.2301 106.741 50.016 105.013 47.4098 102.999L42.6713 99.3385L37.6857 102.793C33.6686 105.577 32.7519 106.469 32.9666 107.389C33.1132 108.017 33.6434 110.021 34.1448 111.843C34.6461 113.665 34.9587 115.253 34.8393 115.373C34.7199 115.493 33.0804 114.43 31.1959 113.011L27.7695 110.431L24.3943 112.727C19.1738 116.277 19.0701 116.26 20.6229 112.11C21.3594 110.141 22.1266 108.151 22.3278 107.687C22.5862 107.09 21.5028 105.935 18.6388 103.751C14.7502 100.787 14.6498 100.653 16.192 100.474C17.0765 100.372 19.2697 100.372 21.0658 100.474L24.3313 100.66L26.3943 95.1488C27.5688 92.0107 28.2407 89.4473 27.9544 89.1963C27.6779 88.9538 25.3711 87.3081 22.8282 85.5391L18.2048 82.3227L14.6182 84.8861C12.6456 86.2959 10.8938 87.4494 10.7254 87.4494C10.557 87.4494 11.022 85.4925 11.7588 83.1006C12.4956 80.7088 12.9181 78.5778 12.6976 78.3651C12.4772 78.1525 10.655 76.6678 8.64839 75.0658L5 72.1532L10.1784 72.3526L15.3567 72.552L16.8743 68.1848C17.8123 65.4853 18.5564 64.0842 18.8226 64.5157C19.0595 64.8996 19.6729 66.9281 20.1855 69.0234L21.1177 72.8331H27.161H33.2043L35.316 67.1946C36.4774 64.0934 37.33 61.4589 37.2106 61.3401C37.0912 61.2212 35.2309 59.8374 33.0765 58.265L29.1595 55.4059H34.0018H38.8442L40.3858 51.1724C41.2337 48.844 42.1316 46.8125 42.3811 46.6581C42.6306 46.5037 43.0991 47.3968 43.4222 48.6429C43.7453 49.889 44.2695 51.9111 44.587 53.1364L45.1643 55.3641L50.2744 55.5256L55.3845 55.687L51.3738 58.454C48.6387 60.3409 47.4438 61.5031 47.617 62.1081C47.7567 62.596 48.5329 65.2087 49.342 67.9141L50.8131 72.8331H56.8964H62.9796L64.515 68.6168C65.3594 66.2979 66.2519 64.4006 66.4982 64.4006C66.7445 64.4006 67.364 66.2825 67.875 68.5827L68.8039 72.7647L74.9144 72.9395L81.0249 73.1142L82.9881 67.6364C84.0678 64.6237 84.8243 61.8275 84.6693 61.4228C84.5142 61.0181 83.7007 60.2805 82.8614 59.7837C82.0221 59.287 80.328 58.0784 79.0968 57.0981L76.8581 55.3157L81.7482 55.5013L86.6382 55.687L88.6518 50.0679L90.6654 44.4489L89.0875 43.1712C88.2197 42.4685 86.1147 40.7882 84.4099 39.4371L81.3101 36.9806L77.4362 39.7241C75.3056 41.233 73.4765 42.3814 73.3715 42.2763C73.2664 42.1711 73.7431 40.3389 74.4307 38.2048C75.1183 36.0707 75.6902 34.1312 75.7017 33.8947C75.7132 33.6583 73.9586 32.057 71.8027 30.3362L67.8828 27.2075L72.7807 27.393L77.6785 27.5786L79.1612 23.5029C79.9767 21.2613 80.8258 19.4272 81.0482 19.4272C81.2706 19.4272 82.0149 21.3245 82.7023 23.6434L83.952 27.8597H90.0063H96.0606L97.9024 22.9407C98.9154 20.2353 99.8468 17.7398 99.9723 17.3952C100.098 17.0506 98.3619 15.4063 96.1148 13.7411C92.196 10.8372 92.0955 10.706 93.653 10.5265C94.5462 10.4237 96.6209 10.4237 98.2635 10.5265L101.25 10.7136L103.003 6.3568C103.967 3.96056 104.833 2 104.929 2C105.137 2 106.015 4.74208 106.864 8.0433L107.479 10.4325H112.923H118.367L114.051 13.3839C111.273 15.2842 109.814 16.6356 109.955 17.1785C110.075 17.6423 110.831 20.2197 111.635 22.9061L113.095 27.7904L119.225 27.9656L125.355 28.1408L126.977 23.664L128.598 19.1873L129.211 21.1343C129.548 22.2051 130.1 24.1564 130.438 25.4705L131.053 27.8597L136.504 27.8772L141.955 27.8948L139.969 29.1421C138.877 29.8282 136.982 31.1381 135.759 32.0532C134.536 32.9683 133.446 33.7743 133.337 33.8444C133.229 33.9144 133.69 35.6955 134.364 37.8023C135.037 39.9091 135.699 41.9829 135.836 42.4108C135.98 42.8631 135.315 42.6137 134.248 41.8153C133.239 41.0599 131.515 39.7688 130.418 38.9463L128.423 37.4508L123.682 40.6055C121.075 42.3406 118.861 43.8269 118.761 43.9083C118.662 43.9897 119.367 46.6099 120.329 49.7311L122.077 55.4059H127.428H132.779L130.351 57.2604C129.015 58.2804 127.102 59.5999 126.098 60.1925C125.095 60.7851 124.297 61.5317 124.325 61.8515C124.353 62.1713 125.174 64.8363 126.149 67.7736L127.923 73.1142L133.896 73.2731L139.87 73.4321L141.047 69.619C142.795 63.9575 142.986 63.9001 144.373 68.6226L145.61 72.8331H151.22C154.305 72.8331 157.018 72.8963 157.25 72.9736C157.583 73.0849 161.092 63.5714 161.274 62.0607C161.299 61.856 159.614 60.4646 157.531 58.9688L153.742 56.2492L158.513 55.9681L163.284 55.687L164.623 51.6113C165.36 49.3696 166.131 47.5356 166.335 47.5356C166.54 47.5356 167.262 49.423 167.939 51.7299L169.171 55.9242L174.086 56.0867L179 56.2492L175.352 58.7254C173.345 60.0873 171.605 61.2821 171.485 61.3804C171.364 61.4787 171.664 63.0206 172.151 64.8069C172.638 66.5932 173.31 69.1141 173.645 70.409L174.253 72.7634L180.411 72.9388L186.568 73.1142L188.047 69.0494C189.582 64.8309 190.122 64.4355 190.756 67.0656C190.962 67.9188 191.376 69.5558 191.676 70.7033L192.222 72.7898L197.111 72.952L202 73.1142L198.218 75.8929C196.137 77.4212 194.435 78.8315 194.435 79.0269C194.435 79.2223 195.067 81.2416 195.839 83.5143C196.61 85.7869 197.242 87.7458 197.242 87.8673C197.242 88.252 193.665 85.6512 191.816 83.9221L190.038 82.2596L184.921 85.8052C182.107 87.7553 179.905 89.6187 180.029 89.9461C180.153 90.2735 180.925 92.7455 181.744 95.4394L183.233 100.337L188.359 100.499L193.484 100.66L190.171 103.072C188.349 104.398 186.546 105.676 186.165 105.911C185.634 106.238 185.796 107.383 186.858 110.807C187.621 113.265 188.248 115.349 188.253 115.437C188.276 115.881 186.003 114.284 183.624 112.186L180.952 109.83L177.172 112.65C175.094 114.201 173.311 115.388 173.211 115.288C173.111 115.188 173.672 113.254 174.458 110.99C175.244 108.727 175.704 106.698 175.479 106.483C175.255 106.267 173.18 104.579 170.868 102.732L166.665 99.374L161.747 102.782C159.042 104.656 156.833 106.337 156.837 106.517C156.842 106.697 157.454 108.805 158.197 111.201C158.94 113.597 159.374 115.558 159.16 115.558C158.946 115.558 157.261 114.326 155.415 112.82L152.058 110.083L147.147 113.477C144.446 115.344 142.235 117.069 142.235 117.312C142.235 117.555 142.48 118.335 142.778 119.045C143.077 119.755 143.856 122.161 144.51 124.391L145.7 128.445L150.541 128.607L155.382 128.769L151.615 131.224C149.543 132.574 147.848 133.811 147.848 133.973C147.848 134.134 148.617 136.76 149.556 139.809L151.264 145.353H156.853C159.927 145.353 162.631 145.382 162.863 145.417C163.094 145.453 163.933 143.525 164.727 141.133L166.171 136.784L167.731 141.068L169.291 145.353H174.414H179.537L175.62 148.212C173.466 149.784 171.63 151.144 171.54 151.233C171.45 151.322 171.864 153.261 172.46 155.542C173.056 157.822 173.448 159.791 173.331 159.916C173.214 160.042 171.657 158.995 169.871 157.589L166.624 155.034L161.979 158.28C159.423 160.065 157.229 161.63 157.102 161.757C156.975 161.884 157.619 164.484 158.534 167.535C159.448 170.586 160.197 173.157 160.197 173.25C160.197 173.342 162.34 173.49 164.96 173.58L169.723 173.742L166.784 175.871C165.168 177.042 163.515 178.204 163.113 178.453C162.522 178.819 162.603 179.758 163.531 183.307C164.164 185.727 164.606 187.784 164.513 187.877C164.421 187.969 162.843 186.819 161.008 185.319L157.671 182.592L154.303 184.935C152.451 186.224 150.618 187.474 150.23 187.713C149.634 188.081 150.863 184.106 152.559 180.174C152.841 179.522 151.635 178.395 147.843 175.767L142.748 172.237L138.422 175.458C136.043 177.229 133.902 178.851 133.663 179.062C133.313 179.372 134.278 183.383 135.807 187.972C136.054 188.712 135.321 188.253 130.736 184.796L128.499 183.109L125.124 185.496C120.176 188.995 120.357 188.964 121.198 186.166C121.607 184.807 122.339 182.923 122.827 181.979C123.314 181.035 123.713 180.148 123.713 180.007C123.713 179.866 121.888 178.399 119.658 176.747C115.777 173.871 115.672 173.734 117.218 173.556C118.106 173.454 120.303 173.454 122.1 173.556L125.367 173.742L127.36 168.181C128.456 165.122 129.284 162.551 129.199 162.467C129.114 162.383 126.909 160.664 124.297 158.647L119.549 154.979L116.158 157.377C111.193 160.889 111.376 160.857 112.217 158.058C112.626 156.699 113.38 154.773 113.894 153.778C114.408 152.783 114.617 151.786 114.359 151.563C114.101 151.339 111.849 149.736 109.354 148.001L104.817 144.846L100.092 147.99C97.4938 149.719 95.288 151.199 95.1905 151.279C95.0047 151.43 95.6376 153.894 97.0409 158.483L97.8759 161.213L95.9202 159.748C94.8445 158.942 93.1188 157.649 92.0853 156.876L90.2061 155.469L88.2966 156.861C87.2463 157.626 85.061 159.181 83.4403 160.315C81.8196 161.449 80.4935 162.503 80.4935 162.657C80.4935 162.81 81.2621 165.431 82.2015 168.48L83.9095 174.023L88.7966 174.026L93.6838 174.029L92 175.432C91.0738 176.203 89.3689 177.387 88.2113 178.062C87.0536 178.737 86.1102 179.433 86.1148 179.608C86.1195 179.783 86.7459 181.934 87.5069 184.388C88.2679 186.842 88.8259 188.914 88.7468 188.993C88.6678 189.072 86.895 187.881 84.8074 186.346L81.0117 183.554L77.4539 186.097C75.4971 187.495 73.7654 188.64 73.6055 188.64C73.1793 188.64 74.0207 185.317 75.0821 182.809C75.5887 181.611 76.0032 180.462 76.0032 180.254C76.0032 180.046 73.8574 178.284 71.2347 176.339L66.4663 172.802L61.8331 176.018C59.2849 177.787 57.0049 179.408 56.7665 179.621C56.4167 179.933 57.3617 183.867 58.9019 188.512C59.2387 189.528 57.7388 188.654 54.4003 185.891L51.6699 183.632L48.2608 186.017C43.1468 189.595 43.2693 189.541 43.723 188.007Z" stroke="#BC4D4D" stroke-width="3"/>
</svg>
