<?xml version="1.0" encoding="utf-8" standalone="no"?>
<!DOCTYPE svg PUBLIC "-//W3C//DTD SVG 1.1//EN"
  "http://www.w3.org/Graphics/SVG/1.1/DTD/svg11.dtd">
<svg xmlns:xlink="http://www.w3.org/1999/xlink" width="460.8pt" height="345.6pt" viewBox="0 0 460.8 345.6" xmlns="http://www.w3.org/2000/svg" version="1.1">
 <metadata>
  <rdf:RDF xmlns:dc="http://purl.org/dc/elements/1.1/" xmlns:cc="http://creativecommons.org/ns#" xmlns:rdf="http://www.w3.org/1999/02/22-rdf-syntax-ns#">
   <cc:Work>
    <dc:type rdf:resource="http://purl.org/dc/dcmitype/StillImage"/>
    <dc:date>2025-06-01T23:26:09.865812</dc:date>
    <dc:format>image/svg+xml</dc:format>
    <dc:creator>
     <cc:Agent>
      <dc:title>Matplotlib v3.10.0, https://matplotlib.org/</dc:title>
     </cc:Agent>
    </dc:creator>
   </cc:Work>
  </rdf:RDF>
 </metadata>
 <defs>
  <style type="text/css">*{stroke-linejoin: round; stroke-linecap: butt}</style>
 </defs>
 <g id="figure_1">
  <g id="patch_1">
   <path d="M 0 345.6 
L 460.8 345.6 
L 460.8 0 
L 0 0 
z
" style="fill: #ffffff"/>
  </g>
  <g id="axes_1">
   <g id="patch_2">
    <path d="M 42.1 317.72 
L 450 317.72 
L 450 11.01492 
L 42.1 11.01492 
z
" style="fill: #ffffff"/>
   </g>
   <g id="patch_3">
    <path d="M 433.082913 178.9969 
L 433.138892 178.8451 
L 433.09236 178.687746 
L 432.94361 178.524054 
L 432.692762 178.353192 
L 432.33992 178.174278 
L 431.885003 177.986376 
L 431.327788 177.788509 
L 430.668041 177.579635 
L 429.905404 177.358679 
L 429.039351 177.124507 
L 428.069391 176.875948 
L 426.994886 176.611788 
L 425.81521 176.330786 
L 424.529658 176.031672 
L 423.13755 175.713167 
L 421.638169 175.373998 
L 420.030833 175.01289 
L 418.314905 174.628617 
L 416.489859 174.21999 
L 414.555182 173.7859 
L 412.510594 173.325331 
L 410.355893 172.837381 
L 408.091035 172.321296 
L 405.716276 171.776494 
L 403.232021 171.202585 
L 400.639005 170.599394 
L 397.938203 169.967002 
L 395.130865 169.305741 
L 392.218636 168.616221 
L 389.203462 167.899344 
L 386.087554 167.156305 
L 382.873497 166.388597 
L 379.564264 165.597999 
L 376.163031 164.78657 
L 372.673273 163.956615 
L 369.098726 163.110678 
L 365.443414 162.251505 
L 361.711418 161.382 
L 357.907087 160.505189 
L 354.034647 159.624181 
L 350.098648 158.742131 
L 346.103495 157.862181 
L 342.053527 156.98742 
L 337.953097 156.120854 
L 333.806304 155.265377 
L 329.6173 154.423716 
L 325.389882 153.598418 
L 321.127716 152.791825 
L 316.83429 152.00606 
L 312.512831 151.243018 
L 308.166412 150.50436 
L 303.797756 149.791484 
L 299.409568 149.105589 
L 295.004129 148.447621 
L 290.583695 147.818304 
L 286.150248 147.218175 
L 281.705637 146.647556 
L 277.251604 146.106604 
L 272.789799 145.595313 
L 268.321553 145.113518 
L 263.848432 144.660947 
L 259.371734 144.237203 
L 254.892727 143.841778 
L 250.41267 143.474105 
L 245.932782 143.133521 
L 241.454422 142.819334 
L 236.978802 142.530779 
L 232.507223 142.267079 
L 228.041035 142.027405 
L 223.581706 141.81094 
L 219.130622 141.616828 
L 214.689376 141.444228 
L 210.259607 141.292291 
L 205.843086 141.160179 
L 201.441613 141.047059 
L 197.057115 140.952103 
L 192.69169 140.874519 
L 188.347513 140.813524 
L 184.026847 140.768342 
L 179.732113 140.738229 
L 175.465956 140.72247 
L 171.230963 140.720363 
L 167.029991 140.73123 
L 162.865863 140.754423 
L 158.741648 140.789305 
L 154.660588 140.835291 
L 150.625779 140.891798 
L 146.640611 140.958292 
L 142.708424 141.034235 
L 138.83272 141.119148 
L 135.016985 141.21256 
L 131.264664 141.314047 
L 127.579311 141.423204 
L 123.964415 141.539655 
L 120.423397 141.663072 
L 116.959644 141.793141 
L 113.576455 141.929599 
L 110.276982 142.072207 
L 107.064356 142.220767 
L 103.941405 142.375128 
L 100.910858 142.535158 
L 97.975386 142.700789 
L 95.137236 142.871974 
L 92.3986 143.048727 
L 89.761479 143.231082 
L 87.227573 143.419134 
L 84.798446 143.613018 
L 82.475373 143.812915 
L 80.259506 144.019045 
L 78.15175 144.231677 
L 76.152832 144.451128 
L 74.2633 144.677756 
L 72.483624 144.911966 
L 70.814026 145.154216 
L 69.254697 145.404996 
L 67.805637 145.664853 
L 66.466835 145.93438 
L 65.238224 146.214204 
L 64.119625 146.505013 
L 63.110915 146.807526 
L 62.211925 147.122509 
L 61.422523 147.450767 
L 60.742562 147.793146 
L 60.171943 148.150537 
L 59.710687 148.523862 
L 59.35885 148.914061 
L 59.116455 149.322119 
L 58.983781 149.749052 
L 58.961108 150.195853 
L 59.04876 150.663559 
L 59.247184 151.15321 
L 59.556961 151.665798 
L 59.978606 152.202321 
L 60.512868 152.763747 
L 61.160373 153.350951 
L 61.921903 153.964783 
L 62.798197 154.605964 
L 63.789981 155.275123 
L 64.897992 155.972761 
L 66.122791 156.699173 
L 67.465003 157.454523 
L 68.924997 158.238727 
L 70.503041 159.05145 
L 72.199214 159.892131 
L 74.01337 160.759887 
L 75.945107 161.653535 
L 77.993798 162.571575 
L 80.158394 163.512146 
L 82.437763 164.47308 
L 84.830231 165.451845 
L 87.333918 166.44558 
L 89.946688 167.451159 
L 92.665983 168.465111 
L 95.489073 169.483781 
L 98.413052 170.503321 
L 101.434633 171.519694 
L 104.550685 172.528847 
L 107.757643 173.526646 
L 111.05213 174.509065 
L 114.430813 175.472169 
L 117.890295 176.412203 
L 121.427311 177.325621 
L 125.038953 178.209228 
L 128.722081 179.060058 
L 132.474246 179.875602 
L 136.292944 180.65368 
L 140.175915 181.39252 
L 144.121238 182.090745 
L 148.127157 182.747377 
L 152.191995 183.361796 
L 156.314645 183.933792 
L 160.493542 184.463397 
L 164.727909 184.951025 
L 169.016359 185.397292 
L 173.358172 185.803088 
L 177.752308 186.169467 
L 182.197749 186.497654 
L 186.693416 186.789005 
L 191.238331 187.044977 
L 195.831204 187.267087 
L 200.470689 187.45691 
L 205.155339 187.616035 
L 209.883398 187.746062 
L 214.653309 187.848586 
L 219.462686 187.925175 
L 224.309619 187.977377 
L 229.19158 188.006682 
L 234.105942 188.014557 
L 239.049841 188.002397 
L 244.02021 187.971561 
L 249.013625 187.923358 
L 254.026853 187.859025 
L 259.055757 187.779775 
L 264.096598 187.686733 
L 269.145094 187.581012 
L 274.196799 187.463651 
L 279.246978 187.335656 
L 284.291056 187.197974 
L 289.323623 187.051541 
L 294.339742 186.897212 
L 299.333974 186.735846 
L 304.300769 186.568236 
L 309.234511 186.395156 
L 314.129379 186.217346 
L 318.979874 186.035499 
L 323.779812 185.850303 
L 328.523627 185.662385 
L 333.205487 185.472362 
L 337.81968 185.280821 
L 342.360487 185.088305 
L 346.822687 184.895321 
L 351.200723 184.702368 
L 355.489788 184.509893 
L 359.684919 184.318316 
L 363.781631 184.128016 
L 367.775677 183.939351 
L 371.663143 183.752634 
L 375.44044 183.568153 
L 379.104607 183.38614 
L 382.652501 183.20682 
L 386.081886 183.03036 
L 389.390683 182.856904 
L 392.57717 182.686559 
L 395.640028 182.519396 
L 398.578306 182.355459 
L 401.391301 182.194764 
L 404.07881 182.037271 
L 406.640723 181.882948 
L 409.077284 181.731693 
L 411.389009 181.583413 
L 413.576512 181.437969 
L 415.6408 181.295189 
L 417.582722 181.154898 
L 419.403575 181.01687 
L 421.104589 180.880876 
L 422.687083 180.746649 
L 424.15242 180.613905 
L 425.502045 180.482336 
L 426.737353 180.351607 
L 427.859776 180.221344 
L 428.870633 180.091179 
L 429.771254 179.960685 
L 430.562892 179.829424 
L 431.246744 179.696915 
L 431.823814 179.562672 
L 432.295166 179.426132 
L 432.661637 179.286747 
L 432.923989 179.143884 
z
" clip-path="url(#p997058e908)" style="fill: #c9c9f5; opacity: 0.46; stroke: #c9c9f5; stroke-linejoin: miter"/>
   </g>
   <g id="patch_4">
    <path d="M 431.065738 165.143445 
L 431.007311 164.961075 
L 430.833238 164.78064 
L 430.543629 164.601714 
L 430.13862 164.423831 
L 429.618412 164.246527 
L 428.983227 164.069303 
L 428.233291 163.891668 
L 427.368892 163.7131 
L 426.390346 163.533068 
L 425.298053 163.351039 
L 424.09235 163.16647 
L 422.773773 162.978791 
L 421.342791 162.787461 
L 419.799964 162.59191 
L 418.14594 162.391588 
L 416.381413 162.185931 
L 414.507141 161.974404 
L 412.523909 161.756463 
L 410.432722 161.531587 
L 408.234497 161.299279 
L 405.930419 161.059056 
L 403.521584 160.810464 
L 401.009311 160.553085 
L 398.394964 160.286535 
L 395.680019 160.010472 
L 392.866063 159.724603 
L 389.954796 159.428675 
L 386.948028 159.122495 
L 383.847594 158.805939 
L 380.655618 158.478922 
L 377.374089 158.141455 
L 374.005356 157.793593 
L 370.551609 157.435478 
L 367.015354 157.067316 
L 363.399094 156.689393 
L 359.705401 156.302071 
L 355.936913 155.905791 
L 352.096492 155.501061 
L 348.18689 155.088469 
L 344.210989 154.668671 
L 340.171782 154.242406 
L 336.072241 153.810462 
L 331.91538 153.373693 
L 327.704262 152.933008 
L 323.441984 152.489377 
L 319.131666 152.043812 
L 314.776398 151.597356 
L 310.379311 151.151104 
L 305.943445 150.706148 
L 301.472 150.263641 
L 296.967975 149.824714 
L 292.43443 149.390517 
L 287.874415 148.962211 
L 283.290895 148.540932 
L 278.686859 148.127818 
L 274.065142 147.72398 
L 269.428673 147.330514 
L 264.780281 146.948477 
L 260.122768 146.578906 
L 255.458824 146.222784 
L 250.79119 145.881077 
L 246.12254 145.554686 
L 241.455508 145.244471 
L 236.792651 144.951247 
L 232.136551 144.675782 
L 227.489756 144.418784 
L 222.854803 144.18091 
L 218.234154 143.962777 
L 213.630238 143.764918 
L 209.045703 143.587865 
L 204.482816 143.43204 
L 199.944152 143.297855 
L 195.432182 143.185652 
L 190.949416 143.095738 
L 186.498318 143.028364 
L 182.081426 142.983727 
L 177.701254 142.961997 
L 173.360419 142.963291 
L 169.06142 142.987679 
L 164.806935 143.03522 
L 160.59963 143.105897 
L 156.442087 143.1997 
L 152.337101 143.316552 
L 148.287312 143.456365 
L 144.295457 143.619015 
L 140.364367 143.804358 
L 136.496667 144.012214 
L 132.69522 144.242404 
L 128.962755 144.494698 
L 125.302043 144.768878 
L 121.715902 145.064676 
L 118.206903 145.381843 
L 114.77782 145.720094 
L 111.43129 146.079134 
L 108.169908 146.45867 
L 104.996222 146.85838 
L 101.912692 147.277951 
L 98.921734 147.717042 
L 96.025671 148.175313 
L 93.226719 148.652434 
L 90.527023 149.148027 
L 87.928619 149.661742 
L 85.433384 150.193209 
L 83.043175 150.742047 
L 80.759669 151.307845 
L 78.58443 151.890232 
L 76.518935 152.488771 
L 74.56448 153.103046 
L 72.722251 153.732595 
L 70.993432 154.376972 
L 69.378874 155.035694 
L 67.879515 155.708247 
L 66.496049 156.394122 
L 65.229101 157.092753 
L 64.079187 157.803549 
L 63.04673 158.525918 
L 62.132021 159.259205 
L 61.33533 160.002729 
L 60.6567 160.755774 
L 60.096265 161.517589 
L 59.653959 162.287373 
L 59.329693 163.06429 
L 59.123309 163.847457 
L 59.034561 164.635962 
L 59.063182 165.42883 
L 59.208814 166.225038 
L 59.471053 167.023555 
L 59.849521 167.823287 
L 60.343635 168.623087 
L 60.952949 169.421783 
L 61.676881 170.2182 
L 62.514872 171.011063 
L 63.466251 171.799135 
L 64.530325 172.58113 
L 65.706445 173.355719 
L 66.993875 174.12162 
L 68.391831 174.877482 
L 69.899508 175.621986 
L 71.516123 176.353833 
L 73.240716 177.071694 
L 75.072458 177.774305 
L 77.010321 178.460404 
L 79.053345 179.128748 
L 81.200499 179.778176 
L 83.450644 180.407546 
L 85.802729 181.015781 
L 88.255502 181.601868 
L 90.807643 182.164835 
L 93.457967 182.703815 
L 96.205 183.218003 
L 99.047241 183.706667 
L 101.983306 184.169175 
L 105.011449 184.604969 
L 108.130062 185.013578 
L 111.337423 185.394639 
L 114.631585 185.74784 
L 118.010738 186.073018 
L 121.472758 186.370028 
L 125.015609 186.638869 
L 128.637124 186.879598 
L 132.334998 187.092366 
L 136.106863 187.277374 
L 139.950402 187.43494 
L 143.862923 187.565406 
L 147.841931 187.669224 
L 151.8848 187.746864 
L 155.988785 187.798879 
L 160.151018 187.825862 
L 164.368693 187.828451 
L 168.638859 187.80732 
L 172.958736 187.763193 
L 177.325056 187.6968 
L 181.735106 187.608902 
L 186.185494 187.500299 
L 190.673408 187.371773 
L 195.19569 187.224146 
L 199.749217 187.058228 
L 204.330811 186.874847 
L 208.937536 186.674819 
L 213.56624 186.458965 
L 218.213837 186.22808 
L 222.877261 185.982985 
L 227.553386 185.724468 
L 232.239455 185.453296 
L 236.93215 185.170255 
L 241.628758 184.87608 
L 246.326225 184.571518 
L 251.02167 184.257269 
L 255.712189 183.934058 
L 260.394955 183.602558 
L 265.067019 183.263428 
L 269.72589 182.917304 
L 274.368379 182.564847 
L 278.992014 182.206643 
L 283.593964 181.843291 
L 288.171498 181.475372 
L 292.721813 181.103444 
L 297.242479 180.728034 
L 301.730427 180.349718 
L 306.183219 179.968952 
L 310.598116 179.586275 
L 314.972373 179.202156 
L 319.303324 178.817064 
L 323.588208 178.431475 
L 327.824582 178.045807 
L 332.009416 177.66052 
L 336.140227 177.276021 
L 340.214311 176.892712 
L 344.228945 176.511002 
L 348.181367 176.131271 
L 352.069191 175.753877 
L 355.88942 175.37921 
L 359.639684 175.007574 
L 363.317256 174.63933 
L 366.919652 174.274782 
L 370.444281 173.914236 
L 373.888703 173.557977 
L 377.25037 173.206292 
L 380.527159 172.859413 
L 383.716497 172.517605 
L 386.816305 172.181063 
L 389.824391 171.85001 
L 392.7387 171.524619 
L 395.557217 171.205054 
L 398.278021 170.891459 
L 400.899322 170.583968 
L 403.419466 170.282665 
L 405.836865 169.987639 
L 408.149953 169.698948 
L 410.357413 169.416629 
L 412.457857 169.140691 
L 414.450257 168.871114 
L 416.333338 168.607899 
L 418.106296 168.350953 
L 419.768101 168.100218 
L 421.318061 167.855581 
L 422.755415 167.616926 
L 424.079515 167.384101 
L 425.289892 167.156941 
L 426.38603 166.935243 
L 427.367573 166.718803 
L 428.234163 166.507374 
L 428.985508 166.300705 
L 429.621452 166.098513 
L 430.141795 165.900503 
L 430.546447 165.706336 
L 430.83534 165.515691 
L 431.008429 165.328187 
z
" clip-path="url(#p997058e908)" style="fill: #f69e5e; opacity: 0.36; stroke: #f69e5e; stroke-linejoin: miter"/>
   </g>
   <g id="matplotlib.axis_1">
    <g id="xtick_1">
     <g id="line2d_1">
      <defs>
       <path id="mf4daca810c" d="M 0 0 
L 0 3.5 
" style="stroke: #000000; stroke-width: 0.8"/>
      </defs>
      <g>
       <use xlink:href="#mf4daca810c" x="58.961108" y="317.72" style="stroke: #000000; stroke-width: 0.8"/>
      </g>
     </g>
     <g id="text_1">
      <!-- −1.00 -->
      <g transform="translate(43.638452 332.318437) scale(0.1 -0.1)">
       <defs>
        <path id="DejaVuSans-2212" d="M 678 2272 
L 4684 2272 
L 4684 1741 
L 678 1741 
L 678 2272 
z
" transform="scale(0.015625)"/>
        <path id="DejaVuSans-31" d="M 794 531 
L 1825 531 
L 1825 4091 
L 703 3866 
L 703 4441 
L 1819 4666 
L 2450 4666 
L 2450 531 
L 3481 531 
L 3481 0 
L 794 0 
L 794 531 
z
" transform="scale(0.015625)"/>
        <path id="DejaVuSans-2e" d="M 684 794 
L 1344 794 
L 1344 0 
L 684 0 
L 684 794 
z
" transform="scale(0.015625)"/>
        <path id="DejaVuSans-30" d="M 2034 4250 
Q 1547 4250 1301 3770 
Q 1056 3291 1056 2328 
Q 1056 1369 1301 889 
Q 1547 409 2034 409 
Q 2525 409 2770 889 
Q 3016 1369 3016 2328 
Q 3016 3291 2770 3770 
Q 2525 4250 2034 4250 
z
M 2034 4750 
Q 2819 4750 3233 4129 
Q 3647 3509 3647 2328 
Q 3647 1150 3233 529 
Q 2819 -91 2034 -91 
Q 1250 -91 836 529 
Q 422 1150 422 2328 
Q 422 3509 836 4129 
Q 1250 4750 2034 4750 
z
" transform="scale(0.015625)"/>
       </defs>
       <use xlink:href="#DejaVuSans-2212"/>
       <use xlink:href="#DejaVuSans-31" transform="translate(83.789062 0)"/>
       <use xlink:href="#DejaVuSans-2e" transform="translate(147.412109 0)"/>
       <use xlink:href="#DejaVuSans-30" transform="translate(179.199219 0)"/>
       <use xlink:href="#DejaVuSans-30" transform="translate(242.822266 0)"/>
      </g>
     </g>
    </g>
    <g id="xtick_2">
     <g id="line2d_2">
      <g>
       <use xlink:href="#mf4daca810c" x="105.853711" y="317.72" style="stroke: #000000; stroke-width: 0.8"/>
      </g>
     </g>
     <g id="text_2">
      <!-- −0.75 -->
      <g transform="translate(90.531055 332.318437) scale(0.1 -0.1)">
       <defs>
        <path id="DejaVuSans-37" d="M 525 4666 
L 3525 4666 
L 3525 4397 
L 1831 0 
L 1172 0 
L 2766 4134 
L 525 4134 
L 525 4666 
z
" transform="scale(0.015625)"/>
        <path id="DejaVuSans-35" d="M 691 4666 
L 3169 4666 
L 3169 4134 
L 1269 4134 
L 1269 2991 
Q 1406 3038 1543 3061 
Q 1681 3084 1819 3084 
Q 2600 3084 3056 2656 
Q 3513 2228 3513 1497 
Q 3513 744 3044 326 
Q 2575 -91 1722 -91 
Q 1428 -91 1123 -41 
Q 819 9 494 109 
L 494 744 
Q 775 591 1075 516 
Q 1375 441 1709 441 
Q 2250 441 2565 725 
Q 2881 1009 2881 1497 
Q 2881 1984 2565 2268 
Q 2250 2553 1709 2553 
Q 1456 2553 1204 2497 
Q 953 2441 691 2322 
L 691 4666 
z
" transform="scale(0.015625)"/>
       </defs>
       <use xlink:href="#DejaVuSans-2212"/>
       <use xlink:href="#DejaVuSans-30" transform="translate(83.789062 0)"/>
       <use xlink:href="#DejaVuSans-2e" transform="translate(147.412109 0)"/>
       <use xlink:href="#DejaVuSans-37" transform="translate(179.199219 0)"/>
       <use xlink:href="#DejaVuSans-35" transform="translate(242.822266 0)"/>
      </g>
     </g>
    </g>
    <g id="xtick_3">
     <g id="line2d_3">
      <g>
       <use xlink:href="#mf4daca810c" x="152.746314" y="317.72" style="stroke: #000000; stroke-width: 0.8"/>
      </g>
     </g>
     <g id="text_3">
      <!-- −0.50 -->
      <g transform="translate(137.423658 332.318437) scale(0.1 -0.1)">
       <use xlink:href="#DejaVuSans-2212"/>
       <use xlink:href="#DejaVuSans-30" transform="translate(83.789062 0)"/>
       <use xlink:href="#DejaVuSans-2e" transform="translate(147.412109 0)"/>
       <use xlink:href="#DejaVuSans-35" transform="translate(179.199219 0)"/>
       <use xlink:href="#DejaVuSans-30" transform="translate(242.822266 0)"/>
      </g>
     </g>
    </g>
    <g id="xtick_4">
     <g id="line2d_4">
      <g>
       <use xlink:href="#mf4daca810c" x="199.638917" y="317.72" style="stroke: #000000; stroke-width: 0.8"/>
      </g>
     </g>
     <g id="text_4">
      <!-- −0.25 -->
      <g transform="translate(184.316261 332.318437) scale(0.1 -0.1)">
       <defs>
        <path id="DejaVuSans-32" d="M 1228 531 
L 3431 531 
L 3431 0 
L 469 0 
L 469 531 
Q 828 903 1448 1529 
Q 2069 2156 2228 2338 
Q 2531 2678 2651 2914 
Q 2772 3150 2772 3378 
Q 2772 3750 2511 3984 
Q 2250 4219 1831 4219 
Q 1534 4219 1204 4116 
Q 875 4013 500 3803 
L 500 4441 
Q 881 4594 1212 4672 
Q 1544 4750 1819 4750 
Q 2544 4750 2975 4387 
Q 3406 4025 3406 3419 
Q 3406 3131 3298 2873 
Q 3191 2616 2906 2266 
Q 2828 2175 2409 1742 
Q 1991 1309 1228 531 
z
" transform="scale(0.015625)"/>
       </defs>
       <use xlink:href="#DejaVuSans-2212"/>
       <use xlink:href="#DejaVuSans-30" transform="translate(83.789062 0)"/>
       <use xlink:href="#DejaVuSans-2e" transform="translate(147.412109 0)"/>
       <use xlink:href="#DejaVuSans-32" transform="translate(179.199219 0)"/>
       <use xlink:href="#DejaVuSans-35" transform="translate(242.822266 0)"/>
      </g>
     </g>
    </g>
    <g id="xtick_5">
     <g id="line2d_5">
      <g>
       <use xlink:href="#mf4daca810c" x="246.53152" y="317.72" style="stroke: #000000; stroke-width: 0.8"/>
      </g>
     </g>
     <g id="text_5">
      <!-- 0.00 -->
      <g transform="translate(235.398707 332.318437) scale(0.1 -0.1)">
       <use xlink:href="#DejaVuSans-30"/>
       <use xlink:href="#DejaVuSans-2e" transform="translate(63.623047 0)"/>
       <use xlink:href="#DejaVuSans-30" transform="translate(95.410156 0)"/>
       <use xlink:href="#DejaVuSans-30" transform="translate(159.033203 0)"/>
      </g>
     </g>
    </g>
    <g id="xtick_6">
     <g id="line2d_6">
      <g>
       <use xlink:href="#mf4daca810c" x="293.424123" y="317.72" style="stroke: #000000; stroke-width: 0.8"/>
      </g>
     </g>
     <g id="text_6">
      <!-- 0.25 -->
      <g transform="translate(282.29131 332.318437) scale(0.1 -0.1)">
       <use xlink:href="#DejaVuSans-30"/>
       <use xlink:href="#DejaVuSans-2e" transform="translate(63.623047 0)"/>
       <use xlink:href="#DejaVuSans-32" transform="translate(95.410156 0)"/>
       <use xlink:href="#DejaVuSans-35" transform="translate(159.033203 0)"/>
      </g>
     </g>
    </g>
    <g id="xtick_7">
     <g id="line2d_7">
      <g>
       <use xlink:href="#mf4daca810c" x="340.316726" y="317.72" style="stroke: #000000; stroke-width: 0.8"/>
      </g>
     </g>
     <g id="text_7">
      <!-- 0.50 -->
      <g transform="translate(329.183913 332.318437) scale(0.1 -0.1)">
       <use xlink:href="#DejaVuSans-30"/>
       <use xlink:href="#DejaVuSans-2e" transform="translate(63.623047 0)"/>
       <use xlink:href="#DejaVuSans-35" transform="translate(95.410156 0)"/>
       <use xlink:href="#DejaVuSans-30" transform="translate(159.033203 0)"/>
      </g>
     </g>
    </g>
    <g id="xtick_8">
     <g id="line2d_8">
      <g>
       <use xlink:href="#mf4daca810c" x="387.209329" y="317.72" style="stroke: #000000; stroke-width: 0.8"/>
      </g>
     </g>
     <g id="text_8">
      <!-- 0.75 -->
      <g transform="translate(376.076516 332.318437) scale(0.1 -0.1)">
       <use xlink:href="#DejaVuSans-30"/>
       <use xlink:href="#DejaVuSans-2e" transform="translate(63.623047 0)"/>
       <use xlink:href="#DejaVuSans-37" transform="translate(95.410156 0)"/>
       <use xlink:href="#DejaVuSans-35" transform="translate(159.033203 0)"/>
      </g>
     </g>
    </g>
    <g id="xtick_9">
     <g id="line2d_9">
      <g>
       <use xlink:href="#mf4daca810c" x="434.101932" y="317.72" style="stroke: #000000; stroke-width: 0.8"/>
      </g>
     </g>
     <g id="text_9">
      <!-- 1.00 -->
      <g transform="translate(422.969119 332.318437) scale(0.1 -0.1)">
       <use xlink:href="#DejaVuSans-31"/>
       <use xlink:href="#DejaVuSans-2e" transform="translate(63.623047 0)"/>
       <use xlink:href="#DejaVuSans-30" transform="translate(95.410156 0)"/>
       <use xlink:href="#DejaVuSans-30" transform="translate(159.033203 0)"/>
      </g>
     </g>
    </g>
   </g>
   <g id="matplotlib.axis_2">
    <g id="ytick_1">
     <g id="line2d_10">
      <defs>
       <path id="mb0894b9b38" d="M 0 0 
L -3.5 0 
" style="stroke: #000000; stroke-width: 0.8"/>
      </defs>
      <g>
       <use xlink:href="#mb0894b9b38" x="42.1" y="315.443938" style="stroke: #000000; stroke-width: 0.8"/>
      </g>
     </g>
     <g id="text_10">
      <!-- −0.8 -->
      <g transform="translate(10.817188 319.243157) scale(0.1 -0.1)">
       <defs>
        <path id="DejaVuSans-38" d="M 2034 2216 
Q 1584 2216 1326 1975 
Q 1069 1734 1069 1313 
Q 1069 891 1326 650 
Q 1584 409 2034 409 
Q 2484 409 2743 651 
Q 3003 894 3003 1313 
Q 3003 1734 2745 1975 
Q 2488 2216 2034 2216 
z
M 1403 2484 
Q 997 2584 770 2862 
Q 544 3141 544 3541 
Q 544 4100 942 4425 
Q 1341 4750 2034 4750 
Q 2731 4750 3128 4425 
Q 3525 4100 3525 3541 
Q 3525 3141 3298 2862 
Q 3072 2584 2669 2484 
Q 3125 2378 3379 2068 
Q 3634 1759 3634 1313 
Q 3634 634 3220 271 
Q 2806 -91 2034 -91 
Q 1263 -91 848 271 
Q 434 634 434 1313 
Q 434 1759 690 2068 
Q 947 2378 1403 2484 
z
M 1172 3481 
Q 1172 3119 1398 2916 
Q 1625 2713 2034 2713 
Q 2441 2713 2670 2916 
Q 2900 3119 2900 3481 
Q 2900 3844 2670 4047 
Q 2441 4250 2034 4250 
Q 1625 4250 1398 4047 
Q 1172 3844 1172 3481 
z
" transform="scale(0.015625)"/>
       </defs>
       <use xlink:href="#DejaVuSans-2212"/>
       <use xlink:href="#DejaVuSans-30" transform="translate(83.789062 0)"/>
       <use xlink:href="#DejaVuSans-2e" transform="translate(147.412109 0)"/>
       <use xlink:href="#DejaVuSans-38" transform="translate(179.199219 0)"/>
      </g>
     </g>
    </g>
    <g id="ytick_2">
     <g id="line2d_11">
      <g>
       <use xlink:href="#mb0894b9b38" x="42.1" y="277.929856" style="stroke: #000000; stroke-width: 0.8"/>
      </g>
     </g>
     <g id="text_11">
      <!-- −0.6 -->
      <g transform="translate(10.817188 281.729075) scale(0.1 -0.1)">
       <defs>
        <path id="DejaVuSans-36" d="M 2113 2584 
Q 1688 2584 1439 2293 
Q 1191 2003 1191 1497 
Q 1191 994 1439 701 
Q 1688 409 2113 409 
Q 2538 409 2786 701 
Q 3034 994 3034 1497 
Q 3034 2003 2786 2293 
Q 2538 2584 2113 2584 
z
M 3366 4563 
L 3366 3988 
Q 3128 4100 2886 4159 
Q 2644 4219 2406 4219 
Q 1781 4219 1451 3797 
Q 1122 3375 1075 2522 
Q 1259 2794 1537 2939 
Q 1816 3084 2150 3084 
Q 2853 3084 3261 2657 
Q 3669 2231 3669 1497 
Q 3669 778 3244 343 
Q 2819 -91 2113 -91 
Q 1303 -91 875 529 
Q 447 1150 447 2328 
Q 447 3434 972 4092 
Q 1497 4750 2381 4750 
Q 2619 4750 2861 4703 
Q 3103 4656 3366 4563 
z
" transform="scale(0.015625)"/>
       </defs>
       <use xlink:href="#DejaVuSans-2212"/>
       <use xlink:href="#DejaVuSans-30" transform="translate(83.789062 0)"/>
       <use xlink:href="#DejaVuSans-2e" transform="translate(147.412109 0)"/>
       <use xlink:href="#DejaVuSans-36" transform="translate(179.199219 0)"/>
      </g>
     </g>
    </g>
    <g id="ytick_3">
     <g id="line2d_12">
      <g>
       <use xlink:href="#mb0894b9b38" x="42.1" y="240.415774" style="stroke: #000000; stroke-width: 0.8"/>
      </g>
     </g>
     <g id="text_12">
      <!-- −0.4 -->
      <g transform="translate(10.817188 244.214992) scale(0.1 -0.1)">
       <defs>
        <path id="DejaVuSans-34" d="M 2419 4116 
L 825 1625 
L 2419 1625 
L 2419 4116 
z
M 2253 4666 
L 3047 4666 
L 3047 1625 
L 3713 1625 
L 3713 1100 
L 3047 1100 
L 3047 0 
L 2419 0 
L 2419 1100 
L 313 1100 
L 313 1709 
L 2253 4666 
z
" transform="scale(0.015625)"/>
       </defs>
       <use xlink:href="#DejaVuSans-2212"/>
       <use xlink:href="#DejaVuSans-30" transform="translate(83.789062 0)"/>
       <use xlink:href="#DejaVuSans-2e" transform="translate(147.412109 0)"/>
       <use xlink:href="#DejaVuSans-34" transform="translate(179.199219 0)"/>
      </g>
     </g>
    </g>
    <g id="ytick_4">
     <g id="line2d_13">
      <g>
       <use xlink:href="#mb0894b9b38" x="42.1" y="202.901691" style="stroke: #000000; stroke-width: 0.8"/>
      </g>
     </g>
     <g id="text_13">
      <!-- −0.2 -->
      <g transform="translate(10.817188 206.70091) scale(0.1 -0.1)">
       <use xlink:href="#DejaVuSans-2212"/>
       <use xlink:href="#DejaVuSans-30" transform="translate(83.789062 0)"/>
       <use xlink:href="#DejaVuSans-2e" transform="translate(147.412109 0)"/>
       <use xlink:href="#DejaVuSans-32" transform="translate(179.199219 0)"/>
      </g>
     </g>
    </g>
    <g id="ytick_5">
     <g id="line2d_14">
      <g>
       <use xlink:href="#mb0894b9b38" x="42.1" y="165.387609" style="stroke: #000000; stroke-width: 0.8"/>
      </g>
     </g>
     <g id="text_14">
      <!-- 0.0 -->
      <g transform="translate(19.196875 169.186828) scale(0.1 -0.1)">
       <use xlink:href="#DejaVuSans-30"/>
       <use xlink:href="#DejaVuSans-2e" transform="translate(63.623047 0)"/>
       <use xlink:href="#DejaVuSans-30" transform="translate(95.410156 0)"/>
      </g>
     </g>
    </g>
    <g id="ytick_6">
     <g id="line2d_15">
      <g>
       <use xlink:href="#mb0894b9b38" x="42.1" y="127.873527" style="stroke: #000000; stroke-width: 0.8"/>
      </g>
     </g>
     <g id="text_15">
      <!-- 0.2 -->
      <g transform="translate(19.196875 131.672745) scale(0.1 -0.1)">
       <use xlink:href="#DejaVuSans-30"/>
       <use xlink:href="#DejaVuSans-2e" transform="translate(63.623047 0)"/>
       <use xlink:href="#DejaVuSans-32" transform="translate(95.410156 0)"/>
      </g>
     </g>
    </g>
    <g id="ytick_7">
     <g id="line2d_16">
      <g>
       <use xlink:href="#mb0894b9b38" x="42.1" y="90.359444" style="stroke: #000000; stroke-width: 0.8"/>
      </g>
     </g>
     <g id="text_16">
      <!-- 0.4 -->
      <g transform="translate(19.196875 94.158663) scale(0.1 -0.1)">
       <use xlink:href="#DejaVuSans-30"/>
       <use xlink:href="#DejaVuSans-2e" transform="translate(63.623047 0)"/>
       <use xlink:href="#DejaVuSans-34" transform="translate(95.410156 0)"/>
      </g>
     </g>
    </g>
    <g id="ytick_8">
     <g id="line2d_17">
      <g>
       <use xlink:href="#mb0894b9b38" x="42.1" y="52.845362" style="stroke: #000000; stroke-width: 0.8"/>
      </g>
     </g>
     <g id="text_17">
      <!-- 0.6 -->
      <g transform="translate(19.196875 56.644581) scale(0.1 -0.1)">
       <use xlink:href="#DejaVuSans-30"/>
       <use xlink:href="#DejaVuSans-2e" transform="translate(63.623047 0)"/>
       <use xlink:href="#DejaVuSans-36" transform="translate(95.410156 0)"/>
      </g>
     </g>
    </g>
    <g id="ytick_9">
     <g id="line2d_18">
      <g>
       <use xlink:href="#mb0894b9b38" x="42.1" y="15.33128" style="stroke: #000000; stroke-width: 0.8"/>
      </g>
     </g>
     <g id="text_18">
      <!-- 0.8 -->
      <g transform="translate(19.196875 19.130498) scale(0.1 -0.1)">
       <use xlink:href="#DejaVuSans-30"/>
       <use xlink:href="#DejaVuSans-2e" transform="translate(63.623047 0)"/>
       <use xlink:href="#DejaVuSans-38" transform="translate(95.410156 0)"/>
      </g>
     </g>
    </g>
   </g>
   <g id="line2d_19">
    <path d="M 433.082913 178.9969 
L 433.09236 178.687746 
L 432.692762 178.353192 
L 431.885003 177.986376 
L 429.905404 177.358679 
L 425.81521 176.330786 
L 410.355893 172.837381 
L 392.218636 168.616221 
L 354.034647 159.624181 
L 337.953097 156.120854 
L 325.389882 153.598418 
L 312.512831 151.243018 
L 299.409568 149.105589 
L 286.150248 147.218175 
L 272.789799 145.595313 
L 259.371734 144.237203 
L 245.932782 143.133521 
L 232.507223 142.267079 
L 219.130622 141.616828 
L 205.843086 141.160179 
L 188.347513 140.813524 
L 171.230963 140.720363 
L 154.660588 140.835291 
L 135.016985 141.21256 
L 116.959644 141.793141 
L 100.910858 142.535158 
L 89.761479 143.231082 
L 80.259506 144.019045 
L 72.483624 144.911966 
L 67.805637 145.664853 
L 64.119625 146.505013 
L 62.211925 147.122509 
L 60.742562 147.793146 
L 59.710687 148.523862 
L 59.116455 149.322119 
L 58.961108 150.195853 
L 59.247184 151.15321 
L 59.978606 152.202321 
L 61.160373 153.350951 
L 62.798197 154.605964 
L 64.897992 155.972761 
L 68.924997 158.238727 
L 74.01337 160.759887 
L 80.158394 163.512146 
L 87.333918 166.44558 
L 95.489073 169.483781 
L 104.550685 172.528847 
L 111.05213 174.509065 
L 117.890295 176.412203 
L 125.038953 178.209228 
L 132.474246 179.875602 
L 140.175915 181.39252 
L 148.127157 182.747377 
L 156.314645 183.933792 
L 164.727909 184.951025 
L 173.358172 185.803088 
L 182.197749 186.497654 
L 191.238331 187.044977 
L 205.155339 187.616035 
L 219.462686 187.925175 
L 234.105942 188.014557 
L 254.026853 187.859025 
L 274.196799 187.463651 
L 299.333974 186.735846 
L 328.523627 185.662385 
L 363.781631 184.128016 
L 395.640028 182.519396 
L 415.6408 181.295189 
L 425.502045 180.482336 
L 429.771254 179.960685 
L 431.823814 179.562672 
L 432.923989 179.143884 
L 433.082913 178.9969 
L 433.082913 178.9969 
" clip-path="url(#p997058e908)" style="fill: none; stroke: #000000; stroke-width: 2; stroke-linecap: square"/>
   </g>
   <g id="line2d_20">
    <path d="M 431.065738 165.143445 
L 430.833238 164.78064 
L 430.13862 164.423831 
L 428.233291 163.891668 
L 425.298053 163.351039 
L 419.799964 162.59191 
L 408.234497 161.299279 
L 301.472 150.263641 
L 278.686859 148.127818 
L 260.122768 146.578906 
L 241.455508 145.244471 
L 222.854803 144.18091 
L 209.045703 143.587865 
L 195.432182 143.185652 
L 182.081426 142.983727 
L 169.06142 142.987679 
L 156.442087 143.1997 
L 144.295457 143.619015 
L 132.69522 144.242404 
L 121.715902 145.064676 
L 111.43129 146.079134 
L 101.912692 147.277951 
L 93.226719 148.652434 
L 85.433384 150.193209 
L 80.759669 151.307845 
L 76.518935 152.488771 
L 72.722251 153.732595 
L 69.378874 155.035694 
L 66.496049 156.394122 
L 64.079187 157.803549 
L 62.132021 159.259205 
L 60.6567 160.755774 
L 59.653959 162.287373 
L 59.329693 163.06429 
L 59.123309 163.847457 
L 59.034561 164.635962 
L 59.063182 165.42883 
L 59.208814 166.225038 
L 59.849521 167.823287 
L 60.952949 169.421783 
L 62.514872 171.011063 
L 64.530325 172.58113 
L 66.993875 174.12162 
L 69.899508 175.621986 
L 73.240716 177.071694 
L 77.010321 178.460404 
L 81.200499 179.778176 
L 85.802729 181.015781 
L 90.807643 182.164835 
L 96.205 183.218003 
L 101.983306 184.169175 
L 108.130062 185.013578 
L 114.631585 185.74784 
L 125.015609 186.638869 
L 136.106863 187.277374 
L 147.841931 187.669224 
L 160.151018 187.825862 
L 172.958736 187.763193 
L 186.185494 187.500299 
L 204.330811 186.874847 
L 222.877261 185.982985 
L 241.628758 184.87608 
L 265.067019 183.263428 
L 292.721813 181.103444 
L 323.588208 178.431475 
L 352.069191 175.753877 
L 380.527159 172.859413 
L 400.899322 170.583968 
L 414.450257 168.871114 
L 422.755415 167.616926 
L 427.367573 166.718803 
L 429.621452 166.098513 
L 430.546447 165.706336 
L 431.008429 165.328187 
L 431.065738 165.143445 
L 431.065738 165.143445 
" clip-path="url(#p997058e908)" style="fill: none; stroke-dasharray: 7.4,3.2; stroke-dashoffset: 0; stroke: #000000; stroke-width: 2"/>
   </g>
   <g id="patch_5">
    <path d="M 42.1 317.72 
L 42.1 11.01492 
" style="fill: none; stroke: #000000; stroke-width: 0.8; stroke-linejoin: miter; stroke-linecap: square"/>
   </g>
   <g id="patch_6">
    <path d="M 450 317.72 
L 450 11.01492 
" style="fill: none; stroke: #000000; stroke-width: 0.8; stroke-linejoin: miter; stroke-linecap: square"/>
   </g>
   <g id="patch_7">
    <path d="M 42.1 317.72 
L 450 317.72 
" style="fill: none; stroke: #000000; stroke-width: 0.8; stroke-linejoin: miter; stroke-linecap: square"/>
   </g>
   <g id="patch_8">
    <path d="M 42.1 11.01492 
L 450 11.01492 
" style="fill: none; stroke: #000000; stroke-width: 0.8; stroke-linejoin: miter; stroke-linecap: square"/>
   </g>
   <g id="legend_1">
    <g id="patch_9">
     <path d="M 325.31875 48.37117 
L 443 48.37117 
Q 445 48.37117 445 46.37117 
L 445 18.01492 
Q 445 16.01492 443 16.01492 
L 325.31875 16.01492 
Q 323.31875 16.01492 323.31875 18.01492 
L 323.31875 46.37117 
Q 323.31875 48.37117 325.31875 48.37117 
z
" style="fill: #ffffff; opacity: 0.8; stroke: #cccccc; stroke-linejoin: miter"/>
    </g>
    <g id="patch_10">
     <path d="M 327.31875 27.613357 
L 347.31875 27.613357 
L 347.31875 20.613357 
L 327.31875 20.613357 
z
" style="fill: #c9c9f5; opacity: 0.46; stroke: #c9c9f5; stroke-linejoin: miter"/>
    </g>
    <g id="text_19">
     <!-- Optimized Shape -->
     <g transform="translate(355.31875 27.613357) scale(0.1 -0.1)">
      <defs>
       <path id="DejaVuSans-4f" d="M 2522 4238 
Q 1834 4238 1429 3725 
Q 1025 3213 1025 2328 
Q 1025 1447 1429 934 
Q 1834 422 2522 422 
Q 3209 422 3611 934 
Q 4013 1447 4013 2328 
Q 4013 3213 3611 3725 
Q 3209 4238 2522 4238 
z
M 2522 4750 
Q 3503 4750 4090 4092 
Q 4678 3434 4678 2328 
Q 4678 1225 4090 567 
Q 3503 -91 2522 -91 
Q 1538 -91 948 565 
Q 359 1222 359 2328 
Q 359 3434 948 4092 
Q 1538 4750 2522 4750 
z
" transform="scale(0.015625)"/>
       <path id="DejaVuSans-70" d="M 1159 525 
L 1159 -1331 
L 581 -1331 
L 581 3500 
L 1159 3500 
L 1159 2969 
Q 1341 3281 1617 3432 
Q 1894 3584 2278 3584 
Q 2916 3584 3314 3078 
Q 3713 2572 3713 1747 
Q 3713 922 3314 415 
Q 2916 -91 2278 -91 
Q 1894 -91 1617 61 
Q 1341 213 1159 525 
z
M 3116 1747 
Q 3116 2381 2855 2742 
Q 2594 3103 2138 3103 
Q 1681 3103 1420 2742 
Q 1159 2381 1159 1747 
Q 1159 1113 1420 752 
Q 1681 391 2138 391 
Q 2594 391 2855 752 
Q 3116 1113 3116 1747 
z
" transform="scale(0.015625)"/>
       <path id="DejaVuSans-74" d="M 1172 4494 
L 1172 3500 
L 2356 3500 
L 2356 3053 
L 1172 3053 
L 1172 1153 
Q 1172 725 1289 603 
Q 1406 481 1766 481 
L 2356 481 
L 2356 0 
L 1766 0 
Q 1100 0 847 248 
Q 594 497 594 1153 
L 594 3053 
L 172 3053 
L 172 3500 
L 594 3500 
L 594 4494 
L 1172 4494 
z
" transform="scale(0.015625)"/>
       <path id="DejaVuSans-69" d="M 603 3500 
L 1178 3500 
L 1178 0 
L 603 0 
L 603 3500 
z
M 603 4863 
L 1178 4863 
L 1178 4134 
L 603 4134 
L 603 4863 
z
" transform="scale(0.015625)"/>
       <path id="DejaVuSans-6d" d="M 3328 2828 
Q 3544 3216 3844 3400 
Q 4144 3584 4550 3584 
Q 5097 3584 5394 3201 
Q 5691 2819 5691 2113 
L 5691 0 
L 5113 0 
L 5113 2094 
Q 5113 2597 4934 2840 
Q 4756 3084 4391 3084 
Q 3944 3084 3684 2787 
Q 3425 2491 3425 1978 
L 3425 0 
L 2847 0 
L 2847 2094 
Q 2847 2600 2669 2842 
Q 2491 3084 2119 3084 
Q 1678 3084 1418 2786 
Q 1159 2488 1159 1978 
L 1159 0 
L 581 0 
L 581 3500 
L 1159 3500 
L 1159 2956 
Q 1356 3278 1631 3431 
Q 1906 3584 2284 3584 
Q 2666 3584 2933 3390 
Q 3200 3197 3328 2828 
z
" transform="scale(0.015625)"/>
       <path id="DejaVuSans-7a" d="M 353 3500 
L 3084 3500 
L 3084 2975 
L 922 459 
L 3084 459 
L 3084 0 
L 275 0 
L 275 525 
L 2438 3041 
L 353 3041 
L 353 3500 
z
" transform="scale(0.015625)"/>
       <path id="DejaVuSans-65" d="M 3597 1894 
L 3597 1613 
L 953 1613 
Q 991 1019 1311 708 
Q 1631 397 2203 397 
Q 2534 397 2845 478 
Q 3156 559 3463 722 
L 3463 178 
Q 3153 47 2828 -22 
Q 2503 -91 2169 -91 
Q 1331 -91 842 396 
Q 353 884 353 1716 
Q 353 2575 817 3079 
Q 1281 3584 2069 3584 
Q 2775 3584 3186 3129 
Q 3597 2675 3597 1894 
z
M 3022 2063 
Q 3016 2534 2758 2815 
Q 2500 3097 2075 3097 
Q 1594 3097 1305 2825 
Q 1016 2553 972 2059 
L 3022 2063 
z
" transform="scale(0.015625)"/>
       <path id="DejaVuSans-64" d="M 2906 2969 
L 2906 4863 
L 3481 4863 
L 3481 0 
L 2906 0 
L 2906 525 
Q 2725 213 2448 61 
Q 2172 -91 1784 -91 
Q 1150 -91 751 415 
Q 353 922 353 1747 
Q 353 2572 751 3078 
Q 1150 3584 1784 3584 
Q 2172 3584 2448 3432 
Q 2725 3281 2906 2969 
z
M 947 1747 
Q 947 1113 1208 752 
Q 1469 391 1925 391 
Q 2381 391 2643 752 
Q 2906 1113 2906 1747 
Q 2906 2381 2643 2742 
Q 2381 3103 1925 3103 
Q 1469 3103 1208 2742 
Q 947 2381 947 1747 
z
" transform="scale(0.015625)"/>
       <path id="DejaVuSans-20" transform="scale(0.015625)"/>
       <path id="DejaVuSans-53" d="M 3425 4513 
L 3425 3897 
Q 3066 4069 2747 4153 
Q 2428 4238 2131 4238 
Q 1616 4238 1336 4038 
Q 1056 3838 1056 3469 
Q 1056 3159 1242 3001 
Q 1428 2844 1947 2747 
L 2328 2669 
Q 3034 2534 3370 2195 
Q 3706 1856 3706 1288 
Q 3706 609 3251 259 
Q 2797 -91 1919 -91 
Q 1588 -91 1214 -16 
Q 841 59 441 206 
L 441 856 
Q 825 641 1194 531 
Q 1563 422 1919 422 
Q 2459 422 2753 634 
Q 3047 847 3047 1241 
Q 3047 1584 2836 1778 
Q 2625 1972 2144 2069 
L 1759 2144 
Q 1053 2284 737 2584 
Q 422 2884 422 3419 
Q 422 4038 858 4394 
Q 1294 4750 2059 4750 
Q 2388 4750 2728 4690 
Q 3069 4631 3425 4513 
z
" transform="scale(0.015625)"/>
       <path id="DejaVuSans-68" d="M 3513 2113 
L 3513 0 
L 2938 0 
L 2938 2094 
Q 2938 2591 2744 2837 
Q 2550 3084 2163 3084 
Q 1697 3084 1428 2787 
Q 1159 2491 1159 1978 
L 1159 0 
L 581 0 
L 581 4863 
L 1159 4863 
L 1159 2956 
Q 1366 3272 1645 3428 
Q 1925 3584 2291 3584 
Q 2894 3584 3203 3211 
Q 3513 2838 3513 2113 
z
" transform="scale(0.015625)"/>
       <path id="DejaVuSans-61" d="M 2194 1759 
Q 1497 1759 1228 1600 
Q 959 1441 959 1056 
Q 959 750 1161 570 
Q 1363 391 1709 391 
Q 2188 391 2477 730 
Q 2766 1069 2766 1631 
L 2766 1759 
L 2194 1759 
z
M 3341 1997 
L 3341 0 
L 2766 0 
L 2766 531 
Q 2569 213 2275 61 
Q 1981 -91 1556 -91 
Q 1019 -91 701 211 
Q 384 513 384 1019 
Q 384 1609 779 1909 
Q 1175 2209 1959 2209 
L 2766 2209 
L 2766 2266 
Q 2766 2663 2505 2880 
Q 2244 3097 1772 3097 
Q 1472 3097 1187 3025 
Q 903 2953 641 2809 
L 641 3341 
Q 956 3463 1253 3523 
Q 1550 3584 1831 3584 
Q 2591 3584 2966 3190 
Q 3341 2797 3341 1997 
z
" transform="scale(0.015625)"/>
      </defs>
      <use xlink:href="#DejaVuSans-4f"/>
      <use xlink:href="#DejaVuSans-70" transform="translate(78.710938 0)"/>
      <use xlink:href="#DejaVuSans-74" transform="translate(142.1875 0)"/>
      <use xlink:href="#DejaVuSans-69" transform="translate(181.396484 0)"/>
      <use xlink:href="#DejaVuSans-6d" transform="translate(209.179688 0)"/>
      <use xlink:href="#DejaVuSans-69" transform="translate(306.591797 0)"/>
      <use xlink:href="#DejaVuSans-7a" transform="translate(334.375 0)"/>
      <use xlink:href="#DejaVuSans-65" transform="translate(386.865234 0)"/>
      <use xlink:href="#DejaVuSans-64" transform="translate(448.388672 0)"/>
      <use xlink:href="#DejaVuSans-20" transform="translate(511.865234 0)"/>
      <use xlink:href="#DejaVuSans-53" transform="translate(543.652344 0)"/>
      <use xlink:href="#DejaVuSans-68" transform="translate(607.128906 0)"/>
      <use xlink:href="#DejaVuSans-61" transform="translate(670.507812 0)"/>
      <use xlink:href="#DejaVuSans-70" transform="translate(731.787109 0)"/>
      <use xlink:href="#DejaVuSans-65" transform="translate(795.263672 0)"/>
     </g>
    </g>
    <g id="patch_11">
     <path d="M 327.31875 42.291482 
L 347.31875 42.291482 
L 347.31875 35.291482 
L 327.31875 35.291482 
z
" style="fill: #f69e5e; opacity: 0.36; stroke: #f69e5e; stroke-linejoin: miter"/>
    </g>
    <g id="text_20">
     <!-- Initial Shape -->
     <g transform="translate(355.31875 42.291482) scale(0.1 -0.1)">
      <defs>
       <path id="DejaVuSans-49" d="M 628 4666 
L 1259 4666 
L 1259 0 
L 628 0 
L 628 4666 
z
" transform="scale(0.015625)"/>
       <path id="DejaVuSans-6e" d="M 3513 2113 
L 3513 0 
L 2938 0 
L 2938 2094 
Q 2938 2591 2744 2837 
Q 2550 3084 2163 3084 
Q 1697 3084 1428 2787 
Q 1159 2491 1159 1978 
L 1159 0 
L 581 0 
L 581 3500 
L 1159 3500 
L 1159 2956 
Q 1366 3272 1645 3428 
Q 1925 3584 2291 3584 
Q 2894 3584 3203 3211 
Q 3513 2838 3513 2113 
z
" transform="scale(0.015625)"/>
       <path id="DejaVuSans-6c" d="M 603 4863 
L 1178 4863 
L 1178 0 
L 603 0 
L 603 4863 
z
" transform="scale(0.015625)"/>
      </defs>
      <use xlink:href="#DejaVuSans-49"/>
      <use xlink:href="#DejaVuSans-6e" transform="translate(29.492188 0)"/>
      <use xlink:href="#DejaVuSans-69" transform="translate(92.871094 0)"/>
      <use xlink:href="#DejaVuSans-74" transform="translate(120.654297 0)"/>
      <use xlink:href="#DejaVuSans-69" transform="translate(159.863281 0)"/>
      <use xlink:href="#DejaVuSans-61" transform="translate(187.646484 0)"/>
      <use xlink:href="#DejaVuSans-6c" transform="translate(248.925781 0)"/>
      <use xlink:href="#DejaVuSans-20" transform="translate(276.708984 0)"/>
      <use xlink:href="#DejaVuSans-53" transform="translate(308.496094 0)"/>
      <use xlink:href="#DejaVuSans-68" transform="translate(371.972656 0)"/>
      <use xlink:href="#DejaVuSans-61" transform="translate(435.351562 0)"/>
      <use xlink:href="#DejaVuSans-70" transform="translate(496.630859 0)"/>
      <use xlink:href="#DejaVuSans-65" transform="translate(560.107422 0)"/>
     </g>
    </g>
   </g>
  </g>
 </g>
 <defs>
  <clipPath id="p997058e908">
   <rect x="42.1" y="11.01492" width="407.9" height="306.70508"/>
  </clipPath>
 </defs>
</svg>
