<?xml version="1.0" encoding="utf-8" standalone="no"?>
<!DOCTYPE svg PUBLIC "-//W3C//DTD SVG 1.1//EN"
  "http://www.w3.org/Graphics/SVG/1.1/DTD/svg11.dtd">
<svg xmlns:xlink="http://www.w3.org/1999/xlink" width="460.8pt" height="345.6pt" viewBox="0 0 460.8 345.6" xmlns="http://www.w3.org/2000/svg" version="1.1">
 <metadata>
  <rdf:RDF xmlns:dc="http://purl.org/dc/elements/1.1/" xmlns:cc="http://creativecommons.org/ns#" xmlns:rdf="http://www.w3.org/1999/02/22-rdf-syntax-ns#">
   <cc:Work>
    <dc:type rdf:resource="http://purl.org/dc/dcmitype/StillImage"/>
    <dc:date>2025-06-09T16:12:27.951077</dc:date>
    <dc:format>image/svg+xml</dc:format>
    <dc:creator>
     <cc:Agent>
      <dc:title>Matplotlib v3.10.0, https://matplotlib.org/</dc:title>
     </cc:Agent>
    </dc:creator>
   </cc:Work>
  </rdf:RDF>
 </metadata>
 <defs>
  <style type="text/css">*{stroke-linejoin: round; stroke-linecap: butt}</style>
 </defs>
 <g id="figure_1">
  <g id="patch_1">
   <path d="M 0 345.6 
L 460.8 345.6 
L 460.8 0 
L 0 0 
z
" style="fill: #ffffff"/>
  </g>
  <g id="axes_1">
   <g id="patch_2">
    <path d="M 42.1 317.72 
L 450 317.72 
L 450 12.317566 
L 42.1 12.317566 
z
" style="fill: #ffffff"/>
   </g>
   <g id="patch_3">
    <path d="M 431.459091 164.29172 
L 431.388279 164.150731 
L 431.207766 164.012786 
L 430.917507 163.877512 
L 430.517558 163.744512 
L 430.007973 163.613387 
L 429.388742 163.483704 
L 428.659977 163.355032 
L 427.821621 163.226927 
L 426.87383 163.098912 
L 425.816671 162.970509 
L 424.650221 162.841227 
L 423.37467 162.710577 
L 421.990207 162.57803 
L 420.496931 162.44307 
L 418.895187 162.305167 
L 417.185276 162.163803 
L 415.367508 162.018433 
L 413.442328 161.868527 
L 411.410236 161.713543 
L 409.27181 161.552979 
L 407.027684 161.386308 
L 404.678624 161.213026 
L 402.225454 161.032654 
L 399.669117 160.844725 
L 397.01067 160.648808 
L 394.251246 160.444498 
L 391.392168 160.231414 
L 388.434781 160.009229 
L 385.380642 159.777648 
L 382.231371 159.536435 
L 378.988738 159.285397 
L 375.654631 159.024397 
L 372.231118 158.753378 
L 368.720299 158.472311 
L 365.124487 158.181268 
L 361.446004 157.880374 
L 357.687384 157.569827 
L 353.851295 157.24989 
L 349.940393 156.920924 
L 345.957546 156.583324 
L 341.905644 156.237595 
L 337.787671 155.884299 
L 333.606766 155.524051 
L 329.366009 155.157549 
L 325.068634 154.785554 
L 320.717943 154.40888 
L 316.317174 154.028389 
L 311.869679 153.644994 
L 307.378787 153.259648 
L 302.847971 152.873347 
L 298.280554 152.487115 
L 293.679888 152.101978 
L 289.04944 151.719015 
L 284.392515 151.339276 
L 279.712474 150.963844 
L 275.012607 150.593771 
L 270.296241 150.230124 
L 265.566659 149.873948 
L 260.82706 149.526251 
L 256.080625 149.188028 
L 251.330495 148.860247 
L 246.579817 148.543832 
L 241.831644 148.239672 
L 237.088984 147.948609 
L 232.35479 147.67145 
L 227.632066 147.408945 
L 222.923748 147.161808 
L 218.232647 146.93068 
L 213.561625 146.716177 
L 208.913622 146.518854 
L 204.291272 146.339209 
L 199.697441 146.1777 
L 195.134882 146.034728 
L 190.606378 145.910652 
L 186.114602 145.805773 
L 181.662328 145.720357 
L 177.252228 145.654622 
L 172.887087 145.608735 
L 168.569522 145.582838 
L 164.302285 145.577026 
L 160.088109 145.591354 
L 155.929578 145.625857 
L 151.82951 145.680524 
L 147.790434 145.75532 
L 143.815079 145.850193 
L 139.906111 145.96505 
L 136.066087 146.099787 
L 132.297653 146.254284 
L 128.603332 146.428389 
L 124.985646 146.621941 
L 121.447207 146.834782 
L 117.990217 147.066702 
L 114.617231 147.317529 
L 111.330506 147.587046 
L 108.132286 147.875057 
L 105.024774 148.181347 
L 102.010025 148.505678 
L 99.090039 148.847835 
L 96.266817 149.207591 
L 93.54206 149.584705 
L 90.917534 149.978963 
L 88.394942 150.390106 
L 85.975682 150.817896 
L 83.661189 151.262096 
L 81.452807 151.722449 
L 79.351671 152.198702 
L 77.358892 152.690578 
L 75.475447 153.197819 
L 73.702182 153.720123 
L 72.039908 154.2572 
L 70.489214 154.808737 
L 69.050822 155.374406 
L 67.725055 155.953847 
L 66.512413 156.5467 
L 65.413174 157.152546 
L 64.42756 157.770979 
L 63.555782 158.401532 
L 62.797908 159.043724 
L 62.153991 159.697031 
L 61.623945 160.360893 
L 61.207767 161.034695 
L 60.905338 161.717811 
L 60.716444 162.409535 
L 60.640909 163.109145 
L 60.678543 163.815877 
L 60.829002 164.528867 
L 61.091975 165.247243 
L 61.467206 165.970118 
L 61.954328 166.696464 
L 62.552896 167.425277 
L 63.262622 168.155511 
L 64.082995 168.886014 
L 65.013658 169.615657 
L 66.054145 170.343238 
L 67.203911 171.067525 
L 68.462546 171.787262 
L 69.829493 172.501154 
L 71.304262 173.207894 
L 72.886233 173.906188 
L 74.574816 174.594659 
L 76.369432 175.272012 
L 78.269404 175.936911 
L 80.273987 176.588036 
L 82.382537 177.224107 
L 84.594219 177.843841 
L 86.908268 178.446031 
L 89.32376 179.029484 
L 91.839728 179.593055 
L 94.455239 180.135674 
L 97.169215 180.656319 
L 99.980522 181.154053 
L 102.88796 181.628019 
L 105.890194 182.077398 
L 108.985881 182.501505 
L 112.17363 182.899733 
L 115.451708 183.271539 
L 118.818625 183.616495 
L 122.272514 183.934249 
L 125.81152 184.224566 
L 129.43373 184.487291 
L 133.137054 184.722359 
L 136.919215 184.929797 
L 140.778133 185.109716 
L 144.71112 185.262315 
L 148.715885 185.387854 
L 152.789739 185.486717 
L 156.929947 185.55929 
L 161.133725 185.606079 
L 165.398134 185.627627 
L 169.720089 185.624542 
L 174.096767 185.59747 
L 178.524706 185.547099 
L 183.000976 185.474178 
L 187.521934 185.379466 
L 192.084549 185.26376 
L 196.685281 185.127877 
L 201.320744 184.972651 
L 205.987381 184.798931 
L 210.681838 184.607597 
L 215.40057 184.399474 
L 220.140055 184.175451 
L 224.896751 183.936396 
L 229.667113 183.68316 
L 234.447888 183.416591 
L 239.235183 183.13754 
L 244.025881 182.846826 
L 248.816398 182.545267 
L 253.603346 182.23367 
L 258.383351 181.91281 
L 263.153025 181.583461 
L 267.909011 181.24636 
L 272.648284 180.902247 
L 277.367254 180.551838 
L 282.062984 180.195804 
L 286.732222 179.834817 
L 291.371839 179.469531 
L 295.978676 179.100596 
L 300.549944 178.72859 
L 305.082288 178.354136 
L 309.572952 177.977782 
L 314.018975 177.60009 
L 318.417426 177.221612 
L 322.765423 176.842848 
L 327.060108 176.464317 
L 331.298886 176.086472 
L 335.478724 175.709813 
L 339.597153 175.334764 
L 343.651422 174.961765 
L 347.638938 174.591231 
L 351.55703 174.223572 
L 355.403456 173.85913 
L 359.175447 173.498311 
L 362.870836 173.141439 
L 366.487199 172.788845 
L 370.022314 172.440835 
L 373.473981 172.09772 
L 376.840109 171.759748 
L 380.118576 171.427214 
L 383.307659 171.100298 
L 386.405257 170.77928 
L 389.409781 170.464309 
L 392.319508 170.155597 
L 395.13286 169.853287 
L 397.848381 169.557517 
L 400.464692 169.268417 
L 402.980461 168.986083 
L 405.39463 168.710587 
L 407.706055 168.441994 
L 409.913781 168.18034 
L 412.016874 167.925641 
L 414.014543 167.677905 
L 415.906146 167.43709 
L 417.690937 167.203185 
L 419.368472 166.976096 
L 420.93825 166.755768 
L 422.399826 166.542093 
L 423.752869 166.334953 
L 424.997098 166.134214 
L 426.132249 165.939726 
L 427.158165 165.751297 
L 428.074712 165.568762 
L 428.881681 165.391898 
L 429.579036 165.220485 
L 430.166735 165.054277 
L 430.644731 164.893029 
L 431.012938 164.736442 
L 431.271442 164.584235 
L 431.420112 164.436107 
L 431.459091 164.291718 
z
" clip-path="url(#pd9130e7b66)" style="fill: #c9c9f5; opacity: 0.46; stroke: #c9c9f5; stroke-linejoin: miter"/>
   </g>
   <g id="patch_4">
    <path d="M 430.56834 164.767282 
L 430.510255 164.585114 
L 430.3372 164.404878 
L 430.049286 164.22615 
L 429.646647 164.048464 
L 429.129482 163.871355 
L 428.498014 163.694327 
L 427.752465 163.516889 
L 426.893125 163.338518 
L 425.920304 163.158684 
L 424.834402 162.976857 
L 423.635754 162.792492 
L 422.324891 162.605019 
L 420.902283 162.413901 
L 419.368483 162.218566 
L 417.724137 162.018466 
L 415.969933 161.813036 
L 414.106628 161.601742 
L 412.135 161.384042 
L 410.056049 161.159414 
L 407.870686 160.927363 
L 405.580089 160.687405 
L 403.185348 160.439088 
L 400.687775 160.181993 
L 398.088724 159.915738 
L 395.389664 159.639979 
L 392.592173 159.354426 
L 389.697939 159.058825 
L 386.708765 158.752983 
L 383.626471 158.436778 
L 380.453171 158.110122 
L 377.190843 157.773027 
L 373.84182 157.425549 
L 370.408282 157.067831 
L 366.892717 156.700075 
L 363.297616 156.32257 
L 359.625535 155.935676 
L 355.879097 155.539833 
L 352.061147 155.13555 
L 348.174419 154.723414 
L 344.221782 154.30408 
L 340.206208 153.878286 
L 336.130654 153.446819 
L 331.998115 153.010532 
L 327.811636 152.570334 
L 323.574297 152.127194 
L 319.289198 151.682121 
L 314.959413 151.236158 
L 310.588054 150.790398 
L 306.178143 150.345934 
L 301.73286 149.903916 
L 297.255189 149.465474 
L 292.748169 149.031757 
L 288.214836 148.603924 
L 283.658134 148.183111 
L 279.081036 147.770452 
L 274.486361 147.36706 
L 269.87702 146.974029 
L 265.255825 146.592414 
L 260.625564 146.223252 
L 255.988909 145.867524 
L 251.348586 145.526193 
L 246.707252 145.200163 
L 242.067527 144.890291 
L 237.431953 144.597391 
L 232.803096 144.32223 
L 228.183489 144.065516 
L 223.575655 143.827905 
L 218.982042 143.610013 
L 214.405064 143.412372 
L 209.847353 143.235515 
L 205.311163 143.079862 
L 200.799056 142.945825 
L 196.313485 142.833746 
L 191.856948 142.743931 
L 187.431894 142.676632 
L 183.040845 142.632045 
L 178.686302 142.610339 
L 174.370865 142.611631 
L 170.09702 142.635992 
L 165.867428 142.68348 
L 161.68474 142.75408 
L 157.551523 142.847778 
L 153.470556 142.964502 
L 149.444462 143.10416 
L 145.475964 143.266631 
L 141.567874 143.451769 
L 137.722804 143.659395 
L 133.9436 143.889331 
L 130.232973 144.141346 
L 126.59368 144.415223 
L 123.028522 144.710695 
L 119.540055 145.027512 
L 116.131035 145.365388 
L 112.804086 145.724032 
L 109.561786 146.103148 
L 106.40667 146.502417 
L 103.341182 146.921524 
L 100.367723 147.360131 
L 97.488606 147.817896 
L 94.70603 148.294489 
L 92.022131 148.789534 
L 89.43893 149.302683 
L 86.958295 149.833562 
L 84.582071 150.381794 
L 82.311926 150.946967 
L 80.149414 151.52871 
L 78.096004 152.126588 
L 76.152985 152.740184 
L 74.321535 153.369038 
L 72.602832 154.012704 
L 70.99772 154.670697 
L 69.507134 155.342508 
L 68.131763 156.027625 
L 66.872228 156.725484 
L 65.729042 157.435494 
L 64.702626 158.157066 
L 63.793269 158.889542 
L 63.001239 159.632246 
L 62.32658 160.384458 
L 61.769424 161.145432 
L 61.329706 161.914366 
L 61.007337 162.690424 
L 60.80216 163.472726 
L 60.713932 164.26036 
L 60.742386 165.052352 
L 60.887165 165.84768 
L 61.147871 166.645315 
L 61.524124 167.444164 
L 62.015347 168.24308 
L 62.621096 169.040894 
L 63.340792 169.836432 
L 64.173879 170.628418 
L 65.119692 171.415619 
L 66.17754 172.196751 
L 67.346779 172.970484 
L 68.626676 173.73554 
L 70.016452 174.490567 
L 71.515308 175.234247 
L 73.122464 175.965286 
L 74.836966 176.682354 
L 76.657991 177.384189 
L 78.584516 178.069529 
L 80.615585 178.737136 
L 82.750176 179.385846 
L 84.987156 180.014521 
L 87.325479 180.622084 
L 89.7639 181.207524 
L 92.301109 181.769869 
L 94.935926 182.308253 
L 97.666885 182.821873 
L 100.492497 183.309997 
L 103.411382 183.771995 
L 106.421808 184.207307 
L 109.522174 184.615464 
L 112.710768 184.996105 
L 115.985656 185.348915 
L 119.345037 185.673734 
L 122.7868 185.970416 
L 126.308923 186.23896 
L 129.909248 186.479423 
L 133.585486 186.691956 
L 137.335281 186.87676 
L 141.156332 187.034152 
L 145.04596 187.164474 
L 149.001687 187.268177 
L 153.020901 187.345731 
L 157.100873 187.397689 
L 161.238753 187.424642 
L 165.43175 187.427228 
L 169.676931 187.406121 
L 173.971533 187.362042 
L 178.312305 187.295722 
L 182.696552 187.207922 
L 187.1209 187.099438 
L 191.582555 186.971054 
L 196.078377 186.82359 
L 200.605261 186.657856 
L 205.160048 186.474677 
L 209.739819 186.27487 
L 214.341441 186.059255 
L 218.961843 185.828625 
L 223.597982 185.5838 
L 228.246747 185.325569 
L 232.905398 185.054696 
L 237.570636 184.771969 
L 242.239764 184.478118 
L 246.909745 184.173893 
L 251.577717 183.859991 
L 256.240792 183.537138 
L 260.896158 183.206004 
L 265.540886 182.867248 
L 270.172498 182.521506 
L 274.787824 182.169439 
L 279.384405 181.81163 
L 283.95943 181.44868 
L 288.51018 181.081167 
L 293.033871 180.70965 
L 297.528087 180.334655 
L 301.989775 179.956756 
L 306.416513 179.576412 
L 310.805579 179.194158 
L 315.154242 178.810463 
L 319.459853 178.425796 
L 323.719666 178.040633 
L 327.931252 177.655391 
L 332.0916 177.27053 
L 336.198242 176.886455 
L 340.248488 176.50357 
L 344.239632 176.122282 
L 348.168929 175.74297 
L 352.034005 175.365993 
L 355.831882 174.99174 
L 359.560203 174.620514 
L 363.216257 174.252677 
L 366.797576 173.888532 
L 370.301581 173.528384 
L 373.72585 173.172519 
L 377.067848 172.821222 
L 380.325464 172.474727 
L 383.496141 172.133296 
L 386.577812 171.797125 
L 389.568298 171.466438 
L 392.465555 171.141407 
L 395.267581 170.822195 
L 397.972465 170.508946 
L 400.578429 170.201795 
L 403.083827 169.900825 
L 405.487082 169.606125 
L 407.786637 169.317753 
L 409.98118 169.035745 
L 412.069335 168.760112 
L 414.050077 168.490833 
L 415.92214 168.227909 
L 417.684724 167.971247 
L 419.336806 167.720789 
L 420.877697 167.476422 
L 422.306641 167.238031 
L 423.622994 167.005463 
L 424.826289 166.778554 
L 425.916014 166.557101 
L 426.891813 166.3409 
L 427.753332 166.129704 
L 428.500281 165.923264 
L 429.132505 165.721295 
L 429.649803 165.523504 
L 430.052087 165.329551 
L 430.33929 165.139117 
L 430.511367 164.95182 
z
" clip-path="url(#pd9130e7b66)" style="fill: #f69e5e; opacity: 0.36; stroke: #f69e5e; stroke-linejoin: miter"/>
   </g>
   <g id="matplotlib.axis_1">
    <g id="xtick_1">
     <g id="line2d_1">
      <defs>
       <path id="mc1311d14d4" d="M 0 0 
L 0 3.5 
" style="stroke: #000000; stroke-width: 0.8"/>
      </defs>
      <g>
       <use xlink:href="#mc1311d14d4" x="60.640909" y="317.72" style="stroke: #000000; stroke-width: 0.8"/>
      </g>
     </g>
     <g id="text_1">
      <!-- −1.00 -->
      <g transform="translate(45.318253 332.318437) scale(0.1 -0.1)">
       <defs>
        <path id="DejaVuSans-2212" d="M 678 2272 
L 4684 2272 
L 4684 1741 
L 678 1741 
L 678 2272 
z
" transform="scale(0.015625)"/>
        <path id="DejaVuSans-31" d="M 794 531 
L 1825 531 
L 1825 4091 
L 703 3866 
L 703 4441 
L 1819 4666 
L 2450 4666 
L 2450 531 
L 3481 531 
L 3481 0 
L 794 0 
L 794 531 
z
" transform="scale(0.015625)"/>
        <path id="DejaVuSans-2e" d="M 684 794 
L 1344 794 
L 1344 0 
L 684 0 
L 684 794 
z
" transform="scale(0.015625)"/>
        <path id="DejaVuSans-30" d="M 2034 4250 
Q 1547 4250 1301 3770 
Q 1056 3291 1056 2328 
Q 1056 1369 1301 889 
Q 1547 409 2034 409 
Q 2525 409 2770 889 
Q 3016 1369 3016 2328 
Q 3016 3291 2770 3770 
Q 2525 4250 2034 4250 
z
M 2034 4750 
Q 2819 4750 3233 4129 
Q 3647 3509 3647 2328 
Q 3647 1150 3233 529 
Q 2819 -91 2034 -91 
Q 1250 -91 836 529 
Q 422 1150 422 2328 
Q 422 3509 836 4129 
Q 1250 4750 2034 4750 
z
" transform="scale(0.015625)"/>
       </defs>
       <use xlink:href="#DejaVuSans-2212"/>
       <use xlink:href="#DejaVuSans-31" transform="translate(83.789062 0)"/>
       <use xlink:href="#DejaVuSans-2e" transform="translate(147.412109 0)"/>
       <use xlink:href="#DejaVuSans-30" transform="translate(179.199219 0)"/>
       <use xlink:href="#DejaVuSans-30" transform="translate(242.822266 0)"/>
      </g>
     </g>
    </g>
    <g id="xtick_2">
     <g id="line2d_2">
      <g>
       <use xlink:href="#mc1311d14d4" x="107.259142" y="317.72" style="stroke: #000000; stroke-width: 0.8"/>
      </g>
     </g>
     <g id="text_2">
      <!-- −0.75 -->
      <g transform="translate(91.936485 332.318437) scale(0.1 -0.1)">
       <defs>
        <path id="DejaVuSans-37" d="M 525 4666 
L 3525 4666 
L 3525 4397 
L 1831 0 
L 1172 0 
L 2766 4134 
L 525 4134 
L 525 4666 
z
" transform="scale(0.015625)"/>
        <path id="DejaVuSans-35" d="M 691 4666 
L 3169 4666 
L 3169 4134 
L 1269 4134 
L 1269 2991 
Q 1406 3038 1543 3061 
Q 1681 3084 1819 3084 
Q 2600 3084 3056 2656 
Q 3513 2228 3513 1497 
Q 3513 744 3044 326 
Q 2575 -91 1722 -91 
Q 1428 -91 1123 -41 
Q 819 9 494 109 
L 494 744 
Q 775 591 1075 516 
Q 1375 441 1709 441 
Q 2250 441 2565 725 
Q 2881 1009 2881 1497 
Q 2881 1984 2565 2268 
Q 2250 2553 1709 2553 
Q 1456 2553 1204 2497 
Q 953 2441 691 2322 
L 691 4666 
z
" transform="scale(0.015625)"/>
       </defs>
       <use xlink:href="#DejaVuSans-2212"/>
       <use xlink:href="#DejaVuSans-30" transform="translate(83.789062 0)"/>
       <use xlink:href="#DejaVuSans-2e" transform="translate(147.412109 0)"/>
       <use xlink:href="#DejaVuSans-37" transform="translate(179.199219 0)"/>
       <use xlink:href="#DejaVuSans-35" transform="translate(242.822266 0)"/>
      </g>
     </g>
    </g>
    <g id="xtick_3">
     <g id="line2d_3">
      <g>
       <use xlink:href="#mc1311d14d4" x="153.877374" y="317.72" style="stroke: #000000; stroke-width: 0.8"/>
      </g>
     </g>
     <g id="text_3">
      <!-- −0.50 -->
      <g transform="translate(138.554718 332.318437) scale(0.1 -0.1)">
       <use xlink:href="#DejaVuSans-2212"/>
       <use xlink:href="#DejaVuSans-30" transform="translate(83.789062 0)"/>
       <use xlink:href="#DejaVuSans-2e" transform="translate(147.412109 0)"/>
       <use xlink:href="#DejaVuSans-35" transform="translate(179.199219 0)"/>
       <use xlink:href="#DejaVuSans-30" transform="translate(242.822266 0)"/>
      </g>
     </g>
    </g>
    <g id="xtick_4">
     <g id="line2d_4">
      <g>
       <use xlink:href="#mc1311d14d4" x="200.495607" y="317.72" style="stroke: #000000; stroke-width: 0.8"/>
      </g>
     </g>
     <g id="text_4">
      <!-- −0.25 -->
      <g transform="translate(185.17295 332.318437) scale(0.1 -0.1)">
       <defs>
        <path id="DejaVuSans-32" d="M 1228 531 
L 3431 531 
L 3431 0 
L 469 0 
L 469 531 
Q 828 903 1448 1529 
Q 2069 2156 2228 2338 
Q 2531 2678 2651 2914 
Q 2772 3150 2772 3378 
Q 2772 3750 2511 3984 
Q 2250 4219 1831 4219 
Q 1534 4219 1204 4116 
Q 875 4013 500 3803 
L 500 4441 
Q 881 4594 1212 4672 
Q 1544 4750 1819 4750 
Q 2544 4750 2975 4387 
Q 3406 4025 3406 3419 
Q 3406 3131 3298 2873 
Q 3191 2616 2906 2266 
Q 2828 2175 2409 1742 
Q 1991 1309 1228 531 
z
" transform="scale(0.015625)"/>
       </defs>
       <use xlink:href="#DejaVuSans-2212"/>
       <use xlink:href="#DejaVuSans-30" transform="translate(83.789062 0)"/>
       <use xlink:href="#DejaVuSans-2e" transform="translate(147.412109 0)"/>
       <use xlink:href="#DejaVuSans-32" transform="translate(179.199219 0)"/>
       <use xlink:href="#DejaVuSans-35" transform="translate(242.822266 0)"/>
      </g>
     </g>
    </g>
    <g id="xtick_5">
     <g id="line2d_5">
      <g>
       <use xlink:href="#mc1311d14d4" x="247.113839" y="317.72" style="stroke: #000000; stroke-width: 0.8"/>
      </g>
     </g>
     <g id="text_5">
      <!-- 0.00 -->
      <g transform="translate(235.981026 332.318437) scale(0.1 -0.1)">
       <use xlink:href="#DejaVuSans-30"/>
       <use xlink:href="#DejaVuSans-2e" transform="translate(63.623047 0)"/>
       <use xlink:href="#DejaVuSans-30" transform="translate(95.410156 0)"/>
       <use xlink:href="#DejaVuSans-30" transform="translate(159.033203 0)"/>
      </g>
     </g>
    </g>
    <g id="xtick_6">
     <g id="line2d_6">
      <g>
       <use xlink:href="#mc1311d14d4" x="293.732071" y="317.72" style="stroke: #000000; stroke-width: 0.8"/>
      </g>
     </g>
     <g id="text_6">
      <!-- 0.25 -->
      <g transform="translate(282.599259 332.318437) scale(0.1 -0.1)">
       <use xlink:href="#DejaVuSans-30"/>
       <use xlink:href="#DejaVuSans-2e" transform="translate(63.623047 0)"/>
       <use xlink:href="#DejaVuSans-32" transform="translate(95.410156 0)"/>
       <use xlink:href="#DejaVuSans-35" transform="translate(159.033203 0)"/>
      </g>
     </g>
    </g>
    <g id="xtick_7">
     <g id="line2d_7">
      <g>
       <use xlink:href="#mc1311d14d4" x="340.350304" y="317.72" style="stroke: #000000; stroke-width: 0.8"/>
      </g>
     </g>
     <g id="text_7">
      <!-- 0.50 -->
      <g transform="translate(329.217491 332.318437) scale(0.1 -0.1)">
       <use xlink:href="#DejaVuSans-30"/>
       <use xlink:href="#DejaVuSans-2e" transform="translate(63.623047 0)"/>
       <use xlink:href="#DejaVuSans-35" transform="translate(95.410156 0)"/>
       <use xlink:href="#DejaVuSans-30" transform="translate(159.033203 0)"/>
      </g>
     </g>
    </g>
    <g id="xtick_8">
     <g id="line2d_8">
      <g>
       <use xlink:href="#mc1311d14d4" x="386.968536" y="317.72" style="stroke: #000000; stroke-width: 0.8"/>
      </g>
     </g>
     <g id="text_8">
      <!-- 0.75 -->
      <g transform="translate(375.835724 332.318437) scale(0.1 -0.1)">
       <use xlink:href="#DejaVuSans-30"/>
       <use xlink:href="#DejaVuSans-2e" transform="translate(63.623047 0)"/>
       <use xlink:href="#DejaVuSans-37" transform="translate(95.410156 0)"/>
       <use xlink:href="#DejaVuSans-35" transform="translate(159.033203 0)"/>
      </g>
     </g>
    </g>
    <g id="xtick_9">
     <g id="line2d_9">
      <g>
       <use xlink:href="#mc1311d14d4" x="433.586769" y="317.72" style="stroke: #000000; stroke-width: 0.8"/>
      </g>
     </g>
     <g id="text_9">
      <!-- 1.00 -->
      <g transform="translate(422.453956 332.318437) scale(0.1 -0.1)">
       <use xlink:href="#DejaVuSans-31"/>
       <use xlink:href="#DejaVuSans-2e" transform="translate(63.623047 0)"/>
       <use xlink:href="#DejaVuSans-30" transform="translate(95.410156 0)"/>
       <use xlink:href="#DejaVuSans-30" transform="translate(159.033203 0)"/>
      </g>
     </g>
    </g>
   </g>
   <g id="matplotlib.axis_2">
    <g id="ytick_1">
     <g id="line2d_10">
      <defs>
       <path id="ma2ffa207cf" d="M 0 0 
L -3.5 0 
" style="stroke: #000000; stroke-width: 0.8"/>
      </defs>
      <g>
       <use xlink:href="#ma2ffa207cf" x="42.1" y="314.901737" style="stroke: #000000; stroke-width: 0.8"/>
      </g>
     </g>
     <g id="text_10">
      <!-- −0.8 -->
      <g transform="translate(10.817188 318.700956) scale(0.1 -0.1)">
       <defs>
        <path id="DejaVuSans-38" d="M 2034 2216 
Q 1584 2216 1326 1975 
Q 1069 1734 1069 1313 
Q 1069 891 1326 650 
Q 1584 409 2034 409 
Q 2484 409 2743 651 
Q 3003 894 3003 1313 
Q 3003 1734 2745 1975 
Q 2488 2216 2034 2216 
z
M 1403 2484 
Q 997 2584 770 2862 
Q 544 3141 544 3541 
Q 544 4100 942 4425 
Q 1341 4750 2034 4750 
Q 2731 4750 3128 4425 
Q 3525 4100 3525 3541 
Q 3525 3141 3298 2862 
Q 3072 2584 2669 2484 
Q 3125 2378 3379 2068 
Q 3634 1759 3634 1313 
Q 3634 634 3220 271 
Q 2806 -91 2034 -91 
Q 1263 -91 848 271 
Q 434 634 434 1313 
Q 434 1759 690 2068 
Q 947 2378 1403 2484 
z
M 1172 3481 
Q 1172 3119 1398 2916 
Q 1625 2713 2034 2713 
Q 2441 2713 2670 2916 
Q 2900 3119 2900 3481 
Q 2900 3844 2670 4047 
Q 2441 4250 2034 4250 
Q 1625 4250 1398 4047 
Q 1172 3844 1172 3481 
z
" transform="scale(0.015625)"/>
       </defs>
       <use xlink:href="#DejaVuSans-2212"/>
       <use xlink:href="#DejaVuSans-30" transform="translate(83.789062 0)"/>
       <use xlink:href="#DejaVuSans-2e" transform="translate(147.412109 0)"/>
       <use xlink:href="#DejaVuSans-38" transform="translate(179.199219 0)"/>
      </g>
     </g>
    </g>
    <g id="ytick_2">
     <g id="line2d_11">
      <g>
       <use xlink:href="#ma2ffa207cf" x="42.1" y="277.429097" style="stroke: #000000; stroke-width: 0.8"/>
      </g>
     </g>
     <g id="text_11">
      <!-- −0.6 -->
      <g transform="translate(10.817188 281.228316) scale(0.1 -0.1)">
       <defs>
        <path id="DejaVuSans-36" d="M 2113 2584 
Q 1688 2584 1439 2293 
Q 1191 2003 1191 1497 
Q 1191 994 1439 701 
Q 1688 409 2113 409 
Q 2538 409 2786 701 
Q 3034 994 3034 1497 
Q 3034 2003 2786 2293 
Q 2538 2584 2113 2584 
z
M 3366 4563 
L 3366 3988 
Q 3128 4100 2886 4159 
Q 2644 4219 2406 4219 
Q 1781 4219 1451 3797 
Q 1122 3375 1075 2522 
Q 1259 2794 1537 2939 
Q 1816 3084 2150 3084 
Q 2853 3084 3261 2657 
Q 3669 2231 3669 1497 
Q 3669 778 3244 343 
Q 2819 -91 2113 -91 
Q 1303 -91 875 529 
Q 447 1150 447 2328 
Q 447 3434 972 4092 
Q 1497 4750 2381 4750 
Q 2619 4750 2861 4703 
Q 3103 4656 3366 4563 
z
" transform="scale(0.015625)"/>
       </defs>
       <use xlink:href="#DejaVuSans-2212"/>
       <use xlink:href="#DejaVuSans-30" transform="translate(83.789062 0)"/>
       <use xlink:href="#DejaVuSans-2e" transform="translate(147.412109 0)"/>
       <use xlink:href="#DejaVuSans-36" transform="translate(179.199219 0)"/>
      </g>
     </g>
    </g>
    <g id="ytick_3">
     <g id="line2d_12">
      <g>
       <use xlink:href="#ma2ffa207cf" x="42.1" y="239.956457" style="stroke: #000000; stroke-width: 0.8"/>
      </g>
     </g>
     <g id="text_12">
      <!-- −0.4 -->
      <g transform="translate(10.817188 243.755676) scale(0.1 -0.1)">
       <defs>
        <path id="DejaVuSans-34" d="M 2419 4116 
L 825 1625 
L 2419 1625 
L 2419 4116 
z
M 2253 4666 
L 3047 4666 
L 3047 1625 
L 3713 1625 
L 3713 1100 
L 3047 1100 
L 3047 0 
L 2419 0 
L 2419 1100 
L 313 1100 
L 313 1709 
L 2253 4666 
z
" transform="scale(0.015625)"/>
       </defs>
       <use xlink:href="#DejaVuSans-2212"/>
       <use xlink:href="#DejaVuSans-30" transform="translate(83.789062 0)"/>
       <use xlink:href="#DejaVuSans-2e" transform="translate(147.412109 0)"/>
       <use xlink:href="#DejaVuSans-34" transform="translate(179.199219 0)"/>
      </g>
     </g>
    </g>
    <g id="ytick_4">
     <g id="line2d_13">
      <g>
       <use xlink:href="#ma2ffa207cf" x="42.1" y="202.483817" style="stroke: #000000; stroke-width: 0.8"/>
      </g>
     </g>
     <g id="text_13">
      <!-- −0.2 -->
      <g transform="translate(10.817188 206.283035) scale(0.1 -0.1)">
       <use xlink:href="#DejaVuSans-2212"/>
       <use xlink:href="#DejaVuSans-30" transform="translate(83.789062 0)"/>
       <use xlink:href="#DejaVuSans-2e" transform="translate(147.412109 0)"/>
       <use xlink:href="#DejaVuSans-32" transform="translate(179.199219 0)"/>
      </g>
     </g>
    </g>
    <g id="ytick_5">
     <g id="line2d_14">
      <g>
       <use xlink:href="#ma2ffa207cf" x="42.1" y="165.011177" style="stroke: #000000; stroke-width: 0.8"/>
      </g>
     </g>
     <g id="text_14">
      <!-- 0.0 -->
      <g transform="translate(19.196875 168.810395) scale(0.1 -0.1)">
       <use xlink:href="#DejaVuSans-30"/>
       <use xlink:href="#DejaVuSans-2e" transform="translate(63.623047 0)"/>
       <use xlink:href="#DejaVuSans-30" transform="translate(95.410156 0)"/>
      </g>
     </g>
    </g>
    <g id="ytick_6">
     <g id="line2d_15">
      <g>
       <use xlink:href="#ma2ffa207cf" x="42.1" y="127.538536" style="stroke: #000000; stroke-width: 0.8"/>
      </g>
     </g>
     <g id="text_15">
      <!-- 0.2 -->
      <g transform="translate(19.196875 131.337755) scale(0.1 -0.1)">
       <use xlink:href="#DejaVuSans-30"/>
       <use xlink:href="#DejaVuSans-2e" transform="translate(63.623047 0)"/>
       <use xlink:href="#DejaVuSans-32" transform="translate(95.410156 0)"/>
      </g>
     </g>
    </g>
    <g id="ytick_7">
     <g id="line2d_16">
      <g>
       <use xlink:href="#ma2ffa207cf" x="42.1" y="90.065896" style="stroke: #000000; stroke-width: 0.8"/>
      </g>
     </g>
     <g id="text_16">
      <!-- 0.4 -->
      <g transform="translate(19.196875 93.865115) scale(0.1 -0.1)">
       <use xlink:href="#DejaVuSans-30"/>
       <use xlink:href="#DejaVuSans-2e" transform="translate(63.623047 0)"/>
       <use xlink:href="#DejaVuSans-34" transform="translate(95.410156 0)"/>
      </g>
     </g>
    </g>
    <g id="ytick_8">
     <g id="line2d_17">
      <g>
       <use xlink:href="#ma2ffa207cf" x="42.1" y="52.593256" style="stroke: #000000; stroke-width: 0.8"/>
      </g>
     </g>
     <g id="text_17">
      <!-- 0.6 -->
      <g transform="translate(19.196875 56.392475) scale(0.1 -0.1)">
       <use xlink:href="#DejaVuSans-30"/>
       <use xlink:href="#DejaVuSans-2e" transform="translate(63.623047 0)"/>
       <use xlink:href="#DejaVuSans-36" transform="translate(95.410156 0)"/>
      </g>
     </g>
    </g>
    <g id="ytick_9">
     <g id="line2d_18">
      <g>
       <use xlink:href="#ma2ffa207cf" x="42.1" y="15.120616" style="stroke: #000000; stroke-width: 0.8"/>
      </g>
     </g>
     <g id="text_18">
      <!-- 0.8 -->
      <g transform="translate(19.196875 18.919835) scale(0.1 -0.1)">
       <use xlink:href="#DejaVuSans-30"/>
       <use xlink:href="#DejaVuSans-2e" transform="translate(63.623047 0)"/>
       <use xlink:href="#DejaVuSans-38" transform="translate(95.410156 0)"/>
      </g>
     </g>
    </g>
   </g>
   <g id="line2d_19">
    <path d="M 431.459091 164.29172 
L 431.207766 164.012786 
L 430.517558 163.744512 
L 428.659977 163.355032 
L 424.650221 162.841227 
L 417.185276 162.163803 
L 397.01067 160.648808 
L 365.124487 158.181268 
L 329.366009 155.157549 
L 279.712474 150.963844 
L 256.080625 149.188028 
L 237.088984 147.948609 
L 218.232647 146.93068 
L 199.697441 146.1777 
L 181.662328 145.720357 
L 168.569522 145.582838 
L 155.929578 145.625857 
L 143.815079 145.850193 
L 132.297653 146.254284 
L 121.447207 146.834782 
L 111.330506 147.587046 
L 102.010025 148.505678 
L 93.54206 149.584705 
L 85.975682 150.817896 
L 79.351671 152.198702 
L 75.475447 153.197819 
L 72.039908 154.2572 
L 69.050822 155.374406 
L 66.512413 156.5467 
L 64.42756 157.770979 
L 62.797908 159.043724 
L 61.623945 160.360893 
L 60.905338 161.717811 
L 60.716444 162.409535 
L 60.640909 163.109145 
L 60.678543 163.815877 
L 61.091975 165.247243 
L 61.954328 166.696464 
L 63.262622 168.155511 
L 65.013658 169.615657 
L 67.203911 171.067525 
L 69.829493 172.501154 
L 72.886233 173.906188 
L 76.369432 175.272012 
L 80.273987 176.588036 
L 84.594219 177.843841 
L 89.32376 179.029484 
L 94.455239 180.135674 
L 99.980522 181.154053 
L 105.890194 182.077398 
L 112.17363 182.899733 
L 122.272514 183.934249 
L 133.137054 184.722359 
L 144.71112 185.262315 
L 156.929947 185.55929 
L 169.720089 185.624542 
L 183.000976 185.474178 
L 196.685281 185.127877 
L 215.40057 184.399474 
L 234.447888 183.416591 
L 258.383351 181.91281 
L 282.062984 180.195804 
L 309.572952 177.977782 
L 339.597153 175.334764 
L 370.022314 172.440835 
L 395.13286 169.853287 
L 412.016874 167.925641 
L 422.399826 166.542093 
L 428.074712 165.568762 
L 430.644731 164.893029 
L 431.271442 164.584235 
L 431.459091 164.291718 
L 431.459091 164.291718 
" clip-path="url(#pd9130e7b66)" style="fill: none; stroke: #000000; stroke-width: 2; stroke-linecap: square"/>
   </g>
   <g id="line2d_20">
    <path d="M 430.56834 164.767282 
L 430.3372 164.404878 
L 429.646647 164.048464 
L 427.752465 163.516889 
L 424.834402 162.976857 
L 419.368483 162.218566 
L 407.870686 160.927363 
L 301.73286 149.903916 
L 279.081036 147.770452 
L 260.625564 146.223252 
L 242.067527 144.890291 
L 223.575655 143.827905 
L 209.847353 143.235515 
L 196.313485 142.833746 
L 183.040845 142.632045 
L 170.09702 142.635992 
L 157.551523 142.847778 
L 145.475964 143.266631 
L 133.9436 143.889331 
L 123.028522 144.710695 
L 112.804086 145.724032 
L 103.341182 146.921524 
L 94.70603 148.294489 
L 86.958295 149.833562 
L 82.311926 150.946967 
L 78.096004 152.126588 
L 74.321535 153.369038 
L 70.99772 154.670697 
L 68.131763 156.027625 
L 65.729042 157.435494 
L 63.793269 158.889542 
L 62.32658 160.384458 
L 61.329706 161.914366 
L 60.80216 163.472726 
L 60.713932 164.26036 
L 60.742386 165.052352 
L 60.887165 165.84768 
L 61.524124 167.444164 
L 62.621096 169.040894 
L 64.173879 170.628418 
L 66.17754 172.196751 
L 68.626676 173.73554 
L 71.515308 175.234247 
L 74.836966 176.682354 
L 78.584516 178.069529 
L 82.750176 179.385846 
L 87.325479 180.622084 
L 92.301109 181.769869 
L 97.666885 182.821873 
L 103.411382 183.771995 
L 109.522174 184.615464 
L 115.985656 185.348915 
L 126.308923 186.23896 
L 137.335281 186.87676 
L 149.001687 187.268177 
L 161.238753 187.424642 
L 173.971533 187.362042 
L 187.1209 187.099438 
L 205.160048 186.474677 
L 223.597982 185.5838 
L 242.239764 184.478118 
L 265.540886 182.867248 
L 293.033871 180.70965 
L 323.719666 178.040633 
L 355.831882 174.99174 
L 383.496141 172.133296 
L 403.083827 169.900825 
L 415.92214 168.227909 
L 423.622994 167.005463 
L 427.753332 166.129704 
L 429.649803 165.523504 
L 430.33929 165.139117 
L 430.56834 164.767282 
L 430.56834 164.767282 
" clip-path="url(#pd9130e7b66)" style="fill: none; stroke-dasharray: 7.4,3.2; stroke-dashoffset: 0; stroke: #000000; stroke-width: 2"/>
   </g>
   <g id="patch_5">
    <path d="M 42.1 317.72 
L 42.1 12.317566 
" style="fill: none; stroke: #000000; stroke-width: 0.8; stroke-linejoin: miter; stroke-linecap: square"/>
   </g>
   <g id="patch_6">
    <path d="M 450 317.72 
L 450 12.317566 
" style="fill: none; stroke: #000000; stroke-width: 0.8; stroke-linejoin: miter; stroke-linecap: square"/>
   </g>
   <g id="patch_7">
    <path d="M 42.1 317.72 
L 450 317.72 
" style="fill: none; stroke: #000000; stroke-width: 0.8; stroke-linejoin: miter; stroke-linecap: square"/>
   </g>
   <g id="patch_8">
    <path d="M 42.1 12.317566 
L 450 12.317566 
" style="fill: none; stroke: #000000; stroke-width: 0.8; stroke-linejoin: miter; stroke-linecap: square"/>
   </g>
   <g id="legend_1">
    <g id="patch_9">
     <path d="M 325.31875 49.673816 
L 443 49.673816 
Q 445 49.673816 445 47.673816 
L 445 19.317566 
Q 445 17.317566 443 17.317566 
L 325.31875 17.317566 
Q 323.31875 17.317566 323.31875 19.317566 
L 323.31875 47.673816 
Q 323.31875 49.673816 325.31875 49.673816 
z
" style="fill: #ffffff; opacity: 0.8; stroke: #cccccc; stroke-linejoin: miter"/>
    </g>
    <g id="patch_10">
     <path d="M 327.31875 28.916004 
L 347.31875 28.916004 
L 347.31875 21.916004 
L 327.31875 21.916004 
z
" style="fill: #c9c9f5; opacity: 0.46; stroke: #c9c9f5; stroke-linejoin: miter"/>
    </g>
    <g id="text_19">
     <!-- Optimized Shape -->
     <g transform="translate(355.31875 28.916004) scale(0.1 -0.1)">
      <defs>
       <path id="DejaVuSans-4f" d="M 2522 4238 
Q 1834 4238 1429 3725 
Q 1025 3213 1025 2328 
Q 1025 1447 1429 934 
Q 1834 422 2522 422 
Q 3209 422 3611 934 
Q 4013 1447 4013 2328 
Q 4013 3213 3611 3725 
Q 3209 4238 2522 4238 
z
M 2522 4750 
Q 3503 4750 4090 4092 
Q 4678 3434 4678 2328 
Q 4678 1225 4090 567 
Q 3503 -91 2522 -91 
Q 1538 -91 948 565 
Q 359 1222 359 2328 
Q 359 3434 948 4092 
Q 1538 4750 2522 4750 
z
" transform="scale(0.015625)"/>
       <path id="DejaVuSans-70" d="M 1159 525 
L 1159 -1331 
L 581 -1331 
L 581 3500 
L 1159 3500 
L 1159 2969 
Q 1341 3281 1617 3432 
Q 1894 3584 2278 3584 
Q 2916 3584 3314 3078 
Q 3713 2572 3713 1747 
Q 3713 922 3314 415 
Q 2916 -91 2278 -91 
Q 1894 -91 1617 61 
Q 1341 213 1159 525 
z
M 3116 1747 
Q 3116 2381 2855 2742 
Q 2594 3103 2138 3103 
Q 1681 3103 1420 2742 
Q 1159 2381 1159 1747 
Q 1159 1113 1420 752 
Q 1681 391 2138 391 
Q 2594 391 2855 752 
Q 3116 1113 3116 1747 
z
" transform="scale(0.015625)"/>
       <path id="DejaVuSans-74" d="M 1172 4494 
L 1172 3500 
L 2356 3500 
L 2356 3053 
L 1172 3053 
L 1172 1153 
Q 1172 725 1289 603 
Q 1406 481 1766 481 
L 2356 481 
L 2356 0 
L 1766 0 
Q 1100 0 847 248 
Q 594 497 594 1153 
L 594 3053 
L 172 3053 
L 172 3500 
L 594 3500 
L 594 4494 
L 1172 4494 
z
" transform="scale(0.015625)"/>
       <path id="DejaVuSans-69" d="M 603 3500 
L 1178 3500 
L 1178 0 
L 603 0 
L 603 3500 
z
M 603 4863 
L 1178 4863 
L 1178 4134 
L 603 4134 
L 603 4863 
z
" transform="scale(0.015625)"/>
       <path id="DejaVuSans-6d" d="M 3328 2828 
Q 3544 3216 3844 3400 
Q 4144 3584 4550 3584 
Q 5097 3584 5394 3201 
Q 5691 2819 5691 2113 
L 5691 0 
L 5113 0 
L 5113 2094 
Q 5113 2597 4934 2840 
Q 4756 3084 4391 3084 
Q 3944 3084 3684 2787 
Q 3425 2491 3425 1978 
L 3425 0 
L 2847 0 
L 2847 2094 
Q 2847 2600 2669 2842 
Q 2491 3084 2119 3084 
Q 1678 3084 1418 2786 
Q 1159 2488 1159 1978 
L 1159 0 
L 581 0 
L 581 3500 
L 1159 3500 
L 1159 2956 
Q 1356 3278 1631 3431 
Q 1906 3584 2284 3584 
Q 2666 3584 2933 3390 
Q 3200 3197 3328 2828 
z
" transform="scale(0.015625)"/>
       <path id="DejaVuSans-7a" d="M 353 3500 
L 3084 3500 
L 3084 2975 
L 922 459 
L 3084 459 
L 3084 0 
L 275 0 
L 275 525 
L 2438 3041 
L 353 3041 
L 353 3500 
z
" transform="scale(0.015625)"/>
       <path id="DejaVuSans-65" d="M 3597 1894 
L 3597 1613 
L 953 1613 
Q 991 1019 1311 708 
Q 1631 397 2203 397 
Q 2534 397 2845 478 
Q 3156 559 3463 722 
L 3463 178 
Q 3153 47 2828 -22 
Q 2503 -91 2169 -91 
Q 1331 -91 842 396 
Q 353 884 353 1716 
Q 353 2575 817 3079 
Q 1281 3584 2069 3584 
Q 2775 3584 3186 3129 
Q 3597 2675 3597 1894 
z
M 3022 2063 
Q 3016 2534 2758 2815 
Q 2500 3097 2075 3097 
Q 1594 3097 1305 2825 
Q 1016 2553 972 2059 
L 3022 2063 
z
" transform="scale(0.015625)"/>
       <path id="DejaVuSans-64" d="M 2906 2969 
L 2906 4863 
L 3481 4863 
L 3481 0 
L 2906 0 
L 2906 525 
Q 2725 213 2448 61 
Q 2172 -91 1784 -91 
Q 1150 -91 751 415 
Q 353 922 353 1747 
Q 353 2572 751 3078 
Q 1150 3584 1784 3584 
Q 2172 3584 2448 3432 
Q 2725 3281 2906 2969 
z
M 947 1747 
Q 947 1113 1208 752 
Q 1469 391 1925 391 
Q 2381 391 2643 752 
Q 2906 1113 2906 1747 
Q 2906 2381 2643 2742 
Q 2381 3103 1925 3103 
Q 1469 3103 1208 2742 
Q 947 2381 947 1747 
z
" transform="scale(0.015625)"/>
       <path id="DejaVuSans-20" transform="scale(0.015625)"/>
       <path id="DejaVuSans-53" d="M 3425 4513 
L 3425 3897 
Q 3066 4069 2747 4153 
Q 2428 4238 2131 4238 
Q 1616 4238 1336 4038 
Q 1056 3838 1056 3469 
Q 1056 3159 1242 3001 
Q 1428 2844 1947 2747 
L 2328 2669 
Q 3034 2534 3370 2195 
Q 3706 1856 3706 1288 
Q 3706 609 3251 259 
Q 2797 -91 1919 -91 
Q 1588 -91 1214 -16 
Q 841 59 441 206 
L 441 856 
Q 825 641 1194 531 
Q 1563 422 1919 422 
Q 2459 422 2753 634 
Q 3047 847 3047 1241 
Q 3047 1584 2836 1778 
Q 2625 1972 2144 2069 
L 1759 2144 
Q 1053 2284 737 2584 
Q 422 2884 422 3419 
Q 422 4038 858 4394 
Q 1294 4750 2059 4750 
Q 2388 4750 2728 4690 
Q 3069 4631 3425 4513 
z
" transform="scale(0.015625)"/>
       <path id="DejaVuSans-68" d="M 3513 2113 
L 3513 0 
L 2938 0 
L 2938 2094 
Q 2938 2591 2744 2837 
Q 2550 3084 2163 3084 
Q 1697 3084 1428 2787 
Q 1159 2491 1159 1978 
L 1159 0 
L 581 0 
L 581 4863 
L 1159 4863 
L 1159 2956 
Q 1366 3272 1645 3428 
Q 1925 3584 2291 3584 
Q 2894 3584 3203 3211 
Q 3513 2838 3513 2113 
z
" transform="scale(0.015625)"/>
       <path id="DejaVuSans-61" d="M 2194 1759 
Q 1497 1759 1228 1600 
Q 959 1441 959 1056 
Q 959 750 1161 570 
Q 1363 391 1709 391 
Q 2188 391 2477 730 
Q 2766 1069 2766 1631 
L 2766 1759 
L 2194 1759 
z
M 3341 1997 
L 3341 0 
L 2766 0 
L 2766 531 
Q 2569 213 2275 61 
Q 1981 -91 1556 -91 
Q 1019 -91 701 211 
Q 384 513 384 1019 
Q 384 1609 779 1909 
Q 1175 2209 1959 2209 
L 2766 2209 
L 2766 2266 
Q 2766 2663 2505 2880 
Q 2244 3097 1772 3097 
Q 1472 3097 1187 3025 
Q 903 2953 641 2809 
L 641 3341 
Q 956 3463 1253 3523 
Q 1550 3584 1831 3584 
Q 2591 3584 2966 3190 
Q 3341 2797 3341 1997 
z
" transform="scale(0.015625)"/>
      </defs>
      <use xlink:href="#DejaVuSans-4f"/>
      <use xlink:href="#DejaVuSans-70" transform="translate(78.710938 0)"/>
      <use xlink:href="#DejaVuSans-74" transform="translate(142.1875 0)"/>
      <use xlink:href="#DejaVuSans-69" transform="translate(181.396484 0)"/>
      <use xlink:href="#DejaVuSans-6d" transform="translate(209.179688 0)"/>
      <use xlink:href="#DejaVuSans-69" transform="translate(306.591797 0)"/>
      <use xlink:href="#DejaVuSans-7a" transform="translate(334.375 0)"/>
      <use xlink:href="#DejaVuSans-65" transform="translate(386.865234 0)"/>
      <use xlink:href="#DejaVuSans-64" transform="translate(448.388672 0)"/>
      <use xlink:href="#DejaVuSans-20" transform="translate(511.865234 0)"/>
      <use xlink:href="#DejaVuSans-53" transform="translate(543.652344 0)"/>
      <use xlink:href="#DejaVuSans-68" transform="translate(607.128906 0)"/>
      <use xlink:href="#DejaVuSans-61" transform="translate(670.507812 0)"/>
      <use xlink:href="#DejaVuSans-70" transform="translate(731.787109 0)"/>
      <use xlink:href="#DejaVuSans-65" transform="translate(795.263672 0)"/>
     </g>
    </g>
    <g id="patch_11">
     <path d="M 327.31875 43.594129 
L 347.31875 43.594129 
L 347.31875 36.594129 
L 327.31875 36.594129 
z
" style="fill: #f69e5e; opacity: 0.36; stroke: #f69e5e; stroke-linejoin: miter"/>
    </g>
    <g id="text_20">
     <!-- Initial Shape -->
     <g transform="translate(355.31875 43.594129) scale(0.1 -0.1)">
      <defs>
       <path id="DejaVuSans-49" d="M 628 4666 
L 1259 4666 
L 1259 0 
L 628 0 
L 628 4666 
z
" transform="scale(0.015625)"/>
       <path id="DejaVuSans-6e" d="M 3513 2113 
L 3513 0 
L 2938 0 
L 2938 2094 
Q 2938 2591 2744 2837 
Q 2550 3084 2163 3084 
Q 1697 3084 1428 2787 
Q 1159 2491 1159 1978 
L 1159 0 
L 581 0 
L 581 3500 
L 1159 3500 
L 1159 2956 
Q 1366 3272 1645 3428 
Q 1925 3584 2291 3584 
Q 2894 3584 3203 3211 
Q 3513 2838 3513 2113 
z
" transform="scale(0.015625)"/>
       <path id="DejaVuSans-6c" d="M 603 4863 
L 1178 4863 
L 1178 0 
L 603 0 
L 603 4863 
z
" transform="scale(0.015625)"/>
      </defs>
      <use xlink:href="#DejaVuSans-49"/>
      <use xlink:href="#DejaVuSans-6e" transform="translate(29.492188 0)"/>
      <use xlink:href="#DejaVuSans-69" transform="translate(92.871094 0)"/>
      <use xlink:href="#DejaVuSans-74" transform="translate(120.654297 0)"/>
      <use xlink:href="#DejaVuSans-69" transform="translate(159.863281 0)"/>
      <use xlink:href="#DejaVuSans-61" transform="translate(187.646484 0)"/>
      <use xlink:href="#DejaVuSans-6c" transform="translate(248.925781 0)"/>
      <use xlink:href="#DejaVuSans-20" transform="translate(276.708984 0)"/>
      <use xlink:href="#DejaVuSans-53" transform="translate(308.496094 0)"/>
      <use xlink:href="#DejaVuSans-68" transform="translate(371.972656 0)"/>
      <use xlink:href="#DejaVuSans-61" transform="translate(435.351562 0)"/>
      <use xlink:href="#DejaVuSans-70" transform="translate(496.630859 0)"/>
      <use xlink:href="#DejaVuSans-65" transform="translate(560.107422 0)"/>
     </g>
    </g>
   </g>
  </g>
 </g>
 <defs>
  <clipPath id="pd9130e7b66">
   <rect x="42.1" y="12.317566" width="407.9" height="305.402434"/>
  </clipPath>
 </defs>
</svg>
