<?xml version="1.0" encoding="utf-8" standalone="no"?>
<!DOCTYPE svg PUBLIC "-//W3C//DTD SVG 1.1//EN"
  "http://www.w3.org/Graphics/SVG/1.1/DTD/svg11.dtd">
<svg xmlns:xlink="http://www.w3.org/1999/xlink" width="460.8pt" height="345.6pt" viewBox="0 0 460.8 345.6" xmlns="http://www.w3.org/2000/svg" version="1.1">
 <metadata>
  <rdf:RDF xmlns:dc="http://purl.org/dc/elements/1.1/" xmlns:cc="http://creativecommons.org/ns#" xmlns:rdf="http://www.w3.org/1999/02/22-rdf-syntax-ns#">
   <cc:Work>
    <dc:type rdf:resource="http://purl.org/dc/dcmitype/StillImage"/>
    <dc:date>2025-06-09T15:58:12.377727</dc:date>
    <dc:format>image/svg+xml</dc:format>
    <dc:creator>
     <cc:Agent>
      <dc:title>Matplotlib v3.10.0, https://matplotlib.org/</dc:title>
     </cc:Agent>
    </dc:creator>
   </cc:Work>
  </rdf:RDF>
 </metadata>
 <defs>
  <style type="text/css">*{stroke-linejoin: round; stroke-linecap: butt}</style>
 </defs>
 <g id="figure_1">
  <g id="patch_1">
   <path d="M 0 345.6 
L 460.8 345.6 
L 460.8 0 
L 0 0 
z
" style="fill: #ffffff"/>
  </g>
  <g id="axes_1">
   <g id="patch_2">
    <path d="M 42.1 317.72 
L 450 317.72 
L 450 12.134173 
L 42.1 12.134173 
z
" style="fill: #ffffff"/>
   </g>
   <g id="patch_3">
    <path d="M 432.456152 164.67478 
L 432.397602 164.492027 
L 432.223167 164.311213 
L 431.932949 164.131912 
L 431.527093 163.953655 
L 431.005787 163.775978 
L 430.369267 163.598382 
L 429.617755 163.420375 
L 428.751543 163.241432 
L 427.770941 163.061021 
L 426.676352 162.878611 
L 425.468122 162.693655 
L 424.146776 162.505581 
L 422.712792 162.313849 
L 421.166729 162.117888 
L 419.509224 161.917146 
L 417.74099 161.711056 
L 415.862785 161.499085 
L 413.875392 161.280686 
L 411.779815 161.055338 
L 409.576979 160.822542 
L 407.268056 160.581815 
L 404.854163 160.332701 
L 402.336615 160.074782 
L 399.716786 159.807672 
L 396.996138 159.531029 
L 394.176276 159.24456 
L 391.258887 158.948011 
L 388.24581 158.641188 
L 385.138866 158.323968 
L 381.940186 157.996265 
L 378.651766 157.658088 
L 375.275962 157.309496 
L 371.814961 156.950629 
L 368.271284 156.581694 
L 364.647431 156.202978 
L 360.945979 155.814842 
L 357.169586 155.41773 
L 353.321106 155.01215 
L 349.403286 154.598692 
L 345.419037 154.178013 
L 341.371362 153.750853 
L 337.263211 153.318001 
L 333.097621 152.880315 
L 328.877659 152.438704 
L 324.606434 151.994143 
L 320.287065 151.547642 
L 315.922652 151.100248 
L 311.516333 150.653059 
L 307.071154 150.207169 
L 302.590322 149.763733 
L 298.076839 149.323885 
L 293.533772 148.888775 
L 288.964183 148.45957 
L 284.371041 148.037408 
L 279.757338 147.623425 
L 275.125915 147.21874 
L 270.479713 146.824448 
L 265.821559 146.441608 
L 261.154268 146.071261 
L 256.480532 145.714392 
L 251.803098 145.371967 
L 247.124646 145.04489 
L 242.447815 144.734024 
L 237.775167 144.440185 
L 233.10929 144.164142 
L 228.452739 143.906604 
L 223.808054 143.668231 
L 219.177704 143.44964 
L 214.564122 143.251365 
L 209.969961 143.07394 
L 205.397493 142.917788 
L 200.849301 142.783322 
L 196.32786 142.670883 
L 191.835679 142.58078 
L 187.375234 142.513265 
L 182.949069 142.468535 
L 178.559701 142.446758 
L 174.209756 142.448056 
L 169.901729 142.472495 
L 165.63831 142.520134 
L 161.42217 142.590961 
L 157.255899 142.68496 
L 153.142297 142.802059 
L 149.083999 142.942164 
L 145.08376 143.105155 
L 141.144414 143.290888 
L 137.268595 143.499181 
L 133.459172 143.729854 
L 129.718865 143.982678 
L 126.050466 144.257434 
L 122.456798 144.553852 
L 118.940427 144.871685 
L 115.504142 145.210646 
L 112.150588 145.570441 
L 108.882366 145.950773 
L 105.702008 146.351322 
L 102.612003 146.771774 
L 99.614773 147.211788 
L 96.712626 147.671021 
L 93.907795 148.149142 
L 91.202434 148.645776 
L 88.598573 149.16057 
L 86.098099 149.693153 
L 83.702874 150.243144 
L 81.414573 150.810129 
L 79.234769 151.393739 
L 77.164935 151.993535 
L 75.206376 152.609099 
L 73.360276 153.239971 
L 71.627828 153.885702 
L 70.00988 154.545806 
L 68.50737 155.219772 
L 67.121001 155.907087 
L 65.851398 156.607185 
L 64.699062 157.319472 
L 63.664441 158.043358 
L 62.747813 158.778184 
L 61.949445 159.523271 
L 61.269395 160.277897 
L 60.707784 161.041311 
L 60.264545 161.812712 
L 59.939601 162.59126 
L 59.732784 163.376071 
L 59.643848 164.166231 
L 59.672526 164.960764 
L 59.818461 165.758644 
L 60.081262 166.558837 
L 60.460516 167.360249 
L 60.955676 168.161728 
L 61.566263 168.962101 
L 62.291719 169.76019 
L 63.131463 170.554718 
L 64.084838 171.344444 
L 65.15115 172.128082 
L 66.329742 172.904296 
L 67.619878 173.671807 
L 69.020764 174.429255 
L 70.53161 175.175321 
L 72.151622 175.908705 
L 73.879829 176.628073 
L 75.715418 177.33216 
L 77.65735 178.019698 
L 79.704666 178.689446 
L 81.856327 179.340237 
L 84.111197 179.97093 
L 86.468214 180.580441 
L 88.92614 181.16776 
L 91.483647 181.731908 
L 94.13953 182.27202 
L 96.892327 182.787287 
L 99.740544 183.276977 
L 102.682773 183.740457 
L 105.717274 184.177165 
L 108.842429 184.586632 
L 112.056531 184.968493 
L 115.357604 185.322435 
L 118.743853 185.648296 
L 122.213146 185.94593 
L 125.763429 186.215336 
L 129.392549 186.456571 
L 133.098184 186.669785 
L 136.877971 186.855181 
L 140.729586 187.013078 
L 144.650319 187.143817 
L 148.637681 187.247854 
L 152.689038 187.325657 
L 156.801647 187.377781 
L 160.972615 187.404822 
L 165.199149 187.407415 
L 169.478281 187.386241 
L 173.807225 187.34202 
L 178.182712 187.275487 
L 182.602025 187.187405 
L 187.061756 187.078575 
L 191.559092 186.949778 
L 196.090869 186.801841 
L 200.653955 186.635575 
L 205.24517 186.451809 
L 209.861567 186.25136 
L 214.499989 186.035054 
L 219.157342 185.803683 
L 223.830559 185.558074 
L 228.516502 185.299014 
L 233.21241 185.027272 
L 237.91496 184.743638 
L 242.621429 184.448845 
L 247.328758 184.143643 
L 252.034062 183.828735 
L 256.734429 183.504846 
L 261.427027 183.17265 
L 266.1089 182.832807 
L 270.777552 182.485957 
L 275.429789 182.13276 
L 280.063134 181.773804 
L 284.674747 181.409688 
L 289.261891 181.040997 
L 293.821761 180.668289 
L 298.35192 180.292091 
L 302.84929 179.912979 
L 307.311431 179.531415 
L 311.735598 179.147935 
L 316.119042 178.763008 
L 320.459083 178.377109 
L 324.752966 177.990709 
L 328.998236 177.604232 
L 333.191851 177.218135 
L 337.331336 176.832829 
L 341.413977 176.448716 
L 345.437036 176.066205 
L 349.397751 175.685677 
L 353.293745 175.30749 
L 357.121993 174.932037 
L 360.880131 174.55962 
L 364.565425 174.190603 
L 368.175385 173.825289 
L 371.707412 173.463986 
L 375.159063 173.10698 
L 378.527792 172.754555 
L 381.811458 172.406948 
L 385.007494 172.064423 
L 388.113813 171.727174 
L 391.128217 171.395426 
L 394.048642 171.069352 
L 396.873078 170.749116 
L 399.599597 170.434862 
L 402.2264 170.126726 
L 404.751837 169.82479 
L 407.174311 169.529145 
L 409.49225 169.239848 
L 411.704348 168.956936 
L 413.809198 168.680418 
L 415.805786 168.410276 
L 417.692817 168.146508 
L 419.469499 167.889023 
L 421.134793 167.637761 
L 422.688008 167.39261 
L 424.128386 167.153454 
L 425.455256 166.92014 
L 426.668184 166.692504 
L 427.766623 166.470341 
L 428.750226 166.253445 
L 429.618637 166.041572 
L 430.371555 165.834469 
L 431.008834 165.631853 
L 431.530273 165.433427 
L 431.935773 165.238853 
L 432.225265 165.047807 
L 432.398729 164.85991 
z
" clip-path="url(#p3ab4d0e1bb)" style="fill: #c9c9f5; opacity: 0.46; stroke: #c9c9f5; stroke-linejoin: miter"/>
   </g>
   <g id="patch_4">
    <path d="M 431.040547 164.67665 
L 430.982231 164.494627 
L 430.808488 164.314535 
L 430.519431 164.13595 
L 430.115192 163.958405 
L 429.595974 163.781438 
L 428.961998 163.604551 
L 428.213488 163.427255 
L 427.350734 163.249026 
L 426.374049 163.069336 
L 425.283835 162.887654 
L 424.080425 162.703437 
L 422.764357 162.516114 
L 421.336098 162.325148 
L 419.796206 162.129969 
L 418.145329 161.930029 
L 416.384158 161.724763 
L 414.513453 161.513638 
L 412.533993 161.296111 
L 410.446785 161.071663 
L 408.252742 160.839797 
L 405.953048 160.600031 
L 403.548796 160.351913 
L 401.041302 160.095023 
L 398.431929 159.828981 
L 395.722149 159.553442 
L 392.913547 159.268117 
L 390.007818 158.972752 
L 387.006771 158.667154 
L 383.912235 158.351201 
L 380.726332 158.024807 
L 377.451046 157.687981 
L 374.088722 157.340781 
L 370.641546 156.983348 
L 367.112018 156.615886 
L 363.502638 156.238682 
L 359.815973 155.852097 
L 356.054654 155.45657 
L 352.22154 155.052611 
L 348.319376 154.640804 
L 344.35104 154.221805 
L 340.319517 153.79635 
L 336.227775 153.365228 
L 332.078823 152.92929 
L 327.875717 152.489443 
L 323.621548 152.046657 
L 319.319429 151.601939 
L 314.972447 151.156332 
L 310.583726 150.710929 
L 306.1563 150.26682 
L 301.693361 149.825155 
L 297.197906 149.387063 
L 292.672985 148.953692 
L 288.121646 148.526201 
L 283.546846 148.105724 
L 278.95157 147.693395 
L 274.338646 147.290325 
L 269.710997 146.897608 
L 265.071448 146.516298 
L 260.422796 146.14743 
L 255.767725 145.791986 
L 251.108972 145.450928 
L 246.449205 145.125158 
L 241.791051 144.815534 
L 237.137065 144.522868 
L 232.489824 144.247926 
L 227.851869 143.991418 
L 223.225734 143.753996 
L 218.613875 143.536278 
L 214.018719 143.338795 
L 209.442906 143.162079 
L 204.888699 143.006551 
L 200.358671 142.872621 
L 195.855285 142.760632 
L 191.381047 142.670888 
L 186.938418 142.603643 
L 182.529928 142.559091 
L 178.15809 142.537403 
L 173.825514 142.538694 
L 169.534694 142.563036 
L 165.288303 142.610486 
L 161.089002 142.681029 
L 156.939368 142.774653 
L 152.842193 142.891283 
L 148.800108 143.030829 
L 144.815848 143.19317 
L 140.892236 143.378161 
L 137.031895 143.585621 
L 133.237681 143.815374 
L 129.512316 144.067187 
L 125.858569 144.340846 
L 122.27925 144.636081 
L 118.776928 144.952645 
L 115.354368 145.290251 
L 112.014205 145.648609 
L 108.759028 146.027423 
L 105.59138 146.426372 
L 102.513717 146.845145 
L 99.528448 147.283401 
L 96.637896 147.7408 
L 93.844268 148.217013 
L 91.149709 148.711663 
L 88.556248 149.224401 
L 86.065761 149.754857 
L 83.680099 150.302651 
L 81.400937 150.867373 
L 79.229837 151.448651 
L 77.168271 152.046051 
L 75.217535 152.659157 
L 73.37881 153.287509 
L 71.653281 153.930661 
L 70.041794 154.588129 
L 68.545288 155.259403 
L 67.164454 155.943973 
L 65.899916 156.641275 
L 64.752189 157.350718 
L 63.721697 158.071713 
L 62.808729 158.803604 
L 62.013553 159.545714 
L 61.336214 160.297326 
L 60.776845 161.057693 
L 60.335381 161.826012 
L 60.011731 162.601451 
L 59.80574 163.383127 
L 59.717161 164.170132 
L 59.745728 164.961492 
L 59.891082 165.756185 
L 60.152823 166.553183 
L 60.530571 167.351394 
L 61.023745 168.149672 
L 61.6319 168.946848 
L 62.354454 169.741751 
L 63.19085 170.533105 
L 64.14042 171.319677 
L 65.202469 172.100185 
L 66.376352 172.8733 
L 67.661333 173.637744 
L 69.056629 174.392168 
L 70.561437 175.135255 
L 72.174977 175.86571 
L 73.896288 176.582205 
L 75.724546 177.28348 
L 77.658723 177.968273 
L 79.697859 178.635346 
L 81.840928 179.283538 
L 84.086793 179.911711 
L 86.434403 180.518789 
L 88.882509 181.103761 
L 91.429795 181.665657 
L 94.075077 182.203611 
L 96.816883 182.716821 
L 99.653717 183.204555 
L 102.584196 183.666184 
L 105.606578 184.101148 
L 108.719258 184.50898 
L 111.920516 184.889316 
L 115.208411 185.241845 
L 118.581136 185.566404 
L 122.036569 185.862849 
L 125.57268 186.131179 
L 129.187305 186.37145 
L 132.878144 186.583813 
L 136.642832 186.768469 
L 140.47906 186.925735 
L 144.384137 187.055953 
L 148.355575 187.159574 
L 152.390752 187.237066 
L 156.486929 187.288982 
L 160.641244 187.315914 
L 164.850895 187.318497 
L 169.112936 187.297407 
L 173.424595 187.253363 
L 177.782608 187.187097 
L 182.184268 187.099366 
L 186.626189 186.99097 
L 191.105565 186.862688 
L 195.619243 186.715342 
L 200.164106 186.54974 
L 204.736984 186.366708 
L 209.334945 186.16706 
L 213.954843 185.951617 
L 218.593597 185.721171 
L 223.248149 185.476542 
L 227.915378 185.218517 
L 232.592532 184.947861 
L 237.276299 184.665359 
L 241.963972 184.371743 
L 246.652501 184.067761 
L 251.339013 183.754109 
L 256.020609 183.431514 
L 260.694466 183.100645 
L 265.357641 182.762159 
L 270.007648 182.416694 
L 274.641306 182.064907 
L 279.256143 181.707385 
L 283.849339 181.344724 
L 288.418164 180.977505 
L 292.959822 180.606285 
L 297.471887 180.231589 
L 301.951297 179.853992 
L 306.395617 179.473952 
L 310.802115 179.092003 
L 315.16805 178.708614 
L 319.490762 178.324255 
L 323.767494 177.939399 
L 327.995808 177.554466 
L 332.172679 177.169911 
L 336.295632 176.786143 
L 340.361965 176.403564 
L 344.368961 176.02258 
L 348.313863 175.643572 
L 352.194291 175.266895 
L 356.007252 174.892942 
L 359.750381 174.522012 
L 363.420956 174.154469 
L 367.016499 173.790614 
L 370.534422 173.430754 
L 373.972291 173.075174 
L 377.327563 172.724157 
L 380.598117 172.377938 
L 383.781387 172.03678 
L 386.875298 171.700878 
L 389.877662 171.370455 
L 392.786426 171.045684 
L 395.599581 170.726726 
L 398.315208 170.413728 
L 400.931522 170.106822 
L 403.446871 169.806092 
L 405.859671 169.511628 
L 408.168359 169.223486 
L 410.371619 168.941704 
L 412.468067 168.666291 
L 414.456677 168.397227 
L 416.336175 168.134513 
L 418.10576 167.878056 
L 419.764403 167.627797 
L 421.311414 167.383626 
L 422.746034 167.145425 
L 424.067615 166.913043 
L 425.275689 166.686316 
L 426.369742 166.465039 
L 427.349417 166.249011 
L 428.214358 166.037984 
L 428.964274 165.831708 
L 429.599009 165.629901 
L 430.118361 165.432268 
L 430.522243 165.23847 
L 430.810586 165.048187 
L 430.983347 164.86104 
z
" clip-path="url(#p3ab4d0e1bb)" style="fill: #f69e5e; opacity: 0.36; stroke: #f69e5e; stroke-linejoin: miter"/>
   </g>
   <g id="matplotlib.axis_1">
    <g id="xtick_1">
     <g id="line2d_1">
      <defs>
       <path id="m8355a12915" d="M 0 0 
L 0 3.5 
" style="stroke: #000000; stroke-width: 0.8"/>
      </defs>
      <g>
       <use xlink:href="#m8355a12915" x="59.643848" y="317.72" style="stroke: #000000; stroke-width: 0.8"/>
      </g>
     </g>
     <g id="text_1">
      <!-- −1.00 -->
      <g transform="translate(44.321192 332.318437) scale(0.1 -0.1)">
       <defs>
        <path id="DejaVuSans-2212" d="M 678 2272 
L 4684 2272 
L 4684 1741 
L 678 1741 
L 678 2272 
z
" transform="scale(0.015625)"/>
        <path id="DejaVuSans-31" d="M 794 531 
L 1825 531 
L 1825 4091 
L 703 3866 
L 703 4441 
L 1819 4666 
L 2450 4666 
L 2450 531 
L 3481 531 
L 3481 0 
L 794 0 
L 794 531 
z
" transform="scale(0.015625)"/>
        <path id="DejaVuSans-2e" d="M 684 794 
L 1344 794 
L 1344 0 
L 684 0 
L 684 794 
z
" transform="scale(0.015625)"/>
        <path id="DejaVuSans-30" d="M 2034 4250 
Q 1547 4250 1301 3770 
Q 1056 3291 1056 2328 
Q 1056 1369 1301 889 
Q 1547 409 2034 409 
Q 2525 409 2770 889 
Q 3016 1369 3016 2328 
Q 3016 3291 2770 3770 
Q 2525 4250 2034 4250 
z
M 2034 4750 
Q 2819 4750 3233 4129 
Q 3647 3509 3647 2328 
Q 3647 1150 3233 529 
Q 2819 -91 2034 -91 
Q 1250 -91 836 529 
Q 422 1150 422 2328 
Q 422 3509 836 4129 
Q 1250 4750 2034 4750 
z
" transform="scale(0.015625)"/>
       </defs>
       <use xlink:href="#DejaVuSans-2212"/>
       <use xlink:href="#DejaVuSans-31" transform="translate(83.789062 0)"/>
       <use xlink:href="#DejaVuSans-2e" transform="translate(147.412109 0)"/>
       <use xlink:href="#DejaVuSans-30" transform="translate(179.199219 0)"/>
       <use xlink:href="#DejaVuSans-30" transform="translate(242.822266 0)"/>
      </g>
     </g>
    </g>
    <g id="xtick_2">
     <g id="line2d_2">
      <g>
       <use xlink:href="#m8355a12915" x="106.447238" y="317.72" style="stroke: #000000; stroke-width: 0.8"/>
      </g>
     </g>
     <g id="text_2">
      <!-- −0.75 -->
      <g transform="translate(91.124581 332.318437) scale(0.1 -0.1)">
       <defs>
        <path id="DejaVuSans-37" d="M 525 4666 
L 3525 4666 
L 3525 4397 
L 1831 0 
L 1172 0 
L 2766 4134 
L 525 4134 
L 525 4666 
z
" transform="scale(0.015625)"/>
        <path id="DejaVuSans-35" d="M 691 4666 
L 3169 4666 
L 3169 4134 
L 1269 4134 
L 1269 2991 
Q 1406 3038 1543 3061 
Q 1681 3084 1819 3084 
Q 2600 3084 3056 2656 
Q 3513 2228 3513 1497 
Q 3513 744 3044 326 
Q 2575 -91 1722 -91 
Q 1428 -91 1123 -41 
Q 819 9 494 109 
L 494 744 
Q 775 591 1075 516 
Q 1375 441 1709 441 
Q 2250 441 2565 725 
Q 2881 1009 2881 1497 
Q 2881 1984 2565 2268 
Q 2250 2553 1709 2553 
Q 1456 2553 1204 2497 
Q 953 2441 691 2322 
L 691 4666 
z
" transform="scale(0.015625)"/>
       </defs>
       <use xlink:href="#DejaVuSans-2212"/>
       <use xlink:href="#DejaVuSans-30" transform="translate(83.789062 0)"/>
       <use xlink:href="#DejaVuSans-2e" transform="translate(147.412109 0)"/>
       <use xlink:href="#DejaVuSans-37" transform="translate(179.199219 0)"/>
       <use xlink:href="#DejaVuSans-35" transform="translate(242.822266 0)"/>
      </g>
     </g>
    </g>
    <g id="xtick_3">
     <g id="line2d_3">
      <g>
       <use xlink:href="#m8355a12915" x="153.250627" y="317.72" style="stroke: #000000; stroke-width: 0.8"/>
      </g>
     </g>
     <g id="text_3">
      <!-- −0.50 -->
      <g transform="translate(137.927971 332.318437) scale(0.1 -0.1)">
       <use xlink:href="#DejaVuSans-2212"/>
       <use xlink:href="#DejaVuSans-30" transform="translate(83.789062 0)"/>
       <use xlink:href="#DejaVuSans-2e" transform="translate(147.412109 0)"/>
       <use xlink:href="#DejaVuSans-35" transform="translate(179.199219 0)"/>
       <use xlink:href="#DejaVuSans-30" transform="translate(242.822266 0)"/>
      </g>
     </g>
    </g>
    <g id="xtick_4">
     <g id="line2d_4">
      <g>
       <use xlink:href="#m8355a12915" x="200.054016" y="317.72" style="stroke: #000000; stroke-width: 0.8"/>
      </g>
     </g>
     <g id="text_4">
      <!-- −0.25 -->
      <g transform="translate(184.73136 332.318437) scale(0.1 -0.1)">
       <defs>
        <path id="DejaVuSans-32" d="M 1228 531 
L 3431 531 
L 3431 0 
L 469 0 
L 469 531 
Q 828 903 1448 1529 
Q 2069 2156 2228 2338 
Q 2531 2678 2651 2914 
Q 2772 3150 2772 3378 
Q 2772 3750 2511 3984 
Q 2250 4219 1831 4219 
Q 1534 4219 1204 4116 
Q 875 4013 500 3803 
L 500 4441 
Q 881 4594 1212 4672 
Q 1544 4750 1819 4750 
Q 2544 4750 2975 4387 
Q 3406 4025 3406 3419 
Q 3406 3131 3298 2873 
Q 3191 2616 2906 2266 
Q 2828 2175 2409 1742 
Q 1991 1309 1228 531 
z
" transform="scale(0.015625)"/>
       </defs>
       <use xlink:href="#DejaVuSans-2212"/>
       <use xlink:href="#DejaVuSans-30" transform="translate(83.789062 0)"/>
       <use xlink:href="#DejaVuSans-2e" transform="translate(147.412109 0)"/>
       <use xlink:href="#DejaVuSans-32" transform="translate(179.199219 0)"/>
       <use xlink:href="#DejaVuSans-35" transform="translate(242.822266 0)"/>
      </g>
     </g>
    </g>
    <g id="xtick_5">
     <g id="line2d_5">
      <g>
       <use xlink:href="#m8355a12915" x="246.857406" y="317.72" style="stroke: #000000; stroke-width: 0.8"/>
      </g>
     </g>
     <g id="text_5">
      <!-- 0.00 -->
      <g transform="translate(235.724593 332.318437) scale(0.1 -0.1)">
       <use xlink:href="#DejaVuSans-30"/>
       <use xlink:href="#DejaVuSans-2e" transform="translate(63.623047 0)"/>
       <use xlink:href="#DejaVuSans-30" transform="translate(95.410156 0)"/>
       <use xlink:href="#DejaVuSans-30" transform="translate(159.033203 0)"/>
      </g>
     </g>
    </g>
    <g id="xtick_6">
     <g id="line2d_6">
      <g>
       <use xlink:href="#m8355a12915" x="293.660795" y="317.72" style="stroke: #000000; stroke-width: 0.8"/>
      </g>
     </g>
     <g id="text_6">
      <!-- 0.25 -->
      <g transform="translate(282.527983 332.318437) scale(0.1 -0.1)">
       <use xlink:href="#DejaVuSans-30"/>
       <use xlink:href="#DejaVuSans-2e" transform="translate(63.623047 0)"/>
       <use xlink:href="#DejaVuSans-32" transform="translate(95.410156 0)"/>
       <use xlink:href="#DejaVuSans-35" transform="translate(159.033203 0)"/>
      </g>
     </g>
    </g>
    <g id="xtick_7">
     <g id="line2d_7">
      <g>
       <use xlink:href="#m8355a12915" x="340.464185" y="317.72" style="stroke: #000000; stroke-width: 0.8"/>
      </g>
     </g>
     <g id="text_7">
      <!-- 0.50 -->
      <g transform="translate(329.331372 332.318437) scale(0.1 -0.1)">
       <use xlink:href="#DejaVuSans-30"/>
       <use xlink:href="#DejaVuSans-2e" transform="translate(63.623047 0)"/>
       <use xlink:href="#DejaVuSans-35" transform="translate(95.410156 0)"/>
       <use xlink:href="#DejaVuSans-30" transform="translate(159.033203 0)"/>
      </g>
     </g>
    </g>
    <g id="xtick_8">
     <g id="line2d_8">
      <g>
       <use xlink:href="#m8355a12915" x="387.267574" y="317.72" style="stroke: #000000; stroke-width: 0.8"/>
      </g>
     </g>
     <g id="text_8">
      <!-- 0.75 -->
      <g transform="translate(376.134762 332.318437) scale(0.1 -0.1)">
       <use xlink:href="#DejaVuSans-30"/>
       <use xlink:href="#DejaVuSans-2e" transform="translate(63.623047 0)"/>
       <use xlink:href="#DejaVuSans-37" transform="translate(95.410156 0)"/>
       <use xlink:href="#DejaVuSans-35" transform="translate(159.033203 0)"/>
      </g>
     </g>
    </g>
    <g id="xtick_9">
     <g id="line2d_9">
      <g>
       <use xlink:href="#m8355a12915" x="434.070964" y="317.72" style="stroke: #000000; stroke-width: 0.8"/>
      </g>
     </g>
     <g id="text_9">
      <!-- 1.00 -->
      <g transform="translate(422.938151 332.318437) scale(0.1 -0.1)">
       <use xlink:href="#DejaVuSans-31"/>
       <use xlink:href="#DejaVuSans-2e" transform="translate(63.623047 0)"/>
       <use xlink:href="#DejaVuSans-30" transform="translate(95.410156 0)"/>
       <use xlink:href="#DejaVuSans-30" transform="translate(159.033203 0)"/>
      </g>
     </g>
    </g>
   </g>
   <g id="matplotlib.axis_2">
    <g id="ytick_1">
     <g id="line2d_10">
      <defs>
       <path id="mc86cf4f772" d="M 0 0 
L -3.5 0 
" style="stroke: #000000; stroke-width: 0.8"/>
      </defs>
      <g>
       <use xlink:href="#mc86cf4f772" x="42.1" y="314.691196" style="stroke: #000000; stroke-width: 0.8"/>
      </g>
     </g>
     <g id="text_10">
      <!-- −0.8 -->
      <g transform="translate(10.817188 318.490414) scale(0.1 -0.1)">
       <defs>
        <path id="DejaVuSans-38" d="M 2034 2216 
Q 1584 2216 1326 1975 
Q 1069 1734 1069 1313 
Q 1069 891 1326 650 
Q 1584 409 2034 409 
Q 2484 409 2743 651 
Q 3003 894 3003 1313 
Q 3003 1734 2745 1975 
Q 2488 2216 2034 2216 
z
M 1403 2484 
Q 997 2584 770 2862 
Q 544 3141 544 3541 
Q 544 4100 942 4425 
Q 1341 4750 2034 4750 
Q 2731 4750 3128 4425 
Q 3525 4100 3525 3541 
Q 3525 3141 3298 2862 
Q 3072 2584 2669 2484 
Q 3125 2378 3379 2068 
Q 3634 1759 3634 1313 
Q 3634 634 3220 271 
Q 2806 -91 2034 -91 
Q 1263 -91 848 271 
Q 434 634 434 1313 
Q 434 1759 690 2068 
Q 947 2378 1403 2484 
z
M 1172 3481 
Q 1172 3119 1398 2916 
Q 1625 2713 2034 2713 
Q 2441 2713 2670 2916 
Q 2900 3119 2900 3481 
Q 2900 3844 2670 4047 
Q 2441 4250 2034 4250 
Q 1625 4250 1398 4047 
Q 1172 3844 1172 3481 
z
" transform="scale(0.015625)"/>
       </defs>
       <use xlink:href="#DejaVuSans-2212"/>
       <use xlink:href="#DejaVuSans-30" transform="translate(83.789062 0)"/>
       <use xlink:href="#DejaVuSans-2e" transform="translate(147.412109 0)"/>
       <use xlink:href="#DejaVuSans-38" transform="translate(179.199219 0)"/>
      </g>
     </g>
    </g>
    <g id="ytick_2">
     <g id="line2d_11">
      <g>
       <use xlink:href="#mc86cf4f772" x="42.1" y="277.248484" style="stroke: #000000; stroke-width: 0.8"/>
      </g>
     </g>
     <g id="text_11">
      <!-- −0.6 -->
      <g transform="translate(10.817188 281.047703) scale(0.1 -0.1)">
       <defs>
        <path id="DejaVuSans-36" d="M 2113 2584 
Q 1688 2584 1439 2293 
Q 1191 2003 1191 1497 
Q 1191 994 1439 701 
Q 1688 409 2113 409 
Q 2538 409 2786 701 
Q 3034 994 3034 1497 
Q 3034 2003 2786 2293 
Q 2538 2584 2113 2584 
z
M 3366 4563 
L 3366 3988 
Q 3128 4100 2886 4159 
Q 2644 4219 2406 4219 
Q 1781 4219 1451 3797 
Q 1122 3375 1075 2522 
Q 1259 2794 1537 2939 
Q 1816 3084 2150 3084 
Q 2853 3084 3261 2657 
Q 3669 2231 3669 1497 
Q 3669 778 3244 343 
Q 2819 -91 2113 -91 
Q 1303 -91 875 529 
Q 447 1150 447 2328 
Q 447 3434 972 4092 
Q 1497 4750 2381 4750 
Q 2619 4750 2861 4703 
Q 3103 4656 3366 4563 
z
" transform="scale(0.015625)"/>
       </defs>
       <use xlink:href="#DejaVuSans-2212"/>
       <use xlink:href="#DejaVuSans-30" transform="translate(83.789062 0)"/>
       <use xlink:href="#DejaVuSans-2e" transform="translate(147.412109 0)"/>
       <use xlink:href="#DejaVuSans-36" transform="translate(179.199219 0)"/>
      </g>
     </g>
    </g>
    <g id="ytick_3">
     <g id="line2d_12">
      <g>
       <use xlink:href="#mc86cf4f772" x="42.1" y="239.805772" style="stroke: #000000; stroke-width: 0.8"/>
      </g>
     </g>
     <g id="text_12">
      <!-- −0.4 -->
      <g transform="translate(10.817188 243.604991) scale(0.1 -0.1)">
       <defs>
        <path id="DejaVuSans-34" d="M 2419 4116 
L 825 1625 
L 2419 1625 
L 2419 4116 
z
M 2253 4666 
L 3047 4666 
L 3047 1625 
L 3713 1625 
L 3713 1100 
L 3047 1100 
L 3047 0 
L 2419 0 
L 2419 1100 
L 313 1100 
L 313 1709 
L 2253 4666 
z
" transform="scale(0.015625)"/>
       </defs>
       <use xlink:href="#DejaVuSans-2212"/>
       <use xlink:href="#DejaVuSans-30" transform="translate(83.789062 0)"/>
       <use xlink:href="#DejaVuSans-2e" transform="translate(147.412109 0)"/>
       <use xlink:href="#DejaVuSans-34" transform="translate(179.199219 0)"/>
      </g>
     </g>
    </g>
    <g id="ytick_4">
     <g id="line2d_13">
      <g>
       <use xlink:href="#mc86cf4f772" x="42.1" y="202.363061" style="stroke: #000000; stroke-width: 0.8"/>
      </g>
     </g>
     <g id="text_13">
      <!-- −0.2 -->
      <g transform="translate(10.817188 206.16228) scale(0.1 -0.1)">
       <use xlink:href="#DejaVuSans-2212"/>
       <use xlink:href="#DejaVuSans-30" transform="translate(83.789062 0)"/>
       <use xlink:href="#DejaVuSans-2e" transform="translate(147.412109 0)"/>
       <use xlink:href="#DejaVuSans-32" transform="translate(179.199219 0)"/>
      </g>
     </g>
    </g>
    <g id="ytick_5">
     <g id="line2d_14">
      <g>
       <use xlink:href="#mc86cf4f772" x="42.1" y="164.920349" style="stroke: #000000; stroke-width: 0.8"/>
      </g>
     </g>
     <g id="text_14">
      <!-- 0.0 -->
      <g transform="translate(19.196875 168.719568) scale(0.1 -0.1)">
       <use xlink:href="#DejaVuSans-30"/>
       <use xlink:href="#DejaVuSans-2e" transform="translate(63.623047 0)"/>
       <use xlink:href="#DejaVuSans-30" transform="translate(95.410156 0)"/>
      </g>
     </g>
    </g>
    <g id="ytick_6">
     <g id="line2d_15">
      <g>
       <use xlink:href="#mc86cf4f772" x="42.1" y="127.477638" style="stroke: #000000; stroke-width: 0.8"/>
      </g>
     </g>
     <g id="text_15">
      <!-- 0.2 -->
      <g transform="translate(19.196875 131.276857) scale(0.1 -0.1)">
       <use xlink:href="#DejaVuSans-30"/>
       <use xlink:href="#DejaVuSans-2e" transform="translate(63.623047 0)"/>
       <use xlink:href="#DejaVuSans-32" transform="translate(95.410156 0)"/>
      </g>
     </g>
    </g>
    <g id="ytick_7">
     <g id="line2d_16">
      <g>
       <use xlink:href="#mc86cf4f772" x="42.1" y="90.034926" style="stroke: #000000; stroke-width: 0.8"/>
      </g>
     </g>
     <g id="text_16">
      <!-- 0.4 -->
      <g transform="translate(19.196875 93.834145) scale(0.1 -0.1)">
       <use xlink:href="#DejaVuSans-30"/>
       <use xlink:href="#DejaVuSans-2e" transform="translate(63.623047 0)"/>
       <use xlink:href="#DejaVuSans-34" transform="translate(95.410156 0)"/>
      </g>
     </g>
    </g>
    <g id="ytick_8">
     <g id="line2d_17">
      <g>
       <use xlink:href="#mc86cf4f772" x="42.1" y="52.592215" style="stroke: #000000; stroke-width: 0.8"/>
      </g>
     </g>
     <g id="text_17">
      <!-- 0.6 -->
      <g transform="translate(19.196875 56.391433) scale(0.1 -0.1)">
       <use xlink:href="#DejaVuSans-30"/>
       <use xlink:href="#DejaVuSans-2e" transform="translate(63.623047 0)"/>
       <use xlink:href="#DejaVuSans-36" transform="translate(95.410156 0)"/>
      </g>
     </g>
    </g>
    <g id="ytick_9">
     <g id="line2d_18">
      <g>
       <use xlink:href="#mc86cf4f772" x="42.1" y="15.149503" style="stroke: #000000; stroke-width: 0.8"/>
      </g>
     </g>
     <g id="text_18">
      <!-- 0.8 -->
      <g transform="translate(19.196875 18.948722) scale(0.1 -0.1)">
       <use xlink:href="#DejaVuSans-30"/>
       <use xlink:href="#DejaVuSans-2e" transform="translate(63.623047 0)"/>
       <use xlink:href="#DejaVuSans-38" transform="translate(95.410156 0)"/>
      </g>
     </g>
    </g>
   </g>
   <g id="line2d_19">
    <path d="M 432.456152 164.67478 
L 432.223167 164.311213 
L 431.527093 163.953655 
L 430.369267 163.598382 
L 427.770941 163.061021 
L 422.712792 162.313849 
L 413.875392 161.280686 
L 391.258887 158.948011 
L 345.419037 154.178013 
L 302.590322 149.763733 
L 279.757338 147.623425 
L 261.154268 146.071261 
L 242.447815 144.734024 
L 223.808054 143.668231 
L 209.969961 143.07394 
L 196.32786 142.670883 
L 182.949069 142.468535 
L 169.901729 142.472495 
L 157.255899 142.68496 
L 145.08376 143.105155 
L 133.459172 143.729854 
L 122.456798 144.553852 
L 112.150588 145.570441 
L 102.612003 146.771774 
L 93.907795 148.149142 
L 86.098099 149.693153 
L 81.414573 150.810129 
L 77.164935 151.993535 
L 73.360276 153.239971 
L 70.00988 154.545806 
L 67.121001 155.907087 
L 64.699062 157.319472 
L 62.747813 158.778184 
L 61.269395 160.277897 
L 60.264545 161.812712 
L 59.939601 162.59126 
L 59.732784 163.376071 
L 59.643848 164.166231 
L 59.672526 164.960764 
L 59.818461 165.758644 
L 60.460516 167.360249 
L 61.566263 168.962101 
L 63.131463 170.554718 
L 65.15115 172.128082 
L 67.619878 173.671807 
L 70.53161 175.175321 
L 73.879829 176.628073 
L 77.65735 178.019698 
L 81.856327 179.340237 
L 86.468214 180.580441 
L 91.483647 181.731908 
L 96.892327 182.787287 
L 102.682773 183.740457 
L 108.842429 184.586632 
L 115.357604 185.322435 
L 125.763429 186.215336 
L 136.877971 186.855181 
L 148.637681 187.247854 
L 160.972615 187.404822 
L 173.807225 187.34202 
L 187.061756 187.078575 
L 205.24517 186.451809 
L 223.830559 185.558074 
L 242.621429 184.448845 
L 266.1089 182.832807 
L 293.821761 180.668289 
L 324.752966 177.990709 
L 353.293745 175.30749 
L 381.811458 172.406948 
L 402.2264 170.126726 
L 415.805786 168.410276 
L 424.128386 167.153454 
L 428.750226 166.253445 
L 431.008834 165.631853 
L 431.935773 165.238853 
L 432.398729 164.85991 
L 432.456152 164.67478 
L 432.456152 164.67478 
" clip-path="url(#p3ab4d0e1bb)" style="fill: none; stroke: #000000; stroke-width: 2; stroke-linecap: square"/>
   </g>
   <g id="line2d_20">
    <path d="M 431.040547 164.67665 
L 430.808488 164.314535 
L 430.115192 163.958405 
L 428.213488 163.427255 
L 425.283835 162.887654 
L 419.796206 162.129969 
L 408.252742 160.839797 
L 301.693361 149.825155 
L 278.95157 147.693395 
L 260.422796 146.14743 
L 241.791051 144.815534 
L 223.225734 143.753996 
L 209.442906 143.162079 
L 195.855285 142.760632 
L 182.529928 142.559091 
L 169.534694 142.563036 
L 156.939368 142.774653 
L 144.815848 143.19317 
L 133.237681 143.815374 
L 122.27925 144.636081 
L 112.014205 145.648609 
L 102.513717 146.845145 
L 93.844268 148.217013 
L 86.065761 149.754857 
L 81.400937 150.867373 
L 77.168271 152.046051 
L 73.37881 153.287509 
L 70.041794 154.588129 
L 67.164454 155.943973 
L 64.752189 157.350718 
L 62.808729 158.803604 
L 61.336214 160.297326 
L 60.335381 161.826012 
L 59.80574 163.383127 
L 59.717161 164.170132 
L 59.745728 164.961492 
L 59.891082 165.756185 
L 60.530571 167.351394 
L 61.6319 168.946848 
L 63.19085 170.533105 
L 65.202469 172.100185 
L 67.661333 173.637744 
L 70.561437 175.135255 
L 73.896288 176.582205 
L 77.658723 177.968273 
L 81.840928 179.283538 
L 86.434403 180.518789 
L 91.429795 181.665657 
L 96.816883 182.716821 
L 102.584196 183.666184 
L 108.719258 184.50898 
L 115.208411 185.241845 
L 125.57268 186.131179 
L 136.642832 186.768469 
L 148.355575 187.159574 
L 160.641244 187.315914 
L 173.424595 187.253363 
L 186.626189 186.99097 
L 204.736984 186.366708 
L 223.248149 185.476542 
L 241.963972 184.371743 
L 265.357641 182.762159 
L 292.959822 180.606285 
L 323.767494 177.939399 
L 356.007252 174.892942 
L 383.781387 172.03678 
L 403.446871 169.806092 
L 416.336175 168.134513 
L 424.067615 166.913043 
L 428.214358 166.037984 
L 430.118361 165.432268 
L 430.810586 165.048187 
L 431.040547 164.67665 
L 431.040547 164.67665 
" clip-path="url(#p3ab4d0e1bb)" style="fill: none; stroke-dasharray: 7.4,3.2; stroke-dashoffset: 0; stroke: #000000; stroke-width: 2"/>
   </g>
   <g id="patch_5">
    <path d="M 42.1 317.72 
L 42.1 12.134173 
" style="fill: none; stroke: #000000; stroke-width: 0.8; stroke-linejoin: miter; stroke-linecap: square"/>
   </g>
   <g id="patch_6">
    <path d="M 450 317.72 
L 450 12.134173 
" style="fill: none; stroke: #000000; stroke-width: 0.8; stroke-linejoin: miter; stroke-linecap: square"/>
   </g>
   <g id="patch_7">
    <path d="M 42.1 317.72 
L 450 317.72 
" style="fill: none; stroke: #000000; stroke-width: 0.8; stroke-linejoin: miter; stroke-linecap: square"/>
   </g>
   <g id="patch_8">
    <path d="M 42.1 12.134173 
L 450 12.134173 
" style="fill: none; stroke: #000000; stroke-width: 0.8; stroke-linejoin: miter; stroke-linecap: square"/>
   </g>
   <g id="legend_1">
    <g id="patch_9">
     <path d="M 325.31875 49.490423 
L 443 49.490423 
Q 445 49.490423 445 47.490423 
L 445 19.134173 
Q 445 17.134173 443 17.134173 
L 325.31875 17.134173 
Q 323.31875 17.134173 323.31875 19.134173 
L 323.31875 47.490423 
Q 323.31875 49.490423 325.31875 49.490423 
z
" style="fill: #ffffff; opacity: 0.8; stroke: #cccccc; stroke-linejoin: miter"/>
    </g>
    <g id="patch_10">
     <path d="M 327.31875 28.73261 
L 347.31875 28.73261 
L 347.31875 21.73261 
L 327.31875 21.73261 
z
" style="fill: #c9c9f5; opacity: 0.46; stroke: #c9c9f5; stroke-linejoin: miter"/>
    </g>
    <g id="text_19">
     <!-- Optimized Shape -->
     <g transform="translate(355.31875 28.73261) scale(0.1 -0.1)">
      <defs>
       <path id="DejaVuSans-4f" d="M 2522 4238 
Q 1834 4238 1429 3725 
Q 1025 3213 1025 2328 
Q 1025 1447 1429 934 
Q 1834 422 2522 422 
Q 3209 422 3611 934 
Q 4013 1447 4013 2328 
Q 4013 3213 3611 3725 
Q 3209 4238 2522 4238 
z
M 2522 4750 
Q 3503 4750 4090 4092 
Q 4678 3434 4678 2328 
Q 4678 1225 4090 567 
Q 3503 -91 2522 -91 
Q 1538 -91 948 565 
Q 359 1222 359 2328 
Q 359 3434 948 4092 
Q 1538 4750 2522 4750 
z
" transform="scale(0.015625)"/>
       <path id="DejaVuSans-70" d="M 1159 525 
L 1159 -1331 
L 581 -1331 
L 581 3500 
L 1159 3500 
L 1159 2969 
Q 1341 3281 1617 3432 
Q 1894 3584 2278 3584 
Q 2916 3584 3314 3078 
Q 3713 2572 3713 1747 
Q 3713 922 3314 415 
Q 2916 -91 2278 -91 
Q 1894 -91 1617 61 
Q 1341 213 1159 525 
z
M 3116 1747 
Q 3116 2381 2855 2742 
Q 2594 3103 2138 3103 
Q 1681 3103 1420 2742 
Q 1159 2381 1159 1747 
Q 1159 1113 1420 752 
Q 1681 391 2138 391 
Q 2594 391 2855 752 
Q 3116 1113 3116 1747 
z
" transform="scale(0.015625)"/>
       <path id="DejaVuSans-74" d="M 1172 4494 
L 1172 3500 
L 2356 3500 
L 2356 3053 
L 1172 3053 
L 1172 1153 
Q 1172 725 1289 603 
Q 1406 481 1766 481 
L 2356 481 
L 2356 0 
L 1766 0 
Q 1100 0 847 248 
Q 594 497 594 1153 
L 594 3053 
L 172 3053 
L 172 3500 
L 594 3500 
L 594 4494 
L 1172 4494 
z
" transform="scale(0.015625)"/>
       <path id="DejaVuSans-69" d="M 603 3500 
L 1178 3500 
L 1178 0 
L 603 0 
L 603 3500 
z
M 603 4863 
L 1178 4863 
L 1178 4134 
L 603 4134 
L 603 4863 
z
" transform="scale(0.015625)"/>
       <path id="DejaVuSans-6d" d="M 3328 2828 
Q 3544 3216 3844 3400 
Q 4144 3584 4550 3584 
Q 5097 3584 5394 3201 
Q 5691 2819 5691 2113 
L 5691 0 
L 5113 0 
L 5113 2094 
Q 5113 2597 4934 2840 
Q 4756 3084 4391 3084 
Q 3944 3084 3684 2787 
Q 3425 2491 3425 1978 
L 3425 0 
L 2847 0 
L 2847 2094 
Q 2847 2600 2669 2842 
Q 2491 3084 2119 3084 
Q 1678 3084 1418 2786 
Q 1159 2488 1159 1978 
L 1159 0 
L 581 0 
L 581 3500 
L 1159 3500 
L 1159 2956 
Q 1356 3278 1631 3431 
Q 1906 3584 2284 3584 
Q 2666 3584 2933 3390 
Q 3200 3197 3328 2828 
z
" transform="scale(0.015625)"/>
       <path id="DejaVuSans-7a" d="M 353 3500 
L 3084 3500 
L 3084 2975 
L 922 459 
L 3084 459 
L 3084 0 
L 275 0 
L 275 525 
L 2438 3041 
L 353 3041 
L 353 3500 
z
" transform="scale(0.015625)"/>
       <path id="DejaVuSans-65" d="M 3597 1894 
L 3597 1613 
L 953 1613 
Q 991 1019 1311 708 
Q 1631 397 2203 397 
Q 2534 397 2845 478 
Q 3156 559 3463 722 
L 3463 178 
Q 3153 47 2828 -22 
Q 2503 -91 2169 -91 
Q 1331 -91 842 396 
Q 353 884 353 1716 
Q 353 2575 817 3079 
Q 1281 3584 2069 3584 
Q 2775 3584 3186 3129 
Q 3597 2675 3597 1894 
z
M 3022 2063 
Q 3016 2534 2758 2815 
Q 2500 3097 2075 3097 
Q 1594 3097 1305 2825 
Q 1016 2553 972 2059 
L 3022 2063 
z
" transform="scale(0.015625)"/>
       <path id="DejaVuSans-64" d="M 2906 2969 
L 2906 4863 
L 3481 4863 
L 3481 0 
L 2906 0 
L 2906 525 
Q 2725 213 2448 61 
Q 2172 -91 1784 -91 
Q 1150 -91 751 415 
Q 353 922 353 1747 
Q 353 2572 751 3078 
Q 1150 3584 1784 3584 
Q 2172 3584 2448 3432 
Q 2725 3281 2906 2969 
z
M 947 1747 
Q 947 1113 1208 752 
Q 1469 391 1925 391 
Q 2381 391 2643 752 
Q 2906 1113 2906 1747 
Q 2906 2381 2643 2742 
Q 2381 3103 1925 3103 
Q 1469 3103 1208 2742 
Q 947 2381 947 1747 
z
" transform="scale(0.015625)"/>
       <path id="DejaVuSans-20" transform="scale(0.015625)"/>
       <path id="DejaVuSans-53" d="M 3425 4513 
L 3425 3897 
Q 3066 4069 2747 4153 
Q 2428 4238 2131 4238 
Q 1616 4238 1336 4038 
Q 1056 3838 1056 3469 
Q 1056 3159 1242 3001 
Q 1428 2844 1947 2747 
L 2328 2669 
Q 3034 2534 3370 2195 
Q 3706 1856 3706 1288 
Q 3706 609 3251 259 
Q 2797 -91 1919 -91 
Q 1588 -91 1214 -16 
Q 841 59 441 206 
L 441 856 
Q 825 641 1194 531 
Q 1563 422 1919 422 
Q 2459 422 2753 634 
Q 3047 847 3047 1241 
Q 3047 1584 2836 1778 
Q 2625 1972 2144 2069 
L 1759 2144 
Q 1053 2284 737 2584 
Q 422 2884 422 3419 
Q 422 4038 858 4394 
Q 1294 4750 2059 4750 
Q 2388 4750 2728 4690 
Q 3069 4631 3425 4513 
z
" transform="scale(0.015625)"/>
       <path id="DejaVuSans-68" d="M 3513 2113 
L 3513 0 
L 2938 0 
L 2938 2094 
Q 2938 2591 2744 2837 
Q 2550 3084 2163 3084 
Q 1697 3084 1428 2787 
Q 1159 2491 1159 1978 
L 1159 0 
L 581 0 
L 581 4863 
L 1159 4863 
L 1159 2956 
Q 1366 3272 1645 3428 
Q 1925 3584 2291 3584 
Q 2894 3584 3203 3211 
Q 3513 2838 3513 2113 
z
" transform="scale(0.015625)"/>
       <path id="DejaVuSans-61" d="M 2194 1759 
Q 1497 1759 1228 1600 
Q 959 1441 959 1056 
Q 959 750 1161 570 
Q 1363 391 1709 391 
Q 2188 391 2477 730 
Q 2766 1069 2766 1631 
L 2766 1759 
L 2194 1759 
z
M 3341 1997 
L 3341 0 
L 2766 0 
L 2766 531 
Q 2569 213 2275 61 
Q 1981 -91 1556 -91 
Q 1019 -91 701 211 
Q 384 513 384 1019 
Q 384 1609 779 1909 
Q 1175 2209 1959 2209 
L 2766 2209 
L 2766 2266 
Q 2766 2663 2505 2880 
Q 2244 3097 1772 3097 
Q 1472 3097 1187 3025 
Q 903 2953 641 2809 
L 641 3341 
Q 956 3463 1253 3523 
Q 1550 3584 1831 3584 
Q 2591 3584 2966 3190 
Q 3341 2797 3341 1997 
z
" transform="scale(0.015625)"/>
      </defs>
      <use xlink:href="#DejaVuSans-4f"/>
      <use xlink:href="#DejaVuSans-70" transform="translate(78.710938 0)"/>
      <use xlink:href="#DejaVuSans-74" transform="translate(142.1875 0)"/>
      <use xlink:href="#DejaVuSans-69" transform="translate(181.396484 0)"/>
      <use xlink:href="#DejaVuSans-6d" transform="translate(209.179688 0)"/>
      <use xlink:href="#DejaVuSans-69" transform="translate(306.591797 0)"/>
      <use xlink:href="#DejaVuSans-7a" transform="translate(334.375 0)"/>
      <use xlink:href="#DejaVuSans-65" transform="translate(386.865234 0)"/>
      <use xlink:href="#DejaVuSans-64" transform="translate(448.388672 0)"/>
      <use xlink:href="#DejaVuSans-20" transform="translate(511.865234 0)"/>
      <use xlink:href="#DejaVuSans-53" transform="translate(543.652344 0)"/>
      <use xlink:href="#DejaVuSans-68" transform="translate(607.128906 0)"/>
      <use xlink:href="#DejaVuSans-61" transform="translate(670.507812 0)"/>
      <use xlink:href="#DejaVuSans-70" transform="translate(731.787109 0)"/>
      <use xlink:href="#DejaVuSans-65" transform="translate(795.263672 0)"/>
     </g>
    </g>
    <g id="patch_11">
     <path d="M 327.31875 43.410735 
L 347.31875 43.410735 
L 347.31875 36.410735 
L 327.31875 36.410735 
z
" style="fill: #f69e5e; opacity: 0.36; stroke: #f69e5e; stroke-linejoin: miter"/>
    </g>
    <g id="text_20">
     <!-- Initial Shape -->
     <g transform="translate(355.31875 43.410735) scale(0.1 -0.1)">
      <defs>
       <path id="DejaVuSans-49" d="M 628 4666 
L 1259 4666 
L 1259 0 
L 628 0 
L 628 4666 
z
" transform="scale(0.015625)"/>
       <path id="DejaVuSans-6e" d="M 3513 2113 
L 3513 0 
L 2938 0 
L 2938 2094 
Q 2938 2591 2744 2837 
Q 2550 3084 2163 3084 
Q 1697 3084 1428 2787 
Q 1159 2491 1159 1978 
L 1159 0 
L 581 0 
L 581 3500 
L 1159 3500 
L 1159 2956 
Q 1366 3272 1645 3428 
Q 1925 3584 2291 3584 
Q 2894 3584 3203 3211 
Q 3513 2838 3513 2113 
z
" transform="scale(0.015625)"/>
       <path id="DejaVuSans-6c" d="M 603 4863 
L 1178 4863 
L 1178 0 
L 603 0 
L 603 4863 
z
" transform="scale(0.015625)"/>
      </defs>
      <use xlink:href="#DejaVuSans-49"/>
      <use xlink:href="#DejaVuSans-6e" transform="translate(29.492188 0)"/>
      <use xlink:href="#DejaVuSans-69" transform="translate(92.871094 0)"/>
      <use xlink:href="#DejaVuSans-74" transform="translate(120.654297 0)"/>
      <use xlink:href="#DejaVuSans-69" transform="translate(159.863281 0)"/>
      <use xlink:href="#DejaVuSans-61" transform="translate(187.646484 0)"/>
      <use xlink:href="#DejaVuSans-6c" transform="translate(248.925781 0)"/>
      <use xlink:href="#DejaVuSans-20" transform="translate(276.708984 0)"/>
      <use xlink:href="#DejaVuSans-53" transform="translate(308.496094 0)"/>
      <use xlink:href="#DejaVuSans-68" transform="translate(371.972656 0)"/>
      <use xlink:href="#DejaVuSans-61" transform="translate(435.351562 0)"/>
      <use xlink:href="#DejaVuSans-70" transform="translate(496.630859 0)"/>
      <use xlink:href="#DejaVuSans-65" transform="translate(560.107422 0)"/>
     </g>
    </g>
   </g>
  </g>
 </g>
 <defs>
  <clipPath id="p3ab4d0e1bb">
   <rect x="42.1" y="12.134173" width="407.9" height="305.585827"/>
  </clipPath>
 </defs>
</svg>
