<?xml version="1.0" encoding="utf-8" standalone="no"?>
<!DOCTYPE svg PUBLIC "-//W3C//DTD SVG 1.1//EN"
  "http://www.w3.org/Graphics/SVG/1.1/DTD/svg11.dtd">
<svg xmlns:xlink="http://www.w3.org/1999/xlink" width="460.8pt" height="345.6pt" viewBox="0 0 460.8 345.6" xmlns="http://www.w3.org/2000/svg" version="1.1">
 <metadata>
  <rdf:RDF xmlns:dc="http://purl.org/dc/elements/1.1/" xmlns:cc="http://creativecommons.org/ns#" xmlns:rdf="http://www.w3.org/1999/02/22-rdf-syntax-ns#">
   <cc:Work>
    <dc:type rdf:resource="http://purl.org/dc/dcmitype/StillImage"/>
    <dc:date>2025-06-01T23:00:54.059784</dc:date>
    <dc:format>image/svg+xml</dc:format>
    <dc:creator>
     <cc:Agent>
      <dc:title>Matplotlib v3.10.0, https://matplotlib.org/</dc:title>
     </cc:Agent>
    </dc:creator>
   </cc:Work>
  </rdf:RDF>
 </metadata>
 <defs>
  <style type="text/css">*{stroke-linejoin: round; stroke-linecap: butt}</style>
 </defs>
 <g id="figure_1">
  <g id="patch_1">
   <path d="M 0 345.6 
L 460.8 345.6 
L 460.8 0 
L 0 0 
z
" style="fill: #ffffff"/>
  </g>
  <g id="axes_1">
   <g id="patch_2">
    <path d="M 42.1 317.72 
L 450 317.72 
L 450 10.8 
L 42.1 10.8 
z
" style="fill: #ffffff"/>
   </g>
   <g id="patch_3">
    <path d="M 432.131547 218.680258 
L 431.959396 218.471125 
L 431.66554 218.25557 
L 431.24765 218.032756 
L 430.703251 217.801767 
L 430.030116 217.56156 
L 429.226073 217.310978 
L 428.288906 217.048738 
L 427.216646 216.773416 
L 426.007414 216.48343 
L 424.659378 216.177053 
L 423.170904 215.852337 
L 421.540407 215.507174 
L 419.766583 215.139297 
L 417.848125 214.746138 
L 415.784022 214.324991 
L 413.573363 213.872861 
L 411.215426 213.386567 
L 408.709672 212.862643 
L 406.055832 212.297423 
L 403.253759 211.68698 
L 400.303598 211.027173 
L 397.205689 210.31365 
L 393.960626 209.541875 
L 390.569243 208.707158 
L 387.03272 207.804715 
L 383.352431 206.829669 
L 379.530164 205.777173 
L 375.567932 204.642444 
L 371.468189 203.420877 
L 367.23368 202.108115 
L 362.86761 200.700164 
L 358.373603 199.193527 
L 353.755663 197.585286 
L 349.018357 195.873245 
L 344.166638 194.056045 
L 339.206043 192.133282 
L 334.142583 190.105584 
L 328.982815 187.974742 
L 323.733776 185.74371 
L 318.402942 183.41668 
L 312.998425 180.999123 
L 307.5286 178.497642 
L 302.002243 175.92003 
L 296.4285 173.275134 
L 290.816658 170.572708 
L 285.176285 167.823335 
L 279.516869 165.038097 
L 273.847926 162.228566 
L 268.178839 159.406483 
L 262.518819 156.583623 
L 256.876696 153.771557 
L 251.260907 150.981462 
L 245.67952 148.224035 
L 240.139982 145.509272 
L 234.64927 142.846384 
L 229.213738 140.243718 
L 223.839137 137.708719 
L 218.530652 135.247857 
L 213.292802 132.866635 
L 208.129509 130.569607 
L 203.044234 128.360421 
L 198.03977 126.241884 
L 193.11849 124.215947 
L 188.282329 122.283877 
L 183.532705 120.446247 
L 178.870805 118.703073 
L 174.29737 117.053845 
L 169.812858 115.4976 
L 165.417538 114.033084 
L 161.111482 112.658705 
L 156.894501 111.372612 
L 152.766306 110.172842 
L 148.726571 109.057263 
L 144.774769 108.02367 
L 140.910471 107.069858 
L 137.133002 106.193561 
L 133.441811 105.392583 
L 129.836449 104.664783 
L 126.31625 104.008028 
L 122.880789 103.420361 
L 119.529636 102.899908 
L 116.262354 102.44487 
L 113.078696 102.053621 
L 109.978367 101.724652 
L 106.961212 101.456582 
L 104.027342 101.24825 
L 101.176634 101.098515 
L 98.40929 101.006505 
L 95.725636 100.971427 
L 93.126022 100.992678 
L 90.610976 101.069838 
L 88.181071 101.202546 
L 85.837062 101.390689 
L 83.579793 101.634251 
L 81.410253 101.933406 
L 79.329488 102.288441 
L 77.338748 102.69984 
L 75.439326 103.168164 
L 73.632628 103.694186 
L 71.920196 104.278771 
L 70.303627 104.922942 
L 68.784755 105.627854 
L 67.365235 106.394794 
L 66.047011 107.225123 
L 64.832177 108.120377 
L 63.722611 109.082132 
L 62.720452 110.112074 
L 61.827847 111.21197 
L 61.046957 112.383609 
L 60.38002 113.628813 
L 59.829186 114.949433 
L 59.396592 116.347291 
L 59.084466 117.824126 
L 58.894922 119.381598 
L 58.830008 121.021241 
L 58.891603 122.744411 
L 59.081676 124.552239 
L 59.401857 126.445513 
L 59.853779 128.424778 
L 60.438769 130.490113 
L 61.15794 132.641113 
L 62.012215 134.876886 
L 63.002214 137.195897 
L 64.128283 139.596002 
L 65.390391 142.074333 
L 66.78812 144.627169 
L 68.32074 147.25008 
L 69.987192 149.937831 
L 71.785801 152.684171 
L 73.714631 155.482152 
L 75.771444 158.324015 
L 77.953382 161.201088 
L 80.257284 164.104093 
L 82.679853 167.023202 
L 85.217084 169.947884 
L 87.865086 172.867495 
L 90.61947 175.770907 
L 93.475904 178.647172 
L 96.429867 181.485388 
L 99.476768 184.274852 
L 102.612062 187.005452 
L 105.831317 189.667661 
L 109.130099 192.252666 
L 112.50427 194.752646 
L 115.949845 197.160667 
L 119.46299 199.470977 
L 123.040216 201.678826 
L 126.678092 203.780645 
L 130.373535 205.773983 
L 134.123722 207.657455 
L 137.925784 209.430675 
L 141.777369 211.094292 
L 145.675755 212.649646 
L 149.618771 214.099005 
L 153.604173 215.445205 
L 157.629529 216.691613 
L 161.692748 217.842085 
L 165.791394 218.900757 
L 169.923268 219.872063 
L 174.085995 220.760595 
L 178.277124 221.570983 
L 182.494072 222.307899 
L 186.734477 222.976005 
L 190.995362 223.5798 
L 195.274265 224.123712 
L 199.568334 224.611992 
L 203.874766 225.048706 
L 208.190694 225.437731 
L 212.513267 225.782722 
L 216.839542 226.087111 
L 221.16695 226.354161 
L 225.492293 226.586855 
L 229.813164 226.788012 
L 234.126449 226.960234 
L 238.429824 227.105919 
L 242.720552 227.227292 
L 246.996165 227.326412 
L 251.254161 227.405133 
L 255.492355 227.465195 
L 259.708501 227.508179 
L 263.900469 227.535529 
L 268.066254 227.548573 
L 272.203842 227.54852 
L 276.311691 227.536448 
L 280.387783 227.513388 
L 284.430744 227.480251 
L 288.439019 227.437877 
L 292.411182 227.387009 
L 296.345873 227.328358 
L 300.241936 227.26255 
L 304.098072 227.190152 
L 307.913465 227.111696 
L 311.686794 227.027645 
L 315.417332 226.938436 
L 319.104147 226.84448 
L 322.746416 226.746122 
L 326.343301 226.643675 
L 329.894252 226.537453 
L 333.398385 226.427721 
L 336.855217 226.314729 
L 340.264077 226.198689 
L 343.624399 226.079824 
L 346.935669 225.958288 
L 350.197247 225.834288 
L 353.40884 225.707925 
L 356.569717 225.579394 
L 359.679474 225.448784 
L 362.73767 225.316206 
L 365.743755 225.181805 
L 368.697155 225.045652 
L 371.597556 224.907811 
L 374.444203 224.768401 
L 377.23668 224.627444 
L 379.974357 224.48507 
L 382.656604 224.341272 
L 385.28278 224.196144 
L 387.852109 224.049731 
L 390.363904 223.902066 
L 392.817433 223.753188 
L 395.211607 223.603144 
L 397.54566 223.451963 
L 399.818567 223.299663 
L 402.029148 223.14628 
L 404.176368 222.991846 
L 406.258899 222.836342 
L 408.275391 222.679823 
L 410.224573 222.522269 
L 412.104757 222.36368 
L 413.914492 222.204085 
L 415.652023 222.043423 
L 417.315573 221.881729 
L 418.903341 221.718949 
L 420.413269 221.555056 
L 421.843444 221.390004 
L 423.191649 221.223719 
L 424.455726 221.056125 
L 425.633412 220.887149 
L 426.722344 220.716666 
L 427.720184 220.544529 
L 428.624444 220.370603 
L 429.432605 220.19468 
L 430.142213 220.016533 
L 430.750637 219.835927 
L 431.255289 219.652543 
L 431.653603 219.466056 
L 431.942982 219.276062 
L 432.120781 219.082116 
L 432.184513 218.88371 
L 432.131525 218.680258 
z
" clip-path="url(#pba19781b69)" style="fill: #c9c9f5; opacity: 0.46; stroke: #c9c9f5; stroke-linejoin: miter"/>
   </g>
   <g id="patch_4">
    <path d="M 433.269992 181.794825 
L 433.211198 181.611311 
L 433.036032 181.429744 
L 432.744606 181.249695 
L 432.337055 181.070695 
L 431.813582 180.892278 
L 431.174411 180.713942 
L 430.419768 180.535193 
L 429.549945 180.355504 
L 428.565257 180.174341 
L 427.466109 179.991171 
L 426.252838 179.805443 
L 424.925986 179.616586 
L 423.486023 179.424055 
L 421.933513 179.227277 
L 420.269108 179.025698 
L 418.493506 178.81875 
L 416.607472 178.605896 
L 414.611793 178.386586 
L 412.507482 178.160299 
L 410.29546 177.926533 
L 407.976922 177.684802 
L 405.552969 177.434651 
L 403.024929 177.175656 
L 400.394174 176.907434 
L 397.662189 176.629637 
L 394.830573 176.341974 
L 391.901034 176.044189 
L 388.875396 175.736087 
L 385.755504 175.417545 
L 382.543494 175.088476 
L 379.24137 174.74889 
L 375.851495 174.398845 
L 372.376072 174.038483 
L 368.817623 173.66801 
L 365.178667 173.287716 
L 361.461792 172.897962 
L 357.669653 172.499195 
L 353.80513 172.091925 
L 349.87099 171.676744 
L 345.870137 171.254312 
L 341.805579 170.825371 
L 337.680309 170.390716 
L 333.497359 169.951205 
L 329.259812 169.507755 
L 324.970784 169.06134 
L 320.633414 168.612979 
L 316.250812 168.16372 
L 311.826128 167.714667 
L 307.362423 167.266919 
L 302.862914 166.821635 
L 298.330622 166.379953 
L 293.768624 165.943031 
L 289.179991 165.512037 
L 284.567704 165.088114 
L 279.934773 164.672407 
L 275.28405 164.266034 
L 270.618482 163.870099 
L 265.940915 163.485665 
L 261.254172 163.113774 
L 256.560956 162.755418 
L 251.864028 162.411565 
L 247.166078 162.083126 
L 242.469755 161.770964 
L 237.777634 161.4759 
L 233.092312 161.198706 
L 228.416353 160.940095 
L 223.752311 160.700728 
L 219.102662 160.481226 
L 214.469852 160.282125 
L 209.856544 160.103961 
L 205.265019 159.947158 
L 200.697871 159.812131 
L 196.157583 159.699224 
L 191.646683 159.608745 
L 187.16765 159.540948 
L 182.723037 159.496032 
L 178.315375 159.474166 
L 173.947297 159.475468 
L 169.621317 159.500009 
L 165.34013 159.547848 
L 161.10642 159.618969 
L 156.922784 159.71336 
L 152.792035 159.830946 
L 148.716829 159.971636 
L 144.699921 160.135307 
L 140.744159 160.321813 
L 136.852185 160.530973 
L 133.02688 160.762609 
L 129.270989 161.016486 
L 125.587303 161.292386 
L 121.978655 161.590041 
L 118.447634 161.909199 
L 114.997029 162.249572 
L 111.629497 162.610866 
L 108.347646 162.992783 
L 105.154041 163.395002 
L 102.051159 163.817206 
L 99.041429 164.259054 
L 96.127191 164.720201 
L 93.310672 165.200316 
L 90.594033 165.699019 
L 87.979321 166.215959 
L 85.468426 166.750761 
L 83.063216 167.303044 
L 80.765378 167.872393 
L 78.576487 168.458434 
L 76.498029 169.06073 
L 74.531308 169.67886 
L 72.677517 170.31236 
L 70.937848 170.960782 
L 69.313157 171.623637 
L 67.804388 172.300412 
L 66.412239 172.990591 
L 65.137339 173.693607 
L 63.980208 174.408863 
L 62.941271 175.135766 
L 62.020822 175.873655 
L 61.21913 176.621846 
L 60.536241 177.379617 
L 59.972289 178.146214 
L 59.527207 178.920829 
L 59.200906 179.702622 
L 58.993226 180.490704 
L 58.903922 181.284157 
L 58.932723 182.082002 
L 59.079268 182.883207 
L 59.343154 183.686735 
L 59.723997 184.491487 
L 60.221212 185.296306 
L 60.83435 186.100014 
L 61.562825 186.90143 
L 62.406075 187.699269 
L 63.363425 188.492287 
L 64.434177 189.27919 
L 65.617679 190.05864 
L 66.913189 190.829349 
L 68.319918 191.589955 
L 69.837057 192.33913 
L 71.463819 193.075571 
L 73.199235 193.797937 
L 75.042473 194.504958 
L 76.992499 195.195362 
L 79.048345 195.867901 
L 81.208975 196.521405 
L 83.473242 197.154726 
L 85.840089 197.766778 
L 88.308255 198.356543 
L 90.876414 198.923043 
L 93.543372 199.465406 
L 96.307644 199.982821 
L 99.167724 200.474552 
L 102.122216 200.939963 
L 105.169364 201.378491 
L 108.30755 201.789665 
L 111.53504 202.173118 
L 114.849876 202.528535 
L 118.250237 202.855754 
L 121.733985 203.154628 
L 125.299072 203.425156 
L 128.943315 203.667396 
L 132.664398 203.8815 
L 136.459934 204.067669 
L 140.327596 204.226224 
L 144.264672 204.357508 
L 148.268653 204.461978 
L 152.336896 204.540105 
L 156.466637 204.592447 
L 160.654993 204.619599 
L 164.899138 204.622204 
L 169.196103 204.600941 
L 173.543093 204.556536 
L 177.936816 204.489727 
L 182.374544 204.401277 
L 186.852863 204.291993 
L 191.368943 204.16266 
L 195.919607 204.014106 
L 200.501712 203.847147 
L 205.112061 203.662615 
L 209.747698 203.461331 
L 214.405453 203.244123 
L 219.082217 203.011789 
L 223.774909 202.765156 
L 228.480382 202.505017 
L 233.195862 202.232142 
L 237.918008 201.947326 
L 242.644093 201.651304 
L 247.371041 201.34483 
L 252.095955 201.028609 
L 256.815912 200.70337 
L 261.528067 200.36979 
L 266.229453 200.028531 
L 270.917564 199.680234 
L 275.58919 199.325565 
L 280.241842 198.965113 
L 284.872675 198.599481 
L 289.478938 198.229252 
L 294.057811 197.854991 
L 298.606849 197.477225 
L 303.122963 197.096534 
L 307.603701 196.713379 
L 312.046306 196.3283 
L 316.448017 195.94177 
L 320.80615 195.554262 
L 325.117926 195.166252 
L 329.380887 194.778164 
L 333.591985 194.390459 
L 337.748722 194.003546 
L 341.848375 193.617832 
L 345.888205 193.233726 
L 349.865433 192.851612 
L 353.777657 192.471849 
L 357.621862 192.094831 
L 361.395663 191.720862 
L 365.096315 191.350308 
L 368.721321 190.983471 
L 372.26807 190.620662 
L 375.73411 190.262168 
L 379.116875 189.908275 
L 382.414229 189.55922 
L 385.623583 189.215266 
L 388.742846 188.876612 
L 391.769812 188.543481 
L 394.70241 188.216049 
L 397.538617 187.894477 
L 400.276497 187.578914 
L 402.914249 187.269493 
L 405.450209 186.966299 
L 407.88278 186.669423 
L 410.210386 186.378919 
L 412.4317 186.094828 
L 414.545327 185.817158 
L 416.550231 185.54589 
L 418.44513 185.281023 
L 420.229215 185.022464 
L 421.90145 184.770155 
L 423.461138 184.523983 
L 424.907513 184.28383 
L 426.239923 184.049544 
L 427.457896 183.820959 
L 428.560914 183.597869 
L 429.548617 183.38007 
L 430.420645 183.167314 
L 431.176706 182.959348 
L 431.816642 182.755888 
L 432.34025 182.556635 
L 432.747441 182.361249 
L 433.038147 182.169407 
L 433.212323 181.980727 
z
" clip-path="url(#pba19781b69)" style="fill: #f69e5e; opacity: 0.36; stroke: #f69e5e; stroke-linejoin: miter"/>
   </g>
   <g id="matplotlib.axis_1">
    <g id="xtick_1">
     <g id="line2d_1">
      <defs>
       <path id="ma7f509f8b9" d="M 0 0 
L 0 3.5 
" style="stroke: #000000; stroke-width: 0.8"/>
      </defs>
      <g>
       <use xlink:href="#ma7f509f8b9" x="58.830008" y="317.72" style="stroke: #000000; stroke-width: 0.8"/>
      </g>
     </g>
     <g id="text_1">
      <!-- −1.00 -->
      <g transform="translate(43.507352 332.318437) scale(0.1 -0.1)">
       <defs>
        <path id="DejaVuSans-2212" d="M 678 2272 
L 4684 2272 
L 4684 1741 
L 678 1741 
L 678 2272 
z
" transform="scale(0.015625)"/>
        <path id="DejaVuSans-31" d="M 794 531 
L 1825 531 
L 1825 4091 
L 703 3866 
L 703 4441 
L 1819 4666 
L 2450 4666 
L 2450 531 
L 3481 531 
L 3481 0 
L 794 0 
L 794 531 
z
" transform="scale(0.015625)"/>
        <path id="DejaVuSans-2e" d="M 684 794 
L 1344 794 
L 1344 0 
L 684 0 
L 684 794 
z
" transform="scale(0.015625)"/>
        <path id="DejaVuSans-30" d="M 2034 4250 
Q 1547 4250 1301 3770 
Q 1056 3291 1056 2328 
Q 1056 1369 1301 889 
Q 1547 409 2034 409 
Q 2525 409 2770 889 
Q 3016 1369 3016 2328 
Q 3016 3291 2770 3770 
Q 2525 4250 2034 4250 
z
M 2034 4750 
Q 2819 4750 3233 4129 
Q 3647 3509 3647 2328 
Q 3647 1150 3233 529 
Q 2819 -91 2034 -91 
Q 1250 -91 836 529 
Q 422 1150 422 2328 
Q 422 3509 836 4129 
Q 1250 4750 2034 4750 
z
" transform="scale(0.015625)"/>
       </defs>
       <use xlink:href="#DejaVuSans-2212"/>
       <use xlink:href="#DejaVuSans-31" transform="translate(83.789062 0)"/>
       <use xlink:href="#DejaVuSans-2e" transform="translate(147.412109 0)"/>
       <use xlink:href="#DejaVuSans-30" transform="translate(179.199219 0)"/>
       <use xlink:href="#DejaVuSans-30" transform="translate(242.822266 0)"/>
      </g>
     </g>
    </g>
    <g id="xtick_2">
     <g id="line2d_2">
      <g>
       <use xlink:href="#ma7f509f8b9" x="106.016912" y="317.72" style="stroke: #000000; stroke-width: 0.8"/>
      </g>
     </g>
     <g id="text_2">
      <!-- −0.75 -->
      <g transform="translate(90.694256 332.318437) scale(0.1 -0.1)">
       <defs>
        <path id="DejaVuSans-37" d="M 525 4666 
L 3525 4666 
L 3525 4397 
L 1831 0 
L 1172 0 
L 2766 4134 
L 525 4134 
L 525 4666 
z
" transform="scale(0.015625)"/>
        <path id="DejaVuSans-35" d="M 691 4666 
L 3169 4666 
L 3169 4134 
L 1269 4134 
L 1269 2991 
Q 1406 3038 1543 3061 
Q 1681 3084 1819 3084 
Q 2600 3084 3056 2656 
Q 3513 2228 3513 1497 
Q 3513 744 3044 326 
Q 2575 -91 1722 -91 
Q 1428 -91 1123 -41 
Q 819 9 494 109 
L 494 744 
Q 775 591 1075 516 
Q 1375 441 1709 441 
Q 2250 441 2565 725 
Q 2881 1009 2881 1497 
Q 2881 1984 2565 2268 
Q 2250 2553 1709 2553 
Q 1456 2553 1204 2497 
Q 953 2441 691 2322 
L 691 4666 
z
" transform="scale(0.015625)"/>
       </defs>
       <use xlink:href="#DejaVuSans-2212"/>
       <use xlink:href="#DejaVuSans-30" transform="translate(83.789062 0)"/>
       <use xlink:href="#DejaVuSans-2e" transform="translate(147.412109 0)"/>
       <use xlink:href="#DejaVuSans-37" transform="translate(179.199219 0)"/>
       <use xlink:href="#DejaVuSans-35" transform="translate(242.822266 0)"/>
      </g>
     </g>
    </g>
    <g id="xtick_3">
     <g id="line2d_3">
      <g>
       <use xlink:href="#ma7f509f8b9" x="153.203816" y="317.72" style="stroke: #000000; stroke-width: 0.8"/>
      </g>
     </g>
     <g id="text_3">
      <!-- −0.50 -->
      <g transform="translate(137.88116 332.318437) scale(0.1 -0.1)">
       <use xlink:href="#DejaVuSans-2212"/>
       <use xlink:href="#DejaVuSans-30" transform="translate(83.789062 0)"/>
       <use xlink:href="#DejaVuSans-2e" transform="translate(147.412109 0)"/>
       <use xlink:href="#DejaVuSans-35" transform="translate(179.199219 0)"/>
       <use xlink:href="#DejaVuSans-30" transform="translate(242.822266 0)"/>
      </g>
     </g>
    </g>
    <g id="xtick_4">
     <g id="line2d_4">
      <g>
       <use xlink:href="#ma7f509f8b9" x="200.39072" y="317.72" style="stroke: #000000; stroke-width: 0.8"/>
      </g>
     </g>
     <g id="text_4">
      <!-- −0.25 -->
      <g transform="translate(185.068064 332.318437) scale(0.1 -0.1)">
       <defs>
        <path id="DejaVuSans-32" d="M 1228 531 
L 3431 531 
L 3431 0 
L 469 0 
L 469 531 
Q 828 903 1448 1529 
Q 2069 2156 2228 2338 
Q 2531 2678 2651 2914 
Q 2772 3150 2772 3378 
Q 2772 3750 2511 3984 
Q 2250 4219 1831 4219 
Q 1534 4219 1204 4116 
Q 875 4013 500 3803 
L 500 4441 
Q 881 4594 1212 4672 
Q 1544 4750 1819 4750 
Q 2544 4750 2975 4387 
Q 3406 4025 3406 3419 
Q 3406 3131 3298 2873 
Q 3191 2616 2906 2266 
Q 2828 2175 2409 1742 
Q 1991 1309 1228 531 
z
" transform="scale(0.015625)"/>
       </defs>
       <use xlink:href="#DejaVuSans-2212"/>
       <use xlink:href="#DejaVuSans-30" transform="translate(83.789062 0)"/>
       <use xlink:href="#DejaVuSans-2e" transform="translate(147.412109 0)"/>
       <use xlink:href="#DejaVuSans-32" transform="translate(179.199219 0)"/>
       <use xlink:href="#DejaVuSans-35" transform="translate(242.822266 0)"/>
      </g>
     </g>
    </g>
    <g id="xtick_5">
     <g id="line2d_5">
      <g>
       <use xlink:href="#ma7f509f8b9" x="247.577624" y="317.72" style="stroke: #000000; stroke-width: 0.8"/>
      </g>
     </g>
     <g id="text_5">
      <!-- 0.00 -->
      <g transform="translate(236.444812 332.318437) scale(0.1 -0.1)">
       <use xlink:href="#DejaVuSans-30"/>
       <use xlink:href="#DejaVuSans-2e" transform="translate(63.623047 0)"/>
       <use xlink:href="#DejaVuSans-30" transform="translate(95.410156 0)"/>
       <use xlink:href="#DejaVuSans-30" transform="translate(159.033203 0)"/>
      </g>
     </g>
    </g>
    <g id="xtick_6">
     <g id="line2d_6">
      <g>
       <use xlink:href="#ma7f509f8b9" x="294.764528" y="317.72" style="stroke: #000000; stroke-width: 0.8"/>
      </g>
     </g>
     <g id="text_6">
      <!-- 0.25 -->
      <g transform="translate(283.631716 332.318437) scale(0.1 -0.1)">
       <use xlink:href="#DejaVuSans-30"/>
       <use xlink:href="#DejaVuSans-2e" transform="translate(63.623047 0)"/>
       <use xlink:href="#DejaVuSans-32" transform="translate(95.410156 0)"/>
       <use xlink:href="#DejaVuSans-35" transform="translate(159.033203 0)"/>
      </g>
     </g>
    </g>
    <g id="xtick_7">
     <g id="line2d_7">
      <g>
       <use xlink:href="#ma7f509f8b9" x="341.951433" y="317.72" style="stroke: #000000; stroke-width: 0.8"/>
      </g>
     </g>
     <g id="text_7">
      <!-- 0.50 -->
      <g transform="translate(330.81862 332.318437) scale(0.1 -0.1)">
       <use xlink:href="#DejaVuSans-30"/>
       <use xlink:href="#DejaVuSans-2e" transform="translate(63.623047 0)"/>
       <use xlink:href="#DejaVuSans-35" transform="translate(95.410156 0)"/>
       <use xlink:href="#DejaVuSans-30" transform="translate(159.033203 0)"/>
      </g>
     </g>
    </g>
    <g id="xtick_8">
     <g id="line2d_8">
      <g>
       <use xlink:href="#ma7f509f8b9" x="389.138337" y="317.72" style="stroke: #000000; stroke-width: 0.8"/>
      </g>
     </g>
     <g id="text_8">
      <!-- 0.75 -->
      <g transform="translate(378.005524 332.318437) scale(0.1 -0.1)">
       <use xlink:href="#DejaVuSans-30"/>
       <use xlink:href="#DejaVuSans-2e" transform="translate(63.623047 0)"/>
       <use xlink:href="#DejaVuSans-37" transform="translate(95.410156 0)"/>
       <use xlink:href="#DejaVuSans-35" transform="translate(159.033203 0)"/>
      </g>
     </g>
    </g>
    <g id="xtick_9">
     <g id="line2d_9">
      <g>
       <use xlink:href="#ma7f509f8b9" x="436.325241" y="317.72" style="stroke: #000000; stroke-width: 0.8"/>
      </g>
     </g>
     <g id="text_9">
      <!-- 1.00 -->
      <g transform="translate(425.192428 332.318437) scale(0.1 -0.1)">
       <use xlink:href="#DejaVuSans-31"/>
       <use xlink:href="#DejaVuSans-2e" transform="translate(63.623047 0)"/>
       <use xlink:href="#DejaVuSans-30" transform="translate(95.410156 0)"/>
       <use xlink:href="#DejaVuSans-30" transform="translate(159.033203 0)"/>
      </g>
     </g>
    </g>
   </g>
   <g id="matplotlib.axis_2">
    <g id="ytick_1">
     <g id="line2d_10">
      <defs>
       <path id="m00eec91cc9" d="M 0 0 
L -3.5 0 
" style="stroke: #000000; stroke-width: 0.8"/>
      </defs>
      <g>
       <use xlink:href="#m00eec91cc9" x="42.1" y="295.289092" style="stroke: #000000; stroke-width: 0.8"/>
      </g>
     </g>
     <g id="text_10">
      <!-- −0.6 -->
      <g transform="translate(10.817188 299.088311) scale(0.1 -0.1)">
       <defs>
        <path id="DejaVuSans-36" d="M 2113 2584 
Q 1688 2584 1439 2293 
Q 1191 2003 1191 1497 
Q 1191 994 1439 701 
Q 1688 409 2113 409 
Q 2538 409 2786 701 
Q 3034 994 3034 1497 
Q 3034 2003 2786 2293 
Q 2538 2584 2113 2584 
z
M 3366 4563 
L 3366 3988 
Q 3128 4100 2886 4159 
Q 2644 4219 2406 4219 
Q 1781 4219 1451 3797 
Q 1122 3375 1075 2522 
Q 1259 2794 1537 2939 
Q 1816 3084 2150 3084 
Q 2853 3084 3261 2657 
Q 3669 2231 3669 1497 
Q 3669 778 3244 343 
Q 2819 -91 2113 -91 
Q 1303 -91 875 529 
Q 447 1150 447 2328 
Q 447 3434 972 4092 
Q 1497 4750 2381 4750 
Q 2619 4750 2861 4703 
Q 3103 4656 3366 4563 
z
" transform="scale(0.015625)"/>
       </defs>
       <use xlink:href="#DejaVuSans-2212"/>
       <use xlink:href="#DejaVuSans-30" transform="translate(83.789062 0)"/>
       <use xlink:href="#DejaVuSans-2e" transform="translate(147.412109 0)"/>
       <use xlink:href="#DejaVuSans-36" transform="translate(179.199219 0)"/>
      </g>
     </g>
    </g>
    <g id="ytick_2">
     <g id="line2d_11">
      <g>
       <use xlink:href="#m00eec91cc9" x="42.1" y="257.539569" style="stroke: #000000; stroke-width: 0.8"/>
      </g>
     </g>
     <g id="text_11">
      <!-- −0.4 -->
      <g transform="translate(10.817188 261.338787) scale(0.1 -0.1)">
       <defs>
        <path id="DejaVuSans-34" d="M 2419 4116 
L 825 1625 
L 2419 1625 
L 2419 4116 
z
M 2253 4666 
L 3047 4666 
L 3047 1625 
L 3713 1625 
L 3713 1100 
L 3047 1100 
L 3047 0 
L 2419 0 
L 2419 1100 
L 313 1100 
L 313 1709 
L 2253 4666 
z
" transform="scale(0.015625)"/>
       </defs>
       <use xlink:href="#DejaVuSans-2212"/>
       <use xlink:href="#DejaVuSans-30" transform="translate(83.789062 0)"/>
       <use xlink:href="#DejaVuSans-2e" transform="translate(147.412109 0)"/>
       <use xlink:href="#DejaVuSans-34" transform="translate(179.199219 0)"/>
      </g>
     </g>
    </g>
    <g id="ytick_3">
     <g id="line2d_12">
      <g>
       <use xlink:href="#m00eec91cc9" x="42.1" y="219.790045" style="stroke: #000000; stroke-width: 0.8"/>
      </g>
     </g>
     <g id="text_12">
      <!-- −0.2 -->
      <g transform="translate(10.817188 223.589264) scale(0.1 -0.1)">
       <use xlink:href="#DejaVuSans-2212"/>
       <use xlink:href="#DejaVuSans-30" transform="translate(83.789062 0)"/>
       <use xlink:href="#DejaVuSans-2e" transform="translate(147.412109 0)"/>
       <use xlink:href="#DejaVuSans-32" transform="translate(179.199219 0)"/>
      </g>
     </g>
    </g>
    <g id="ytick_4">
     <g id="line2d_13">
      <g>
       <use xlink:href="#m00eec91cc9" x="42.1" y="182.040522" style="stroke: #000000; stroke-width: 0.8"/>
      </g>
     </g>
     <g id="text_13">
      <!-- 0.0 -->
      <g transform="translate(19.196875 185.839741) scale(0.1 -0.1)">
       <use xlink:href="#DejaVuSans-30"/>
       <use xlink:href="#DejaVuSans-2e" transform="translate(63.623047 0)"/>
       <use xlink:href="#DejaVuSans-30" transform="translate(95.410156 0)"/>
      </g>
     </g>
    </g>
    <g id="ytick_5">
     <g id="line2d_14">
      <g>
       <use xlink:href="#m00eec91cc9" x="42.1" y="144.290999" style="stroke: #000000; stroke-width: 0.8"/>
      </g>
     </g>
     <g id="text_14">
      <!-- 0.2 -->
      <g transform="translate(19.196875 148.090217) scale(0.1 -0.1)">
       <use xlink:href="#DejaVuSans-30"/>
       <use xlink:href="#DejaVuSans-2e" transform="translate(63.623047 0)"/>
       <use xlink:href="#DejaVuSans-32" transform="translate(95.410156 0)"/>
      </g>
     </g>
    </g>
    <g id="ytick_6">
     <g id="line2d_15">
      <g>
       <use xlink:href="#m00eec91cc9" x="42.1" y="106.541475" style="stroke: #000000; stroke-width: 0.8"/>
      </g>
     </g>
     <g id="text_15">
      <!-- 0.4 -->
      <g transform="translate(19.196875 110.340694) scale(0.1 -0.1)">
       <use xlink:href="#DejaVuSans-30"/>
       <use xlink:href="#DejaVuSans-2e" transform="translate(63.623047 0)"/>
       <use xlink:href="#DejaVuSans-34" transform="translate(95.410156 0)"/>
      </g>
     </g>
    </g>
    <g id="ytick_7">
     <g id="line2d_16">
      <g>
       <use xlink:href="#m00eec91cc9" x="42.1" y="68.791952" style="stroke: #000000; stroke-width: 0.8"/>
      </g>
     </g>
     <g id="text_16">
      <!-- 0.6 -->
      <g transform="translate(19.196875 72.591171) scale(0.1 -0.1)">
       <use xlink:href="#DejaVuSans-30"/>
       <use xlink:href="#DejaVuSans-2e" transform="translate(63.623047 0)"/>
       <use xlink:href="#DejaVuSans-36" transform="translate(95.410156 0)"/>
      </g>
     </g>
    </g>
    <g id="ytick_8">
     <g id="line2d_17">
      <g>
       <use xlink:href="#m00eec91cc9" x="42.1" y="31.042429" style="stroke: #000000; stroke-width: 0.8"/>
      </g>
     </g>
     <g id="text_17">
      <!-- 0.8 -->
      <g transform="translate(19.196875 34.841647) scale(0.1 -0.1)">
       <defs>
        <path id="DejaVuSans-38" d="M 2034 2216 
Q 1584 2216 1326 1975 
Q 1069 1734 1069 1313 
Q 1069 891 1326 650 
Q 1584 409 2034 409 
Q 2484 409 2743 651 
Q 3003 894 3003 1313 
Q 3003 1734 2745 1975 
Q 2488 2216 2034 2216 
z
M 1403 2484 
Q 997 2584 770 2862 
Q 544 3141 544 3541 
Q 544 4100 942 4425 
Q 1341 4750 2034 4750 
Q 2731 4750 3128 4425 
Q 3525 4100 3525 3541 
Q 3525 3141 3298 2862 
Q 3072 2584 2669 2484 
Q 3125 2378 3379 2068 
Q 3634 1759 3634 1313 
Q 3634 634 3220 271 
Q 2806 -91 2034 -91 
Q 1263 -91 848 271 
Q 434 634 434 1313 
Q 434 1759 690 2068 
Q 947 2378 1403 2484 
z
M 1172 3481 
Q 1172 3119 1398 2916 
Q 1625 2713 2034 2713 
Q 2441 2713 2670 2916 
Q 2900 3119 2900 3481 
Q 2900 3844 2670 4047 
Q 2441 4250 2034 4250 
Q 1625 4250 1398 4047 
Q 1172 3844 1172 3481 
z
" transform="scale(0.015625)"/>
       </defs>
       <use xlink:href="#DejaVuSans-30"/>
       <use xlink:href="#DejaVuSans-2e" transform="translate(63.623047 0)"/>
       <use xlink:href="#DejaVuSans-38" transform="translate(95.410156 0)"/>
      </g>
     </g>
    </g>
   </g>
   <g id="line2d_18">
    <path d="M 432.131547 218.680258 
L 431.66554 218.25557 
L 430.703251 217.801767 
L 428.288906 217.048738 
L 424.659378 216.177053 
L 415.784022 214.324991 
L 403.253759 211.68698 
L 393.960626 209.541875 
L 383.352431 206.829669 
L 375.567932 204.642444 
L 367.23368 202.108115 
L 358.373603 199.193527 
L 349.018357 195.873245 
L 339.206043 192.133282 
L 328.982815 187.974742 
L 318.402942 183.41668 
L 307.5286 178.497642 
L 296.4285 173.275134 
L 279.516869 165.038097 
L 234.64927 142.846384 
L 218.530652 135.247857 
L 208.129509 130.569607 
L 198.03977 126.241884 
L 188.282329 122.283877 
L 178.870805 118.703073 
L 169.812858 115.4976 
L 161.111482 112.658705 
L 152.766306 110.172842 
L 144.774769 108.02367 
L 137.133002 106.193561 
L 129.836449 104.664783 
L 122.880789 103.420361 
L 116.262354 102.44487 
L 109.978367 101.724652 
L 104.027342 101.24825 
L 98.40929 101.006505 
L 93.126022 100.992678 
L 88.181071 101.202546 
L 83.579793 101.634251 
L 79.329488 102.288441 
L 75.439326 103.168164 
L 71.920196 104.278771 
L 68.784755 105.627854 
L 66.047011 107.225123 
L 64.832177 108.120377 
L 63.722611 109.082132 
L 62.720452 110.112074 
L 61.827847 111.21197 
L 61.046957 112.383609 
L 60.38002 113.628813 
L 59.829186 114.949433 
L 59.396592 116.347291 
L 59.084466 117.824126 
L 58.894922 119.381598 
L 58.830008 121.021241 
L 58.891603 122.744411 
L 59.081676 124.552239 
L 59.401857 126.445513 
L 60.438769 130.490113 
L 62.012215 134.876886 
L 64.128283 139.596002 
L 66.78812 144.627169 
L 69.987192 149.937831 
L 73.714631 155.482152 
L 77.953382 161.201088 
L 82.679853 167.023202 
L 87.865086 172.867495 
L 93.475904 178.647172 
L 99.476768 184.274852 
L 105.831317 189.667661 
L 109.130099 192.252666 
L 112.50427 194.752646 
L 115.949845 197.160667 
L 119.46299 199.470977 
L 123.040216 201.678826 
L 126.678092 203.780645 
L 130.373535 205.773983 
L 134.123722 207.657455 
L 137.925784 209.430675 
L 141.777369 211.094292 
L 145.675755 212.649646 
L 149.618771 214.099005 
L 157.629529 216.691613 
L 165.791394 218.900757 
L 174.085995 220.760595 
L 182.494072 222.307899 
L 190.995362 223.5798 
L 199.568334 224.611992 
L 208.190694 225.437731 
L 216.839542 226.087111 
L 229.813164 226.788012 
L 242.720552 227.227292 
L 255.492355 227.465195 
L 272.203842 227.54852 
L 292.411182 227.387009 
L 315.417332 226.938436 
L 340.264077 226.198689 
L 362.73767 225.316206 
L 382.656604 224.341272 
L 399.818567 223.299663 
L 412.104757 222.36368 
L 420.413269 221.555056 
L 426.722344 220.716666 
L 430.142213 220.016533 
L 431.653603 219.466056 
L 432.120781 219.082116 
L 432.184513 218.88371 
L 432.131525 218.680258 
L 432.131525 218.680258 
" clip-path="url(#pba19781b69)" style="fill: none; stroke: #000000; stroke-width: 2; stroke-linecap: square"/>
   </g>
   <g id="line2d_19">
    <path d="M 433.269992 181.794825 
L 433.211198 181.611311 
L 432.744606 181.249695 
L 431.813582 180.892278 
L 429.549945 180.355504 
L 424.925986 179.616586 
L 416.607472 178.605896 
L 397.662189 176.629637 
L 349.87099 171.676744 
L 302.862914 166.821635 
L 279.934773 164.672407 
L 261.254172 163.113774 
L 242.469755 161.770964 
L 223.752311 160.700728 
L 209.856544 160.103961 
L 196.157583 159.699224 
L 182.723037 159.496032 
L 169.621317 159.500009 
L 156.922784 159.71336 
L 144.699921 160.135307 
L 133.02688 160.762609 
L 121.978655 161.590041 
L 111.629497 162.610866 
L 102.051159 163.817206 
L 93.310672 165.200316 
L 85.468426 166.750761 
L 80.765378 167.872393 
L 76.498029 169.06073 
L 72.677517 170.31236 
L 69.313157 171.623637 
L 66.412239 172.990591 
L 63.980208 174.408863 
L 62.020822 175.873655 
L 60.536241 177.379617 
L 59.527207 178.920829 
L 59.200906 179.702622 
L 58.993226 180.490704 
L 58.903922 181.284157 
L 58.932723 182.082002 
L 59.079268 182.883207 
L 59.723997 184.491487 
L 60.83435 186.100014 
L 62.406075 187.699269 
L 64.434177 189.27919 
L 66.913189 190.829349 
L 69.837057 192.33913 
L 73.199235 193.797937 
L 76.992499 195.195362 
L 81.208975 196.521405 
L 85.840089 197.766778 
L 90.876414 198.923043 
L 96.307644 199.982821 
L 102.122216 200.939963 
L 108.30755 201.789665 
L 114.849876 202.528535 
L 125.299072 203.425156 
L 136.459934 204.067669 
L 148.268653 204.461978 
L 160.654993 204.619599 
L 173.543093 204.556536 
L 186.852863 204.291993 
L 205.112061 203.662615 
L 223.774909 202.765156 
L 242.644093 201.651304 
L 266.229453 200.028531 
L 294.057811 197.854991 
L 325.117926 195.166252 
L 353.777657 192.471849 
L 382.414229 189.55922 
L 402.914249 187.269493 
L 416.550231 185.54589 
L 424.907513 184.28383 
L 429.548617 183.38007 
L 431.816642 182.755888 
L 432.747441 182.361249 
L 433.212323 181.980727 
L 433.269992 181.794825 
L 433.269992 181.794825 
" clip-path="url(#pba19781b69)" style="fill: none; stroke-dasharray: 7.4,3.2; stroke-dashoffset: 0; stroke: #000000; stroke-width: 2"/>
   </g>
   <g id="patch_5">
    <path d="M 42.1 317.72 
L 42.1 10.8 
" style="fill: none; stroke: #000000; stroke-width: 0.8; stroke-linejoin: miter; stroke-linecap: square"/>
   </g>
   <g id="patch_6">
    <path d="M 450 317.72 
L 450 10.8 
" style="fill: none; stroke: #000000; stroke-width: 0.8; stroke-linejoin: miter; stroke-linecap: square"/>
   </g>
   <g id="patch_7">
    <path d="M 42.1 317.72 
L 450 317.72 
" style="fill: none; stroke: #000000; stroke-width: 0.8; stroke-linejoin: miter; stroke-linecap: square"/>
   </g>
   <g id="patch_8">
    <path d="M 42.1 10.8 
L 450 10.8 
" style="fill: none; stroke: #000000; stroke-width: 0.8; stroke-linejoin: miter; stroke-linecap: square"/>
   </g>
   <g id="legend_1">
    <g id="patch_9">
     <path d="M 325.31875 48.15625 
L 443 48.15625 
Q 445 48.15625 445 46.15625 
L 445 17.8 
Q 445 15.8 443 15.8 
L 325.31875 15.8 
Q 323.31875 15.8 323.31875 17.8 
L 323.31875 46.15625 
Q 323.31875 48.15625 325.31875 48.15625 
z
" style="fill: #ffffff; opacity: 0.8; stroke: #cccccc; stroke-linejoin: miter"/>
    </g>
    <g id="patch_10">
     <path d="M 327.31875 27.398438 
L 347.31875 27.398438 
L 347.31875 20.398438 
L 327.31875 20.398438 
z
" style="fill: #c9c9f5; opacity: 0.46; stroke: #c9c9f5; stroke-linejoin: miter"/>
    </g>
    <g id="text_18">
     <!-- Optimized Shape -->
     <g transform="translate(355.31875 27.398438) scale(0.1 -0.1)">
      <defs>
       <path id="DejaVuSans-4f" d="M 2522 4238 
Q 1834 4238 1429 3725 
Q 1025 3213 1025 2328 
Q 1025 1447 1429 934 
Q 1834 422 2522 422 
Q 3209 422 3611 934 
Q 4013 1447 4013 2328 
Q 4013 3213 3611 3725 
Q 3209 4238 2522 4238 
z
M 2522 4750 
Q 3503 4750 4090 4092 
Q 4678 3434 4678 2328 
Q 4678 1225 4090 567 
Q 3503 -91 2522 -91 
Q 1538 -91 948 565 
Q 359 1222 359 2328 
Q 359 3434 948 4092 
Q 1538 4750 2522 4750 
z
" transform="scale(0.015625)"/>
       <path id="DejaVuSans-70" d="M 1159 525 
L 1159 -1331 
L 581 -1331 
L 581 3500 
L 1159 3500 
L 1159 2969 
Q 1341 3281 1617 3432 
Q 1894 3584 2278 3584 
Q 2916 3584 3314 3078 
Q 3713 2572 3713 1747 
Q 3713 922 3314 415 
Q 2916 -91 2278 -91 
Q 1894 -91 1617 61 
Q 1341 213 1159 525 
z
M 3116 1747 
Q 3116 2381 2855 2742 
Q 2594 3103 2138 3103 
Q 1681 3103 1420 2742 
Q 1159 2381 1159 1747 
Q 1159 1113 1420 752 
Q 1681 391 2138 391 
Q 2594 391 2855 752 
Q 3116 1113 3116 1747 
z
" transform="scale(0.015625)"/>
       <path id="DejaVuSans-74" d="M 1172 4494 
L 1172 3500 
L 2356 3500 
L 2356 3053 
L 1172 3053 
L 1172 1153 
Q 1172 725 1289 603 
Q 1406 481 1766 481 
L 2356 481 
L 2356 0 
L 1766 0 
Q 1100 0 847 248 
Q 594 497 594 1153 
L 594 3053 
L 172 3053 
L 172 3500 
L 594 3500 
L 594 4494 
L 1172 4494 
z
" transform="scale(0.015625)"/>
       <path id="DejaVuSans-69" d="M 603 3500 
L 1178 3500 
L 1178 0 
L 603 0 
L 603 3500 
z
M 603 4863 
L 1178 4863 
L 1178 4134 
L 603 4134 
L 603 4863 
z
" transform="scale(0.015625)"/>
       <path id="DejaVuSans-6d" d="M 3328 2828 
Q 3544 3216 3844 3400 
Q 4144 3584 4550 3584 
Q 5097 3584 5394 3201 
Q 5691 2819 5691 2113 
L 5691 0 
L 5113 0 
L 5113 2094 
Q 5113 2597 4934 2840 
Q 4756 3084 4391 3084 
Q 3944 3084 3684 2787 
Q 3425 2491 3425 1978 
L 3425 0 
L 2847 0 
L 2847 2094 
Q 2847 2600 2669 2842 
Q 2491 3084 2119 3084 
Q 1678 3084 1418 2786 
Q 1159 2488 1159 1978 
L 1159 0 
L 581 0 
L 581 3500 
L 1159 3500 
L 1159 2956 
Q 1356 3278 1631 3431 
Q 1906 3584 2284 3584 
Q 2666 3584 2933 3390 
Q 3200 3197 3328 2828 
z
" transform="scale(0.015625)"/>
       <path id="DejaVuSans-7a" d="M 353 3500 
L 3084 3500 
L 3084 2975 
L 922 459 
L 3084 459 
L 3084 0 
L 275 0 
L 275 525 
L 2438 3041 
L 353 3041 
L 353 3500 
z
" transform="scale(0.015625)"/>
       <path id="DejaVuSans-65" d="M 3597 1894 
L 3597 1613 
L 953 1613 
Q 991 1019 1311 708 
Q 1631 397 2203 397 
Q 2534 397 2845 478 
Q 3156 559 3463 722 
L 3463 178 
Q 3153 47 2828 -22 
Q 2503 -91 2169 -91 
Q 1331 -91 842 396 
Q 353 884 353 1716 
Q 353 2575 817 3079 
Q 1281 3584 2069 3584 
Q 2775 3584 3186 3129 
Q 3597 2675 3597 1894 
z
M 3022 2063 
Q 3016 2534 2758 2815 
Q 2500 3097 2075 3097 
Q 1594 3097 1305 2825 
Q 1016 2553 972 2059 
L 3022 2063 
z
" transform="scale(0.015625)"/>
       <path id="DejaVuSans-64" d="M 2906 2969 
L 2906 4863 
L 3481 4863 
L 3481 0 
L 2906 0 
L 2906 525 
Q 2725 213 2448 61 
Q 2172 -91 1784 -91 
Q 1150 -91 751 415 
Q 353 922 353 1747 
Q 353 2572 751 3078 
Q 1150 3584 1784 3584 
Q 2172 3584 2448 3432 
Q 2725 3281 2906 2969 
z
M 947 1747 
Q 947 1113 1208 752 
Q 1469 391 1925 391 
Q 2381 391 2643 752 
Q 2906 1113 2906 1747 
Q 2906 2381 2643 2742 
Q 2381 3103 1925 3103 
Q 1469 3103 1208 2742 
Q 947 2381 947 1747 
z
" transform="scale(0.015625)"/>
       <path id="DejaVuSans-20" transform="scale(0.015625)"/>
       <path id="DejaVuSans-53" d="M 3425 4513 
L 3425 3897 
Q 3066 4069 2747 4153 
Q 2428 4238 2131 4238 
Q 1616 4238 1336 4038 
Q 1056 3838 1056 3469 
Q 1056 3159 1242 3001 
Q 1428 2844 1947 2747 
L 2328 2669 
Q 3034 2534 3370 2195 
Q 3706 1856 3706 1288 
Q 3706 609 3251 259 
Q 2797 -91 1919 -91 
Q 1588 -91 1214 -16 
Q 841 59 441 206 
L 441 856 
Q 825 641 1194 531 
Q 1563 422 1919 422 
Q 2459 422 2753 634 
Q 3047 847 3047 1241 
Q 3047 1584 2836 1778 
Q 2625 1972 2144 2069 
L 1759 2144 
Q 1053 2284 737 2584 
Q 422 2884 422 3419 
Q 422 4038 858 4394 
Q 1294 4750 2059 4750 
Q 2388 4750 2728 4690 
Q 3069 4631 3425 4513 
z
" transform="scale(0.015625)"/>
       <path id="DejaVuSans-68" d="M 3513 2113 
L 3513 0 
L 2938 0 
L 2938 2094 
Q 2938 2591 2744 2837 
Q 2550 3084 2163 3084 
Q 1697 3084 1428 2787 
Q 1159 2491 1159 1978 
L 1159 0 
L 581 0 
L 581 4863 
L 1159 4863 
L 1159 2956 
Q 1366 3272 1645 3428 
Q 1925 3584 2291 3584 
Q 2894 3584 3203 3211 
Q 3513 2838 3513 2113 
z
" transform="scale(0.015625)"/>
       <path id="DejaVuSans-61" d="M 2194 1759 
Q 1497 1759 1228 1600 
Q 959 1441 959 1056 
Q 959 750 1161 570 
Q 1363 391 1709 391 
Q 2188 391 2477 730 
Q 2766 1069 2766 1631 
L 2766 1759 
L 2194 1759 
z
M 3341 1997 
L 3341 0 
L 2766 0 
L 2766 531 
Q 2569 213 2275 61 
Q 1981 -91 1556 -91 
Q 1019 -91 701 211 
Q 384 513 384 1019 
Q 384 1609 779 1909 
Q 1175 2209 1959 2209 
L 2766 2209 
L 2766 2266 
Q 2766 2663 2505 2880 
Q 2244 3097 1772 3097 
Q 1472 3097 1187 3025 
Q 903 2953 641 2809 
L 641 3341 
Q 956 3463 1253 3523 
Q 1550 3584 1831 3584 
Q 2591 3584 2966 3190 
Q 3341 2797 3341 1997 
z
" transform="scale(0.015625)"/>
      </defs>
      <use xlink:href="#DejaVuSans-4f"/>
      <use xlink:href="#DejaVuSans-70" transform="translate(78.710938 0)"/>
      <use xlink:href="#DejaVuSans-74" transform="translate(142.1875 0)"/>
      <use xlink:href="#DejaVuSans-69" transform="translate(181.396484 0)"/>
      <use xlink:href="#DejaVuSans-6d" transform="translate(209.179688 0)"/>
      <use xlink:href="#DejaVuSans-69" transform="translate(306.591797 0)"/>
      <use xlink:href="#DejaVuSans-7a" transform="translate(334.375 0)"/>
      <use xlink:href="#DejaVuSans-65" transform="translate(386.865234 0)"/>
      <use xlink:href="#DejaVuSans-64" transform="translate(448.388672 0)"/>
      <use xlink:href="#DejaVuSans-20" transform="translate(511.865234 0)"/>
      <use xlink:href="#DejaVuSans-53" transform="translate(543.652344 0)"/>
      <use xlink:href="#DejaVuSans-68" transform="translate(607.128906 0)"/>
      <use xlink:href="#DejaVuSans-61" transform="translate(670.507812 0)"/>
      <use xlink:href="#DejaVuSans-70" transform="translate(731.787109 0)"/>
      <use xlink:href="#DejaVuSans-65" transform="translate(795.263672 0)"/>
     </g>
    </g>
    <g id="patch_11">
     <path d="M 327.31875 42.076563 
L 347.31875 42.076563 
L 347.31875 35.076563 
L 327.31875 35.076563 
z
" style="fill: #f69e5e; opacity: 0.36; stroke: #f69e5e; stroke-linejoin: miter"/>
    </g>
    <g id="text_19">
     <!-- Initial Shape -->
     <g transform="translate(355.31875 42.076563) scale(0.1 -0.1)">
      <defs>
       <path id="DejaVuSans-49" d="M 628 4666 
L 1259 4666 
L 1259 0 
L 628 0 
L 628 4666 
z
" transform="scale(0.015625)"/>
       <path id="DejaVuSans-6e" d="M 3513 2113 
L 3513 0 
L 2938 0 
L 2938 2094 
Q 2938 2591 2744 2837 
Q 2550 3084 2163 3084 
Q 1697 3084 1428 2787 
Q 1159 2491 1159 1978 
L 1159 0 
L 581 0 
L 581 3500 
L 1159 3500 
L 1159 2956 
Q 1366 3272 1645 3428 
Q 1925 3584 2291 3584 
Q 2894 3584 3203 3211 
Q 3513 2838 3513 2113 
z
" transform="scale(0.015625)"/>
       <path id="DejaVuSans-6c" d="M 603 4863 
L 1178 4863 
L 1178 0 
L 603 0 
L 603 4863 
z
" transform="scale(0.015625)"/>
      </defs>
      <use xlink:href="#DejaVuSans-49"/>
      <use xlink:href="#DejaVuSans-6e" transform="translate(29.492188 0)"/>
      <use xlink:href="#DejaVuSans-69" transform="translate(92.871094 0)"/>
      <use xlink:href="#DejaVuSans-74" transform="translate(120.654297 0)"/>
      <use xlink:href="#DejaVuSans-69" transform="translate(159.863281 0)"/>
      <use xlink:href="#DejaVuSans-61" transform="translate(187.646484 0)"/>
      <use xlink:href="#DejaVuSans-6c" transform="translate(248.925781 0)"/>
      <use xlink:href="#DejaVuSans-20" transform="translate(276.708984 0)"/>
      <use xlink:href="#DejaVuSans-53" transform="translate(308.496094 0)"/>
      <use xlink:href="#DejaVuSans-68" transform="translate(371.972656 0)"/>
      <use xlink:href="#DejaVuSans-61" transform="translate(435.351562 0)"/>
      <use xlink:href="#DejaVuSans-70" transform="translate(496.630859 0)"/>
      <use xlink:href="#DejaVuSans-65" transform="translate(560.107422 0)"/>
     </g>
    </g>
   </g>
  </g>
 </g>
 <defs>
  <clipPath id="pba19781b69">
   <rect x="42.1" y="10.8" width="407.9" height="306.92"/>
  </clipPath>
 </defs>
</svg>
