<?xml version="1.0" encoding="utf-8" standalone="no"?>
<!DOCTYPE svg PUBLIC "-//W3C//DTD SVG 1.1//EN"
  "http://www.w3.org/Graphics/SVG/1.1/DTD/svg11.dtd">
<svg xmlns:xlink="http://www.w3.org/1999/xlink" width="460.8pt" height="345.6pt" viewBox="0 0 460.8 345.6" xmlns="http://www.w3.org/2000/svg" version="1.1">
 <metadata>
  <rdf:RDF xmlns:dc="http://purl.org/dc/elements/1.1/" xmlns:cc="http://creativecommons.org/ns#" xmlns:rdf="http://www.w3.org/1999/02/22-rdf-syntax-ns#">
   <cc:Work>
    <dc:type rdf:resource="http://purl.org/dc/dcmitype/StillImage"/>
    <dc:date>2025-06-02T02:40:42.429221</dc:date>
    <dc:format>image/svg+xml</dc:format>
    <dc:creator>
     <cc:Agent>
      <dc:title>Matplotlib v3.10.0, https://matplotlib.org/</dc:title>
     </cc:Agent>
    </dc:creator>
   </cc:Work>
  </rdf:RDF>
 </metadata>
 <defs>
  <style type="text/css">*{stroke-linejoin: round; stroke-linecap: butt}</style>
 </defs>
 <g id="figure_1">
  <g id="patch_1">
   <path d="M 0 345.6 
L 460.8 345.6 
L 460.8 0 
L 0 0 
z
" style="fill: #ffffff"/>
  </g>
  <g id="axes_1">
   <g id="patch_2">
    <path d="M 42.1 317.72 
L 450 317.72 
L 450 10.8 
L 42.1 10.8 
z
" style="fill: #ffffff"/>
   </g>
   <g id="patch_3">
    <path d="M 424.518502 204.159707 
L 424.47088 204.027412 
L 424.340512 203.88915 
L 424.127433 203.744449 
L 423.831608 203.592802 
L 423.45297 203.433653 
L 422.991384 203.266421 
L 422.446591 203.090484 
L 421.818345 202.905176 
L 421.106317 202.709793 
L 420.310116 202.503557 
L 419.429278 202.285693 
L 418.46339 202.055331 
L 417.411853 201.811594 
L 416.274195 201.553514 
L 415.049787 201.280111 
L 413.738044 200.990324 
L 412.338323 200.683058 
L 410.849973 200.357172 
L 409.272375 200.011464 
L 407.604911 199.644695 
L 405.846926 199.255589 
L 403.997759 198.842818 
L 402.056914 198.405029 
L 400.023816 197.940827 
L 397.897882 197.44884 
L 395.678751 196.927626 
L 393.365961 196.375782 
L 390.959221 195.791881 
L 388.458305 195.174561 
L 385.863022 194.522477 
L 383.17335 193.834296 
L 380.389288 193.108819 
L 377.511107 192.344875 
L 374.53902 191.541432 
L 371.473522 190.697566 
L 368.315154 189.812482 
L 365.064657 188.885577 
L 361.722989 187.916411 
L 358.29115 186.904732 
L 354.770366 185.850529 
L 351.162078 184.754031 
L 347.467884 183.615691 
L 343.689515 182.436222 
L 339.828913 181.216637 
L 335.888254 179.95819 
L 331.869816 178.662458 
L 327.776109 177.331241 
L 323.609764 175.966644 
L 319.373624 174.57102 
L 315.070735 173.146983 
L 310.70417 171.697359 
L 306.277214 170.225179 
L 301.793338 168.733671 
L 297.256084 167.226218 
L 292.669068 165.706284 
L 288.036033 164.177471 
L 283.360863 162.643419 
L 278.647518 161.1078 
L 273.899916 159.574258 
L 269.12213 158.04639 
L 264.318222 156.527743 
L 259.492374 155.021747 
L 254.648677 153.531693 
L 249.791305 152.060727 
L 244.924374 150.611796 
L 240.052094 149.187695 
L 235.178627 147.790992 
L 230.308043 146.424009 
L 225.444492 145.088898 
L 220.592103 143.78755 
L 215.754808 142.521612 
L 210.936732 141.292557 
L 206.141815 140.101579 
L 201.374019 138.949699 
L 196.637226 137.837717 
L 191.93528 136.766245 
L 187.271906 135.73567 
L 182.650945 134.746288 
L 178.075953 133.798163 
L 173.550507 132.891231 
L 169.078274 132.025345 
L 164.662568 131.200177 
L 160.306821 130.415347 
L 156.014237 129.670323 
L 151.788053 128.964576 
L 147.631361 128.297465 
L 143.547065 127.668281 
L 139.538077 127.076308 
L 135.607155 126.520794 
L 131.756931 126.00096 
L 127.989914 125.515996 
L 124.308443 125.065112 
L 120.714792 124.647506 
L 117.211109 124.262411 
L 113.799296 123.90903 
L 110.481208 123.58664 
L 107.2586 123.294497 
L 104.132959 123.031905 
L 101.105768 122.798238 
L 98.178311 122.592836 
L 95.351735 122.415162 
L 92.627085 122.264639 
L 90.005229 122.140785 
L 87.487022 122.043178 
L 85.073104 121.971385 
L 82.764083 121.92509 
L 80.56041 121.903979 
L 78.462534 121.907821 
L 76.470691 121.936397 
L 74.585208 121.989593 
L 72.806152 122.067293 
L 71.133658 122.169479 
L 69.567862 122.296162 
L 68.108706 122.447405 
L 66.756259 122.623336 
L 65.510397 122.824096 
L 64.371131 123.049945 
L 63.338348 123.301129 
L 62.412049 123.577963 
L 61.592098 123.880831 
L 60.878541 124.210139 
L 60.271242 124.566341 
L 59.770257 124.949932 
L 59.375577 125.36148 
L 59.087244 125.801564 
L 58.905351 126.27078 
L 58.830008 126.769798 
L 58.861362 127.299293 
L 58.999616 127.859985 
L 59.245018 128.452603 
L 59.597836 129.077899 
L 60.05841 129.736629 
L 60.627042 130.429545 
L 61.304272 131.157446 
L 62.090416 131.92103 
L 62.986002 132.721088 
L 63.991571 133.558277 
L 65.107594 134.433292 
L 66.334713 135.34673 
L 67.673379 136.299138 
L 69.124299 137.291012 
L 70.688003 138.322715 
L 72.36503 139.394528 
L 74.155978 140.506599 
L 76.061362 141.658952 
L 78.081668 142.851469 
L 80.217311 144.083825 
L 82.468686 145.355515 
L 84.83614 146.665886 
L 87.319798 148.013988 
L 89.919773 149.398675 
L 92.636164 150.818613 
L 95.468737 152.272104 
L 98.417255 153.7573 
L 101.481335 155.272033 
L 104.660325 156.81384 
L 107.953516 158.380107 
L 111.35984 159.967823 
L 114.878227 161.573817 
L 118.507271 163.194726 
L 122.245375 164.826883 
L 126.090661 166.466482 
L 130.041259 168.10964 
L 134.094629 169.752173 
L 138.248429 171.390006 
L 142.499837 173.018909 
L 146.845825 174.634671 
L 151.283086 176.233112 
L 155.808212 177.810147 
L 160.417337 179.36177 
L 165.106795 180.884273 
L 169.872057 182.373921 
L 174.70909 183.827456 
L 179.612949 185.241657 
L 184.579129 186.61378 
L 189.602566 187.941311 
L 194.678138 189.222054 
L 199.800477 190.454153 
L 204.964334 191.636159 
L 210.164086 192.766882 
L 215.394053 193.845508 
L 220.648495 194.871569 
L 225.921484 195.844847 
L 231.207423 196.765535 
L 236.499997 197.63396 
L 241.793575 198.450826 
L 247.082098 199.217017 
L 252.359645 199.933618 
L 257.620339 200.601916 
L 262.85834 201.223339 
L 268.06783 201.79945 
L 273.243423 202.331946 
L 278.37924 202.822571 
L 283.470159 203.273157 
L 288.510861 203.685568 
L 293.496273 204.061692 
L 298.421423 204.403432 
L 303.28194 204.712695 
L 308.072971 204.991338 
L 312.790577 205.241209 
L 317.430686 205.464132 
L 321.989517 205.661827 
L 326.4636 205.836009 
L 330.849605 205.988289 
L 335.144833 206.12026 
L 339.346221 206.233409 
L 343.451561 206.329143 
L 347.458614 206.408831 
L 351.365438 206.473742 
L 355.17029 206.525071 
L 358.871932 206.563947 
L 362.468913 206.591422 
L 365.960502 206.608475 
L 369.345911 206.616021 
L 372.62459 206.614896 
L 375.796211 206.60589 
L 378.86064 206.589704 
L 381.817877 206.567012 
L 384.668258 206.538394 
L 387.411898 206.504396 
L 390.049493 206.465515 
L 392.581527 206.422191 
L 395.008799 206.374805 
L 397.331984 206.323717 
L 399.552038 206.26923 
L 401.669861 206.211609 
L 403.686476 206.151077 
L 405.602954 206.087831 
L 407.420351 206.022023 
L 409.139713 205.95379 
L 410.76221 205.88322 
L 412.28898 205.810366 
L 413.720932 205.735277 
L 415.059395 205.657959 
L 416.305257 205.578395 
L 417.459632 205.496538 
L 418.523488 205.412327 
L 419.497759 205.325664 
L 420.383366 205.236439 
L 421.181143 205.144499 
L 421.891876 205.049685 
L 422.516298 204.951816 
L 423.055094 204.850668 
L 423.50885 204.746004 
L 423.878128 204.637558 
L 424.163355 204.525036 
L 424.364936 204.408132 
L 424.483255 204.286477 
z
" clip-path="url(#p7867b6363f)" style="fill: #c9c9f5; opacity: 0.46; stroke: #c9c9f5; stroke-linejoin: miter"/>
   </g>
   <g id="patch_4">
    <path d="M 433.269992 170.460062 
L 433.211198 170.276548 
L 433.036032 170.094981 
L 432.744606 169.914932 
L 432.337055 169.735932 
L 431.813582 169.557515 
L 431.174411 169.379179 
L 430.419768 169.200429 
L 429.549945 169.020741 
L 428.565257 168.839578 
L 427.466109 168.656407 
L 426.252838 168.47068 
L 424.925986 168.281822 
L 423.486023 168.089292 
L 421.933513 167.892514 
L 420.269108 167.690935 
L 418.493506 167.483987 
L 416.607472 167.271132 
L 414.611793 167.051823 
L 412.507482 166.825536 
L 410.29546 166.59177 
L 407.976922 166.350039 
L 405.552969 166.099887 
L 403.024929 165.840893 
L 400.394174 165.57267 
L 397.662189 165.294874 
L 394.830573 165.007211 
L 391.901034 164.709426 
L 388.875396 164.401324 
L 385.755504 164.082782 
L 382.543494 163.753713 
L 379.24137 163.414127 
L 375.851495 163.064082 
L 372.376072 162.70372 
L 368.817623 162.333247 
L 365.178667 161.952952 
L 361.461792 161.563199 
L 357.669653 161.164432 
L 353.80513 160.757162 
L 349.87099 160.341981 
L 345.870137 159.919548 
L 341.805579 159.490608 
L 337.680309 159.055952 
L 333.497359 158.616442 
L 329.259812 158.172992 
L 324.970784 157.726577 
L 320.633414 157.278215 
L 316.250812 156.828957 
L 311.826128 156.379904 
L 307.362423 155.932156 
L 302.862914 155.486872 
L 298.330622 155.04519 
L 293.768624 154.608268 
L 289.179991 154.177274 
L 284.567704 153.753351 
L 279.934773 153.337644 
L 275.28405 152.931271 
L 270.618482 152.535336 
L 265.940915 152.150901 
L 261.254172 151.779011 
L 256.560956 151.420654 
L 251.864028 151.076802 
L 247.166078 150.748363 
L 242.469755 150.436201 
L 237.777634 150.141137 
L 233.092312 149.863942 
L 228.416353 149.605332 
L 223.752311 149.365965 
L 219.102662 149.146463 
L 214.469852 148.947362 
L 209.856544 148.769198 
L 205.265019 148.612395 
L 200.697871 148.477368 
L 196.157583 148.364461 
L 191.646683 148.273982 
L 187.16765 148.206185 
L 182.723037 148.161269 
L 178.315375 148.139402 
L 173.947297 148.140705 
L 169.621317 148.165246 
L 165.34013 148.213084 
L 161.10642 148.284206 
L 156.922784 148.378596 
L 152.792035 148.496182 
L 148.716829 148.636872 
L 144.699921 148.800544 
L 140.744159 148.98705 
L 136.852185 149.19621 
L 133.02688 149.427845 
L 129.270989 149.681722 
L 125.587303 149.957623 
L 121.978655 150.255278 
L 118.447634 150.574436 
L 114.997029 150.914809 
L 111.629497 151.276103 
L 108.347646 151.65802 
L 105.154041 152.060239 
L 102.051159 152.482443 
L 99.041429 152.92429 
L 96.127191 153.385437 
L 93.310672 153.865552 
L 90.594033 154.364256 
L 87.979321 154.881195 
L 85.468426 155.415998 
L 83.063216 155.96828 
L 80.765378 156.537629 
L 78.576487 157.123671 
L 76.498029 157.725966 
L 74.531308 158.344096 
L 72.677517 158.977597 
L 70.937848 159.626019 
L 69.313157 160.288874 
L 67.804388 160.965649 
L 66.412239 161.655828 
L 65.137339 162.358844 
L 63.980208 163.0741 
L 62.941271 163.801003 
L 62.020822 164.538892 
L 61.21913 165.287083 
L 60.536241 166.044854 
L 59.972289 166.811451 
L 59.527207 167.586066 
L 59.200906 168.367859 
L 58.993226 169.15594 
L 58.903922 169.949394 
L 58.932723 170.747238 
L 59.079268 171.548443 
L 59.343154 172.351972 
L 59.723997 173.156724 
L 60.221212 173.961543 
L 60.83435 174.765251 
L 61.562825 175.566667 
L 62.406075 176.364506 
L 63.363425 177.157524 
L 64.434177 177.944427 
L 65.617679 178.723877 
L 66.913189 179.494585 
L 68.319918 180.255191 
L 69.837057 181.004367 
L 71.463819 181.740807 
L 73.199235 182.463174 
L 75.042473 183.170195 
L 76.992499 183.860599 
L 79.048345 184.533138 
L 81.208975 185.186642 
L 83.473242 185.819962 
L 85.840089 186.432014 
L 88.308255 187.02178 
L 90.876414 187.58828 
L 93.543372 188.130642 
L 96.307644 188.648058 
L 99.167724 189.139788 
L 102.122216 189.605199 
L 105.169364 190.043728 
L 108.30755 190.454901 
L 111.53504 190.838354 
L 114.849876 191.193772 
L 118.250237 191.520991 
L 121.733985 191.819864 
L 125.299072 192.090393 
L 128.943315 192.332633 
L 132.664398 192.546736 
L 136.459934 192.732905 
L 140.327596 192.89146 
L 144.264672 193.022745 
L 148.268653 193.127215 
L 152.336896 193.205342 
L 156.466637 193.257684 
L 160.654993 193.284836 
L 164.899138 193.287441 
L 169.196103 193.266178 
L 173.543093 193.221773 
L 177.936816 193.154963 
L 182.374544 193.066514 
L 186.852863 192.957229 
L 191.368943 192.827897 
L 195.919607 192.679343 
L 200.501712 192.512384 
L 205.112061 192.327852 
L 209.747698 192.126568 
L 214.405453 191.90936 
L 219.082217 191.677026 
L 223.774909 191.430392 
L 228.480382 191.170253 
L 233.195862 190.897379 
L 237.918008 190.612562 
L 242.644093 190.31654 
L 247.371041 190.010067 
L 252.095955 189.693846 
L 256.815912 189.368607 
L 261.528067 189.035026 
L 266.229453 188.693767 
L 270.917564 188.345471 
L 275.58919 187.990802 
L 280.241842 187.63035 
L 284.872675 187.264717 
L 289.478938 186.894489 
L 294.057811 186.520228 
L 298.606849 186.142462 
L 303.122963 185.76177 
L 307.603701 185.378616 
L 312.046306 184.993537 
L 316.448017 184.607007 
L 320.80615 184.219498 
L 325.117926 183.831489 
L 329.380887 183.443401 
L 333.591985 183.055695 
L 337.748722 182.668783 
L 341.848375 182.283069 
L 345.888205 181.898963 
L 349.865433 181.516849 
L 353.777657 181.137086 
L 357.621862 180.760068 
L 361.395663 180.386099 
L 365.096315 180.015544 
L 368.721321 179.648708 
L 372.26807 179.285899 
L 375.73411 178.927405 
L 379.116875 178.573512 
L 382.414229 178.224456 
L 385.623583 177.880503 
L 388.742846 177.541848 
L 391.769812 177.208718 
L 394.70241 176.881285 
L 397.538617 176.559714 
L 400.276497 176.244151 
L 402.914249 175.93473 
L 405.450209 175.631536 
L 407.88278 175.334659 
L 410.210386 175.044156 
L 412.4317 174.760065 
L 414.545327 174.482395 
L 416.550231 174.211126 
L 418.44513 173.946259 
L 420.229215 173.687701 
L 421.90145 173.435392 
L 423.461138 173.18922 
L 424.907513 172.949067 
L 426.239923 172.714781 
L 427.457896 172.486195 
L 428.560914 172.263106 
L 429.548617 172.045307 
L 430.420645 171.832551 
L 431.176706 171.624585 
L 431.816642 171.421125 
L 432.34025 171.221872 
L 432.747441 171.026486 
L 433.038147 170.834644 
L 433.212323 170.645964 
z
" clip-path="url(#p7867b6363f)" style="fill: #f69e5e; opacity: 0.36; stroke: #f69e5e; stroke-linejoin: miter"/>
   </g>
   <g id="matplotlib.axis_1">
    <g id="xtick_1">
     <g id="line2d_1">
      <defs>
       <path id="m9cadc98cb6" d="M 0 0 
L 0 3.5 
" style="stroke: #000000; stroke-width: 0.8"/>
      </defs>
      <g>
       <use xlink:href="#m9cadc98cb6" x="58.830008" y="317.72" style="stroke: #000000; stroke-width: 0.8"/>
      </g>
     </g>
     <g id="text_1">
      <!-- −1.00 -->
      <g transform="translate(43.507352 332.318437) scale(0.1 -0.1)">
       <defs>
        <path id="DejaVuSans-2212" d="M 678 2272 
L 4684 2272 
L 4684 1741 
L 678 1741 
L 678 2272 
z
" transform="scale(0.015625)"/>
        <path id="DejaVuSans-31" d="M 794 531 
L 1825 531 
L 1825 4091 
L 703 3866 
L 703 4441 
L 1819 4666 
L 2450 4666 
L 2450 531 
L 3481 531 
L 3481 0 
L 794 0 
L 794 531 
z
" transform="scale(0.015625)"/>
        <path id="DejaVuSans-2e" d="M 684 794 
L 1344 794 
L 1344 0 
L 684 0 
L 684 794 
z
" transform="scale(0.015625)"/>
        <path id="DejaVuSans-30" d="M 2034 4250 
Q 1547 4250 1301 3770 
Q 1056 3291 1056 2328 
Q 1056 1369 1301 889 
Q 1547 409 2034 409 
Q 2525 409 2770 889 
Q 3016 1369 3016 2328 
Q 3016 3291 2770 3770 
Q 2525 4250 2034 4250 
z
M 2034 4750 
Q 2819 4750 3233 4129 
Q 3647 3509 3647 2328 
Q 3647 1150 3233 529 
Q 2819 -91 2034 -91 
Q 1250 -91 836 529 
Q 422 1150 422 2328 
Q 422 3509 836 4129 
Q 1250 4750 2034 4750 
z
" transform="scale(0.015625)"/>
       </defs>
       <use xlink:href="#DejaVuSans-2212"/>
       <use xlink:href="#DejaVuSans-31" transform="translate(83.789062 0)"/>
       <use xlink:href="#DejaVuSans-2e" transform="translate(147.412109 0)"/>
       <use xlink:href="#DejaVuSans-30" transform="translate(179.199219 0)"/>
       <use xlink:href="#DejaVuSans-30" transform="translate(242.822266 0)"/>
      </g>
     </g>
    </g>
    <g id="xtick_2">
     <g id="line2d_2">
      <g>
       <use xlink:href="#m9cadc98cb6" x="106.016912" y="317.72" style="stroke: #000000; stroke-width: 0.8"/>
      </g>
     </g>
     <g id="text_2">
      <!-- −0.75 -->
      <g transform="translate(90.694256 332.318437) scale(0.1 -0.1)">
       <defs>
        <path id="DejaVuSans-37" d="M 525 4666 
L 3525 4666 
L 3525 4397 
L 1831 0 
L 1172 0 
L 2766 4134 
L 525 4134 
L 525 4666 
z
" transform="scale(0.015625)"/>
        <path id="DejaVuSans-35" d="M 691 4666 
L 3169 4666 
L 3169 4134 
L 1269 4134 
L 1269 2991 
Q 1406 3038 1543 3061 
Q 1681 3084 1819 3084 
Q 2600 3084 3056 2656 
Q 3513 2228 3513 1497 
Q 3513 744 3044 326 
Q 2575 -91 1722 -91 
Q 1428 -91 1123 -41 
Q 819 9 494 109 
L 494 744 
Q 775 591 1075 516 
Q 1375 441 1709 441 
Q 2250 441 2565 725 
Q 2881 1009 2881 1497 
Q 2881 1984 2565 2268 
Q 2250 2553 1709 2553 
Q 1456 2553 1204 2497 
Q 953 2441 691 2322 
L 691 4666 
z
" transform="scale(0.015625)"/>
       </defs>
       <use xlink:href="#DejaVuSans-2212"/>
       <use xlink:href="#DejaVuSans-30" transform="translate(83.789062 0)"/>
       <use xlink:href="#DejaVuSans-2e" transform="translate(147.412109 0)"/>
       <use xlink:href="#DejaVuSans-37" transform="translate(179.199219 0)"/>
       <use xlink:href="#DejaVuSans-35" transform="translate(242.822266 0)"/>
      </g>
     </g>
    </g>
    <g id="xtick_3">
     <g id="line2d_3">
      <g>
       <use xlink:href="#m9cadc98cb6" x="153.203816" y="317.72" style="stroke: #000000; stroke-width: 0.8"/>
      </g>
     </g>
     <g id="text_3">
      <!-- −0.50 -->
      <g transform="translate(137.88116 332.318437) scale(0.1 -0.1)">
       <use xlink:href="#DejaVuSans-2212"/>
       <use xlink:href="#DejaVuSans-30" transform="translate(83.789062 0)"/>
       <use xlink:href="#DejaVuSans-2e" transform="translate(147.412109 0)"/>
       <use xlink:href="#DejaVuSans-35" transform="translate(179.199219 0)"/>
       <use xlink:href="#DejaVuSans-30" transform="translate(242.822266 0)"/>
      </g>
     </g>
    </g>
    <g id="xtick_4">
     <g id="line2d_4">
      <g>
       <use xlink:href="#m9cadc98cb6" x="200.39072" y="317.72" style="stroke: #000000; stroke-width: 0.8"/>
      </g>
     </g>
     <g id="text_4">
      <!-- −0.25 -->
      <g transform="translate(185.068064 332.318437) scale(0.1 -0.1)">
       <defs>
        <path id="DejaVuSans-32" d="M 1228 531 
L 3431 531 
L 3431 0 
L 469 0 
L 469 531 
Q 828 903 1448 1529 
Q 2069 2156 2228 2338 
Q 2531 2678 2651 2914 
Q 2772 3150 2772 3378 
Q 2772 3750 2511 3984 
Q 2250 4219 1831 4219 
Q 1534 4219 1204 4116 
Q 875 4013 500 3803 
L 500 4441 
Q 881 4594 1212 4672 
Q 1544 4750 1819 4750 
Q 2544 4750 2975 4387 
Q 3406 4025 3406 3419 
Q 3406 3131 3298 2873 
Q 3191 2616 2906 2266 
Q 2828 2175 2409 1742 
Q 1991 1309 1228 531 
z
" transform="scale(0.015625)"/>
       </defs>
       <use xlink:href="#DejaVuSans-2212"/>
       <use xlink:href="#DejaVuSans-30" transform="translate(83.789062 0)"/>
       <use xlink:href="#DejaVuSans-2e" transform="translate(147.412109 0)"/>
       <use xlink:href="#DejaVuSans-32" transform="translate(179.199219 0)"/>
       <use xlink:href="#DejaVuSans-35" transform="translate(242.822266 0)"/>
      </g>
     </g>
    </g>
    <g id="xtick_5">
     <g id="line2d_5">
      <g>
       <use xlink:href="#m9cadc98cb6" x="247.577624" y="317.72" style="stroke: #000000; stroke-width: 0.8"/>
      </g>
     </g>
     <g id="text_5">
      <!-- 0.00 -->
      <g transform="translate(236.444812 332.318437) scale(0.1 -0.1)">
       <use xlink:href="#DejaVuSans-30"/>
       <use xlink:href="#DejaVuSans-2e" transform="translate(63.623047 0)"/>
       <use xlink:href="#DejaVuSans-30" transform="translate(95.410156 0)"/>
       <use xlink:href="#DejaVuSans-30" transform="translate(159.033203 0)"/>
      </g>
     </g>
    </g>
    <g id="xtick_6">
     <g id="line2d_6">
      <g>
       <use xlink:href="#m9cadc98cb6" x="294.764528" y="317.72" style="stroke: #000000; stroke-width: 0.8"/>
      </g>
     </g>
     <g id="text_6">
      <!-- 0.25 -->
      <g transform="translate(283.631716 332.318437) scale(0.1 -0.1)">
       <use xlink:href="#DejaVuSans-30"/>
       <use xlink:href="#DejaVuSans-2e" transform="translate(63.623047 0)"/>
       <use xlink:href="#DejaVuSans-32" transform="translate(95.410156 0)"/>
       <use xlink:href="#DejaVuSans-35" transform="translate(159.033203 0)"/>
      </g>
     </g>
    </g>
    <g id="xtick_7">
     <g id="line2d_7">
      <g>
       <use xlink:href="#m9cadc98cb6" x="341.951433" y="317.72" style="stroke: #000000; stroke-width: 0.8"/>
      </g>
     </g>
     <g id="text_7">
      <!-- 0.50 -->
      <g transform="translate(330.81862 332.318437) scale(0.1 -0.1)">
       <use xlink:href="#DejaVuSans-30"/>
       <use xlink:href="#DejaVuSans-2e" transform="translate(63.623047 0)"/>
       <use xlink:href="#DejaVuSans-35" transform="translate(95.410156 0)"/>
       <use xlink:href="#DejaVuSans-30" transform="translate(159.033203 0)"/>
      </g>
     </g>
    </g>
    <g id="xtick_8">
     <g id="line2d_8">
      <g>
       <use xlink:href="#m9cadc98cb6" x="389.138337" y="317.72" style="stroke: #000000; stroke-width: 0.8"/>
      </g>
     </g>
     <g id="text_8">
      <!-- 0.75 -->
      <g transform="translate(378.005524 332.318437) scale(0.1 -0.1)">
       <use xlink:href="#DejaVuSans-30"/>
       <use xlink:href="#DejaVuSans-2e" transform="translate(63.623047 0)"/>
       <use xlink:href="#DejaVuSans-37" transform="translate(95.410156 0)"/>
       <use xlink:href="#DejaVuSans-35" transform="translate(159.033203 0)"/>
      </g>
     </g>
    </g>
    <g id="xtick_9">
     <g id="line2d_9">
      <g>
       <use xlink:href="#m9cadc98cb6" x="436.325241" y="317.72" style="stroke: #000000; stroke-width: 0.8"/>
      </g>
     </g>
     <g id="text_9">
      <!-- 1.00 -->
      <g transform="translate(425.192428 332.318437) scale(0.1 -0.1)">
       <use xlink:href="#DejaVuSans-31"/>
       <use xlink:href="#DejaVuSans-2e" transform="translate(63.623047 0)"/>
       <use xlink:href="#DejaVuSans-30" transform="translate(95.410156 0)"/>
       <use xlink:href="#DejaVuSans-30" transform="translate(159.033203 0)"/>
      </g>
     </g>
    </g>
   </g>
   <g id="matplotlib.axis_2">
    <g id="ytick_1">
     <g id="line2d_10">
      <defs>
       <path id="m80e78d426b" d="M 0 0 
L -3.5 0 
" style="stroke: #000000; stroke-width: 0.8"/>
      </defs>
      <g>
       <use xlink:href="#m80e78d426b" x="42.1" y="283.954329" style="stroke: #000000; stroke-width: 0.8"/>
      </g>
     </g>
     <g id="text_10">
      <!-- −0.6 -->
      <g transform="translate(10.817188 287.753547) scale(0.1 -0.1)">
       <defs>
        <path id="DejaVuSans-36" d="M 2113 2584 
Q 1688 2584 1439 2293 
Q 1191 2003 1191 1497 
Q 1191 994 1439 701 
Q 1688 409 2113 409 
Q 2538 409 2786 701 
Q 3034 994 3034 1497 
Q 3034 2003 2786 2293 
Q 2538 2584 2113 2584 
z
M 3366 4563 
L 3366 3988 
Q 3128 4100 2886 4159 
Q 2644 4219 2406 4219 
Q 1781 4219 1451 3797 
Q 1122 3375 1075 2522 
Q 1259 2794 1537 2939 
Q 1816 3084 2150 3084 
Q 2853 3084 3261 2657 
Q 3669 2231 3669 1497 
Q 3669 778 3244 343 
Q 2819 -91 2113 -91 
Q 1303 -91 875 529 
Q 447 1150 447 2328 
Q 447 3434 972 4092 
Q 1497 4750 2381 4750 
Q 2619 4750 2861 4703 
Q 3103 4656 3366 4563 
z
" transform="scale(0.015625)"/>
       </defs>
       <use xlink:href="#DejaVuSans-2212"/>
       <use xlink:href="#DejaVuSans-30" transform="translate(83.789062 0)"/>
       <use xlink:href="#DejaVuSans-2e" transform="translate(147.412109 0)"/>
       <use xlink:href="#DejaVuSans-36" transform="translate(179.199219 0)"/>
      </g>
     </g>
    </g>
    <g id="ytick_2">
     <g id="line2d_11">
      <g>
       <use xlink:href="#m80e78d426b" x="42.1" y="246.204805" style="stroke: #000000; stroke-width: 0.8"/>
      </g>
     </g>
     <g id="text_11">
      <!-- −0.4 -->
      <g transform="translate(10.817188 250.004024) scale(0.1 -0.1)">
       <defs>
        <path id="DejaVuSans-34" d="M 2419 4116 
L 825 1625 
L 2419 1625 
L 2419 4116 
z
M 2253 4666 
L 3047 4666 
L 3047 1625 
L 3713 1625 
L 3713 1100 
L 3047 1100 
L 3047 0 
L 2419 0 
L 2419 1100 
L 313 1100 
L 313 1709 
L 2253 4666 
z
" transform="scale(0.015625)"/>
       </defs>
       <use xlink:href="#DejaVuSans-2212"/>
       <use xlink:href="#DejaVuSans-30" transform="translate(83.789062 0)"/>
       <use xlink:href="#DejaVuSans-2e" transform="translate(147.412109 0)"/>
       <use xlink:href="#DejaVuSans-34" transform="translate(179.199219 0)"/>
      </g>
     </g>
    </g>
    <g id="ytick_3">
     <g id="line2d_12">
      <g>
       <use xlink:href="#m80e78d426b" x="42.1" y="208.455282" style="stroke: #000000; stroke-width: 0.8"/>
      </g>
     </g>
     <g id="text_12">
      <!-- −0.2 -->
      <g transform="translate(10.817188 212.254501) scale(0.1 -0.1)">
       <use xlink:href="#DejaVuSans-2212"/>
       <use xlink:href="#DejaVuSans-30" transform="translate(83.789062 0)"/>
       <use xlink:href="#DejaVuSans-2e" transform="translate(147.412109 0)"/>
       <use xlink:href="#DejaVuSans-32" transform="translate(179.199219 0)"/>
      </g>
     </g>
    </g>
    <g id="ytick_4">
     <g id="line2d_13">
      <g>
       <use xlink:href="#m80e78d426b" x="42.1" y="170.705759" style="stroke: #000000; stroke-width: 0.8"/>
      </g>
     </g>
     <g id="text_13">
      <!-- 0.0 -->
      <g transform="translate(19.196875 174.504977) scale(0.1 -0.1)">
       <use xlink:href="#DejaVuSans-30"/>
       <use xlink:href="#DejaVuSans-2e" transform="translate(63.623047 0)"/>
       <use xlink:href="#DejaVuSans-30" transform="translate(95.410156 0)"/>
      </g>
     </g>
    </g>
    <g id="ytick_5">
     <g id="line2d_14">
      <g>
       <use xlink:href="#m80e78d426b" x="42.1" y="132.956235" style="stroke: #000000; stroke-width: 0.8"/>
      </g>
     </g>
     <g id="text_14">
      <!-- 0.2 -->
      <g transform="translate(19.196875 136.755454) scale(0.1 -0.1)">
       <use xlink:href="#DejaVuSans-30"/>
       <use xlink:href="#DejaVuSans-2e" transform="translate(63.623047 0)"/>
       <use xlink:href="#DejaVuSans-32" transform="translate(95.410156 0)"/>
      </g>
     </g>
    </g>
    <g id="ytick_6">
     <g id="line2d_15">
      <g>
       <use xlink:href="#m80e78d426b" x="42.1" y="95.206712" style="stroke: #000000; stroke-width: 0.8"/>
      </g>
     </g>
     <g id="text_15">
      <!-- 0.4 -->
      <g transform="translate(19.196875 99.005931) scale(0.1 -0.1)">
       <use xlink:href="#DejaVuSans-30"/>
       <use xlink:href="#DejaVuSans-2e" transform="translate(63.623047 0)"/>
       <use xlink:href="#DejaVuSans-34" transform="translate(95.410156 0)"/>
      </g>
     </g>
    </g>
    <g id="ytick_7">
     <g id="line2d_16">
      <g>
       <use xlink:href="#m80e78d426b" x="42.1" y="57.457189" style="stroke: #000000; stroke-width: 0.8"/>
      </g>
     </g>
     <g id="text_16">
      <!-- 0.6 -->
      <g transform="translate(19.196875 61.256408) scale(0.1 -0.1)">
       <use xlink:href="#DejaVuSans-30"/>
       <use xlink:href="#DejaVuSans-2e" transform="translate(63.623047 0)"/>
       <use xlink:href="#DejaVuSans-36" transform="translate(95.410156 0)"/>
      </g>
     </g>
    </g>
    <g id="ytick_8">
     <g id="line2d_17">
      <g>
       <use xlink:href="#m80e78d426b" x="42.1" y="19.707665" style="stroke: #000000; stroke-width: 0.8"/>
      </g>
     </g>
     <g id="text_17">
      <!-- 0.8 -->
      <g transform="translate(19.196875 23.506884) scale(0.1 -0.1)">
       <defs>
        <path id="DejaVuSans-38" d="M 2034 2216 
Q 1584 2216 1326 1975 
Q 1069 1734 1069 1313 
Q 1069 891 1326 650 
Q 1584 409 2034 409 
Q 2484 409 2743 651 
Q 3003 894 3003 1313 
Q 3003 1734 2745 1975 
Q 2488 2216 2034 2216 
z
M 1403 2484 
Q 997 2584 770 2862 
Q 544 3141 544 3541 
Q 544 4100 942 4425 
Q 1341 4750 2034 4750 
Q 2731 4750 3128 4425 
Q 3525 4100 3525 3541 
Q 3525 3141 3298 2862 
Q 3072 2584 2669 2484 
Q 3125 2378 3379 2068 
Q 3634 1759 3634 1313 
Q 3634 634 3220 271 
Q 2806 -91 2034 -91 
Q 1263 -91 848 271 
Q 434 634 434 1313 
Q 434 1759 690 2068 
Q 947 2378 1403 2484 
z
M 1172 3481 
Q 1172 3119 1398 2916 
Q 1625 2713 2034 2713 
Q 2441 2713 2670 2916 
Q 2900 3119 2900 3481 
Q 2900 3844 2670 4047 
Q 2441 4250 2034 4250 
Q 1625 4250 1398 4047 
Q 1172 3844 1172 3481 
z
" transform="scale(0.015625)"/>
       </defs>
       <use xlink:href="#DejaVuSans-30"/>
       <use xlink:href="#DejaVuSans-2e" transform="translate(63.623047 0)"/>
       <use xlink:href="#DejaVuSans-38" transform="translate(95.410156 0)"/>
      </g>
     </g>
    </g>
   </g>
   <g id="line2d_18">
    <path d="M 424.518502 204.159707 
L 424.340512 203.88915 
L 423.831608 203.592802 
L 422.446591 203.090484 
L 419.429278 202.285693 
L 412.338323 200.683058 
L 395.678751 196.927626 
L 383.17335 193.834296 
L 371.473522 190.697566 
L 358.29115 186.904732 
L 343.689515 182.436222 
L 327.776109 177.331241 
L 297.256084 167.226218 
L 273.899916 159.574258 
L 254.648677 153.531693 
L 240.052094 149.187695 
L 225.444492 145.088898 
L 210.936732 141.292557 
L 196.637226 137.837717 
L 182.650945 134.746288 
L 169.078274 132.025345 
L 156.014237 129.670323 
L 143.547065 127.668281 
L 131.756931 126.00096 
L 120.714792 124.647506 
L 110.481208 123.58664 
L 101.105768 122.798238 
L 92.627085 122.264639 
L 85.073104 121.971385 
L 78.462534 121.907821 
L 72.806152 122.067293 
L 68.108706 122.447405 
L 65.510397 122.824096 
L 63.338348 123.301129 
L 61.592098 123.880831 
L 60.271242 124.566341 
L 59.375577 125.36148 
L 58.905351 126.27078 
L 58.861362 127.299293 
L 59.245018 128.452603 
L 60.05841 129.736629 
L 61.304272 131.157446 
L 62.986002 132.721088 
L 65.107594 134.433292 
L 69.124299 137.291012 
L 74.155978 140.506599 
L 80.217311 144.083825 
L 87.319798 148.013988 
L 95.468737 152.272104 
L 104.660325 156.81384 
L 114.878227 161.573817 
L 126.090661 166.466482 
L 134.094629 169.752173 
L 142.499837 173.018909 
L 151.283086 176.233112 
L 160.417337 179.36177 
L 169.872057 182.373921 
L 179.612949 185.241657 
L 189.602566 187.941311 
L 199.800477 190.454153 
L 210.164086 192.766882 
L 220.648495 194.871569 
L 231.207423 196.765535 
L 241.793575 198.450826 
L 252.359645 199.933618 
L 262.85834 201.223339 
L 273.243423 202.331946 
L 288.510861 203.685568 
L 303.28194 204.712695 
L 317.430686 205.464132 
L 330.849605 205.988289 
L 347.458614 206.408831 
L 365.960502 206.608475 
L 381.817877 206.567012 
L 397.331984 206.323717 
L 410.76221 205.88322 
L 418.523488 205.412327 
L 422.516298 204.951816 
L 423.878128 204.637558 
L 424.483255 204.286477 
L 424.518502 204.159707 
L 424.518502 204.159707 
" clip-path="url(#p7867b6363f)" style="fill: none; stroke: #000000; stroke-width: 2; stroke-linecap: square"/>
   </g>
   <g id="line2d_19">
    <path d="M 433.269992 170.460062 
L 433.211198 170.276548 
L 432.744606 169.914932 
L 431.813582 169.557515 
L 429.549945 169.020741 
L 424.925986 168.281822 
L 416.607472 167.271132 
L 397.662189 165.294874 
L 349.87099 160.341981 
L 302.862914 155.486872 
L 279.934773 153.337644 
L 261.254172 151.779011 
L 242.469755 150.436201 
L 223.752311 149.365965 
L 209.856544 148.769198 
L 196.157583 148.364461 
L 182.723037 148.161269 
L 169.621317 148.165246 
L 156.922784 148.378596 
L 144.699921 148.800544 
L 133.02688 149.427845 
L 121.978655 150.255278 
L 111.629497 151.276103 
L 102.051159 152.482443 
L 93.310672 153.865552 
L 85.468426 155.415998 
L 80.765378 156.537629 
L 76.498029 157.725966 
L 72.677517 158.977597 
L 69.313157 160.288874 
L 66.412239 161.655828 
L 63.980208 163.0741 
L 62.020822 164.538892 
L 60.536241 166.044854 
L 59.527207 167.586066 
L 59.200906 168.367859 
L 58.993226 169.15594 
L 58.903922 169.949394 
L 58.932723 170.747238 
L 59.079268 171.548443 
L 59.723997 173.156724 
L 60.83435 174.765251 
L 62.406075 176.364506 
L 64.434177 177.944427 
L 66.913189 179.494585 
L 69.837057 181.004367 
L 73.199235 182.463174 
L 76.992499 183.860599 
L 81.208975 185.186642 
L 85.840089 186.432014 
L 90.876414 187.58828 
L 96.307644 188.648058 
L 102.122216 189.605199 
L 108.30755 190.454901 
L 114.849876 191.193772 
L 125.299072 192.090393 
L 136.459934 192.732905 
L 148.268653 193.127215 
L 160.654993 193.284836 
L 173.543093 193.221773 
L 186.852863 192.957229 
L 205.112061 192.327852 
L 223.774909 191.430392 
L 242.644093 190.31654 
L 266.229453 188.693767 
L 294.057811 186.520228 
L 325.117926 183.831489 
L 353.777657 181.137086 
L 382.414229 178.224456 
L 402.914249 175.93473 
L 416.550231 174.211126 
L 424.907513 172.949067 
L 429.548617 172.045307 
L 431.816642 171.421125 
L 432.747441 171.026486 
L 433.212323 170.645964 
L 433.269992 170.460062 
L 433.269992 170.460062 
" clip-path="url(#p7867b6363f)" style="fill: none; stroke-dasharray: 7.4,3.2; stroke-dashoffset: 0; stroke: #000000; stroke-width: 2"/>
   </g>
   <g id="patch_5">
    <path d="M 42.1 317.72 
L 42.1 10.8 
" style="fill: none; stroke: #000000; stroke-width: 0.8; stroke-linejoin: miter; stroke-linecap: square"/>
   </g>
   <g id="patch_6">
    <path d="M 450 317.72 
L 450 10.8 
" style="fill: none; stroke: #000000; stroke-width: 0.8; stroke-linejoin: miter; stroke-linecap: square"/>
   </g>
   <g id="patch_7">
    <path d="M 42.1 317.72 
L 450 317.72 
" style="fill: none; stroke: #000000; stroke-width: 0.8; stroke-linejoin: miter; stroke-linecap: square"/>
   </g>
   <g id="patch_8">
    <path d="M 42.1 10.8 
L 450 10.8 
" style="fill: none; stroke: #000000; stroke-width: 0.8; stroke-linejoin: miter; stroke-linecap: square"/>
   </g>
   <g id="legend_1">
    <g id="patch_9">
     <path d="M 325.31875 48.15625 
L 443 48.15625 
Q 445 48.15625 445 46.15625 
L 445 17.8 
Q 445 15.8 443 15.8 
L 325.31875 15.8 
Q 323.31875 15.8 323.31875 17.8 
L 323.31875 46.15625 
Q 323.31875 48.15625 325.31875 48.15625 
z
" style="fill: #ffffff; opacity: 0.8; stroke: #cccccc; stroke-linejoin: miter"/>
    </g>
    <g id="patch_10">
     <path d="M 327.31875 27.398438 
L 347.31875 27.398438 
L 347.31875 20.398438 
L 327.31875 20.398438 
z
" style="fill: #c9c9f5; opacity: 0.46; stroke: #c9c9f5; stroke-linejoin: miter"/>
    </g>
    <g id="text_18">
     <!-- Optimized Shape -->
     <g transform="translate(355.31875 27.398438) scale(0.1 -0.1)">
      <defs>
       <path id="DejaVuSans-4f" d="M 2522 4238 
Q 1834 4238 1429 3725 
Q 1025 3213 1025 2328 
Q 1025 1447 1429 934 
Q 1834 422 2522 422 
Q 3209 422 3611 934 
Q 4013 1447 4013 2328 
Q 4013 3213 3611 3725 
Q 3209 4238 2522 4238 
z
M 2522 4750 
Q 3503 4750 4090 4092 
Q 4678 3434 4678 2328 
Q 4678 1225 4090 567 
Q 3503 -91 2522 -91 
Q 1538 -91 948 565 
Q 359 1222 359 2328 
Q 359 3434 948 4092 
Q 1538 4750 2522 4750 
z
" transform="scale(0.015625)"/>
       <path id="DejaVuSans-70" d="M 1159 525 
L 1159 -1331 
L 581 -1331 
L 581 3500 
L 1159 3500 
L 1159 2969 
Q 1341 3281 1617 3432 
Q 1894 3584 2278 3584 
Q 2916 3584 3314 3078 
Q 3713 2572 3713 1747 
Q 3713 922 3314 415 
Q 2916 -91 2278 -91 
Q 1894 -91 1617 61 
Q 1341 213 1159 525 
z
M 3116 1747 
Q 3116 2381 2855 2742 
Q 2594 3103 2138 3103 
Q 1681 3103 1420 2742 
Q 1159 2381 1159 1747 
Q 1159 1113 1420 752 
Q 1681 391 2138 391 
Q 2594 391 2855 752 
Q 3116 1113 3116 1747 
z
" transform="scale(0.015625)"/>
       <path id="DejaVuSans-74" d="M 1172 4494 
L 1172 3500 
L 2356 3500 
L 2356 3053 
L 1172 3053 
L 1172 1153 
Q 1172 725 1289 603 
Q 1406 481 1766 481 
L 2356 481 
L 2356 0 
L 1766 0 
Q 1100 0 847 248 
Q 594 497 594 1153 
L 594 3053 
L 172 3053 
L 172 3500 
L 594 3500 
L 594 4494 
L 1172 4494 
z
" transform="scale(0.015625)"/>
       <path id="DejaVuSans-69" d="M 603 3500 
L 1178 3500 
L 1178 0 
L 603 0 
L 603 3500 
z
M 603 4863 
L 1178 4863 
L 1178 4134 
L 603 4134 
L 603 4863 
z
" transform="scale(0.015625)"/>
       <path id="DejaVuSans-6d" d="M 3328 2828 
Q 3544 3216 3844 3400 
Q 4144 3584 4550 3584 
Q 5097 3584 5394 3201 
Q 5691 2819 5691 2113 
L 5691 0 
L 5113 0 
L 5113 2094 
Q 5113 2597 4934 2840 
Q 4756 3084 4391 3084 
Q 3944 3084 3684 2787 
Q 3425 2491 3425 1978 
L 3425 0 
L 2847 0 
L 2847 2094 
Q 2847 2600 2669 2842 
Q 2491 3084 2119 3084 
Q 1678 3084 1418 2786 
Q 1159 2488 1159 1978 
L 1159 0 
L 581 0 
L 581 3500 
L 1159 3500 
L 1159 2956 
Q 1356 3278 1631 3431 
Q 1906 3584 2284 3584 
Q 2666 3584 2933 3390 
Q 3200 3197 3328 2828 
z
" transform="scale(0.015625)"/>
       <path id="DejaVuSans-7a" d="M 353 3500 
L 3084 3500 
L 3084 2975 
L 922 459 
L 3084 459 
L 3084 0 
L 275 0 
L 275 525 
L 2438 3041 
L 353 3041 
L 353 3500 
z
" transform="scale(0.015625)"/>
       <path id="DejaVuSans-65" d="M 3597 1894 
L 3597 1613 
L 953 1613 
Q 991 1019 1311 708 
Q 1631 397 2203 397 
Q 2534 397 2845 478 
Q 3156 559 3463 722 
L 3463 178 
Q 3153 47 2828 -22 
Q 2503 -91 2169 -91 
Q 1331 -91 842 396 
Q 353 884 353 1716 
Q 353 2575 817 3079 
Q 1281 3584 2069 3584 
Q 2775 3584 3186 3129 
Q 3597 2675 3597 1894 
z
M 3022 2063 
Q 3016 2534 2758 2815 
Q 2500 3097 2075 3097 
Q 1594 3097 1305 2825 
Q 1016 2553 972 2059 
L 3022 2063 
z
" transform="scale(0.015625)"/>
       <path id="DejaVuSans-64" d="M 2906 2969 
L 2906 4863 
L 3481 4863 
L 3481 0 
L 2906 0 
L 2906 525 
Q 2725 213 2448 61 
Q 2172 -91 1784 -91 
Q 1150 -91 751 415 
Q 353 922 353 1747 
Q 353 2572 751 3078 
Q 1150 3584 1784 3584 
Q 2172 3584 2448 3432 
Q 2725 3281 2906 2969 
z
M 947 1747 
Q 947 1113 1208 752 
Q 1469 391 1925 391 
Q 2381 391 2643 752 
Q 2906 1113 2906 1747 
Q 2906 2381 2643 2742 
Q 2381 3103 1925 3103 
Q 1469 3103 1208 2742 
Q 947 2381 947 1747 
z
" transform="scale(0.015625)"/>
       <path id="DejaVuSans-20" transform="scale(0.015625)"/>
       <path id="DejaVuSans-53" d="M 3425 4513 
L 3425 3897 
Q 3066 4069 2747 4153 
Q 2428 4238 2131 4238 
Q 1616 4238 1336 4038 
Q 1056 3838 1056 3469 
Q 1056 3159 1242 3001 
Q 1428 2844 1947 2747 
L 2328 2669 
Q 3034 2534 3370 2195 
Q 3706 1856 3706 1288 
Q 3706 609 3251 259 
Q 2797 -91 1919 -91 
Q 1588 -91 1214 -16 
Q 841 59 441 206 
L 441 856 
Q 825 641 1194 531 
Q 1563 422 1919 422 
Q 2459 422 2753 634 
Q 3047 847 3047 1241 
Q 3047 1584 2836 1778 
Q 2625 1972 2144 2069 
L 1759 2144 
Q 1053 2284 737 2584 
Q 422 2884 422 3419 
Q 422 4038 858 4394 
Q 1294 4750 2059 4750 
Q 2388 4750 2728 4690 
Q 3069 4631 3425 4513 
z
" transform="scale(0.015625)"/>
       <path id="DejaVuSans-68" d="M 3513 2113 
L 3513 0 
L 2938 0 
L 2938 2094 
Q 2938 2591 2744 2837 
Q 2550 3084 2163 3084 
Q 1697 3084 1428 2787 
Q 1159 2491 1159 1978 
L 1159 0 
L 581 0 
L 581 4863 
L 1159 4863 
L 1159 2956 
Q 1366 3272 1645 3428 
Q 1925 3584 2291 3584 
Q 2894 3584 3203 3211 
Q 3513 2838 3513 2113 
z
" transform="scale(0.015625)"/>
       <path id="DejaVuSans-61" d="M 2194 1759 
Q 1497 1759 1228 1600 
Q 959 1441 959 1056 
Q 959 750 1161 570 
Q 1363 391 1709 391 
Q 2188 391 2477 730 
Q 2766 1069 2766 1631 
L 2766 1759 
L 2194 1759 
z
M 3341 1997 
L 3341 0 
L 2766 0 
L 2766 531 
Q 2569 213 2275 61 
Q 1981 -91 1556 -91 
Q 1019 -91 701 211 
Q 384 513 384 1019 
Q 384 1609 779 1909 
Q 1175 2209 1959 2209 
L 2766 2209 
L 2766 2266 
Q 2766 2663 2505 2880 
Q 2244 3097 1772 3097 
Q 1472 3097 1187 3025 
Q 903 2953 641 2809 
L 641 3341 
Q 956 3463 1253 3523 
Q 1550 3584 1831 3584 
Q 2591 3584 2966 3190 
Q 3341 2797 3341 1997 
z
" transform="scale(0.015625)"/>
      </defs>
      <use xlink:href="#DejaVuSans-4f"/>
      <use xlink:href="#DejaVuSans-70" transform="translate(78.710938 0)"/>
      <use xlink:href="#DejaVuSans-74" transform="translate(142.1875 0)"/>
      <use xlink:href="#DejaVuSans-69" transform="translate(181.396484 0)"/>
      <use xlink:href="#DejaVuSans-6d" transform="translate(209.179688 0)"/>
      <use xlink:href="#DejaVuSans-69" transform="translate(306.591797 0)"/>
      <use xlink:href="#DejaVuSans-7a" transform="translate(334.375 0)"/>
      <use xlink:href="#DejaVuSans-65" transform="translate(386.865234 0)"/>
      <use xlink:href="#DejaVuSans-64" transform="translate(448.388672 0)"/>
      <use xlink:href="#DejaVuSans-20" transform="translate(511.865234 0)"/>
      <use xlink:href="#DejaVuSans-53" transform="translate(543.652344 0)"/>
      <use xlink:href="#DejaVuSans-68" transform="translate(607.128906 0)"/>
      <use xlink:href="#DejaVuSans-61" transform="translate(670.507812 0)"/>
      <use xlink:href="#DejaVuSans-70" transform="translate(731.787109 0)"/>
      <use xlink:href="#DejaVuSans-65" transform="translate(795.263672 0)"/>
     </g>
    </g>
    <g id="patch_11">
     <path d="M 327.31875 42.076563 
L 347.31875 42.076563 
L 347.31875 35.076563 
L 327.31875 35.076563 
z
" style="fill: #f69e5e; opacity: 0.36; stroke: #f69e5e; stroke-linejoin: miter"/>
    </g>
    <g id="text_19">
     <!-- Initial Shape -->
     <g transform="translate(355.31875 42.076563) scale(0.1 -0.1)">
      <defs>
       <path id="DejaVuSans-49" d="M 628 4666 
L 1259 4666 
L 1259 0 
L 628 0 
L 628 4666 
z
" transform="scale(0.015625)"/>
       <path id="DejaVuSans-6e" d="M 3513 2113 
L 3513 0 
L 2938 0 
L 2938 2094 
Q 2938 2591 2744 2837 
Q 2550 3084 2163 3084 
Q 1697 3084 1428 2787 
Q 1159 2491 1159 1978 
L 1159 0 
L 581 0 
L 581 3500 
L 1159 3500 
L 1159 2956 
Q 1366 3272 1645 3428 
Q 1925 3584 2291 3584 
Q 2894 3584 3203 3211 
Q 3513 2838 3513 2113 
z
" transform="scale(0.015625)"/>
       <path id="DejaVuSans-6c" d="M 603 4863 
L 1178 4863 
L 1178 0 
L 603 0 
L 603 4863 
z
" transform="scale(0.015625)"/>
      </defs>
      <use xlink:href="#DejaVuSans-49"/>
      <use xlink:href="#DejaVuSans-6e" transform="translate(29.492188 0)"/>
      <use xlink:href="#DejaVuSans-69" transform="translate(92.871094 0)"/>
      <use xlink:href="#DejaVuSans-74" transform="translate(120.654297 0)"/>
      <use xlink:href="#DejaVuSans-69" transform="translate(159.863281 0)"/>
      <use xlink:href="#DejaVuSans-61" transform="translate(187.646484 0)"/>
      <use xlink:href="#DejaVuSans-6c" transform="translate(248.925781 0)"/>
      <use xlink:href="#DejaVuSans-20" transform="translate(276.708984 0)"/>
      <use xlink:href="#DejaVuSans-53" transform="translate(308.496094 0)"/>
      <use xlink:href="#DejaVuSans-68" transform="translate(371.972656 0)"/>
      <use xlink:href="#DejaVuSans-61" transform="translate(435.351562 0)"/>
      <use xlink:href="#DejaVuSans-70" transform="translate(496.630859 0)"/>
      <use xlink:href="#DejaVuSans-65" transform="translate(560.107422 0)"/>
     </g>
    </g>
   </g>
  </g>
 </g>
 <defs>
  <clipPath id="p7867b6363f">
   <rect x="42.1" y="10.8" width="407.9" height="306.92"/>
  </clipPath>
 </defs>
</svg>
