<?xml version="1.0" encoding="utf-8" standalone="no"?>
<!DOCTYPE svg PUBLIC "-//W3C//DTD SVG 1.1//EN"
  "http://www.w3.org/Graphics/SVG/1.1/DTD/svg11.dtd">
<svg xmlns:xlink="http://www.w3.org/1999/xlink" width="460.8pt" height="345.6pt" viewBox="0 0 460.8 345.6" xmlns="http://www.w3.org/2000/svg" version="1.1">
 <metadata>
  <rdf:RDF xmlns:dc="http://purl.org/dc/elements/1.1/" xmlns:cc="http://creativecommons.org/ns#" xmlns:rdf="http://www.w3.org/1999/02/22-rdf-syntax-ns#">
   <cc:Work>
    <dc:type rdf:resource="http://purl.org/dc/dcmitype/StillImage"/>
    <dc:date>2025-06-09T17:31:25.893171</dc:date>
    <dc:format>image/svg+xml</dc:format>
    <dc:creator>
     <cc:Agent>
      <dc:title>Matplotlib v3.10.0, https://matplotlib.org/</dc:title>
     </cc:Agent>
    </dc:creator>
   </cc:Work>
  </rdf:RDF>
 </metadata>
 <defs>
  <style type="text/css">*{stroke-linejoin: round; stroke-linecap: butt}</style>
 </defs>
 <g id="figure_1">
  <g id="patch_1">
   <path d="M 0 345.6 
L 460.8 345.6 
L 460.8 0 
L 0 0 
z
" style="fill: #ffffff"/>
  </g>
  <g id="axes_1">
   <g id="patch_2">
    <path d="M 42.1 317.72 
L 450 317.72 
L 450 10.8 
L 42.1 10.8 
z
" style="fill: #ffffff"/>
   </g>
   <g id="patch_3">
    <path d="M 432.302911 174.247394 
L 432.278858 174.065789 
L 432.145171 173.883867 
L 431.901784 173.701153 
L 431.54856 173.517173 
L 431.08559 173.331383 
L 430.51274 173.143263 
L 429.829985 172.952248 
L 429.037395 172.757766 
L 428.134901 172.559212 
L 427.122605 172.355966 
L 426.000563 172.147403 
L 424.768854 171.93286 
L 423.427679 171.711671 
L 421.977119 171.483176 
L 420.417465 171.246671 
L 418.748943 171.001468 
L 416.971878 170.746871 
L 415.086688 170.482187 
L 413.093833 170.20673 
L 410.993853 169.919806 
L 408.787367 169.620756 
L 406.475038 169.30892 
L 404.057734 168.983685 
L 401.536309 168.644439 
L 398.911798 168.290637 
L 396.185281 167.921751 
L 393.358018 167.537311 
L 390.43136 167.136906 
L 387.406746 166.720179 
L 384.285807 166.286847 
L 381.070242 165.8367 
L 377.761908 165.369595 
L 374.362785 164.885492 
L 370.874998 164.384426 
L 367.300743 163.866537 
L 363.642391 163.33205 
L 359.902419 162.781298 
L 356.083449 162.214734 
L 352.188134 161.632861 
L 348.219287 161.036348 
L 344.179913 160.425914 
L 340.072925 159.802412 
L 335.901428 159.16676 
L 331.668623 158.519992 
L 327.377732 157.863217 
L 323.032059 157.197631 
L 318.634905 156.524491 
L 314.189718 155.84513 
L 309.699834 155.16092 
L 305.168785 154.473306 
L 300.599969 153.783749 
L 295.996834 153.093737 
L 291.362854 152.404808 
L 286.701463 151.718468 
L 282.01608 151.036258 
L 277.310023 150.359669 
L 272.586753 149.690222 
L 267.849537 149.029385 
L 263.101688 148.378588 
L 258.346378 147.739227 
L 253.586867 147.112661 
L 248.826223 146.500186 
L 244.067614 145.903034 
L 239.313971 145.322387 
L 234.568344 144.759366 
L 229.833647 144.215006 
L 225.112787 143.690289 
L 220.408558 143.186121 
L 215.72378 142.703344 
L 211.061244 142.24272 
L 206.423585 141.804945 
L 201.813526 141.390647 
L 197.233747 141.000396 
L 192.686846 140.63467 
L 188.175407 140.29392 
L 183.702027 139.978509 
L 179.26926 139.688762 
L 174.879671 139.42493 
L 170.535793 139.187241 
L 166.24011 138.975849 
L 161.995199 138.790867 
L 157.803542 138.632387 
L 153.667618 138.500442 
L 149.589926 138.395044 
L 145.572962 138.316171 
L 141.619258 138.263765 
L 137.731211 138.23776 
L 133.911306 138.238053 
L 130.161952 138.264522 
L 126.485611 138.317046 
L 122.884715 138.395474 
L 119.361558 138.49966 
L 115.918502 138.62942 
L 112.5579 138.784606 
L 109.281933 138.965017 
L 106.092919 139.170517 
L 102.992905 139.400874 
L 99.984075 139.655925 
L 97.068554 139.935513 
L 94.248165 140.239413 
L 91.524911 140.567478 
L 88.90067 140.919532 
L 86.37713 141.295374 
L 83.955956 141.694842 
L 81.638846 142.117766 
L 79.42723 142.563965 
L 77.322536 143.033249 
L 75.326148 143.525455 
L 73.43927 144.040374 
L 71.663072 144.577827 
L 69.998645 145.137606 
L 68.446945 145.719488 
L 67.008872 146.323264 
L 65.685181 146.948627 
L 64.476714 147.595352 
L 63.384013 148.263131 
L 62.407672 148.951633 
L 61.5482 149.660495 
L 60.805977 150.389333 
L 60.181409 151.137711 
L 59.674664 151.905141 
L 59.28607 152.691117 
L 59.015715 153.495026 
L 58.863669 154.316268 
L 58.830008 155.154154 
L 58.914677 156.007901 
L 59.117609 156.876715 
L 59.438657 157.759721 
L 59.877618 158.655936 
L 60.434291 159.564357 
L 61.108315 160.48389 
L 61.899421 161.413358 
L 62.807191 162.351515 
L 63.831232 163.29709 
L 64.970937 164.248646 
L 66.225845 165.204789 
L 67.595347 166.163965 
L 69.078769 167.124624 
L 70.675447 168.085166 
L 72.384583 169.04389 
L 74.205366 169.999107 
L 76.136896 170.949069 
L 78.178296 171.892009 
L 80.328486 172.82616 
L 82.586453 173.749726 
L 84.951061 174.660939 
L 87.421129 175.558027 
L 89.995352 176.439268 
L 92.672401 177.302943 
L 95.450883 178.147426 
L 98.329233 178.971109 
L 101.306022 179.772494 
L 104.379474 180.550118 
L 107.5479 181.302633 
L 110.809568 182.028801 
L 114.162453 182.727439 
L 117.604699 183.397544 
L 121.134089 184.038145 
L 124.748553 184.648456 
L 128.445886 185.227802 
L 132.223692 185.775594 
L 136.07944 186.291412 
L 140.010868 186.774948 
L 144.015074 187.225983 
L 148.089538 187.644468 
L 152.231458 188.030439 
L 156.437944 188.384041 
L 160.706046 188.705529 
L 165.032712 188.995278 
L 169.414769 189.253717 
L 173.849296 189.481409 
L 178.332734 189.678933 
L 182.862123 189.847009 
L 187.433797 189.986357 
L 192.044548 190.097813 
L 196.690957 190.182208 
L 201.369488 190.240457 
L 206.076614 190.273479 
L 210.80898 190.28224 
L 215.562975 190.267713 
L 220.3351 190.230905 
L 225.121804 190.172813 
L 229.919502 190.094451 
L 234.724972 189.99683 
L 239.53438 189.880957 
L 244.344524 189.747821 
L 249.151896 189.598418 
L 253.953109 189.43372 
L 258.744799 189.254676 
L 263.523682 189.062225 
L 268.286364 188.857291 
L 273.029925 188.640734 
L 277.75079 188.413466 
L 282.446129 188.176307 
L 287.112763 187.930063 
L 291.74766 187.675549 
L 296.34774 187.41352 
L 300.910357 187.144704 
L 305.432265 186.869833 
L 309.910877 186.589575 
L 314.343329 186.304604 
L 318.726876 186.015548 
L 323.058891 185.723011 
L 327.336534 185.427591 
L 331.557571 185.129829 
L 335.719039 184.830289 
L 339.818748 184.529444 
L 343.854117 184.227818 
L 347.82284 183.925852 
L 351.722374 183.624002 
L 355.550705 183.322689 
L 359.30537 183.022312 
L 362.984286 182.723228 
L 366.58534 182.425817 
L 370.106484 182.13041 
L 373.545658 181.837309 
L 376.90095 181.546803 
L 380.170482 181.259189 
L 383.352611 180.97467 
L 386.445379 180.693514 
L 389.447347 180.415911 
L 392.356871 180.142049 
L 395.172434 179.872084 
L 397.892696 179.606162 
L 400.516273 179.344406 
L 403.041894 179.086937 
L 405.46848 178.833785 
L 407.794893 178.585049 
L 410.020145 178.34074 
L 412.143255 178.100882 
L 414.16337 177.865461 
L 416.079791 177.634441 
L 417.891686 177.407792 
L 419.598459 177.185414 
L 421.199559 176.967236 
L 422.694389 176.753122 
L 424.082522 176.54294 
L 425.363496 176.336543 
L 426.536974 176.133732 
L 427.602641 175.934301 
L 428.56016 175.738043 
L 429.409305 175.544684 
L 430.149863 175.353979 
L 430.781575 175.165627 
L 431.304351 174.979316 
L 431.717989 174.794706 
L 432.022386 174.611439 
L 432.217386 174.429132 
z
" clip-path="url(#p5ab27b26d7)" style="fill: #c9c9f5; opacity: 0.46; stroke: #c9c9f5; stroke-linejoin: miter"/>
   </g>
   <g id="patch_4">
    <path d="M 433.269992 166.433391 
L 433.211198 166.249877 
L 433.036032 166.068309 
L 432.744606 165.888261 
L 432.337055 165.709261 
L 431.813582 165.530843 
L 431.174411 165.352507 
L 430.419768 165.173758 
L 429.549945 164.994069 
L 428.565257 164.812907 
L 427.466109 164.629736 
L 426.252838 164.444009 
L 424.925986 164.255151 
L 423.486023 164.06262 
L 421.933513 163.865842 
L 420.269108 163.664264 
L 418.493506 163.457315 
L 416.607472 163.244461 
L 414.611793 163.025152 
L 412.507482 162.798865 
L 410.29546 162.565099 
L 407.976922 162.323368 
L 405.552969 162.073216 
L 403.024929 161.814221 
L 400.394174 161.545999 
L 397.662189 161.268203 
L 394.830573 160.98054 
L 391.901034 160.682754 
L 388.875396 160.374653 
L 385.755504 160.056111 
L 382.543494 159.727041 
L 379.24137 159.387456 
L 375.851495 159.03741 
L 372.376072 158.677049 
L 368.817623 158.306576 
L 365.178667 157.926281 
L 361.461792 157.536528 
L 357.669653 157.137761 
L 353.80513 156.730491 
L 349.87099 156.315309 
L 345.870137 155.892877 
L 341.805579 155.463937 
L 337.680309 155.029281 
L 333.497359 154.589771 
L 329.259812 154.14632 
L 324.970784 153.699905 
L 320.633414 153.251544 
L 316.250812 152.802286 
L 311.826128 152.353233 
L 307.362423 151.905485 
L 302.862914 151.4602 
L 298.330622 151.018519 
L 293.768624 150.581596 
L 289.179991 150.150603 
L 284.567704 149.72668 
L 279.934773 149.310972 
L 275.28405 148.9046 
L 270.618482 148.508665 
L 265.940915 148.12423 
L 261.254172 147.752339 
L 256.560956 147.393983 
L 251.864028 147.050131 
L 247.166078 146.721691 
L 242.469755 146.40953 
L 237.777634 146.114466 
L 233.092312 145.837271 
L 228.416353 145.578661 
L 223.752311 145.339294 
L 219.102662 145.119792 
L 214.469852 144.920691 
L 209.856544 144.742526 
L 205.265019 144.585723 
L 200.697871 144.450697 
L 196.157583 144.337789 
L 191.646683 144.247311 
L 187.16765 144.179514 
L 182.723037 144.134597 
L 178.315375 144.112731 
L 173.947297 144.114033 
L 169.621317 144.138574 
L 165.34013 144.186413 
L 161.10642 144.257534 
L 156.922784 144.351925 
L 152.792035 144.469511 
L 148.716829 144.610201 
L 144.699921 144.773872 
L 140.744159 144.960379 
L 136.852185 145.169539 
L 133.02688 145.401174 
L 129.270989 145.655051 
L 125.587303 145.930952 
L 121.978655 146.228606 
L 118.447634 146.547764 
L 114.997029 146.888137 
L 111.629497 147.249431 
L 108.347646 147.631349 
L 105.154041 148.033567 
L 102.051159 148.455772 
L 99.041429 148.897619 
L 96.127191 149.358766 
L 93.310672 149.838881 
L 90.594033 150.337584 
L 87.979321 150.854524 
L 85.468426 151.389327 
L 83.063216 151.941609 
L 80.765378 152.510958 
L 78.576487 153.097 
L 76.498029 153.699295 
L 74.531308 154.317425 
L 72.677517 154.950926 
L 70.937848 155.599347 
L 69.313157 156.262203 
L 67.804388 156.938977 
L 66.412239 157.629157 
L 65.137339 158.332173 
L 63.980208 159.047429 
L 62.941271 159.774332 
L 62.020822 160.512221 
L 61.21913 161.260412 
L 60.536241 162.018183 
L 59.972289 162.784779 
L 59.527207 163.559394 
L 59.200906 164.341187 
L 58.993226 165.129269 
L 58.903922 165.922723 
L 58.932723 166.720567 
L 59.079268 167.521772 
L 59.343154 168.3253 
L 59.723997 169.130052 
L 60.221212 169.934871 
L 60.83435 170.73858 
L 61.562825 171.539996 
L 62.406075 172.337834 
L 63.363425 173.130852 
L 64.434177 173.917755 
L 65.617679 174.697205 
L 66.913189 175.467914 
L 68.319918 176.22852 
L 69.837057 176.977696 
L 71.463819 177.714136 
L 73.199235 178.436502 
L 75.042473 179.143523 
L 76.992499 179.833928 
L 79.048345 180.506467 
L 81.208975 181.15997 
L 83.473242 181.793291 
L 85.840089 182.405343 
L 88.308255 182.995109 
L 90.876414 183.561608 
L 93.543372 184.103971 
L 96.307644 184.621386 
L 99.167724 185.113117 
L 102.122216 185.578528 
L 105.169364 186.017057 
L 108.30755 186.42823 
L 111.53504 186.811683 
L 114.849876 187.167101 
L 118.250237 187.494319 
L 121.733985 187.793193 
L 125.299072 188.063722 
L 128.943315 188.305962 
L 132.664398 188.520065 
L 136.459934 188.706234 
L 140.327596 188.864789 
L 144.264672 188.996074 
L 148.268653 189.100543 
L 152.336896 189.178671 
L 156.466637 189.231012 
L 160.654993 189.258165 
L 164.899138 189.260769 
L 169.196103 189.239506 
L 173.543093 189.195102 
L 177.936816 189.128292 
L 182.374544 189.039843 
L 186.852863 188.930558 
L 191.368943 188.801225 
L 195.919607 188.652672 
L 200.501712 188.485712 
L 205.112061 188.30118 
L 209.747698 188.099897 
L 214.405453 187.882689 
L 219.082217 187.650354 
L 223.774909 187.403721 
L 228.480382 187.143582 
L 233.195862 186.870708 
L 237.918008 186.585891 
L 242.644093 186.289869 
L 247.371041 185.983396 
L 252.095955 185.667174 
L 256.815912 185.341936 
L 261.528067 185.008355 
L 266.229453 184.667096 
L 270.917564 184.3188 
L 275.58919 183.964131 
L 280.241842 183.603679 
L 284.872675 183.238046 
L 289.478938 182.867818 
L 294.057811 182.493556 
L 298.606849 182.11579 
L 303.122963 181.735099 
L 307.603701 181.351944 
L 312.046306 180.966866 
L 316.448017 180.580336 
L 320.80615 180.192827 
L 325.117926 179.804818 
L 329.380887 179.41673 
L 333.591985 179.029024 
L 337.748722 178.642112 
L 341.848375 178.256397 
L 345.888205 177.872292 
L 349.865433 177.490177 
L 353.777657 177.110415 
L 357.621862 176.733397 
L 361.395663 176.359428 
L 365.096315 175.988873 
L 368.721321 175.622037 
L 372.26807 175.259228 
L 375.73411 174.900733 
L 379.116875 174.54684 
L 382.414229 174.197785 
L 385.623583 173.853832 
L 388.742846 173.515177 
L 391.769812 173.182046 
L 394.70241 172.854614 
L 397.538617 172.533043 
L 400.276497 172.217479 
L 402.914249 171.908059 
L 405.450209 171.604865 
L 407.88278 171.307988 
L 410.210386 171.017484 
L 412.4317 170.733393 
L 414.545327 170.455724 
L 416.550231 170.184455 
L 418.44513 169.919588 
L 420.229215 169.66103 
L 421.90145 169.408721 
L 423.461138 169.162548 
L 424.907513 168.922395 
L 426.239923 168.688109 
L 427.457896 168.459524 
L 428.560914 168.236435 
L 429.548617 168.018636 
L 430.420645 167.80588 
L 431.176706 167.597914 
L 431.816642 167.394453 
L 432.34025 167.1952 
L 432.747441 166.999815 
L 433.038147 166.807973 
L 433.212323 166.619292 
z
" clip-path="url(#p5ab27b26d7)" style="fill: #f69e5e; opacity: 0.36; stroke: #f69e5e; stroke-linejoin: miter"/>
   </g>
   <g id="matplotlib.axis_1">
    <g id="xtick_1">
     <g id="line2d_1">
      <defs>
       <path id="m81028d3d29" d="M 0 0 
L 0 3.5 
" style="stroke: #000000; stroke-width: 0.8"/>
      </defs>
      <g>
       <use xlink:href="#m81028d3d29" x="58.830008" y="317.72" style="stroke: #000000; stroke-width: 0.8"/>
      </g>
     </g>
     <g id="text_1">
      <!-- −1.00 -->
      <g transform="translate(43.507352 332.318437) scale(0.1 -0.1)">
       <defs>
        <path id="DejaVuSans-2212" d="M 678 2272 
L 4684 2272 
L 4684 1741 
L 678 1741 
L 678 2272 
z
" transform="scale(0.015625)"/>
        <path id="DejaVuSans-31" d="M 794 531 
L 1825 531 
L 1825 4091 
L 703 3866 
L 703 4441 
L 1819 4666 
L 2450 4666 
L 2450 531 
L 3481 531 
L 3481 0 
L 794 0 
L 794 531 
z
" transform="scale(0.015625)"/>
        <path id="DejaVuSans-2e" d="M 684 794 
L 1344 794 
L 1344 0 
L 684 0 
L 684 794 
z
" transform="scale(0.015625)"/>
        <path id="DejaVuSans-30" d="M 2034 4250 
Q 1547 4250 1301 3770 
Q 1056 3291 1056 2328 
Q 1056 1369 1301 889 
Q 1547 409 2034 409 
Q 2525 409 2770 889 
Q 3016 1369 3016 2328 
Q 3016 3291 2770 3770 
Q 2525 4250 2034 4250 
z
M 2034 4750 
Q 2819 4750 3233 4129 
Q 3647 3509 3647 2328 
Q 3647 1150 3233 529 
Q 2819 -91 2034 -91 
Q 1250 -91 836 529 
Q 422 1150 422 2328 
Q 422 3509 836 4129 
Q 1250 4750 2034 4750 
z
" transform="scale(0.015625)"/>
       </defs>
       <use xlink:href="#DejaVuSans-2212"/>
       <use xlink:href="#DejaVuSans-31" transform="translate(83.789062 0)"/>
       <use xlink:href="#DejaVuSans-2e" transform="translate(147.412109 0)"/>
       <use xlink:href="#DejaVuSans-30" transform="translate(179.199219 0)"/>
       <use xlink:href="#DejaVuSans-30" transform="translate(242.822266 0)"/>
      </g>
     </g>
    </g>
    <g id="xtick_2">
     <g id="line2d_2">
      <g>
       <use xlink:href="#m81028d3d29" x="106.016912" y="317.72" style="stroke: #000000; stroke-width: 0.8"/>
      </g>
     </g>
     <g id="text_2">
      <!-- −0.75 -->
      <g transform="translate(90.694256 332.318437) scale(0.1 -0.1)">
       <defs>
        <path id="DejaVuSans-37" d="M 525 4666 
L 3525 4666 
L 3525 4397 
L 1831 0 
L 1172 0 
L 2766 4134 
L 525 4134 
L 525 4666 
z
" transform="scale(0.015625)"/>
        <path id="DejaVuSans-35" d="M 691 4666 
L 3169 4666 
L 3169 4134 
L 1269 4134 
L 1269 2991 
Q 1406 3038 1543 3061 
Q 1681 3084 1819 3084 
Q 2600 3084 3056 2656 
Q 3513 2228 3513 1497 
Q 3513 744 3044 326 
Q 2575 -91 1722 -91 
Q 1428 -91 1123 -41 
Q 819 9 494 109 
L 494 744 
Q 775 591 1075 516 
Q 1375 441 1709 441 
Q 2250 441 2565 725 
Q 2881 1009 2881 1497 
Q 2881 1984 2565 2268 
Q 2250 2553 1709 2553 
Q 1456 2553 1204 2497 
Q 953 2441 691 2322 
L 691 4666 
z
" transform="scale(0.015625)"/>
       </defs>
       <use xlink:href="#DejaVuSans-2212"/>
       <use xlink:href="#DejaVuSans-30" transform="translate(83.789062 0)"/>
       <use xlink:href="#DejaVuSans-2e" transform="translate(147.412109 0)"/>
       <use xlink:href="#DejaVuSans-37" transform="translate(179.199219 0)"/>
       <use xlink:href="#DejaVuSans-35" transform="translate(242.822266 0)"/>
      </g>
     </g>
    </g>
    <g id="xtick_3">
     <g id="line2d_3">
      <g>
       <use xlink:href="#m81028d3d29" x="153.203816" y="317.72" style="stroke: #000000; stroke-width: 0.8"/>
      </g>
     </g>
     <g id="text_3">
      <!-- −0.50 -->
      <g transform="translate(137.88116 332.318437) scale(0.1 -0.1)">
       <use xlink:href="#DejaVuSans-2212"/>
       <use xlink:href="#DejaVuSans-30" transform="translate(83.789062 0)"/>
       <use xlink:href="#DejaVuSans-2e" transform="translate(147.412109 0)"/>
       <use xlink:href="#DejaVuSans-35" transform="translate(179.199219 0)"/>
       <use xlink:href="#DejaVuSans-30" transform="translate(242.822266 0)"/>
      </g>
     </g>
    </g>
    <g id="xtick_4">
     <g id="line2d_4">
      <g>
       <use xlink:href="#m81028d3d29" x="200.39072" y="317.72" style="stroke: #000000; stroke-width: 0.8"/>
      </g>
     </g>
     <g id="text_4">
      <!-- −0.25 -->
      <g transform="translate(185.068064 332.318437) scale(0.1 -0.1)">
       <defs>
        <path id="DejaVuSans-32" d="M 1228 531 
L 3431 531 
L 3431 0 
L 469 0 
L 469 531 
Q 828 903 1448 1529 
Q 2069 2156 2228 2338 
Q 2531 2678 2651 2914 
Q 2772 3150 2772 3378 
Q 2772 3750 2511 3984 
Q 2250 4219 1831 4219 
Q 1534 4219 1204 4116 
Q 875 4013 500 3803 
L 500 4441 
Q 881 4594 1212 4672 
Q 1544 4750 1819 4750 
Q 2544 4750 2975 4387 
Q 3406 4025 3406 3419 
Q 3406 3131 3298 2873 
Q 3191 2616 2906 2266 
Q 2828 2175 2409 1742 
Q 1991 1309 1228 531 
z
" transform="scale(0.015625)"/>
       </defs>
       <use xlink:href="#DejaVuSans-2212"/>
       <use xlink:href="#DejaVuSans-30" transform="translate(83.789062 0)"/>
       <use xlink:href="#DejaVuSans-2e" transform="translate(147.412109 0)"/>
       <use xlink:href="#DejaVuSans-32" transform="translate(179.199219 0)"/>
       <use xlink:href="#DejaVuSans-35" transform="translate(242.822266 0)"/>
      </g>
     </g>
    </g>
    <g id="xtick_5">
     <g id="line2d_5">
      <g>
       <use xlink:href="#m81028d3d29" x="247.577624" y="317.72" style="stroke: #000000; stroke-width: 0.8"/>
      </g>
     </g>
     <g id="text_5">
      <!-- 0.00 -->
      <g transform="translate(236.444812 332.318437) scale(0.1 -0.1)">
       <use xlink:href="#DejaVuSans-30"/>
       <use xlink:href="#DejaVuSans-2e" transform="translate(63.623047 0)"/>
       <use xlink:href="#DejaVuSans-30" transform="translate(95.410156 0)"/>
       <use xlink:href="#DejaVuSans-30" transform="translate(159.033203 0)"/>
      </g>
     </g>
    </g>
    <g id="xtick_6">
     <g id="line2d_6">
      <g>
       <use xlink:href="#m81028d3d29" x="294.764528" y="317.72" style="stroke: #000000; stroke-width: 0.8"/>
      </g>
     </g>
     <g id="text_6">
      <!-- 0.25 -->
      <g transform="translate(283.631716 332.318437) scale(0.1 -0.1)">
       <use xlink:href="#DejaVuSans-30"/>
       <use xlink:href="#DejaVuSans-2e" transform="translate(63.623047 0)"/>
       <use xlink:href="#DejaVuSans-32" transform="translate(95.410156 0)"/>
       <use xlink:href="#DejaVuSans-35" transform="translate(159.033203 0)"/>
      </g>
     </g>
    </g>
    <g id="xtick_7">
     <g id="line2d_7">
      <g>
       <use xlink:href="#m81028d3d29" x="341.951433" y="317.72" style="stroke: #000000; stroke-width: 0.8"/>
      </g>
     </g>
     <g id="text_7">
      <!-- 0.50 -->
      <g transform="translate(330.81862 332.318437) scale(0.1 -0.1)">
       <use xlink:href="#DejaVuSans-30"/>
       <use xlink:href="#DejaVuSans-2e" transform="translate(63.623047 0)"/>
       <use xlink:href="#DejaVuSans-35" transform="translate(95.410156 0)"/>
       <use xlink:href="#DejaVuSans-30" transform="translate(159.033203 0)"/>
      </g>
     </g>
    </g>
    <g id="xtick_8">
     <g id="line2d_8">
      <g>
       <use xlink:href="#m81028d3d29" x="389.138337" y="317.72" style="stroke: #000000; stroke-width: 0.8"/>
      </g>
     </g>
     <g id="text_8">
      <!-- 0.75 -->
      <g transform="translate(378.005524 332.318437) scale(0.1 -0.1)">
       <use xlink:href="#DejaVuSans-30"/>
       <use xlink:href="#DejaVuSans-2e" transform="translate(63.623047 0)"/>
       <use xlink:href="#DejaVuSans-37" transform="translate(95.410156 0)"/>
       <use xlink:href="#DejaVuSans-35" transform="translate(159.033203 0)"/>
      </g>
     </g>
    </g>
    <g id="xtick_9">
     <g id="line2d_9">
      <g>
       <use xlink:href="#m81028d3d29" x="436.325241" y="317.72" style="stroke: #000000; stroke-width: 0.8"/>
      </g>
     </g>
     <g id="text_9">
      <!-- 1.00 -->
      <g transform="translate(425.192428 332.318437) scale(0.1 -0.1)">
       <use xlink:href="#DejaVuSans-31"/>
       <use xlink:href="#DejaVuSans-2e" transform="translate(63.623047 0)"/>
       <use xlink:href="#DejaVuSans-30" transform="translate(95.410156 0)"/>
       <use xlink:href="#DejaVuSans-30" transform="translate(159.033203 0)"/>
      </g>
     </g>
    </g>
   </g>
   <g id="matplotlib.axis_2">
    <g id="ytick_1">
     <g id="line2d_10">
      <defs>
       <path id="ma284b116bc" d="M 0 0 
L -3.5 0 
" style="stroke: #000000; stroke-width: 0.8"/>
      </defs>
      <g>
       <use xlink:href="#ma284b116bc" x="42.1" y="317.677181" style="stroke: #000000; stroke-width: 0.8"/>
      </g>
     </g>
     <g id="text_10">
      <!-- −0.8 -->
      <g transform="translate(10.817188 321.476399) scale(0.1 -0.1)">
       <defs>
        <path id="DejaVuSans-38" d="M 2034 2216 
Q 1584 2216 1326 1975 
Q 1069 1734 1069 1313 
Q 1069 891 1326 650 
Q 1584 409 2034 409 
Q 2484 409 2743 651 
Q 3003 894 3003 1313 
Q 3003 1734 2745 1975 
Q 2488 2216 2034 2216 
z
M 1403 2484 
Q 997 2584 770 2862 
Q 544 3141 544 3541 
Q 544 4100 942 4425 
Q 1341 4750 2034 4750 
Q 2731 4750 3128 4425 
Q 3525 4100 3525 3541 
Q 3525 3141 3298 2862 
Q 3072 2584 2669 2484 
Q 3125 2378 3379 2068 
Q 3634 1759 3634 1313 
Q 3634 634 3220 271 
Q 2806 -91 2034 -91 
Q 1263 -91 848 271 
Q 434 634 434 1313 
Q 434 1759 690 2068 
Q 947 2378 1403 2484 
z
M 1172 3481 
Q 1172 3119 1398 2916 
Q 1625 2713 2034 2713 
Q 2441 2713 2670 2916 
Q 2900 3119 2900 3481 
Q 2900 3844 2670 4047 
Q 2441 4250 2034 4250 
Q 1625 4250 1398 4047 
Q 1172 3844 1172 3481 
z
" transform="scale(0.015625)"/>
       </defs>
       <use xlink:href="#DejaVuSans-2212"/>
       <use xlink:href="#DejaVuSans-30" transform="translate(83.789062 0)"/>
       <use xlink:href="#DejaVuSans-2e" transform="translate(147.412109 0)"/>
       <use xlink:href="#DejaVuSans-38" transform="translate(179.199219 0)"/>
      </g>
     </g>
    </g>
    <g id="ytick_2">
     <g id="line2d_11">
      <g>
       <use xlink:href="#ma284b116bc" x="42.1" y="279.927657" style="stroke: #000000; stroke-width: 0.8"/>
      </g>
     </g>
     <g id="text_11">
      <!-- −0.6 -->
      <g transform="translate(10.817188 283.726876) scale(0.1 -0.1)">
       <defs>
        <path id="DejaVuSans-36" d="M 2113 2584 
Q 1688 2584 1439 2293 
Q 1191 2003 1191 1497 
Q 1191 994 1439 701 
Q 1688 409 2113 409 
Q 2538 409 2786 701 
Q 3034 994 3034 1497 
Q 3034 2003 2786 2293 
Q 2538 2584 2113 2584 
z
M 3366 4563 
L 3366 3988 
Q 3128 4100 2886 4159 
Q 2644 4219 2406 4219 
Q 1781 4219 1451 3797 
Q 1122 3375 1075 2522 
Q 1259 2794 1537 2939 
Q 1816 3084 2150 3084 
Q 2853 3084 3261 2657 
Q 3669 2231 3669 1497 
Q 3669 778 3244 343 
Q 2819 -91 2113 -91 
Q 1303 -91 875 529 
Q 447 1150 447 2328 
Q 447 3434 972 4092 
Q 1497 4750 2381 4750 
Q 2619 4750 2861 4703 
Q 3103 4656 3366 4563 
z
" transform="scale(0.015625)"/>
       </defs>
       <use xlink:href="#DejaVuSans-2212"/>
       <use xlink:href="#DejaVuSans-30" transform="translate(83.789062 0)"/>
       <use xlink:href="#DejaVuSans-2e" transform="translate(147.412109 0)"/>
       <use xlink:href="#DejaVuSans-36" transform="translate(179.199219 0)"/>
      </g>
     </g>
    </g>
    <g id="ytick_3">
     <g id="line2d_12">
      <g>
       <use xlink:href="#ma284b116bc" x="42.1" y="242.178134" style="stroke: #000000; stroke-width: 0.8"/>
      </g>
     </g>
     <g id="text_12">
      <!-- −0.4 -->
      <g transform="translate(10.817188 245.977353) scale(0.1 -0.1)">
       <defs>
        <path id="DejaVuSans-34" d="M 2419 4116 
L 825 1625 
L 2419 1625 
L 2419 4116 
z
M 2253 4666 
L 3047 4666 
L 3047 1625 
L 3713 1625 
L 3713 1100 
L 3047 1100 
L 3047 0 
L 2419 0 
L 2419 1100 
L 313 1100 
L 313 1709 
L 2253 4666 
z
" transform="scale(0.015625)"/>
       </defs>
       <use xlink:href="#DejaVuSans-2212"/>
       <use xlink:href="#DejaVuSans-30" transform="translate(83.789062 0)"/>
       <use xlink:href="#DejaVuSans-2e" transform="translate(147.412109 0)"/>
       <use xlink:href="#DejaVuSans-34" transform="translate(179.199219 0)"/>
      </g>
     </g>
    </g>
    <g id="ytick_4">
     <g id="line2d_13">
      <g>
       <use xlink:href="#ma284b116bc" x="42.1" y="204.428611" style="stroke: #000000; stroke-width: 0.8"/>
      </g>
     </g>
     <g id="text_13">
      <!-- −0.2 -->
      <g transform="translate(10.817188 208.227829) scale(0.1 -0.1)">
       <use xlink:href="#DejaVuSans-2212"/>
       <use xlink:href="#DejaVuSans-30" transform="translate(83.789062 0)"/>
       <use xlink:href="#DejaVuSans-2e" transform="translate(147.412109 0)"/>
       <use xlink:href="#DejaVuSans-32" transform="translate(179.199219 0)"/>
      </g>
     </g>
    </g>
    <g id="ytick_5">
     <g id="line2d_14">
      <g>
       <use xlink:href="#ma284b116bc" x="42.1" y="166.679087" style="stroke: #000000; stroke-width: 0.8"/>
      </g>
     </g>
     <g id="text_14">
      <!-- 0.0 -->
      <g transform="translate(19.196875 170.478306) scale(0.1 -0.1)">
       <use xlink:href="#DejaVuSans-30"/>
       <use xlink:href="#DejaVuSans-2e" transform="translate(63.623047 0)"/>
       <use xlink:href="#DejaVuSans-30" transform="translate(95.410156 0)"/>
      </g>
     </g>
    </g>
    <g id="ytick_6">
     <g id="line2d_15">
      <g>
       <use xlink:href="#ma284b116bc" x="42.1" y="128.929564" style="stroke: #000000; stroke-width: 0.8"/>
      </g>
     </g>
     <g id="text_15">
      <!-- 0.2 -->
      <g transform="translate(19.196875 132.728783) scale(0.1 -0.1)">
       <use xlink:href="#DejaVuSans-30"/>
       <use xlink:href="#DejaVuSans-2e" transform="translate(63.623047 0)"/>
       <use xlink:href="#DejaVuSans-32" transform="translate(95.410156 0)"/>
      </g>
     </g>
    </g>
    <g id="ytick_7">
     <g id="line2d_16">
      <g>
       <use xlink:href="#ma284b116bc" x="42.1" y="91.180041" style="stroke: #000000; stroke-width: 0.8"/>
      </g>
     </g>
     <g id="text_16">
      <!-- 0.4 -->
      <g transform="translate(19.196875 94.979259) scale(0.1 -0.1)">
       <use xlink:href="#DejaVuSans-30"/>
       <use xlink:href="#DejaVuSans-2e" transform="translate(63.623047 0)"/>
       <use xlink:href="#DejaVuSans-34" transform="translate(95.410156 0)"/>
      </g>
     </g>
    </g>
    <g id="ytick_8">
     <g id="line2d_17">
      <g>
       <use xlink:href="#ma284b116bc" x="42.1" y="53.430517" style="stroke: #000000; stroke-width: 0.8"/>
      </g>
     </g>
     <g id="text_17">
      <!-- 0.6 -->
      <g transform="translate(19.196875 57.229736) scale(0.1 -0.1)">
       <use xlink:href="#DejaVuSans-30"/>
       <use xlink:href="#DejaVuSans-2e" transform="translate(63.623047 0)"/>
       <use xlink:href="#DejaVuSans-36" transform="translate(95.410156 0)"/>
      </g>
     </g>
    </g>
    <g id="ytick_9">
     <g id="line2d_18">
      <g>
       <use xlink:href="#ma284b116bc" x="42.1" y="15.680994" style="stroke: #000000; stroke-width: 0.8"/>
      </g>
     </g>
     <g id="text_18">
      <!-- 0.8 -->
      <g transform="translate(19.196875 19.480213) scale(0.1 -0.1)">
       <use xlink:href="#DejaVuSans-30"/>
       <use xlink:href="#DejaVuSans-2e" transform="translate(63.623047 0)"/>
       <use xlink:href="#DejaVuSans-38" transform="translate(95.410156 0)"/>
      </g>
     </g>
    </g>
   </g>
   <g id="line2d_19">
    <path d="M 432.302911 174.247394 
L 432.145171 173.883867 
L 431.54856 173.517173 
L 430.51274 173.143263 
L 428.134901 172.559212 
L 423.427679 171.711671 
L 415.086688 170.482187 
L 356.083449 162.214734 
L 314.189718 155.84513 
L 282.01608 151.036258 
L 258.346378 147.739227 
L 239.313971 145.322387 
L 220.408558 143.186121 
L 206.423585 141.804945 
L 192.686846 140.63467 
L 179.26926 139.688762 
L 166.24011 138.975849 
L 153.667618 138.500442 
L 141.619258 138.263765 
L 130.161952 138.264522 
L 119.361558 138.49966 
L 109.281933 138.965017 
L 99.984075 139.655925 
L 91.524911 140.567478 
L 83.955956 141.694842 
L 79.42723 142.563965 
L 75.326148 143.525455 
L 71.663072 144.577827 
L 68.446945 145.719488 
L 65.685181 146.948627 
L 63.384013 148.263131 
L 61.5482 149.660495 
L 60.181409 151.137711 
L 59.28607 152.691117 
L 59.015715 153.495026 
L 58.863669 154.316268 
L 58.830008 155.154154 
L 58.914677 156.007901 
L 59.117609 156.876715 
L 59.877618 158.655936 
L 61.108315 160.48389 
L 62.807191 162.351515 
L 64.970937 164.248646 
L 67.595347 166.163965 
L 70.675447 168.085166 
L 74.205366 169.999107 
L 78.178296 171.892009 
L 82.586453 173.749726 
L 87.421129 175.558027 
L 92.672401 177.302943 
L 98.329233 178.971109 
L 104.379474 180.550118 
L 110.809568 182.028801 
L 117.604699 183.397544 
L 124.748553 184.648456 
L 132.223692 185.775594 
L 140.010868 186.774948 
L 148.089538 187.644468 
L 156.437944 188.384041 
L 169.414769 189.253717 
L 182.862123 189.847009 
L 196.690957 190.182208 
L 210.80898 190.28224 
L 225.121804 190.172813 
L 244.344524 189.747821 
L 263.523682 189.062225 
L 282.446129 188.176307 
L 305.432265 186.869833 
L 331.557571 185.129829 
L 359.30537 183.022312 
L 383.352611 180.97467 
L 403.041894 179.086937 
L 416.079791 177.634441 
L 424.082522 176.54294 
L 428.56016 175.738043 
L 430.781575 175.165627 
L 432.022386 174.611439 
L 432.302911 174.247394 
L 432.302911 174.247394 
" clip-path="url(#p5ab27b26d7)" style="fill: none; stroke: #000000; stroke-width: 2; stroke-linecap: square"/>
   </g>
   <g id="line2d_20">
    <path d="M 433.269992 166.433391 
L 433.211198 166.249877 
L 432.744606 165.888261 
L 431.813582 165.530843 
L 429.549945 164.994069 
L 424.925986 164.255151 
L 416.607472 163.244461 
L 397.662189 161.268203 
L 349.87099 156.315309 
L 302.862914 151.4602 
L 279.934773 149.310972 
L 261.254172 147.752339 
L 242.469755 146.40953 
L 223.752311 145.339294 
L 209.856544 144.742526 
L 196.157583 144.337789 
L 182.723037 144.134597 
L 169.621317 144.138574 
L 156.922784 144.351925 
L 144.699921 144.773872 
L 133.02688 145.401174 
L 121.978655 146.228606 
L 111.629497 147.249431 
L 102.051159 148.455772 
L 93.310672 149.838881 
L 85.468426 151.389327 
L 80.765378 152.510958 
L 76.498029 153.699295 
L 72.677517 154.950926 
L 69.313157 156.262203 
L 66.412239 157.629157 
L 63.980208 159.047429 
L 62.020822 160.512221 
L 60.536241 162.018183 
L 59.527207 163.559394 
L 59.200906 164.341187 
L 58.993226 165.129269 
L 58.903922 165.922723 
L 58.932723 166.720567 
L 59.079268 167.521772 
L 59.723997 169.130052 
L 60.83435 170.73858 
L 62.406075 172.337834 
L 64.434177 173.917755 
L 66.913189 175.467914 
L 69.837057 176.977696 
L 73.199235 178.436502 
L 76.992499 179.833928 
L 81.208975 181.15997 
L 85.840089 182.405343 
L 90.876414 183.561608 
L 96.307644 184.621386 
L 102.122216 185.578528 
L 108.30755 186.42823 
L 114.849876 187.167101 
L 125.299072 188.063722 
L 136.459934 188.706234 
L 148.268653 189.100543 
L 160.654993 189.258165 
L 173.543093 189.195102 
L 186.852863 188.930558 
L 205.112061 188.30118 
L 223.774909 187.403721 
L 242.644093 186.289869 
L 266.229453 184.667096 
L 294.057811 182.493556 
L 325.117926 179.804818 
L 353.777657 177.110415 
L 382.414229 174.197785 
L 402.914249 171.908059 
L 416.550231 170.184455 
L 424.907513 168.922395 
L 429.548617 168.018636 
L 431.816642 167.394453 
L 432.747441 166.999815 
L 433.212323 166.619292 
L 433.269992 166.433391 
L 433.269992 166.433391 
" clip-path="url(#p5ab27b26d7)" style="fill: none; stroke-dasharray: 7.4,3.2; stroke-dashoffset: 0; stroke: #000000; stroke-width: 2"/>
   </g>
   <g id="patch_5">
    <path d="M 42.1 317.72 
L 42.1 10.8 
" style="fill: none; stroke: #000000; stroke-width: 0.8; stroke-linejoin: miter; stroke-linecap: square"/>
   </g>
   <g id="patch_6">
    <path d="M 450 317.72 
L 450 10.8 
" style="fill: none; stroke: #000000; stroke-width: 0.8; stroke-linejoin: miter; stroke-linecap: square"/>
   </g>
   <g id="patch_7">
    <path d="M 42.1 317.72 
L 450 317.72 
" style="fill: none; stroke: #000000; stroke-width: 0.8; stroke-linejoin: miter; stroke-linecap: square"/>
   </g>
   <g id="patch_8">
    <path d="M 42.1 10.8 
L 450 10.8 
" style="fill: none; stroke: #000000; stroke-width: 0.8; stroke-linejoin: miter; stroke-linecap: square"/>
   </g>
   <g id="legend_1">
    <g id="patch_9">
     <path d="M 325.31875 48.15625 
L 443 48.15625 
Q 445 48.15625 445 46.15625 
L 445 17.8 
Q 445 15.8 443 15.8 
L 325.31875 15.8 
Q 323.31875 15.8 323.31875 17.8 
L 323.31875 46.15625 
Q 323.31875 48.15625 325.31875 48.15625 
z
" style="fill: #ffffff; opacity: 0.8; stroke: #cccccc; stroke-linejoin: miter"/>
    </g>
    <g id="patch_10">
     <path d="M 327.31875 27.398438 
L 347.31875 27.398438 
L 347.31875 20.398438 
L 327.31875 20.398438 
z
" style="fill: #c9c9f5; opacity: 0.46; stroke: #c9c9f5; stroke-linejoin: miter"/>
    </g>
    <g id="text_19">
     <!-- Optimized Shape -->
     <g transform="translate(355.31875 27.398438) scale(0.1 -0.1)">
      <defs>
       <path id="DejaVuSans-4f" d="M 2522 4238 
Q 1834 4238 1429 3725 
Q 1025 3213 1025 2328 
Q 1025 1447 1429 934 
Q 1834 422 2522 422 
Q 3209 422 3611 934 
Q 4013 1447 4013 2328 
Q 4013 3213 3611 3725 
Q 3209 4238 2522 4238 
z
M 2522 4750 
Q 3503 4750 4090 4092 
Q 4678 3434 4678 2328 
Q 4678 1225 4090 567 
Q 3503 -91 2522 -91 
Q 1538 -91 948 565 
Q 359 1222 359 2328 
Q 359 3434 948 4092 
Q 1538 4750 2522 4750 
z
" transform="scale(0.015625)"/>
       <path id="DejaVuSans-70" d="M 1159 525 
L 1159 -1331 
L 581 -1331 
L 581 3500 
L 1159 3500 
L 1159 2969 
Q 1341 3281 1617 3432 
Q 1894 3584 2278 3584 
Q 2916 3584 3314 3078 
Q 3713 2572 3713 1747 
Q 3713 922 3314 415 
Q 2916 -91 2278 -91 
Q 1894 -91 1617 61 
Q 1341 213 1159 525 
z
M 3116 1747 
Q 3116 2381 2855 2742 
Q 2594 3103 2138 3103 
Q 1681 3103 1420 2742 
Q 1159 2381 1159 1747 
Q 1159 1113 1420 752 
Q 1681 391 2138 391 
Q 2594 391 2855 752 
Q 3116 1113 3116 1747 
z
" transform="scale(0.015625)"/>
       <path id="DejaVuSans-74" d="M 1172 4494 
L 1172 3500 
L 2356 3500 
L 2356 3053 
L 1172 3053 
L 1172 1153 
Q 1172 725 1289 603 
Q 1406 481 1766 481 
L 2356 481 
L 2356 0 
L 1766 0 
Q 1100 0 847 248 
Q 594 497 594 1153 
L 594 3053 
L 172 3053 
L 172 3500 
L 594 3500 
L 594 4494 
L 1172 4494 
z
" transform="scale(0.015625)"/>
       <path id="DejaVuSans-69" d="M 603 3500 
L 1178 3500 
L 1178 0 
L 603 0 
L 603 3500 
z
M 603 4863 
L 1178 4863 
L 1178 4134 
L 603 4134 
L 603 4863 
z
" transform="scale(0.015625)"/>
       <path id="DejaVuSans-6d" d="M 3328 2828 
Q 3544 3216 3844 3400 
Q 4144 3584 4550 3584 
Q 5097 3584 5394 3201 
Q 5691 2819 5691 2113 
L 5691 0 
L 5113 0 
L 5113 2094 
Q 5113 2597 4934 2840 
Q 4756 3084 4391 3084 
Q 3944 3084 3684 2787 
Q 3425 2491 3425 1978 
L 3425 0 
L 2847 0 
L 2847 2094 
Q 2847 2600 2669 2842 
Q 2491 3084 2119 3084 
Q 1678 3084 1418 2786 
Q 1159 2488 1159 1978 
L 1159 0 
L 581 0 
L 581 3500 
L 1159 3500 
L 1159 2956 
Q 1356 3278 1631 3431 
Q 1906 3584 2284 3584 
Q 2666 3584 2933 3390 
Q 3200 3197 3328 2828 
z
" transform="scale(0.015625)"/>
       <path id="DejaVuSans-7a" d="M 353 3500 
L 3084 3500 
L 3084 2975 
L 922 459 
L 3084 459 
L 3084 0 
L 275 0 
L 275 525 
L 2438 3041 
L 353 3041 
L 353 3500 
z
" transform="scale(0.015625)"/>
       <path id="DejaVuSans-65" d="M 3597 1894 
L 3597 1613 
L 953 1613 
Q 991 1019 1311 708 
Q 1631 397 2203 397 
Q 2534 397 2845 478 
Q 3156 559 3463 722 
L 3463 178 
Q 3153 47 2828 -22 
Q 2503 -91 2169 -91 
Q 1331 -91 842 396 
Q 353 884 353 1716 
Q 353 2575 817 3079 
Q 1281 3584 2069 3584 
Q 2775 3584 3186 3129 
Q 3597 2675 3597 1894 
z
M 3022 2063 
Q 3016 2534 2758 2815 
Q 2500 3097 2075 3097 
Q 1594 3097 1305 2825 
Q 1016 2553 972 2059 
L 3022 2063 
z
" transform="scale(0.015625)"/>
       <path id="DejaVuSans-64" d="M 2906 2969 
L 2906 4863 
L 3481 4863 
L 3481 0 
L 2906 0 
L 2906 525 
Q 2725 213 2448 61 
Q 2172 -91 1784 -91 
Q 1150 -91 751 415 
Q 353 922 353 1747 
Q 353 2572 751 3078 
Q 1150 3584 1784 3584 
Q 2172 3584 2448 3432 
Q 2725 3281 2906 2969 
z
M 947 1747 
Q 947 1113 1208 752 
Q 1469 391 1925 391 
Q 2381 391 2643 752 
Q 2906 1113 2906 1747 
Q 2906 2381 2643 2742 
Q 2381 3103 1925 3103 
Q 1469 3103 1208 2742 
Q 947 2381 947 1747 
z
" transform="scale(0.015625)"/>
       <path id="DejaVuSans-20" transform="scale(0.015625)"/>
       <path id="DejaVuSans-53" d="M 3425 4513 
L 3425 3897 
Q 3066 4069 2747 4153 
Q 2428 4238 2131 4238 
Q 1616 4238 1336 4038 
Q 1056 3838 1056 3469 
Q 1056 3159 1242 3001 
Q 1428 2844 1947 2747 
L 2328 2669 
Q 3034 2534 3370 2195 
Q 3706 1856 3706 1288 
Q 3706 609 3251 259 
Q 2797 -91 1919 -91 
Q 1588 -91 1214 -16 
Q 841 59 441 206 
L 441 856 
Q 825 641 1194 531 
Q 1563 422 1919 422 
Q 2459 422 2753 634 
Q 3047 847 3047 1241 
Q 3047 1584 2836 1778 
Q 2625 1972 2144 2069 
L 1759 2144 
Q 1053 2284 737 2584 
Q 422 2884 422 3419 
Q 422 4038 858 4394 
Q 1294 4750 2059 4750 
Q 2388 4750 2728 4690 
Q 3069 4631 3425 4513 
z
" transform="scale(0.015625)"/>
       <path id="DejaVuSans-68" d="M 3513 2113 
L 3513 0 
L 2938 0 
L 2938 2094 
Q 2938 2591 2744 2837 
Q 2550 3084 2163 3084 
Q 1697 3084 1428 2787 
Q 1159 2491 1159 1978 
L 1159 0 
L 581 0 
L 581 4863 
L 1159 4863 
L 1159 2956 
Q 1366 3272 1645 3428 
Q 1925 3584 2291 3584 
Q 2894 3584 3203 3211 
Q 3513 2838 3513 2113 
z
" transform="scale(0.015625)"/>
       <path id="DejaVuSans-61" d="M 2194 1759 
Q 1497 1759 1228 1600 
Q 959 1441 959 1056 
Q 959 750 1161 570 
Q 1363 391 1709 391 
Q 2188 391 2477 730 
Q 2766 1069 2766 1631 
L 2766 1759 
L 2194 1759 
z
M 3341 1997 
L 3341 0 
L 2766 0 
L 2766 531 
Q 2569 213 2275 61 
Q 1981 -91 1556 -91 
Q 1019 -91 701 211 
Q 384 513 384 1019 
Q 384 1609 779 1909 
Q 1175 2209 1959 2209 
L 2766 2209 
L 2766 2266 
Q 2766 2663 2505 2880 
Q 2244 3097 1772 3097 
Q 1472 3097 1187 3025 
Q 903 2953 641 2809 
L 641 3341 
Q 956 3463 1253 3523 
Q 1550 3584 1831 3584 
Q 2591 3584 2966 3190 
Q 3341 2797 3341 1997 
z
" transform="scale(0.015625)"/>
      </defs>
      <use xlink:href="#DejaVuSans-4f"/>
      <use xlink:href="#DejaVuSans-70" transform="translate(78.710938 0)"/>
      <use xlink:href="#DejaVuSans-74" transform="translate(142.1875 0)"/>
      <use xlink:href="#DejaVuSans-69" transform="translate(181.396484 0)"/>
      <use xlink:href="#DejaVuSans-6d" transform="translate(209.179688 0)"/>
      <use xlink:href="#DejaVuSans-69" transform="translate(306.591797 0)"/>
      <use xlink:href="#DejaVuSans-7a" transform="translate(334.375 0)"/>
      <use xlink:href="#DejaVuSans-65" transform="translate(386.865234 0)"/>
      <use xlink:href="#DejaVuSans-64" transform="translate(448.388672 0)"/>
      <use xlink:href="#DejaVuSans-20" transform="translate(511.865234 0)"/>
      <use xlink:href="#DejaVuSans-53" transform="translate(543.652344 0)"/>
      <use xlink:href="#DejaVuSans-68" transform="translate(607.128906 0)"/>
      <use xlink:href="#DejaVuSans-61" transform="translate(670.507812 0)"/>
      <use xlink:href="#DejaVuSans-70" transform="translate(731.787109 0)"/>
      <use xlink:href="#DejaVuSans-65" transform="translate(795.263672 0)"/>
     </g>
    </g>
    <g id="patch_11">
     <path d="M 327.31875 42.076563 
L 347.31875 42.076563 
L 347.31875 35.076563 
L 327.31875 35.076563 
z
" style="fill: #f69e5e; opacity: 0.36; stroke: #f69e5e; stroke-linejoin: miter"/>
    </g>
    <g id="text_20">
     <!-- Initial Shape -->
     <g transform="translate(355.31875 42.076563) scale(0.1 -0.1)">
      <defs>
       <path id="DejaVuSans-49" d="M 628 4666 
L 1259 4666 
L 1259 0 
L 628 0 
L 628 4666 
z
" transform="scale(0.015625)"/>
       <path id="DejaVuSans-6e" d="M 3513 2113 
L 3513 0 
L 2938 0 
L 2938 2094 
Q 2938 2591 2744 2837 
Q 2550 3084 2163 3084 
Q 1697 3084 1428 2787 
Q 1159 2491 1159 1978 
L 1159 0 
L 581 0 
L 581 3500 
L 1159 3500 
L 1159 2956 
Q 1366 3272 1645 3428 
Q 1925 3584 2291 3584 
Q 2894 3584 3203 3211 
Q 3513 2838 3513 2113 
z
" transform="scale(0.015625)"/>
       <path id="DejaVuSans-6c" d="M 603 4863 
L 1178 4863 
L 1178 0 
L 603 0 
L 603 4863 
z
" transform="scale(0.015625)"/>
      </defs>
      <use xlink:href="#DejaVuSans-49"/>
      <use xlink:href="#DejaVuSans-6e" transform="translate(29.492188 0)"/>
      <use xlink:href="#DejaVuSans-69" transform="translate(92.871094 0)"/>
      <use xlink:href="#DejaVuSans-74" transform="translate(120.654297 0)"/>
      <use xlink:href="#DejaVuSans-69" transform="translate(159.863281 0)"/>
      <use xlink:href="#DejaVuSans-61" transform="translate(187.646484 0)"/>
      <use xlink:href="#DejaVuSans-6c" transform="translate(248.925781 0)"/>
      <use xlink:href="#DejaVuSans-20" transform="translate(276.708984 0)"/>
      <use xlink:href="#DejaVuSans-53" transform="translate(308.496094 0)"/>
      <use xlink:href="#DejaVuSans-68" transform="translate(371.972656 0)"/>
      <use xlink:href="#DejaVuSans-61" transform="translate(435.351562 0)"/>
      <use xlink:href="#DejaVuSans-70" transform="translate(496.630859 0)"/>
      <use xlink:href="#DejaVuSans-65" transform="translate(560.107422 0)"/>
     </g>
    </g>
   </g>
  </g>
 </g>
 <defs>
  <clipPath id="p5ab27b26d7">
   <rect x="42.1" y="10.8" width="407.9" height="306.92"/>
  </clipPath>
 </defs>
</svg>
