<?xml version="1.0" encoding="utf-8" standalone="no"?>
<!DOCTYPE svg PUBLIC "-//W3C//DTD SVG 1.1//EN"
  "http://www.w3.org/Graphics/SVG/1.1/DTD/svg11.dtd">
<svg xmlns:xlink="http://www.w3.org/1999/xlink" width="460.8pt" height="345.6pt" viewBox="0 0 460.8 345.6" xmlns="http://www.w3.org/2000/svg" version="1.1">
 <metadata>
  <rdf:RDF xmlns:dc="http://purl.org/dc/elements/1.1/" xmlns:cc="http://creativecommons.org/ns#" xmlns:rdf="http://www.w3.org/1999/02/22-rdf-syntax-ns#">
   <cc:Work>
    <dc:type rdf:resource="http://purl.org/dc/dcmitype/StillImage"/>
    <dc:date>2025-06-09T16:29:20.917293</dc:date>
    <dc:format>image/svg+xml</dc:format>
    <dc:creator>
     <cc:Agent>
      <dc:title>Matplotlib v3.10.0, https://matplotlib.org/</dc:title>
     </cc:Agent>
    </dc:creator>
   </cc:Work>
  </rdf:RDF>
 </metadata>
 <defs>
  <style type="text/css">*{stroke-linejoin: round; stroke-linecap: butt}</style>
 </defs>
 <g id="figure_1">
  <g id="patch_1">
   <path d="M 0 345.6 
L 460.8 345.6 
L 460.8 0 
L 0 0 
z
" style="fill: #ffffff"/>
  </g>
  <g id="axes_1">
   <g id="patch_2">
    <path d="M 42.1 317.72 
L 450 317.72 
L 450 12.504156 
L 42.1 12.504156 
z
" style="fill: #ffffff"/>
   </g>
   <g id="patch_3">
    <path d="M 430.729318 162.87739 
L 430.273912 162.762543 
L 429.708949 162.650732 
L 429.034227 162.541541 
L 428.249558 162.43456 
L 427.354819 162.329324 
L 426.349866 162.225392 
L 425.234553 162.12229 
L 424.008803 162.019503 
L 422.672617 161.916541 
L 421.225881 161.812886 
L 419.668742 161.707984 
L 418.001233 161.601289 
L 416.223476 161.492256 
L 414.335749 161.38031 
L 412.338308 161.264871 
L 410.231644 161.145374 
L 408.01609 161.021236 
L 405.692302 160.891872 
L 403.260993 160.756738 
L 400.722943 160.615266 
L 398.079108 160.466907 
L 395.330501 160.311148 
L 392.478392 160.147491 
L 389.52406 159.975466 
L 386.469041 159.794631 
L 383.314949 159.6046 
L 380.063576 159.405022 
L 376.716904 159.195597 
L 373.276958 158.976086 
L 369.746075 158.746292 
L 366.126605 158.506098 
L 362.421128 158.255456 
L 358.632318 157.994392 
L 354.763001 157.722993 
L 350.816226 157.441428 
L 346.794999 157.149953 
L 342.702547 156.848904 
L 338.54225 156.538686 
L 334.31749 156.21979 
L 330.031735 155.89278 
L 325.688619 155.558308 
L 321.291792 155.217079 
L 316.8449 154.869874 
L 312.351722 154.517537 
L 307.81598 154.160965 
L 303.241516 153.801114 
L 298.632068 153.438979 
L 293.991447 153.075596 
L 289.323394 152.712021 
L 284.63163 152.34934 
L 279.919879 151.988661 
L 275.191766 151.631097 
L 270.450892 151.277748 
L 265.700818 150.929728 
L 260.945003 150.588129 
L 256.186812 150.254022 
L 251.429567 149.928461 
L 246.676606 149.612458 
L 241.931027 149.307012 
L 237.195932 149.013054 
L 232.474306 148.731497 
L 227.769165 148.463197 
L 223.083324 148.208959 
L 218.419562 147.969549 
L 213.780599 147.745673 
L 209.169081 147.537981 
L 204.587632 147.347085 
L 200.038729 147.173524 
L 195.524859 147.017801 
L 191.048505 146.880354 
L 186.611987 146.761586 
L 182.217664 146.661837 
L 177.867864 146.581396 
L 173.564851 146.520512 
L 169.310935 146.479395 
L 165.108236 146.458201 
L 160.959058 146.457051 
L 156.86556 146.476024 
L 152.829963 146.515179 
L 148.854383 146.574511 
L 144.9411 146.654013 
L 141.092151 146.753637 
L 137.309774 146.873297 
L 133.596006 147.012895 
L 129.953061 147.172324 
L 126.38301 147.351419 
L 122.887934 147.550032 
L 119.469938 147.767988 
L 116.131034 148.00509 
L 112.873284 148.261131 
L 109.69869 148.535898 
L 106.609166 148.829154 
L 103.60665 149.140682 
L 100.693033 149.470227 
L 97.870085 149.817546 
L 95.139599 150.182386 
L 92.5033 150.564494 
L 89.962812 150.963595 
L 87.519716 151.379417 
L 85.175493 151.811699 
L 82.931611 152.26016 
L 80.789418 152.724507 
L 78.750182 153.204469 
L 76.815095 153.699745 
L 74.98528 154.210006 
L 73.261751 154.73497 
L 71.645531 155.274295 
L 70.137411 155.82765 
L 68.738248 156.394692 
L 67.448776 156.975016 
L 66.269563 157.56827 
L 65.201243 158.174032 
L 64.244363 158.791866 
L 63.399311 159.421309 
L 62.666488 160.061863 
L 62.046228 160.713025 
L 61.538776 161.374232 
L 61.144365 162.044885 
L 60.863152 162.724359 
L 60.695337 163.411987 
L 60.640909 164.107047 
L 60.69999 164.80878 
L 60.872558 165.51638 
L 61.158579 166.228997 
L 61.558043 166.945735 
L 62.070826 167.665622 
L 62.696841 168.387677 
L 63.435963 169.110871 
L 64.287961 169.834077 
L 65.252711 170.556185 
L 66.329968 171.276021 
L 67.519488 171.992349 
L 68.820981 172.703927 
L 70.234158 173.409488 
L 71.758617 174.1077 
L 73.394037 174.797261 
L 75.139917 175.476795 
L 76.995866 176.144971 
L 78.96134 176.800441 
L 81.035714 177.441844 
L 83.218434 178.067859 
L 85.508763 178.67717 
L 87.905957 179.268501 
L 90.409191 179.840606 
L 93.017519 180.392288 
L 95.730007 180.922411 
L 98.545531 181.429887 
L 101.462898 181.913697 
L 104.480864 182.37292 
L 107.598002 182.806692 
L 110.812778 183.214228 
L 114.123666 183.594878 
L 117.528773 183.948013 
L 121.02632 184.273175 
L 124.614335 184.569983 
L 128.290527 184.83812 
L 132.05278 185.077425 
L 135.898467 185.287801 
L 139.825207 185.469263 
L 143.83025 185.621916 
L 147.910781 185.745978 
L 152.063749 185.841731 
L 156.286249 185.909549 
L 160.574804 185.949902 
L 164.92629 185.963323 
L 169.337186 185.950415 
L 173.803946 185.911845 
L 178.322947 185.848346 
L 182.890444 185.760694 
L 187.502591 185.649699 
L 192.155748 185.516242 
L 196.84568 185.361204 
L 201.568804 185.185507 
L 206.320795 184.990101 
L 211.097969 184.775922 
L 215.896196 184.543961 
L 220.711536 184.295161 
L 225.539931 184.03052 
L 230.377669 183.750983 
L 235.22073 183.457517 
L 240.065297 183.151075 
L 244.907584 182.832587 
L 249.743793 182.502972 
L 254.570535 182.16311 
L 259.383876 181.813909 
L 264.180615 181.456198 
L 268.957208 181.090816 
L 273.71034 180.71857 
L 278.436758 180.340239 
L 283.133333 179.95657 
L 287.796853 179.568313 
L 292.424627 179.176132 
L 297.013361 178.780734 
L 301.560511 178.382752 
L 306.06325 177.982807 
L 310.518885 177.58151 
L 314.924739 177.17944 
L 319.278507 176.777121 
L 323.577441 176.375114 
L 327.819331 175.973895 
L 332.001783 175.573972 
L 336.122523 175.175799 
L 340.179295 174.779816 
L 344.169874 174.38645 
L 348.092362 173.996087 
L 351.944372 173.609151 
L 355.724133 173.225991 
L 359.429598 172.846945 
L 363.058841 172.472362 
L 366.609926 172.102558 
L 370.081238 171.737813 
L 373.470751 171.378436 
L 376.776942 171.024674 
L 379.998095 170.67679 
L 383.132608 170.335 
L 386.178935 169.999534 
L 389.135571 169.670583 
L 392.001093 169.348346 
L 394.774275 169.032959 
L 397.453617 168.724602 
L 400.038037 168.423384 
L 402.526334 168.129429 
L 404.917417 167.842832 
L 407.210228 167.563672 
L 409.403833 167.292009 
L 411.497308 167.027902 
L 413.489873 166.771356 
L 415.380717 166.522388 
L 417.169159 166.280998 
L 418.8545 166.047146 
L 420.43617 165.820811 
L 421.91367 165.601908 
L 423.286421 165.390366 
L 424.553988 165.186102 
L 425.716004 164.988988 
L 426.772091 164.7989 
L 427.721859 164.615695 
L 428.564975 164.439205 
L 429.301193 164.269257 
L 429.930257 164.105637 
L 430.451822 163.948159 
L 430.865756 163.796567 
L 431.171734 163.650619 
L 431.36959 163.510047 
L 431.459091 163.374574 
L 431.440013 163.243893 
L 431.312168 163.117704 
L 431.075321 162.995652 
z
" clip-path="url(#p7c42770817)" style="fill: #c9c9f5; opacity: 0.46; stroke: #c9c9f5; stroke-linejoin: miter"/>
   </g>
   <g id="patch_4">
    <path d="M 431.096803 164.860371 
L 431.038635 164.678055 
L 430.865333 164.497672 
L 430.577007 164.318797 
L 430.173793 164.140966 
L 429.655889 163.963712 
L 429.023519 163.78654 
L 428.276906 163.608957 
L 427.416337 163.43044 
L 426.442127 163.250459 
L 425.354674 163.068484 
L 424.154313 162.883968 
L 422.841578 162.696343 
L 421.416937 162.505068 
L 419.880946 162.309574 
L 418.234251 162.10931 
L 416.477541 161.903712 
L 414.611575 161.692246 
L 412.63713 161.474368 
L 410.555209 161.249557 
L 408.366724 161.017316 
L 406.072855 160.777162 
L 403.674693 160.528642 
L 401.173551 160.271338 
L 398.570788 160.004865 
L 395.867872 159.728881 
L 393.066384 159.443095 
L 390.168017 159.147252 
L 387.174572 158.841161 
L 384.087875 158.524697 
L 380.910042 158.197774 
L 377.643053 157.860404 
L 374.289246 157.512642 
L 370.850802 157.154632 
L 367.330216 156.786575 
L 363.729979 156.408762 
L 360.052652 156.021552 
L 356.300861 155.625386 
L 352.477457 155.220773 
L 348.585178 154.8083 
L 344.626894 154.388624 
L 340.605583 153.962482 
L 336.524207 153.530662 
L 332.385764 153.094019 
L 328.193305 152.653462 
L 323.949913 152.209959 
L 319.658693 151.764523 
L 315.322722 151.318196 
L 310.945118 150.872072 
L 306.528907 150.427245 
L 302.077274 149.984866 
L 297.593206 149.546066 
L 293.079748 149.111994 
L 288.539938 148.683812 
L 283.976727 148.262655 
L 279.393091 147.84966 
L 274.791852 147.445938 
L 270.175926 147.052586 
L 265.54813 146.67066 
L 260.911254 146.301195 
L 256.267975 145.945177 
L 251.621023 145.603568 
L 246.973059 145.277271 
L 242.326705 144.967146 
L 237.684509 144.674007 
L 233.049039 144.398621 
L 228.422833 144.141698 
L 223.808417 143.903892 
L 219.208241 143.685822 
L 214.624725 143.48802 
L 210.060503 143.311018 
L 205.517833 143.155238 
L 200.99928 143.021092 
L 196.507301 142.908922 
L 192.044398 142.819033 
L 187.613022 142.751679 
L 183.2157 142.707055 
L 178.854936 142.685332 
L 174.533335 142.686626 
L 170.253385 142.711006 
L 166.01775 142.758533 
L 161.829087 142.82919 
L 157.689965 142.922965 
L 153.603168 143.039784 
L 149.571323 143.179556 
L 145.597155 143.34216 
L 141.683483 143.527449 
L 137.83292 143.735245 
L 134.048317 143.965369 
L 130.332389 144.21759 
L 126.687898 144.49169 
L 123.117646 144.787403 
L 119.624196 145.104479 
L 116.210306 145.442631 
L 112.878604 145.801568 
L 109.631673 146.180994 
L 106.472049 146.580588 
L 103.402182 147.000038 
L 100.424475 147.439003 
L 97.541245 147.897142 
L 94.754694 148.374124 
L 92.066961 148.869574 
L 89.48007 149.383141 
L 86.995891 149.914455 
L 84.616273 150.463134 
L 82.342884 151.028769 
L 80.177283 151.610987 
L 78.12094 152.209353 
L 76.175145 152.82345 
L 74.341079 153.452818 
L 72.61992 154.097009 
L 71.012516 154.75554 
L 69.5198 155.4279 
L 68.142464 156.113576 
L 66.88113 156.812006 
L 65.73631 157.522595 
L 64.708428 158.244756 
L 63.797772 158.977831 
L 63.004611 159.721141 
L 62.328988 160.473968 
L 61.771036 161.235563 
L 61.33069 162.005125 
L 61.00786 162.781817 
L 60.802391 163.564758 
L 60.714037 164.353035 
L 60.742531 165.145674 
L 60.887517 165.941652 
L 61.148595 166.739938 
L 61.525386 167.53944 
L 62.017311 168.339008 
L 62.623924 169.137473 
L 63.344649 169.933661 
L 64.178926 170.726294 
L 65.12609 171.514138 
L 66.185449 172.295908 
L 67.356359 173.070273 
L 68.638084 173.835953 
L 70.029846 174.591597 
L 71.530842 175.335885 
L 73.140295 176.067521 
L 74.857246 176.785174 
L 76.680872 177.487583 
L 78.610149 178.173483 
L 80.64412 178.841634 
L 82.781761 179.490874 
L 85.021936 180.120063 
L 87.363599 180.728122 
L 89.805504 181.31404 
L 92.346337 181.876844 
L 94.984918 182.415668 
L 97.719779 182.929708 
L 100.549427 183.418231 
L 103.472482 183.880605 
L 106.487209 184.316273 
L 109.592004 184.724764 
L 112.785152 185.105715 
L 116.064719 185.458814 
L 119.428899 185.783898 
L 122.87558 186.080822 
L 126.402733 186.349586 
L 130.008202 186.590245 
L 133.689691 186.802952 
L 137.444843 186.987906 
L 141.271353 187.145427 
L 145.166537 187.275855 
L 149.127916 187.379643 
L 153.152871 187.457261 
L 157.238672 187.509261 
L 161.382463 187.536236 
L 165.58145 187.538824 
L 169.832695 187.517699 
L 174.133432 187.473584 
L 178.480405 187.407211 
L 182.870915 187.319338 
L 187.301584 187.210767 
L 191.769613 187.082278 
L 196.271857 186.934693 
L 200.805208 186.768823 
L 205.366502 186.585495 
L 209.952815 186.385525 
L 214.561011 186.169734 
L 219.188014 185.938915 
L 223.830776 185.693891 
L 228.486181 185.435449 
L 233.151487 185.164355 
L 237.82339 184.881396 
L 242.499188 184.587306 
L 247.175841 184.282832 
L 251.850481 183.968673 
L 256.520218 183.645557 
L 261.182235 183.314152 
L 265.833597 182.97512 
L 270.471826 182.629096 
L 275.093745 182.27674 
L 279.696893 181.91864 
L 284.278453 181.555393 
L 288.835704 181.18758 
L 293.365858 180.81576 
L 297.866494 180.440459 
L 302.334556 180.062251 
L 306.767618 179.681596 
L 311.162953 179.29903 
L 315.517829 178.915021 
L 319.829591 178.530041 
L 324.095489 178.144563 
L 328.313092 177.759007 
L 332.479383 177.37383 
L 336.591892 176.989442 
L 340.647924 176.606244 
L 344.644769 176.224645 
L 348.579679 175.845023 
L 352.450277 175.467738 
L 356.253579 175.09318 
L 359.987226 174.721651 
L 363.648503 174.353513 
L 367.234938 173.98907 
L 370.743949 173.628628 
L 374.17311 173.272473 
L 377.519883 172.920889 
L 380.782152 172.574111 
L 383.957359 172.232401 
L 387.043432 171.895956 
L 390.03819 171.564999 
L 392.939585 171.239702 
L 395.745615 170.920229 
L 398.454363 170.606724 
L 401.064049 170.299322 
L 403.573027 169.998107 
L 405.979715 169.703167 
L 408.282555 169.414558 
L 410.480233 169.132321 
L 412.571371 168.856462 
L 414.554942 168.586964 
L 416.42968 168.323825 
L 418.194782 168.066953 
L 419.849224 167.81629 
L 421.392316 167.571724 
L 422.823302 167.333138 
L 424.141535 167.10038 
L 425.346549 166.873286 
L 426.43783 166.651652 
L 427.415024 166.435274 
L 428.277774 166.223906 
L 429.02579 166.017297 
L 429.658917 165.815164 
L 430.176954 165.617211 
L 430.579812 165.4231 
L 430.867425 165.23251 
L 431.039748 165.04506 
z
" clip-path="url(#p7c42770817)" style="fill: #f69e5e; opacity: 0.36; stroke: #f69e5e; stroke-linejoin: miter"/>
   </g>
   <g id="matplotlib.axis_1">
    <g id="xtick_1">
     <g id="line2d_1">
      <defs>
       <path id="mfbdfc304f5" d="M 0 0 
L 0 3.5 
" style="stroke: #000000; stroke-width: 0.8"/>
      </defs>
      <g>
       <use xlink:href="#mfbdfc304f5" x="60.640909" y="317.72" style="stroke: #000000; stroke-width: 0.8"/>
      </g>
     </g>
     <g id="text_1">
      <!-- −1.00 -->
      <g transform="translate(45.318253 332.318437) scale(0.1 -0.1)">
       <defs>
        <path id="DejaVuSans-2212" d="M 678 2272 
L 4684 2272 
L 4684 1741 
L 678 1741 
L 678 2272 
z
" transform="scale(0.015625)"/>
        <path id="DejaVuSans-31" d="M 794 531 
L 1825 531 
L 1825 4091 
L 703 3866 
L 703 4441 
L 1819 4666 
L 2450 4666 
L 2450 531 
L 3481 531 
L 3481 0 
L 794 0 
L 794 531 
z
" transform="scale(0.015625)"/>
        <path id="DejaVuSans-2e" d="M 684 794 
L 1344 794 
L 1344 0 
L 684 0 
L 684 794 
z
" transform="scale(0.015625)"/>
        <path id="DejaVuSans-30" d="M 2034 4250 
Q 1547 4250 1301 3770 
Q 1056 3291 1056 2328 
Q 1056 1369 1301 889 
Q 1547 409 2034 409 
Q 2525 409 2770 889 
Q 3016 1369 3016 2328 
Q 3016 3291 2770 3770 
Q 2525 4250 2034 4250 
z
M 2034 4750 
Q 2819 4750 3233 4129 
Q 3647 3509 3647 2328 
Q 3647 1150 3233 529 
Q 2819 -91 2034 -91 
Q 1250 -91 836 529 
Q 422 1150 422 2328 
Q 422 3509 836 4129 
Q 1250 4750 2034 4750 
z
" transform="scale(0.015625)"/>
       </defs>
       <use xlink:href="#DejaVuSans-2212"/>
       <use xlink:href="#DejaVuSans-31" transform="translate(83.789062 0)"/>
       <use xlink:href="#DejaVuSans-2e" transform="translate(147.412109 0)"/>
       <use xlink:href="#DejaVuSans-30" transform="translate(179.199219 0)"/>
       <use xlink:href="#DejaVuSans-30" transform="translate(242.822266 0)"/>
      </g>
     </g>
    </g>
    <g id="xtick_2">
     <g id="line2d_2">
      <g>
       <use xlink:href="#mfbdfc304f5" x="107.325738" y="317.72" style="stroke: #000000; stroke-width: 0.8"/>
      </g>
     </g>
     <g id="text_2">
      <!-- −0.75 -->
      <g transform="translate(92.003082 332.318437) scale(0.1 -0.1)">
       <defs>
        <path id="DejaVuSans-37" d="M 525 4666 
L 3525 4666 
L 3525 4397 
L 1831 0 
L 1172 0 
L 2766 4134 
L 525 4134 
L 525 4666 
z
" transform="scale(0.015625)"/>
        <path id="DejaVuSans-35" d="M 691 4666 
L 3169 4666 
L 3169 4134 
L 1269 4134 
L 1269 2991 
Q 1406 3038 1543 3061 
Q 1681 3084 1819 3084 
Q 2600 3084 3056 2656 
Q 3513 2228 3513 1497 
Q 3513 744 3044 326 
Q 2575 -91 1722 -91 
Q 1428 -91 1123 -41 
Q 819 9 494 109 
L 494 744 
Q 775 591 1075 516 
Q 1375 441 1709 441 
Q 2250 441 2565 725 
Q 2881 1009 2881 1497 
Q 2881 1984 2565 2268 
Q 2250 2553 1709 2553 
Q 1456 2553 1204 2497 
Q 953 2441 691 2322 
L 691 4666 
z
" transform="scale(0.015625)"/>
       </defs>
       <use xlink:href="#DejaVuSans-2212"/>
       <use xlink:href="#DejaVuSans-30" transform="translate(83.789062 0)"/>
       <use xlink:href="#DejaVuSans-2e" transform="translate(147.412109 0)"/>
       <use xlink:href="#DejaVuSans-37" transform="translate(179.199219 0)"/>
       <use xlink:href="#DejaVuSans-35" transform="translate(242.822266 0)"/>
      </g>
     </g>
    </g>
    <g id="xtick_3">
     <g id="line2d_3">
      <g>
       <use xlink:href="#mfbdfc304f5" x="154.010568" y="317.72" style="stroke: #000000; stroke-width: 0.8"/>
      </g>
     </g>
     <g id="text_3">
      <!-- −0.50 -->
      <g transform="translate(138.687912 332.318437) scale(0.1 -0.1)">
       <use xlink:href="#DejaVuSans-2212"/>
       <use xlink:href="#DejaVuSans-30" transform="translate(83.789062 0)"/>
       <use xlink:href="#DejaVuSans-2e" transform="translate(147.412109 0)"/>
       <use xlink:href="#DejaVuSans-35" transform="translate(179.199219 0)"/>
       <use xlink:href="#DejaVuSans-30" transform="translate(242.822266 0)"/>
      </g>
     </g>
    </g>
    <g id="xtick_4">
     <g id="line2d_4">
      <g>
       <use xlink:href="#mfbdfc304f5" x="200.695397" y="317.72" style="stroke: #000000; stroke-width: 0.8"/>
      </g>
     </g>
     <g id="text_4">
      <!-- −0.25 -->
      <g transform="translate(185.372741 332.318437) scale(0.1 -0.1)">
       <defs>
        <path id="DejaVuSans-32" d="M 1228 531 
L 3431 531 
L 3431 0 
L 469 0 
L 469 531 
Q 828 903 1448 1529 
Q 2069 2156 2228 2338 
Q 2531 2678 2651 2914 
Q 2772 3150 2772 3378 
Q 2772 3750 2511 3984 
Q 2250 4219 1831 4219 
Q 1534 4219 1204 4116 
Q 875 4013 500 3803 
L 500 4441 
Q 881 4594 1212 4672 
Q 1544 4750 1819 4750 
Q 2544 4750 2975 4387 
Q 3406 4025 3406 3419 
Q 3406 3131 3298 2873 
Q 3191 2616 2906 2266 
Q 2828 2175 2409 1742 
Q 1991 1309 1228 531 
z
" transform="scale(0.015625)"/>
       </defs>
       <use xlink:href="#DejaVuSans-2212"/>
       <use xlink:href="#DejaVuSans-30" transform="translate(83.789062 0)"/>
       <use xlink:href="#DejaVuSans-2e" transform="translate(147.412109 0)"/>
       <use xlink:href="#DejaVuSans-32" transform="translate(179.199219 0)"/>
       <use xlink:href="#DejaVuSans-35" transform="translate(242.822266 0)"/>
      </g>
     </g>
    </g>
    <g id="xtick_5">
     <g id="line2d_5">
      <g>
       <use xlink:href="#mfbdfc304f5" x="247.380226" y="317.72" style="stroke: #000000; stroke-width: 0.8"/>
      </g>
     </g>
     <g id="text_5">
      <!-- 0.00 -->
      <g transform="translate(236.247414 332.318437) scale(0.1 -0.1)">
       <use xlink:href="#DejaVuSans-30"/>
       <use xlink:href="#DejaVuSans-2e" transform="translate(63.623047 0)"/>
       <use xlink:href="#DejaVuSans-30" transform="translate(95.410156 0)"/>
       <use xlink:href="#DejaVuSans-30" transform="translate(159.033203 0)"/>
      </g>
     </g>
    </g>
    <g id="xtick_6">
     <g id="line2d_6">
      <g>
       <use xlink:href="#mfbdfc304f5" x="294.065056" y="317.72" style="stroke: #000000; stroke-width: 0.8"/>
      </g>
     </g>
     <g id="text_6">
      <!-- 0.25 -->
      <g transform="translate(282.932243 332.318437) scale(0.1 -0.1)">
       <use xlink:href="#DejaVuSans-30"/>
       <use xlink:href="#DejaVuSans-2e" transform="translate(63.623047 0)"/>
       <use xlink:href="#DejaVuSans-32" transform="translate(95.410156 0)"/>
       <use xlink:href="#DejaVuSans-35" transform="translate(159.033203 0)"/>
      </g>
     </g>
    </g>
    <g id="xtick_7">
     <g id="line2d_7">
      <g>
       <use xlink:href="#mfbdfc304f5" x="340.749885" y="317.72" style="stroke: #000000; stroke-width: 0.8"/>
      </g>
     </g>
     <g id="text_7">
      <!-- 0.50 -->
      <g transform="translate(329.617073 332.318437) scale(0.1 -0.1)">
       <use xlink:href="#DejaVuSans-30"/>
       <use xlink:href="#DejaVuSans-2e" transform="translate(63.623047 0)"/>
       <use xlink:href="#DejaVuSans-35" transform="translate(95.410156 0)"/>
       <use xlink:href="#DejaVuSans-30" transform="translate(159.033203 0)"/>
      </g>
     </g>
    </g>
    <g id="xtick_8">
     <g id="line2d_8">
      <g>
       <use xlink:href="#mfbdfc304f5" x="387.434714" y="317.72" style="stroke: #000000; stroke-width: 0.8"/>
      </g>
     </g>
     <g id="text_8">
      <!-- 0.75 -->
      <g transform="translate(376.301902 332.318437) scale(0.1 -0.1)">
       <use xlink:href="#DejaVuSans-30"/>
       <use xlink:href="#DejaVuSans-2e" transform="translate(63.623047 0)"/>
       <use xlink:href="#DejaVuSans-37" transform="translate(95.410156 0)"/>
       <use xlink:href="#DejaVuSans-35" transform="translate(159.033203 0)"/>
      </g>
     </g>
    </g>
    <g id="xtick_9">
     <g id="line2d_9">
      <g>
       <use xlink:href="#mfbdfc304f5" x="434.119544" y="317.72" style="stroke: #000000; stroke-width: 0.8"/>
      </g>
     </g>
     <g id="text_9">
      <!-- 1.00 -->
      <g transform="translate(422.986731 332.318437) scale(0.1 -0.1)">
       <use xlink:href="#DejaVuSans-31"/>
       <use xlink:href="#DejaVuSans-2e" transform="translate(63.623047 0)"/>
       <use xlink:href="#DejaVuSans-30" transform="translate(95.410156 0)"/>
       <use xlink:href="#DejaVuSans-30" transform="translate(159.033203 0)"/>
      </g>
     </g>
    </g>
   </g>
   <g id="matplotlib.axis_2">
    <g id="ytick_1">
     <g id="line2d_10">
      <defs>
       <path id="m1084d49a86" d="M 0 0 
L -3.5 0 
" style="stroke: #000000; stroke-width: 0.8"/>
      </defs>
      <g>
       <use xlink:href="#m1084d49a86" x="42.1" y="315.117445" style="stroke: #000000; stroke-width: 0.8"/>
      </g>
     </g>
     <g id="text_10">
      <!-- −0.8 -->
      <g transform="translate(10.817188 318.916663) scale(0.1 -0.1)">
       <defs>
        <path id="DejaVuSans-38" d="M 2034 2216 
Q 1584 2216 1326 1975 
Q 1069 1734 1069 1313 
Q 1069 891 1326 650 
Q 1584 409 2034 409 
Q 2484 409 2743 651 
Q 3003 894 3003 1313 
Q 3003 1734 2745 1975 
Q 2488 2216 2034 2216 
z
M 1403 2484 
Q 997 2584 770 2862 
Q 544 3141 544 3541 
Q 544 4100 942 4425 
Q 1341 4750 2034 4750 
Q 2731 4750 3128 4425 
Q 3525 4100 3525 3541 
Q 3525 3141 3298 2862 
Q 3072 2584 2669 2484 
Q 3125 2378 3379 2068 
Q 3634 1759 3634 1313 
Q 3634 634 3220 271 
Q 2806 -91 2034 -91 
Q 1263 -91 848 271 
Q 434 634 434 1313 
Q 434 1759 690 2068 
Q 947 2378 1403 2484 
z
M 1172 3481 
Q 1172 3119 1398 2916 
Q 1625 2713 2034 2713 
Q 2441 2713 2670 2916 
Q 2900 3119 2900 3481 
Q 2900 3844 2670 4047 
Q 2441 4250 2034 4250 
Q 1625 4250 1398 4047 
Q 1172 3844 1172 3481 
z
" transform="scale(0.015625)"/>
       </defs>
       <use xlink:href="#DejaVuSans-2212"/>
       <use xlink:href="#DejaVuSans-30" transform="translate(83.789062 0)"/>
       <use xlink:href="#DejaVuSans-2e" transform="translate(147.412109 0)"/>
       <use xlink:href="#DejaVuSans-38" transform="translate(179.199219 0)"/>
      </g>
     </g>
    </g>
    <g id="ytick_2">
     <g id="line2d_11">
      <g>
       <use xlink:href="#m1084d49a86" x="42.1" y="277.6142" style="stroke: #000000; stroke-width: 0.8"/>
      </g>
     </g>
     <g id="text_11">
      <!-- −0.6 -->
      <g transform="translate(10.817188 281.413418) scale(0.1 -0.1)">
       <defs>
        <path id="DejaVuSans-36" d="M 2113 2584 
Q 1688 2584 1439 2293 
Q 1191 2003 1191 1497 
Q 1191 994 1439 701 
Q 1688 409 2113 409 
Q 2538 409 2786 701 
Q 3034 994 3034 1497 
Q 3034 2003 2786 2293 
Q 2538 2584 2113 2584 
z
M 3366 4563 
L 3366 3988 
Q 3128 4100 2886 4159 
Q 2644 4219 2406 4219 
Q 1781 4219 1451 3797 
Q 1122 3375 1075 2522 
Q 1259 2794 1537 2939 
Q 1816 3084 2150 3084 
Q 2853 3084 3261 2657 
Q 3669 2231 3669 1497 
Q 3669 778 3244 343 
Q 2819 -91 2113 -91 
Q 1303 -91 875 529 
Q 447 1150 447 2328 
Q 447 3434 972 4092 
Q 1497 4750 2381 4750 
Q 2619 4750 2861 4703 
Q 3103 4656 3366 4563 
z
" transform="scale(0.015625)"/>
       </defs>
       <use xlink:href="#DejaVuSans-2212"/>
       <use xlink:href="#DejaVuSans-30" transform="translate(83.789062 0)"/>
       <use xlink:href="#DejaVuSans-2e" transform="translate(147.412109 0)"/>
       <use xlink:href="#DejaVuSans-36" transform="translate(179.199219 0)"/>
      </g>
     </g>
    </g>
    <g id="ytick_3">
     <g id="line2d_12">
      <g>
       <use xlink:href="#m1084d49a86" x="42.1" y="240.110955" style="stroke: #000000; stroke-width: 0.8"/>
      </g>
     </g>
     <g id="text_12">
      <!-- −0.4 -->
      <g transform="translate(10.817188 243.910174) scale(0.1 -0.1)">
       <defs>
        <path id="DejaVuSans-34" d="M 2419 4116 
L 825 1625 
L 2419 1625 
L 2419 4116 
z
M 2253 4666 
L 3047 4666 
L 3047 1625 
L 3713 1625 
L 3713 1100 
L 3047 1100 
L 3047 0 
L 2419 0 
L 2419 1100 
L 313 1100 
L 313 1709 
L 2253 4666 
z
" transform="scale(0.015625)"/>
       </defs>
       <use xlink:href="#DejaVuSans-2212"/>
       <use xlink:href="#DejaVuSans-30" transform="translate(83.789062 0)"/>
       <use xlink:href="#DejaVuSans-2e" transform="translate(147.412109 0)"/>
       <use xlink:href="#DejaVuSans-34" transform="translate(179.199219 0)"/>
      </g>
     </g>
    </g>
    <g id="ytick_4">
     <g id="line2d_13">
      <g>
       <use xlink:href="#m1084d49a86" x="42.1" y="202.60771" style="stroke: #000000; stroke-width: 0.8"/>
      </g>
     </g>
     <g id="text_13">
      <!-- −0.2 -->
      <g transform="translate(10.817188 206.406929) scale(0.1 -0.1)">
       <use xlink:href="#DejaVuSans-2212"/>
       <use xlink:href="#DejaVuSans-30" transform="translate(83.789062 0)"/>
       <use xlink:href="#DejaVuSans-2e" transform="translate(147.412109 0)"/>
       <use xlink:href="#DejaVuSans-32" transform="translate(179.199219 0)"/>
      </g>
     </g>
    </g>
    <g id="ytick_5">
     <g id="line2d_14">
      <g>
       <use xlink:href="#m1084d49a86" x="42.1" y="165.104465" style="stroke: #000000; stroke-width: 0.8"/>
      </g>
     </g>
     <g id="text_14">
      <!-- 0.0 -->
      <g transform="translate(19.196875 168.903684) scale(0.1 -0.1)">
       <use xlink:href="#DejaVuSans-30"/>
       <use xlink:href="#DejaVuSans-2e" transform="translate(63.623047 0)"/>
       <use xlink:href="#DejaVuSans-30" transform="translate(95.410156 0)"/>
      </g>
     </g>
    </g>
    <g id="ytick_6">
     <g id="line2d_15">
      <g>
       <use xlink:href="#m1084d49a86" x="42.1" y="127.60122" style="stroke: #000000; stroke-width: 0.8"/>
      </g>
     </g>
     <g id="text_15">
      <!-- 0.2 -->
      <g transform="translate(19.196875 131.400439) scale(0.1 -0.1)">
       <use xlink:href="#DejaVuSans-30"/>
       <use xlink:href="#DejaVuSans-2e" transform="translate(63.623047 0)"/>
       <use xlink:href="#DejaVuSans-32" transform="translate(95.410156 0)"/>
      </g>
     </g>
    </g>
    <g id="ytick_7">
     <g id="line2d_16">
      <g>
       <use xlink:href="#m1084d49a86" x="42.1" y="90.097975" style="stroke: #000000; stroke-width: 0.8"/>
      </g>
     </g>
     <g id="text_16">
      <!-- 0.4 -->
      <g transform="translate(19.196875 93.897194) scale(0.1 -0.1)">
       <use xlink:href="#DejaVuSans-30"/>
       <use xlink:href="#DejaVuSans-2e" transform="translate(63.623047 0)"/>
       <use xlink:href="#DejaVuSans-34" transform="translate(95.410156 0)"/>
      </g>
     </g>
    </g>
    <g id="ytick_8">
     <g id="line2d_17">
      <g>
       <use xlink:href="#m1084d49a86" x="42.1" y="52.59473" style="stroke: #000000; stroke-width: 0.8"/>
      </g>
     </g>
     <g id="text_17">
      <!-- 0.6 -->
      <g transform="translate(19.196875 56.393949) scale(0.1 -0.1)">
       <use xlink:href="#DejaVuSans-30"/>
       <use xlink:href="#DejaVuSans-2e" transform="translate(63.623047 0)"/>
       <use xlink:href="#DejaVuSans-36" transform="translate(95.410156 0)"/>
      </g>
     </g>
    </g>
    <g id="ytick_9">
     <g id="line2d_18">
      <g>
       <use xlink:href="#m1084d49a86" x="42.1" y="15.091485" style="stroke: #000000; stroke-width: 0.8"/>
      </g>
     </g>
     <g id="text_18">
      <!-- 0.8 -->
      <g transform="translate(19.196875 18.890704) scale(0.1 -0.1)">
       <use xlink:href="#DejaVuSans-30"/>
       <use xlink:href="#DejaVuSans-2e" transform="translate(63.623047 0)"/>
       <use xlink:href="#DejaVuSans-38" transform="translate(95.410156 0)"/>
      </g>
     </g>
    </g>
   </g>
   <g id="line2d_19">
    <path d="M 430.729318 162.87739 
L 429.034227 162.541541 
L 425.234553 162.12229 
L 418.001233 161.601289 
L 395.330501 160.311148 
L 369.746075 158.746292 
L 342.702547 156.848904 
L 303.241516 153.801114 
L 260.945003 150.588129 
L 237.195932 149.013054 
L 218.419562 147.969549 
L 200.038729 147.173524 
L 182.217664 146.661837 
L 169.310935 146.479395 
L 156.86556 146.476024 
L 144.9411 146.654013 
L 133.596006 147.012895 
L 122.887934 147.550032 
L 112.873284 148.261131 
L 103.60665 149.140682 
L 95.139599 150.182386 
L 87.519716 151.379417 
L 80.789418 152.724507 
L 76.815095 153.699745 
L 73.261751 154.73497 
L 70.137411 155.82765 
L 67.448776 156.975016 
L 65.201243 158.174032 
L 63.399311 159.421309 
L 62.046228 160.713025 
L 61.144365 162.044885 
L 60.695337 163.411987 
L 60.640909 164.107047 
L 60.69999 164.80878 
L 61.158579 166.228997 
L 62.070826 167.665622 
L 63.435963 169.110871 
L 65.252711 170.556185 
L 67.519488 171.992349 
L 70.234158 173.409488 
L 73.394037 174.797261 
L 76.995866 176.144971 
L 81.035714 177.441844 
L 85.508763 178.67717 
L 90.409191 179.840606 
L 95.730007 180.922411 
L 101.462898 181.913697 
L 107.598002 182.806692 
L 114.123666 183.594878 
L 121.02632 184.273175 
L 132.05278 185.077425 
L 143.83025 185.621916 
L 156.286249 185.909549 
L 169.337186 185.950415 
L 182.890444 185.760694 
L 196.84568 185.361204 
L 215.896196 184.543961 
L 235.22073 183.457517 
L 254.570535 182.16311 
L 278.436758 180.340239 
L 306.06325 177.982807 
L 336.122523 175.175799 
L 366.609926 172.102558 
L 394.774275 169.032959 
L 413.489873 166.771356 
L 423.286421 165.390366 
L 428.564975 164.439205 
L 430.865756 163.796567 
L 431.36959 163.510047 
L 431.440013 163.243893 
L 431.075321 162.995652 
L 430.729318 162.87739 
L 430.729318 162.87739 
" clip-path="url(#p7c42770817)" style="fill: none; stroke: #000000; stroke-width: 2; stroke-linecap: square"/>
   </g>
   <g id="line2d_20">
    <path d="M 431.096803 164.860371 
L 430.865333 164.497672 
L 430.173793 164.140966 
L 428.276906 163.608957 
L 425.354674 163.068484 
L 419.880946 162.309574 
L 408.366724 161.017316 
L 302.077274 149.984866 
L 279.393091 147.84966 
L 260.911254 146.301195 
L 242.326705 144.967146 
L 223.808417 143.903892 
L 210.060503 143.311018 
L 196.507301 142.908922 
L 183.2157 142.707055 
L 170.253385 142.711006 
L 157.689965 142.922965 
L 145.597155 143.34216 
L 134.048317 143.965369 
L 123.117646 144.787403 
L 112.878604 145.801568 
L 103.402182 147.000038 
L 94.754694 148.374124 
L 86.995891 149.914455 
L 82.342884 151.028769 
L 78.12094 152.209353 
L 74.341079 153.452818 
L 71.012516 154.75554 
L 68.142464 156.113576 
L 65.73631 157.522595 
L 63.797772 158.977831 
L 62.328988 160.473968 
L 61.33069 162.005125 
L 60.802391 163.564758 
L 60.714037 164.353035 
L 60.742531 165.145674 
L 60.887517 165.941652 
L 61.525386 167.53944 
L 62.623924 169.137473 
L 64.178926 170.726294 
L 66.185449 172.295908 
L 68.638084 173.835953 
L 71.530842 175.335885 
L 74.857246 176.785174 
L 78.610149 178.173483 
L 82.781761 179.490874 
L 87.363599 180.728122 
L 92.346337 181.876844 
L 97.719779 182.929708 
L 103.472482 183.880605 
L 109.592004 184.724764 
L 116.064719 185.458814 
L 126.402733 186.349586 
L 137.444843 186.987906 
L 149.127916 187.379643 
L 161.382463 187.536236 
L 174.133432 187.473584 
L 187.301584 187.210767 
L 205.366502 186.585495 
L 223.830776 185.693891 
L 242.499188 184.587306 
L 265.833597 182.97512 
L 293.365858 180.81576 
L 324.095489 178.144563 
L 352.450277 175.467738 
L 380.782152 172.574111 
L 401.064049 170.299322 
L 414.554942 168.586964 
L 422.823302 167.333138 
L 427.415024 166.435274 
L 429.658917 165.815164 
L 430.579812 165.4231 
L 431.039748 165.04506 
L 431.096803 164.860371 
L 431.096803 164.860371 
" clip-path="url(#p7c42770817)" style="fill: none; stroke-dasharray: 7.4,3.2; stroke-dashoffset: 0; stroke: #000000; stroke-width: 2"/>
   </g>
   <g id="patch_5">
    <path d="M 42.1 317.72 
L 42.1 12.504156 
" style="fill: none; stroke: #000000; stroke-width: 0.8; stroke-linejoin: miter; stroke-linecap: square"/>
   </g>
   <g id="patch_6">
    <path d="M 450 317.72 
L 450 12.504156 
" style="fill: none; stroke: #000000; stroke-width: 0.8; stroke-linejoin: miter; stroke-linecap: square"/>
   </g>
   <g id="patch_7">
    <path d="M 42.1 317.72 
L 450 317.72 
" style="fill: none; stroke: #000000; stroke-width: 0.8; stroke-linejoin: miter; stroke-linecap: square"/>
   </g>
   <g id="patch_8">
    <path d="M 42.1 12.504156 
L 450 12.504156 
" style="fill: none; stroke: #000000; stroke-width: 0.8; stroke-linejoin: miter; stroke-linecap: square"/>
   </g>
   <g id="legend_1">
    <g id="patch_9">
     <path d="M 325.31875 49.860406 
L 443 49.860406 
Q 445 49.860406 445 47.860406 
L 445 19.504156 
Q 445 17.504156 443 17.504156 
L 325.31875 17.504156 
Q 323.31875 17.504156 323.31875 19.504156 
L 323.31875 47.860406 
Q 323.31875 49.860406 325.31875 49.860406 
z
" style="fill: #ffffff; opacity: 0.8; stroke: #cccccc; stroke-linejoin: miter"/>
    </g>
    <g id="patch_10">
     <path d="M 327.31875 29.102593 
L 347.31875 29.102593 
L 347.31875 22.102593 
L 327.31875 22.102593 
z
" style="fill: #c9c9f5; opacity: 0.46; stroke: #c9c9f5; stroke-linejoin: miter"/>
    </g>
    <g id="text_19">
     <!-- Optimized Shape -->
     <g transform="translate(355.31875 29.102593) scale(0.1 -0.1)">
      <defs>
       <path id="DejaVuSans-4f" d="M 2522 4238 
Q 1834 4238 1429 3725 
Q 1025 3213 1025 2328 
Q 1025 1447 1429 934 
Q 1834 422 2522 422 
Q 3209 422 3611 934 
Q 4013 1447 4013 2328 
Q 4013 3213 3611 3725 
Q 3209 4238 2522 4238 
z
M 2522 4750 
Q 3503 4750 4090 4092 
Q 4678 3434 4678 2328 
Q 4678 1225 4090 567 
Q 3503 -91 2522 -91 
Q 1538 -91 948 565 
Q 359 1222 359 2328 
Q 359 3434 948 4092 
Q 1538 4750 2522 4750 
z
" transform="scale(0.015625)"/>
       <path id="DejaVuSans-70" d="M 1159 525 
L 1159 -1331 
L 581 -1331 
L 581 3500 
L 1159 3500 
L 1159 2969 
Q 1341 3281 1617 3432 
Q 1894 3584 2278 3584 
Q 2916 3584 3314 3078 
Q 3713 2572 3713 1747 
Q 3713 922 3314 415 
Q 2916 -91 2278 -91 
Q 1894 -91 1617 61 
Q 1341 213 1159 525 
z
M 3116 1747 
Q 3116 2381 2855 2742 
Q 2594 3103 2138 3103 
Q 1681 3103 1420 2742 
Q 1159 2381 1159 1747 
Q 1159 1113 1420 752 
Q 1681 391 2138 391 
Q 2594 391 2855 752 
Q 3116 1113 3116 1747 
z
" transform="scale(0.015625)"/>
       <path id="DejaVuSans-74" d="M 1172 4494 
L 1172 3500 
L 2356 3500 
L 2356 3053 
L 1172 3053 
L 1172 1153 
Q 1172 725 1289 603 
Q 1406 481 1766 481 
L 2356 481 
L 2356 0 
L 1766 0 
Q 1100 0 847 248 
Q 594 497 594 1153 
L 594 3053 
L 172 3053 
L 172 3500 
L 594 3500 
L 594 4494 
L 1172 4494 
z
" transform="scale(0.015625)"/>
       <path id="DejaVuSans-69" d="M 603 3500 
L 1178 3500 
L 1178 0 
L 603 0 
L 603 3500 
z
M 603 4863 
L 1178 4863 
L 1178 4134 
L 603 4134 
L 603 4863 
z
" transform="scale(0.015625)"/>
       <path id="DejaVuSans-6d" d="M 3328 2828 
Q 3544 3216 3844 3400 
Q 4144 3584 4550 3584 
Q 5097 3584 5394 3201 
Q 5691 2819 5691 2113 
L 5691 0 
L 5113 0 
L 5113 2094 
Q 5113 2597 4934 2840 
Q 4756 3084 4391 3084 
Q 3944 3084 3684 2787 
Q 3425 2491 3425 1978 
L 3425 0 
L 2847 0 
L 2847 2094 
Q 2847 2600 2669 2842 
Q 2491 3084 2119 3084 
Q 1678 3084 1418 2786 
Q 1159 2488 1159 1978 
L 1159 0 
L 581 0 
L 581 3500 
L 1159 3500 
L 1159 2956 
Q 1356 3278 1631 3431 
Q 1906 3584 2284 3584 
Q 2666 3584 2933 3390 
Q 3200 3197 3328 2828 
z
" transform="scale(0.015625)"/>
       <path id="DejaVuSans-7a" d="M 353 3500 
L 3084 3500 
L 3084 2975 
L 922 459 
L 3084 459 
L 3084 0 
L 275 0 
L 275 525 
L 2438 3041 
L 353 3041 
L 353 3500 
z
" transform="scale(0.015625)"/>
       <path id="DejaVuSans-65" d="M 3597 1894 
L 3597 1613 
L 953 1613 
Q 991 1019 1311 708 
Q 1631 397 2203 397 
Q 2534 397 2845 478 
Q 3156 559 3463 722 
L 3463 178 
Q 3153 47 2828 -22 
Q 2503 -91 2169 -91 
Q 1331 -91 842 396 
Q 353 884 353 1716 
Q 353 2575 817 3079 
Q 1281 3584 2069 3584 
Q 2775 3584 3186 3129 
Q 3597 2675 3597 1894 
z
M 3022 2063 
Q 3016 2534 2758 2815 
Q 2500 3097 2075 3097 
Q 1594 3097 1305 2825 
Q 1016 2553 972 2059 
L 3022 2063 
z
" transform="scale(0.015625)"/>
       <path id="DejaVuSans-64" d="M 2906 2969 
L 2906 4863 
L 3481 4863 
L 3481 0 
L 2906 0 
L 2906 525 
Q 2725 213 2448 61 
Q 2172 -91 1784 -91 
Q 1150 -91 751 415 
Q 353 922 353 1747 
Q 353 2572 751 3078 
Q 1150 3584 1784 3584 
Q 2172 3584 2448 3432 
Q 2725 3281 2906 2969 
z
M 947 1747 
Q 947 1113 1208 752 
Q 1469 391 1925 391 
Q 2381 391 2643 752 
Q 2906 1113 2906 1747 
Q 2906 2381 2643 2742 
Q 2381 3103 1925 3103 
Q 1469 3103 1208 2742 
Q 947 2381 947 1747 
z
" transform="scale(0.015625)"/>
       <path id="DejaVuSans-20" transform="scale(0.015625)"/>
       <path id="DejaVuSans-53" d="M 3425 4513 
L 3425 3897 
Q 3066 4069 2747 4153 
Q 2428 4238 2131 4238 
Q 1616 4238 1336 4038 
Q 1056 3838 1056 3469 
Q 1056 3159 1242 3001 
Q 1428 2844 1947 2747 
L 2328 2669 
Q 3034 2534 3370 2195 
Q 3706 1856 3706 1288 
Q 3706 609 3251 259 
Q 2797 -91 1919 -91 
Q 1588 -91 1214 -16 
Q 841 59 441 206 
L 441 856 
Q 825 641 1194 531 
Q 1563 422 1919 422 
Q 2459 422 2753 634 
Q 3047 847 3047 1241 
Q 3047 1584 2836 1778 
Q 2625 1972 2144 2069 
L 1759 2144 
Q 1053 2284 737 2584 
Q 422 2884 422 3419 
Q 422 4038 858 4394 
Q 1294 4750 2059 4750 
Q 2388 4750 2728 4690 
Q 3069 4631 3425 4513 
z
" transform="scale(0.015625)"/>
       <path id="DejaVuSans-68" d="M 3513 2113 
L 3513 0 
L 2938 0 
L 2938 2094 
Q 2938 2591 2744 2837 
Q 2550 3084 2163 3084 
Q 1697 3084 1428 2787 
Q 1159 2491 1159 1978 
L 1159 0 
L 581 0 
L 581 4863 
L 1159 4863 
L 1159 2956 
Q 1366 3272 1645 3428 
Q 1925 3584 2291 3584 
Q 2894 3584 3203 3211 
Q 3513 2838 3513 2113 
z
" transform="scale(0.015625)"/>
       <path id="DejaVuSans-61" d="M 2194 1759 
Q 1497 1759 1228 1600 
Q 959 1441 959 1056 
Q 959 750 1161 570 
Q 1363 391 1709 391 
Q 2188 391 2477 730 
Q 2766 1069 2766 1631 
L 2766 1759 
L 2194 1759 
z
M 3341 1997 
L 3341 0 
L 2766 0 
L 2766 531 
Q 2569 213 2275 61 
Q 1981 -91 1556 -91 
Q 1019 -91 701 211 
Q 384 513 384 1019 
Q 384 1609 779 1909 
Q 1175 2209 1959 2209 
L 2766 2209 
L 2766 2266 
Q 2766 2663 2505 2880 
Q 2244 3097 1772 3097 
Q 1472 3097 1187 3025 
Q 903 2953 641 2809 
L 641 3341 
Q 956 3463 1253 3523 
Q 1550 3584 1831 3584 
Q 2591 3584 2966 3190 
Q 3341 2797 3341 1997 
z
" transform="scale(0.015625)"/>
      </defs>
      <use xlink:href="#DejaVuSans-4f"/>
      <use xlink:href="#DejaVuSans-70" transform="translate(78.710938 0)"/>
      <use xlink:href="#DejaVuSans-74" transform="translate(142.1875 0)"/>
      <use xlink:href="#DejaVuSans-69" transform="translate(181.396484 0)"/>
      <use xlink:href="#DejaVuSans-6d" transform="translate(209.179688 0)"/>
      <use xlink:href="#DejaVuSans-69" transform="translate(306.591797 0)"/>
      <use xlink:href="#DejaVuSans-7a" transform="translate(334.375 0)"/>
      <use xlink:href="#DejaVuSans-65" transform="translate(386.865234 0)"/>
      <use xlink:href="#DejaVuSans-64" transform="translate(448.388672 0)"/>
      <use xlink:href="#DejaVuSans-20" transform="translate(511.865234 0)"/>
      <use xlink:href="#DejaVuSans-53" transform="translate(543.652344 0)"/>
      <use xlink:href="#DejaVuSans-68" transform="translate(607.128906 0)"/>
      <use xlink:href="#DejaVuSans-61" transform="translate(670.507812 0)"/>
      <use xlink:href="#DejaVuSans-70" transform="translate(731.787109 0)"/>
      <use xlink:href="#DejaVuSans-65" transform="translate(795.263672 0)"/>
     </g>
    </g>
    <g id="patch_11">
     <path d="M 327.31875 43.780718 
L 347.31875 43.780718 
L 347.31875 36.780718 
L 327.31875 36.780718 
z
" style="fill: #f69e5e; opacity: 0.36; stroke: #f69e5e; stroke-linejoin: miter"/>
    </g>
    <g id="text_20">
     <!-- Initial Shape -->
     <g transform="translate(355.31875 43.780718) scale(0.1 -0.1)">
      <defs>
       <path id="DejaVuSans-49" d="M 628 4666 
L 1259 4666 
L 1259 0 
L 628 0 
L 628 4666 
z
" transform="scale(0.015625)"/>
       <path id="DejaVuSans-6e" d="M 3513 2113 
L 3513 0 
L 2938 0 
L 2938 2094 
Q 2938 2591 2744 2837 
Q 2550 3084 2163 3084 
Q 1697 3084 1428 2787 
Q 1159 2491 1159 1978 
L 1159 0 
L 581 0 
L 581 3500 
L 1159 3500 
L 1159 2956 
Q 1366 3272 1645 3428 
Q 1925 3584 2291 3584 
Q 2894 3584 3203 3211 
Q 3513 2838 3513 2113 
z
" transform="scale(0.015625)"/>
       <path id="DejaVuSans-6c" d="M 603 4863 
L 1178 4863 
L 1178 0 
L 603 0 
L 603 4863 
z
" transform="scale(0.015625)"/>
      </defs>
      <use xlink:href="#DejaVuSans-49"/>
      <use xlink:href="#DejaVuSans-6e" transform="translate(29.492188 0)"/>
      <use xlink:href="#DejaVuSans-69" transform="translate(92.871094 0)"/>
      <use xlink:href="#DejaVuSans-74" transform="translate(120.654297 0)"/>
      <use xlink:href="#DejaVuSans-69" transform="translate(159.863281 0)"/>
      <use xlink:href="#DejaVuSans-61" transform="translate(187.646484 0)"/>
      <use xlink:href="#DejaVuSans-6c" transform="translate(248.925781 0)"/>
      <use xlink:href="#DejaVuSans-20" transform="translate(276.708984 0)"/>
      <use xlink:href="#DejaVuSans-53" transform="translate(308.496094 0)"/>
      <use xlink:href="#DejaVuSans-68" transform="translate(371.972656 0)"/>
      <use xlink:href="#DejaVuSans-61" transform="translate(435.351562 0)"/>
      <use xlink:href="#DejaVuSans-70" transform="translate(496.630859 0)"/>
      <use xlink:href="#DejaVuSans-65" transform="translate(560.107422 0)"/>
     </g>
    </g>
   </g>
  </g>
 </g>
 <defs>
  <clipPath id="p7c42770817">
   <rect x="42.1" y="12.504156" width="407.9" height="305.215844"/>
  </clipPath>
 </defs>
</svg>
