<?xml version="1.0" encoding="utf-8" standalone="no"?>
<!DOCTYPE svg PUBLIC "-//W3C//DTD SVG 1.1//EN"
  "http://www.w3.org/Graphics/SVG/1.1/DTD/svg11.dtd">
<svg xmlns:xlink="http://www.w3.org/1999/xlink" width="460.8pt" height="345.6pt" viewBox="0 0 460.8 345.6" xmlns="http://www.w3.org/2000/svg" version="1.1">
 <metadata>
  <rdf:RDF xmlns:dc="http://purl.org/dc/elements/1.1/" xmlns:cc="http://creativecommons.org/ns#" xmlns:rdf="http://www.w3.org/1999/02/22-rdf-syntax-ns#">
   <cc:Work>
    <dc:type rdf:resource="http://purl.org/dc/dcmitype/StillImage"/>
    <dc:date>2025-06-01T22:22:04.236997</dc:date>
    <dc:format>image/svg+xml</dc:format>
    <dc:creator>
     <cc:Agent>
      <dc:title>Matplotlib v3.10.0, https://matplotlib.org/</dc:title>
     </cc:Agent>
    </dc:creator>
   </cc:Work>
  </rdf:RDF>
 </metadata>
 <defs>
  <style type="text/css">*{stroke-linejoin: round; stroke-linecap: butt}</style>
 </defs>
 <g id="figure_1">
  <g id="patch_1">
   <path d="M 0 345.6 
L 460.8 345.6 
L 460.8 0 
L 0 0 
z
" style="fill: #ffffff"/>
  </g>
  <g id="axes_1">
   <g id="patch_2">
    <path d="M 42.1 317.72 
L 450 317.72 
L 450 10.8 
L 42.1 10.8 
z
" style="fill: #ffffff"/>
   </g>
   <g id="patch_3">
    <path d="M 433.269992 174.968862 
L 433.216211 174.768263 
L 433.049204 174.565513 
L 432.768758 174.359978 
L 432.37457 174.151021 
L 431.866562 173.937965 
L 431.244541 173.720094 
L 430.508306 173.496698 
L 429.657779 173.267007 
L 428.692836 173.030245 
L 427.61342 172.785617 
L 426.41952 172.532309 
L 425.111103 172.269475 
L 423.688281 171.99629 
L 422.151189 171.711887 
L 420.49995 171.415426 
L 418.734913 171.106048 
L 416.856347 170.78293 
L 414.864758 170.445232 
L 412.760629 170.092164 
L 410.544622 169.722959 
L 408.217469 169.336878 
L 405.780101 168.933255 
L 403.233474 168.511455 
L 400.578745 168.070925 
L 397.817194 167.611188 
L 394.950294 167.131842 
L 391.979616 166.632578 
L 388.906847 166.113207 
L 385.733975 165.573633 
L 382.463034 165.013872 
L 379.096225 164.434079 
L 375.635919 163.834532 
L 372.084667 163.21564 
L 368.445176 162.57794 
L 364.720209 161.922127 
L 360.912756 161.248996 
L 357.025906 160.559507 
L 353.062906 159.854729 
L 349.027002 159.135869 
L 344.921667 158.404226 
L 340.750377 157.661238 
L 336.516722 156.908423 
L 332.224326 156.147387 
L 327.876856 155.379803 
L 323.47802 154.607415 
L 319.031542 153.83202 
L 314.541193 153.055432 
L 310.010661 152.279505 
L 305.443639 151.506074 
L 300.843838 150.736995 
L 296.2149 149.974081 
L 291.56031 149.219125 
L 286.883674 148.473873 
L 282.18849 147.740025 
L 277.477997 147.019193 
L 272.755588 146.31295 
L 268.024516 145.622777 
L 263.287834 144.950062 
L 258.548652 144.296132 
L 253.809914 143.662177 
L 249.074576 143.049365 
L 244.345361 142.45869 
L 239.625034 141.891116 
L 234.916244 141.347479 
L 230.221567 140.828536 
L 225.543494 140.33495 
L 220.884549 139.867311 
L 216.24705 139.4261 
L 211.633378 139.011756 
L 207.045885 138.624613 
L 202.4868 138.264944 
L 197.958339 137.932961 
L 193.462759 137.628815 
L 189.002271 137.352597 
L 184.579067 137.104353 
L 180.195353 136.884076 
L 175.853265 136.691718 
L 171.555043 136.527194 
L 167.302811 136.390381 
L 163.098816 136.281147 
L 158.945435 136.199328 
L 154.844695 136.144696 
L 150.799017 136.11708 
L 146.81057 136.116227 
L 142.881746 136.141929 
L 139.014894 136.193936 
L 135.212238 136.271987 
L 131.476217 136.375846 
L 127.809211 136.505269 
L 124.213547 136.660002 
L 120.691652 136.839797 
L 117.245839 137.04444 
L 113.878513 137.273683 
L 110.592045 137.527331 
L 107.388626 137.80515 
L 104.270726 138.106976 
L 101.24047 138.432605 
L 98.300127 138.781882 
L 95.451865 139.154636 
L 92.697763 139.550745 
L 90.039809 139.97006 
L 87.480049 140.412471 
L 85.020312 140.877871 
L 82.662387 141.36618 
L 80.408058 141.877283 
L 78.258843 142.41113 
L 76.216371 142.96762 
L 74.282035 143.546688 
L 72.457082 144.148252 
L 70.742928 144.772236 
L 69.140572 145.418555 
L 67.65097 146.087089 
L 66.275267 146.777738 
L 65.014183 147.490353 
L 63.868481 148.224743 
L 62.83879 148.98074 
L 61.92573 149.758094 
L 61.129759 150.556504 
L 60.451272 151.375662 
L 59.890583 152.215168 
L 59.447984 153.074584 
L 59.123621 153.953385 
L 58.917618 154.850969 
L 58.830008 155.766687 
L 58.860758 156.69979 
L 59.00989 157.649405 
L 59.277157 158.61463 
L 59.662402 159.59444 
L 60.165422 160.587675 
L 60.785915 161.593111 
L 61.523475 162.609431 
L 62.377822 163.63518 
L 63.348428 164.668835 
L 64.434877 165.708774 
L 65.636495 166.75322 
L 66.95281 167.800406 
L 68.383126 168.848386 
L 69.926768 169.895212 
L 71.583007 170.938852 
L 73.351021 171.977183 
L 75.229992 173.008099 
L 77.219008 174.029441 
L 79.31707 175.039004 
L 81.523257 176.034653 
L 83.836389 177.014211 
L 86.255466 177.975588 
L 88.779163 178.916689 
L 91.4063 179.835519 
L 94.135561 180.73016 
L 96.965521 181.598806 
L 99.894641 182.439705 
L 102.921594 183.25131 
L 106.044504 184.032122 
L 109.261788 184.780853 
L 112.571714 185.49635 
L 115.972228 186.177575 
L 119.46152 186.823719 
L 123.037354 187.434077 
L 126.69763 188.008139 
L 130.4401 188.545564 
L 134.262293 189.046141 
L 138.161715 189.509824 
L 142.135894 189.936747 
L 146.181875 190.327128 
L 150.297053 190.681364 
L 154.478414 190.999964 
L 158.722962 191.283536 
L 163.027531 191.532796 
L 167.388938 191.748562 
L 171.803812 191.931722 
L 176.269012 192.08325 
L 180.780787 192.204171 
L 185.335962 192.295553 
L 189.930634 192.358514 
L 194.561493 192.394196 
L 199.224833 192.403773 
L 203.916998 192.388424 
L 208.634239 192.349338 
L 213.373089 192.287711 
L 218.129838 192.204708 
L 222.900866 192.101518 
L 227.682554 191.979285 
L 232.471285 191.839141 
L 237.2638 191.682189 
L 242.056276 191.509534 
L 246.845608 191.322198 
L 251.628321 191.121214 
L 256.401154 190.907568 
L 261.160901 190.682207 
L 265.904411 190.446052 
L 270.628534 190.199994 
L 275.330546 189.94485 
L 280.007123 189.681468 
L 284.655714 189.4106 
L 289.273456 189.132994 
L 293.857595 188.849359 
L 298.405375 188.560383 
L 302.914482 188.26669 
L 307.382019 187.968913 
L 311.805729 187.667629 
L 316.183101 187.363408 
L 320.511752 187.056768 
L 324.789302 186.748222 
L 329.013368 186.438258 
L 333.181894 186.127318 
L 337.292319 185.815858 
L 341.342631 185.504279 
L 345.330618 185.192976 
L 349.254071 184.882331 
L 353.110744 184.572695 
L 356.898783 184.264387 
L 360.615818 183.957761 
L 364.259949 183.653082 
L 367.829132 183.350645 
L 371.321278 183.050731 
L 374.734498 182.753559 
L 378.066793 182.459377 
L 381.316197 182.168403 
L 384.481092 181.880811 
L 387.559389 181.596803 
L 390.549458 181.316525 
L 393.449591 181.040118 
L 396.258093 180.767708 
L 398.973367 180.499391 
L 401.59392 180.235252 
L 404.118201 179.975362 
L 406.544917 179.71975 
L 408.872722 179.468438 
L 411.100278 179.221431 
L 413.226484 178.978703 
L 415.250149 178.740211 
L 417.170351 178.505866 
L 418.986013 178.27559 
L 420.696291 178.049266 
L 422.300355 177.826751 
L 423.797439 177.607868 
L 425.186826 177.39243 
L 426.46783 177.180214 
L 427.639912 176.970984 
L 428.702576 176.764453 
L 429.655206 176.56034 
L 430.497431 176.358299 
L 431.228846 176.15799 
L 431.84899 175.95902 
L 432.357583 175.76098 
L 432.754299 175.563424 
L 433.038778 175.365901 
L 433.210762 175.167885 
L 433.269992 174.968857 
z
" clip-path="url(#p183eafc1d5)" style="fill: #c9c9f5; opacity: 0.46; stroke: #c9c9f5; stroke-linejoin: miter"/>
   </g>
   <g id="patch_4">
    <path d="M 432.75977 166.602129 
L 432.701057 166.418866 
L 432.526129 166.237545 
L 432.2351 166.057742 
L 431.828104 165.878986 
L 431.305344 165.700812 
L 430.667044 165.522719 
L 429.91343 165.344213 
L 429.044792 165.164769 
L 428.061445 164.983854 
L 426.963795 164.800933 
L 425.752178 164.615458 
L 424.427133 164.426858 
L 422.989133 164.234589 
L 421.438739 164.03808 
L 419.776602 163.836776 
L 418.003419 163.630109 
L 416.119955 163.417545 
L 414.126995 163.198535 
L 412.025551 162.972556 
L 409.816544 162.739108 
L 407.501165 162.497707 
L 405.080515 162.247896 
L 402.55592 161.989254 
L 399.928749 161.721397 
L 397.200488 161.44398 
L 394.37273 161.156709 
L 391.447183 160.859329 
L 388.425668 160.551647 
L 385.310026 160.233539 
L 382.102394 159.904918 
L 378.804769 159.565796 
L 375.419513 159.216227 
L 371.948826 158.856356 
L 368.395225 158.486388 
L 364.761228 158.106612 
L 361.049418 157.71739 
L 357.262446 157.319166 
L 353.403189 156.912451 
L 349.47441 156.497835 
L 345.479008 156.075979 
L 341.419989 155.647623 
L 337.30034 155.213559 
L 333.12309 154.774648 
L 328.891317 154.331802 
L 324.608134 153.885995 
L 320.276673 153.438245 
L 315.900043 152.989599 
L 311.481389 152.541157 
L 307.023766 152.094019 
L 302.530388 151.649342 
L 298.004272 151.208262 
L 293.44849 150.771935 
L 288.86611 150.341529 
L 284.260108 149.918183 
L 279.63349 149.503042 
L 274.989104 149.097224 
L 270.329893 148.701828 
L 265.658701 148.317917 
L 260.978343 147.946533 
L 256.291523 147.588665 
L 251.600995 147.245282 
L 246.909446 146.91729 
L 242.219522 146.605554 
L 237.533795 146.310891 
L 232.854857 146.034075 
L 228.18527 145.775816 
L 223.527583 145.536776 
L 218.88427 145.317573 
L 214.257773 145.118743 
L 209.650751 144.940822 
L 205.065483 144.784232 
L 200.504558 144.649389 
L 195.970457 144.536636 
L 191.465704 144.446281 
L 186.992774 144.378576 
L 182.554217 144.333721 
L 178.152561 144.311885 
L 173.790435 144.313185 
L 169.47035 144.337692 
L 165.194997 144.385466 
L 160.967055 144.45649 
L 156.78912 144.550753 
L 152.664 144.668178 
L 148.594347 144.808677 
L 144.582913 144.972125 
L 140.63254 145.158377 
L 136.74587 145.367252 
L 132.925778 145.598572 
L 129.175005 145.852103 
L 125.496337 146.127628 
L 121.892607 146.424877 
L 118.366397 146.7436 
L 114.920495 147.083509 
L 111.557551 147.444311 
L 108.280172 147.825708 
L 105.090919 148.227378 
L 101.992265 148.649007 
L 98.986636 149.090252 
L 96.076369 149.550771 
L 93.263688 150.030232 
L 90.55075 150.528256 
L 87.939601 151.044491 
L 85.432128 151.578565 
L 83.030195 152.130095 
L 80.735488 152.698668 
L 78.54958 153.283911 
L 76.473954 153.885386 
L 74.509913 154.502673 
L 72.658648 155.135311 
L 70.921349 155.782849 
L 69.298872 156.444801 
L 67.792159 157.120653 
L 66.401907 157.809892 
L 65.128745 158.51195 
L 63.97319 159.226232 
L 62.935669 159.952144 
L 62.016474 160.689028 
L 61.215875 161.436199 
L 60.533916 162.192938 
L 59.970733 162.95849 
L 59.526257 163.732049 
L 59.2004 164.512777 
L 58.993004 165.299785 
L 58.903821 166.092157 
L 58.932583 166.888914 
L 59.078928 167.689028 
L 59.342454 168.491461 
L 59.722778 169.295116 
L 60.219316 170.098839 
L 60.831619 170.901452 
L 61.559101 171.701776 
L 62.401202 172.498528 
L 63.357248 173.290465 
L 64.426541 174.076296 
L 65.60843 174.854684 
L 66.902175 175.624342 
L 68.306987 176.383912 
L 69.822059 177.132066 
L 71.446604 177.867503 
L 73.179655 178.588885 
L 75.020382 179.294943 
L 76.96775 179.984406 
L 79.020794 180.656029 
L 81.17848 181.308642 
L 83.439662 181.9411 
L 85.803284 182.552318 
L 88.268087 183.14128 
L 90.832746 183.707008 
L 93.49607 184.248631 
L 96.256576 184.765341 
L 99.112759 185.256402 
L 102.063225 185.721179 
L 105.106221 186.15911 
L 108.24013 186.569723 
L 111.463222 186.952654 
L 114.773542 187.307587 
L 118.16927 187.63436 
L 121.64827 187.932826 
L 125.208499 188.202986 
L 128.847777 188.444896 
L 132.563789 188.658708 
L 136.354154 188.844623 
L 140.216546 189.002962 
L 144.148257 189.134068 
L 148.146782 189.238395 
L 152.209481 189.316416 
L 156.333595 189.368686 
L 160.516243 189.395802 
L 164.754606 189.398403 
L 169.045716 189.377169 
L 173.386782 189.332825 
L 177.774518 189.266106 
L 182.206199 189.177777 
L 186.678416 189.068641 
L 191.188342 188.939485 
L 195.732805 188.791134 
L 200.308667 188.624402 
L 204.912733 188.440122 
L 209.542053 188.239112 
L 214.193461 188.0222 
L 218.863853 187.790182 
L 223.550151 187.543885 
L 228.249212 187.2841 
L 232.958266 187.011598 
L 237.673978 186.727169 
L 242.393623 186.431551 
L 247.114129 186.125495 
L 251.832605 185.809705 
L 256.546131 185.484909 
L 261.251865 185.151783 
L 265.946845 184.810989 
L 270.628567 184.463167 
L 275.293828 184.108981 
L 279.940141 183.749021 
L 284.564664 183.383886 
L 289.164649 183.014162 
L 293.737284 182.640411 
L 298.280123 182.26316 
L 302.790083 181.882987 
L 307.264716 181.500355 
L 311.701267 181.115801 
L 316.09698 180.729797 
L 320.449174 180.342817 
L 324.755075 179.955336 
L 329.012227 179.567777 
L 333.217587 179.1806 
L 337.36866 178.794214 
L 341.462726 178.409026 
L 345.497052 178.025443 
L 349.46886 177.64385 
L 353.375753 177.264604 
L 357.21472 176.8881 
L 360.983379 176.514641 
L 364.678989 176.144591 
L 368.299055 175.778255 
L 371.840971 175.41594 
L 375.302288 175.057934 
L 378.680444 174.704524 
L 381.973304 174.355944 
L 385.178286 174.012459 
L 388.293298 173.674266 
L 391.316139 173.341589 
L 394.244742 173.014603 
L 397.077083 172.69347 
L 399.811232 172.378337 
L 402.445391 172.069337 
L 404.977895 171.766557 
L 407.407151 171.470084 
L 409.731586 171.179977 
L 411.949873 170.896273 
L 414.060619 170.618981 
L 416.062792 170.348083 
L 417.955109 170.083576 
L 419.736763 169.82537 
L 421.406719 169.573405 
L 422.964281 169.327568 
L 424.408686 169.087742 
L 425.73928 168.853776 
L 426.955594 168.625502 
L 428.057109 168.402717 
L 429.043466 168.185215 
L 429.914306 167.972748 
L 430.669336 167.765066 
L 431.3084 167.561882 
L 431.831295 167.362901 
L 432.237931 167.167782 
L 432.528241 166.976201 
L 432.70218 166.787778 
z
" clip-path="url(#p183eafc1d5)" style="fill: #f69e5e; opacity: 0.36; stroke: #f69e5e; stroke-linejoin: miter"/>
   </g>
   <g id="matplotlib.axis_1">
    <g id="xtick_1">
     <g id="line2d_1">
      <defs>
       <path id="m3df32a9efe" d="M 0 0 
L 0 3.5 
" style="stroke: #000000; stroke-width: 0.8"/>
      </defs>
      <g>
       <use xlink:href="#m3df32a9efe" x="58.830008" y="317.72" style="stroke: #000000; stroke-width: 0.8"/>
      </g>
     </g>
     <g id="text_1">
      <!-- −1.00 -->
      <g transform="translate(43.507352 332.318437) scale(0.1 -0.1)">
       <defs>
        <path id="DejaVuSans-2212" d="M 678 2272 
L 4684 2272 
L 4684 1741 
L 678 1741 
L 678 2272 
z
" transform="scale(0.015625)"/>
        <path id="DejaVuSans-31" d="M 794 531 
L 1825 531 
L 1825 4091 
L 703 3866 
L 703 4441 
L 1819 4666 
L 2450 4666 
L 2450 531 
L 3481 531 
L 3481 0 
L 794 0 
L 794 531 
z
" transform="scale(0.015625)"/>
        <path id="DejaVuSans-2e" d="M 684 794 
L 1344 794 
L 1344 0 
L 684 0 
L 684 794 
z
" transform="scale(0.015625)"/>
        <path id="DejaVuSans-30" d="M 2034 4250 
Q 1547 4250 1301 3770 
Q 1056 3291 1056 2328 
Q 1056 1369 1301 889 
Q 1547 409 2034 409 
Q 2525 409 2770 889 
Q 3016 1369 3016 2328 
Q 3016 3291 2770 3770 
Q 2525 4250 2034 4250 
z
M 2034 4750 
Q 2819 4750 3233 4129 
Q 3647 3509 3647 2328 
Q 3647 1150 3233 529 
Q 2819 -91 2034 -91 
Q 1250 -91 836 529 
Q 422 1150 422 2328 
Q 422 3509 836 4129 
Q 1250 4750 2034 4750 
z
" transform="scale(0.015625)"/>
       </defs>
       <use xlink:href="#DejaVuSans-2212"/>
       <use xlink:href="#DejaVuSans-31" transform="translate(83.789062 0)"/>
       <use xlink:href="#DejaVuSans-2e" transform="translate(147.412109 0)"/>
       <use xlink:href="#DejaVuSans-30" transform="translate(179.199219 0)"/>
       <use xlink:href="#DejaVuSans-30" transform="translate(242.822266 0)"/>
      </g>
     </g>
    </g>
    <g id="xtick_2">
     <g id="line2d_2">
      <g>
       <use xlink:href="#m3df32a9efe" x="105.952614" y="317.72" style="stroke: #000000; stroke-width: 0.8"/>
      </g>
     </g>
     <g id="text_2">
      <!-- −0.75 -->
      <g transform="translate(90.629958 332.318437) scale(0.1 -0.1)">
       <defs>
        <path id="DejaVuSans-37" d="M 525 4666 
L 3525 4666 
L 3525 4397 
L 1831 0 
L 1172 0 
L 2766 4134 
L 525 4134 
L 525 4666 
z
" transform="scale(0.015625)"/>
        <path id="DejaVuSans-35" d="M 691 4666 
L 3169 4666 
L 3169 4134 
L 1269 4134 
L 1269 2991 
Q 1406 3038 1543 3061 
Q 1681 3084 1819 3084 
Q 2600 3084 3056 2656 
Q 3513 2228 3513 1497 
Q 3513 744 3044 326 
Q 2575 -91 1722 -91 
Q 1428 -91 1123 -41 
Q 819 9 494 109 
L 494 744 
Q 775 591 1075 516 
Q 1375 441 1709 441 
Q 2250 441 2565 725 
Q 2881 1009 2881 1497 
Q 2881 1984 2565 2268 
Q 2250 2553 1709 2553 
Q 1456 2553 1204 2497 
Q 953 2441 691 2322 
L 691 4666 
z
" transform="scale(0.015625)"/>
       </defs>
       <use xlink:href="#DejaVuSans-2212"/>
       <use xlink:href="#DejaVuSans-30" transform="translate(83.789062 0)"/>
       <use xlink:href="#DejaVuSans-2e" transform="translate(147.412109 0)"/>
       <use xlink:href="#DejaVuSans-37" transform="translate(179.199219 0)"/>
       <use xlink:href="#DejaVuSans-35" transform="translate(242.822266 0)"/>
      </g>
     </g>
    </g>
    <g id="xtick_3">
     <g id="line2d_3">
      <g>
       <use xlink:href="#m3df32a9efe" x="153.07522" y="317.72" style="stroke: #000000; stroke-width: 0.8"/>
      </g>
     </g>
     <g id="text_3">
      <!-- −0.50 -->
      <g transform="translate(137.752564 332.318437) scale(0.1 -0.1)">
       <use xlink:href="#DejaVuSans-2212"/>
       <use xlink:href="#DejaVuSans-30" transform="translate(83.789062 0)"/>
       <use xlink:href="#DejaVuSans-2e" transform="translate(147.412109 0)"/>
       <use xlink:href="#DejaVuSans-35" transform="translate(179.199219 0)"/>
       <use xlink:href="#DejaVuSans-30" transform="translate(242.822266 0)"/>
      </g>
     </g>
    </g>
    <g id="xtick_4">
     <g id="line2d_4">
      <g>
       <use xlink:href="#m3df32a9efe" x="200.197826" y="317.72" style="stroke: #000000; stroke-width: 0.8"/>
      </g>
     </g>
     <g id="text_4">
      <!-- −0.25 -->
      <g transform="translate(184.87517 332.318437) scale(0.1 -0.1)">
       <defs>
        <path id="DejaVuSans-32" d="M 1228 531 
L 3431 531 
L 3431 0 
L 469 0 
L 469 531 
Q 828 903 1448 1529 
Q 2069 2156 2228 2338 
Q 2531 2678 2651 2914 
Q 2772 3150 2772 3378 
Q 2772 3750 2511 3984 
Q 2250 4219 1831 4219 
Q 1534 4219 1204 4116 
Q 875 4013 500 3803 
L 500 4441 
Q 881 4594 1212 4672 
Q 1544 4750 1819 4750 
Q 2544 4750 2975 4387 
Q 3406 4025 3406 3419 
Q 3406 3131 3298 2873 
Q 3191 2616 2906 2266 
Q 2828 2175 2409 1742 
Q 1991 1309 1228 531 
z
" transform="scale(0.015625)"/>
       </defs>
       <use xlink:href="#DejaVuSans-2212"/>
       <use xlink:href="#DejaVuSans-30" transform="translate(83.789062 0)"/>
       <use xlink:href="#DejaVuSans-2e" transform="translate(147.412109 0)"/>
       <use xlink:href="#DejaVuSans-32" transform="translate(179.199219 0)"/>
       <use xlink:href="#DejaVuSans-35" transform="translate(242.822266 0)"/>
      </g>
     </g>
    </g>
    <g id="xtick_5">
     <g id="line2d_5">
      <g>
       <use xlink:href="#m3df32a9efe" x="247.320432" y="317.72" style="stroke: #000000; stroke-width: 0.8"/>
      </g>
     </g>
     <g id="text_5">
      <!-- 0.00 -->
      <g transform="translate(236.187619 332.318437) scale(0.1 -0.1)">
       <use xlink:href="#DejaVuSans-30"/>
       <use xlink:href="#DejaVuSans-2e" transform="translate(63.623047 0)"/>
       <use xlink:href="#DejaVuSans-30" transform="translate(95.410156 0)"/>
       <use xlink:href="#DejaVuSans-30" transform="translate(159.033203 0)"/>
      </g>
     </g>
    </g>
    <g id="xtick_6">
     <g id="line2d_6">
      <g>
       <use xlink:href="#m3df32a9efe" x="294.443038" y="317.72" style="stroke: #000000; stroke-width: 0.8"/>
      </g>
     </g>
     <g id="text_6">
      <!-- 0.25 -->
      <g transform="translate(283.310225 332.318437) scale(0.1 -0.1)">
       <use xlink:href="#DejaVuSans-30"/>
       <use xlink:href="#DejaVuSans-2e" transform="translate(63.623047 0)"/>
       <use xlink:href="#DejaVuSans-32" transform="translate(95.410156 0)"/>
       <use xlink:href="#DejaVuSans-35" transform="translate(159.033203 0)"/>
      </g>
     </g>
    </g>
    <g id="xtick_7">
     <g id="line2d_7">
      <g>
       <use xlink:href="#m3df32a9efe" x="341.565644" y="317.72" style="stroke: #000000; stroke-width: 0.8"/>
      </g>
     </g>
     <g id="text_7">
      <!-- 0.50 -->
      <g transform="translate(330.432831 332.318437) scale(0.1 -0.1)">
       <use xlink:href="#DejaVuSans-30"/>
       <use xlink:href="#DejaVuSans-2e" transform="translate(63.623047 0)"/>
       <use xlink:href="#DejaVuSans-35" transform="translate(95.410156 0)"/>
       <use xlink:href="#DejaVuSans-30" transform="translate(159.033203 0)"/>
      </g>
     </g>
    </g>
    <g id="xtick_8">
     <g id="line2d_8">
      <g>
       <use xlink:href="#m3df32a9efe" x="388.68825" y="317.72" style="stroke: #000000; stroke-width: 0.8"/>
      </g>
     </g>
     <g id="text_8">
      <!-- 0.75 -->
      <g transform="translate(377.555437 332.318437) scale(0.1 -0.1)">
       <use xlink:href="#DejaVuSans-30"/>
       <use xlink:href="#DejaVuSans-2e" transform="translate(63.623047 0)"/>
       <use xlink:href="#DejaVuSans-37" transform="translate(95.410156 0)"/>
       <use xlink:href="#DejaVuSans-35" transform="translate(159.033203 0)"/>
      </g>
     </g>
    </g>
    <g id="xtick_9">
     <g id="line2d_9">
      <g>
       <use xlink:href="#m3df32a9efe" x="435.810856" y="317.72" style="stroke: #000000; stroke-width: 0.8"/>
      </g>
     </g>
     <g id="text_9">
      <!-- 1.00 -->
      <g transform="translate(424.678043 332.318437) scale(0.1 -0.1)">
       <use xlink:href="#DejaVuSans-31"/>
       <use xlink:href="#DejaVuSans-2e" transform="translate(63.623047 0)"/>
       <use xlink:href="#DejaVuSans-30" transform="translate(95.410156 0)"/>
       <use xlink:href="#DejaVuSans-30" transform="translate(159.033203 0)"/>
      </g>
     </g>
    </g>
   </g>
   <g id="matplotlib.axis_2">
    <g id="ytick_1">
     <g id="line2d_10">
      <defs>
       <path id="mb4465e783f" d="M 0 0 
L -3.5 0 
" style="stroke: #000000; stroke-width: 0.8"/>
      </defs>
      <g>
       <use xlink:href="#mb4465e783f" x="42.1" y="317.63983" style="stroke: #000000; stroke-width: 0.8"/>
      </g>
     </g>
     <g id="text_10">
      <!-- −0.8 -->
      <g transform="translate(10.817188 321.439049) scale(0.1 -0.1)">
       <defs>
        <path id="DejaVuSans-38" d="M 2034 2216 
Q 1584 2216 1326 1975 
Q 1069 1734 1069 1313 
Q 1069 891 1326 650 
Q 1584 409 2034 409 
Q 2484 409 2743 651 
Q 3003 894 3003 1313 
Q 3003 1734 2745 1975 
Q 2488 2216 2034 2216 
z
M 1403 2484 
Q 997 2584 770 2862 
Q 544 3141 544 3541 
Q 544 4100 942 4425 
Q 1341 4750 2034 4750 
Q 2731 4750 3128 4425 
Q 3525 4100 3525 3541 
Q 3525 3141 3298 2862 
Q 3072 2584 2669 2484 
Q 3125 2378 3379 2068 
Q 3634 1759 3634 1313 
Q 3634 634 3220 271 
Q 2806 -91 2034 -91 
Q 1263 -91 848 271 
Q 434 634 434 1313 
Q 434 1759 690 2068 
Q 947 2378 1403 2484 
z
M 1172 3481 
Q 1172 3119 1398 2916 
Q 1625 2713 2034 2713 
Q 2441 2713 2670 2916 
Q 2900 3119 2900 3481 
Q 2900 3844 2670 4047 
Q 2441 4250 2034 4250 
Q 1625 4250 1398 4047 
Q 1172 3844 1172 3481 
z
" transform="scale(0.015625)"/>
       </defs>
       <use xlink:href="#DejaVuSans-2212"/>
       <use xlink:href="#DejaVuSans-30" transform="translate(83.789062 0)"/>
       <use xlink:href="#DejaVuSans-2e" transform="translate(147.412109 0)"/>
       <use xlink:href="#DejaVuSans-38" transform="translate(179.199219 0)"/>
      </g>
     </g>
    </g>
    <g id="ytick_2">
     <g id="line2d_11">
      <g>
       <use xlink:href="#mb4465e783f" x="42.1" y="279.941746" style="stroke: #000000; stroke-width: 0.8"/>
      </g>
     </g>
     <g id="text_11">
      <!-- −0.6 -->
      <g transform="translate(10.817188 283.740964) scale(0.1 -0.1)">
       <defs>
        <path id="DejaVuSans-36" d="M 2113 2584 
Q 1688 2584 1439 2293 
Q 1191 2003 1191 1497 
Q 1191 994 1439 701 
Q 1688 409 2113 409 
Q 2538 409 2786 701 
Q 3034 994 3034 1497 
Q 3034 2003 2786 2293 
Q 2538 2584 2113 2584 
z
M 3366 4563 
L 3366 3988 
Q 3128 4100 2886 4159 
Q 2644 4219 2406 4219 
Q 1781 4219 1451 3797 
Q 1122 3375 1075 2522 
Q 1259 2794 1537 2939 
Q 1816 3084 2150 3084 
Q 2853 3084 3261 2657 
Q 3669 2231 3669 1497 
Q 3669 778 3244 343 
Q 2819 -91 2113 -91 
Q 1303 -91 875 529 
Q 447 1150 447 2328 
Q 447 3434 972 4092 
Q 1497 4750 2381 4750 
Q 2619 4750 2861 4703 
Q 3103 4656 3366 4563 
z
" transform="scale(0.015625)"/>
       </defs>
       <use xlink:href="#DejaVuSans-2212"/>
       <use xlink:href="#DejaVuSans-30" transform="translate(83.789062 0)"/>
       <use xlink:href="#DejaVuSans-2e" transform="translate(147.412109 0)"/>
       <use xlink:href="#DejaVuSans-36" transform="translate(179.199219 0)"/>
      </g>
     </g>
    </g>
    <g id="ytick_3">
     <g id="line2d_12">
      <g>
       <use xlink:href="#mb4465e783f" x="42.1" y="242.243661" style="stroke: #000000; stroke-width: 0.8"/>
      </g>
     </g>
     <g id="text_12">
      <!-- −0.4 -->
      <g transform="translate(10.817188 246.04288) scale(0.1 -0.1)">
       <defs>
        <path id="DejaVuSans-34" d="M 2419 4116 
L 825 1625 
L 2419 1625 
L 2419 4116 
z
M 2253 4666 
L 3047 4666 
L 3047 1625 
L 3713 1625 
L 3713 1100 
L 3047 1100 
L 3047 0 
L 2419 0 
L 2419 1100 
L 313 1100 
L 313 1709 
L 2253 4666 
z
" transform="scale(0.015625)"/>
       </defs>
       <use xlink:href="#DejaVuSans-2212"/>
       <use xlink:href="#DejaVuSans-30" transform="translate(83.789062 0)"/>
       <use xlink:href="#DejaVuSans-2e" transform="translate(147.412109 0)"/>
       <use xlink:href="#DejaVuSans-34" transform="translate(179.199219 0)"/>
      </g>
     </g>
    </g>
    <g id="ytick_4">
     <g id="line2d_13">
      <g>
       <use xlink:href="#mb4465e783f" x="42.1" y="204.545576" style="stroke: #000000; stroke-width: 0.8"/>
      </g>
     </g>
     <g id="text_13">
      <!-- −0.2 -->
      <g transform="translate(10.817188 208.344795) scale(0.1 -0.1)">
       <use xlink:href="#DejaVuSans-2212"/>
       <use xlink:href="#DejaVuSans-30" transform="translate(83.789062 0)"/>
       <use xlink:href="#DejaVuSans-2e" transform="translate(147.412109 0)"/>
       <use xlink:href="#DejaVuSans-32" transform="translate(179.199219 0)"/>
      </g>
     </g>
    </g>
    <g id="ytick_5">
     <g id="line2d_14">
      <g>
       <use xlink:href="#mb4465e783f" x="42.1" y="166.847491" style="stroke: #000000; stroke-width: 0.8"/>
      </g>
     </g>
     <g id="text_14">
      <!-- 0.0 -->
      <g transform="translate(19.196875 170.64671) scale(0.1 -0.1)">
       <use xlink:href="#DejaVuSans-30"/>
       <use xlink:href="#DejaVuSans-2e" transform="translate(63.623047 0)"/>
       <use xlink:href="#DejaVuSans-30" transform="translate(95.410156 0)"/>
      </g>
     </g>
    </g>
    <g id="ytick_6">
     <g id="line2d_15">
      <g>
       <use xlink:href="#mb4465e783f" x="42.1" y="129.149406" style="stroke: #000000; stroke-width: 0.8"/>
      </g>
     </g>
     <g id="text_15">
      <!-- 0.2 -->
      <g transform="translate(19.196875 132.948625) scale(0.1 -0.1)">
       <use xlink:href="#DejaVuSans-30"/>
       <use xlink:href="#DejaVuSans-2e" transform="translate(63.623047 0)"/>
       <use xlink:href="#DejaVuSans-32" transform="translate(95.410156 0)"/>
      </g>
     </g>
    </g>
    <g id="ytick_7">
     <g id="line2d_16">
      <g>
       <use xlink:href="#mb4465e783f" x="42.1" y="91.451322" style="stroke: #000000; stroke-width: 0.8"/>
      </g>
     </g>
     <g id="text_16">
      <!-- 0.4 -->
      <g transform="translate(19.196875 95.25054) scale(0.1 -0.1)">
       <use xlink:href="#DejaVuSans-30"/>
       <use xlink:href="#DejaVuSans-2e" transform="translate(63.623047 0)"/>
       <use xlink:href="#DejaVuSans-34" transform="translate(95.410156 0)"/>
      </g>
     </g>
    </g>
    <g id="ytick_8">
     <g id="line2d_17">
      <g>
       <use xlink:href="#mb4465e783f" x="42.1" y="53.753237" style="stroke: #000000; stroke-width: 0.8"/>
      </g>
     </g>
     <g id="text_17">
      <!-- 0.6 -->
      <g transform="translate(19.196875 57.552456) scale(0.1 -0.1)">
       <use xlink:href="#DejaVuSans-30"/>
       <use xlink:href="#DejaVuSans-2e" transform="translate(63.623047 0)"/>
       <use xlink:href="#DejaVuSans-36" transform="translate(95.410156 0)"/>
      </g>
     </g>
    </g>
    <g id="ytick_9">
     <g id="line2d_18">
      <g>
       <use xlink:href="#mb4465e783f" x="42.1" y="16.055152" style="stroke: #000000; stroke-width: 0.8"/>
      </g>
     </g>
     <g id="text_18">
      <!-- 0.8 -->
      <g transform="translate(19.196875 19.854371) scale(0.1 -0.1)">
       <use xlink:href="#DejaVuSans-30"/>
       <use xlink:href="#DejaVuSans-2e" transform="translate(63.623047 0)"/>
       <use xlink:href="#DejaVuSans-38" transform="translate(95.410156 0)"/>
      </g>
     </g>
    </g>
   </g>
   <g id="line2d_19">
    <path d="M 433.269992 174.968862 
L 433.049204 174.565513 
L 432.37457 174.151021 
L 431.244541 173.720094 
L 428.692836 173.030245 
L 423.688281 171.99629 
L 414.864758 170.445232 
L 364.720209 161.922127 
L 300.843838 150.736995 
L 282.18849 147.740025 
L 263.287834 144.950062 
L 249.074576 143.049365 
L 234.916244 141.347479 
L 220.884549 139.867311 
L 207.045885 138.624613 
L 193.462759 137.628815 
L 180.195353 136.884076 
L 167.302811 136.390381 
L 154.844695 136.144696 
L 142.881746 136.141929 
L 131.476217 136.375846 
L 120.691652 136.839797 
L 110.592045 137.527331 
L 101.24047 138.432605 
L 92.697763 139.550745 
L 87.480049 140.412471 
L 82.662387 141.36618 
L 78.258843 142.41113 
L 74.282035 143.546688 
L 70.742928 144.772236 
L 67.65097 146.087089 
L 65.014183 147.490353 
L 62.83879 148.98074 
L 61.129759 150.556504 
L 59.890583 152.215168 
L 59.447984 153.074584 
L 59.123621 153.953385 
L 58.917618 154.850969 
L 58.830008 155.766687 
L 58.860758 156.69979 
L 59.00989 157.649405 
L 59.662402 159.59444 
L 60.785915 161.593111 
L 62.377822 163.63518 
L 64.434877 165.708774 
L 66.95281 167.800406 
L 69.926768 169.895212 
L 73.351021 171.977183 
L 77.219008 174.029441 
L 81.523257 176.034653 
L 86.255466 177.975588 
L 91.4063 179.835519 
L 96.965521 181.598806 
L 102.921594 183.25131 
L 109.261788 184.780853 
L 115.972228 186.177575 
L 123.037354 187.434077 
L 130.4401 188.545564 
L 138.161715 189.509824 
L 146.181875 190.327128 
L 154.478414 190.999964 
L 163.027531 191.532796 
L 176.269012 192.08325 
L 189.930634 192.358514 
L 203.916998 192.388424 
L 218.129838 192.204708 
L 237.2638 191.682189 
L 256.401154 190.907568 
L 280.007123 189.681468 
L 302.914482 188.26669 
L 329.013368 186.438258 
L 356.898783 184.264387 
L 384.481092 181.880811 
L 404.118201 179.975362 
L 417.170351 178.505866 
L 425.186826 177.39243 
L 429.655206 176.56034 
L 431.84899 175.95902 
L 432.754299 175.563424 
L 433.210762 175.167885 
L 433.269992 174.968857 
L 433.269992 174.968857 
" clip-path="url(#p183eafc1d5)" style="fill: none; stroke: #000000; stroke-width: 2; stroke-linecap: square"/>
   </g>
   <g id="line2d_20">
    <path d="M 432.75977 166.602129 
L 432.701057 166.418866 
L 432.2351 166.057742 
L 431.305344 165.700812 
L 429.044792 165.164769 
L 424.427133 164.426858 
L 416.119955 163.417545 
L 397.200488 161.44398 
L 349.47441 156.497835 
L 302.530388 151.649342 
L 279.63349 149.503042 
L 260.978343 147.946533 
L 242.219522 146.605554 
L 223.527583 145.536776 
L 209.650751 144.940822 
L 195.970457 144.536636 
L 182.554217 144.333721 
L 169.47035 144.337692 
L 156.78912 144.550753 
L 144.582913 144.972125 
L 132.925778 145.598572 
L 121.892607 146.424877 
L 111.557551 147.444311 
L 101.992265 148.649007 
L 93.263688 150.030232 
L 85.432128 151.578565 
L 80.735488 152.698668 
L 76.473954 153.885386 
L 72.658648 155.135311 
L 69.298872 156.444801 
L 66.401907 157.809892 
L 63.97319 159.226232 
L 62.016474 160.689028 
L 60.533916 162.192938 
L 59.526257 163.732049 
L 59.2004 164.512777 
L 58.993004 165.299785 
L 58.903821 166.092157 
L 58.932583 166.888914 
L 59.078928 167.689028 
L 59.722778 169.295116 
L 60.831619 170.901452 
L 62.401202 172.498528 
L 64.426541 174.076296 
L 66.902175 175.624342 
L 69.822059 177.132066 
L 73.179655 178.588885 
L 76.96775 179.984406 
L 81.17848 181.308642 
L 85.803284 182.552318 
L 90.832746 183.707008 
L 96.256576 184.765341 
L 102.063225 185.721179 
L 108.24013 186.569723 
L 114.773542 187.307587 
L 125.208499 188.202986 
L 136.354154 188.844623 
L 148.146782 189.238395 
L 160.516243 189.395802 
L 173.386782 189.332825 
L 186.678416 189.068641 
L 204.912733 188.440122 
L 223.550151 187.543885 
L 242.393623 186.431551 
L 265.946845 184.810989 
L 293.737284 182.640411 
L 324.755075 179.955336 
L 353.375753 177.264604 
L 381.973304 174.355944 
L 402.445391 172.069337 
L 416.062792 170.348083 
L 424.408686 169.087742 
L 429.043466 168.185215 
L 431.3084 167.561882 
L 432.237931 167.167782 
L 432.70218 166.787778 
L 432.75977 166.602129 
L 432.75977 166.602129 
" clip-path="url(#p183eafc1d5)" style="fill: none; stroke-dasharray: 7.4,3.2; stroke-dashoffset: 0; stroke: #000000; stroke-width: 2"/>
   </g>
   <g id="patch_5">
    <path d="M 42.1 317.72 
L 42.1 10.8 
" style="fill: none; stroke: #000000; stroke-width: 0.8; stroke-linejoin: miter; stroke-linecap: square"/>
   </g>
   <g id="patch_6">
    <path d="M 450 317.72 
L 450 10.8 
" style="fill: none; stroke: #000000; stroke-width: 0.8; stroke-linejoin: miter; stroke-linecap: square"/>
   </g>
   <g id="patch_7">
    <path d="M 42.1 317.72 
L 450 317.72 
" style="fill: none; stroke: #000000; stroke-width: 0.8; stroke-linejoin: miter; stroke-linecap: square"/>
   </g>
   <g id="patch_8">
    <path d="M 42.1 10.8 
L 450 10.8 
" style="fill: none; stroke: #000000; stroke-width: 0.8; stroke-linejoin: miter; stroke-linecap: square"/>
   </g>
   <g id="legend_1">
    <g id="patch_9">
     <path d="M 325.31875 48.15625 
L 443 48.15625 
Q 445 48.15625 445 46.15625 
L 445 17.8 
Q 445 15.8 443 15.8 
L 325.31875 15.8 
Q 323.31875 15.8 323.31875 17.8 
L 323.31875 46.15625 
Q 323.31875 48.15625 325.31875 48.15625 
z
" style="fill: #ffffff; opacity: 0.8; stroke: #cccccc; stroke-linejoin: miter"/>
    </g>
    <g id="patch_10">
     <path d="M 327.31875 27.398438 
L 347.31875 27.398438 
L 347.31875 20.398438 
L 327.31875 20.398438 
z
" style="fill: #c9c9f5; opacity: 0.46; stroke: #c9c9f5; stroke-linejoin: miter"/>
    </g>
    <g id="text_19">
     <!-- Optimized Shape -->
     <g transform="translate(355.31875 27.398438) scale(0.1 -0.1)">
      <defs>
       <path id="DejaVuSans-4f" d="M 2522 4238 
Q 1834 4238 1429 3725 
Q 1025 3213 1025 2328 
Q 1025 1447 1429 934 
Q 1834 422 2522 422 
Q 3209 422 3611 934 
Q 4013 1447 4013 2328 
Q 4013 3213 3611 3725 
Q 3209 4238 2522 4238 
z
M 2522 4750 
Q 3503 4750 4090 4092 
Q 4678 3434 4678 2328 
Q 4678 1225 4090 567 
Q 3503 -91 2522 -91 
Q 1538 -91 948 565 
Q 359 1222 359 2328 
Q 359 3434 948 4092 
Q 1538 4750 2522 4750 
z
" transform="scale(0.015625)"/>
       <path id="DejaVuSans-70" d="M 1159 525 
L 1159 -1331 
L 581 -1331 
L 581 3500 
L 1159 3500 
L 1159 2969 
Q 1341 3281 1617 3432 
Q 1894 3584 2278 3584 
Q 2916 3584 3314 3078 
Q 3713 2572 3713 1747 
Q 3713 922 3314 415 
Q 2916 -91 2278 -91 
Q 1894 -91 1617 61 
Q 1341 213 1159 525 
z
M 3116 1747 
Q 3116 2381 2855 2742 
Q 2594 3103 2138 3103 
Q 1681 3103 1420 2742 
Q 1159 2381 1159 1747 
Q 1159 1113 1420 752 
Q 1681 391 2138 391 
Q 2594 391 2855 752 
Q 3116 1113 3116 1747 
z
" transform="scale(0.015625)"/>
       <path id="DejaVuSans-74" d="M 1172 4494 
L 1172 3500 
L 2356 3500 
L 2356 3053 
L 1172 3053 
L 1172 1153 
Q 1172 725 1289 603 
Q 1406 481 1766 481 
L 2356 481 
L 2356 0 
L 1766 0 
Q 1100 0 847 248 
Q 594 497 594 1153 
L 594 3053 
L 172 3053 
L 172 3500 
L 594 3500 
L 594 4494 
L 1172 4494 
z
" transform="scale(0.015625)"/>
       <path id="DejaVuSans-69" d="M 603 3500 
L 1178 3500 
L 1178 0 
L 603 0 
L 603 3500 
z
M 603 4863 
L 1178 4863 
L 1178 4134 
L 603 4134 
L 603 4863 
z
" transform="scale(0.015625)"/>
       <path id="DejaVuSans-6d" d="M 3328 2828 
Q 3544 3216 3844 3400 
Q 4144 3584 4550 3584 
Q 5097 3584 5394 3201 
Q 5691 2819 5691 2113 
L 5691 0 
L 5113 0 
L 5113 2094 
Q 5113 2597 4934 2840 
Q 4756 3084 4391 3084 
Q 3944 3084 3684 2787 
Q 3425 2491 3425 1978 
L 3425 0 
L 2847 0 
L 2847 2094 
Q 2847 2600 2669 2842 
Q 2491 3084 2119 3084 
Q 1678 3084 1418 2786 
Q 1159 2488 1159 1978 
L 1159 0 
L 581 0 
L 581 3500 
L 1159 3500 
L 1159 2956 
Q 1356 3278 1631 3431 
Q 1906 3584 2284 3584 
Q 2666 3584 2933 3390 
Q 3200 3197 3328 2828 
z
" transform="scale(0.015625)"/>
       <path id="DejaVuSans-7a" d="M 353 3500 
L 3084 3500 
L 3084 2975 
L 922 459 
L 3084 459 
L 3084 0 
L 275 0 
L 275 525 
L 2438 3041 
L 353 3041 
L 353 3500 
z
" transform="scale(0.015625)"/>
       <path id="DejaVuSans-65" d="M 3597 1894 
L 3597 1613 
L 953 1613 
Q 991 1019 1311 708 
Q 1631 397 2203 397 
Q 2534 397 2845 478 
Q 3156 559 3463 722 
L 3463 178 
Q 3153 47 2828 -22 
Q 2503 -91 2169 -91 
Q 1331 -91 842 396 
Q 353 884 353 1716 
Q 353 2575 817 3079 
Q 1281 3584 2069 3584 
Q 2775 3584 3186 3129 
Q 3597 2675 3597 1894 
z
M 3022 2063 
Q 3016 2534 2758 2815 
Q 2500 3097 2075 3097 
Q 1594 3097 1305 2825 
Q 1016 2553 972 2059 
L 3022 2063 
z
" transform="scale(0.015625)"/>
       <path id="DejaVuSans-64" d="M 2906 2969 
L 2906 4863 
L 3481 4863 
L 3481 0 
L 2906 0 
L 2906 525 
Q 2725 213 2448 61 
Q 2172 -91 1784 -91 
Q 1150 -91 751 415 
Q 353 922 353 1747 
Q 353 2572 751 3078 
Q 1150 3584 1784 3584 
Q 2172 3584 2448 3432 
Q 2725 3281 2906 2969 
z
M 947 1747 
Q 947 1113 1208 752 
Q 1469 391 1925 391 
Q 2381 391 2643 752 
Q 2906 1113 2906 1747 
Q 2906 2381 2643 2742 
Q 2381 3103 1925 3103 
Q 1469 3103 1208 2742 
Q 947 2381 947 1747 
z
" transform="scale(0.015625)"/>
       <path id="DejaVuSans-20" transform="scale(0.015625)"/>
       <path id="DejaVuSans-53" d="M 3425 4513 
L 3425 3897 
Q 3066 4069 2747 4153 
Q 2428 4238 2131 4238 
Q 1616 4238 1336 4038 
Q 1056 3838 1056 3469 
Q 1056 3159 1242 3001 
Q 1428 2844 1947 2747 
L 2328 2669 
Q 3034 2534 3370 2195 
Q 3706 1856 3706 1288 
Q 3706 609 3251 259 
Q 2797 -91 1919 -91 
Q 1588 -91 1214 -16 
Q 841 59 441 206 
L 441 856 
Q 825 641 1194 531 
Q 1563 422 1919 422 
Q 2459 422 2753 634 
Q 3047 847 3047 1241 
Q 3047 1584 2836 1778 
Q 2625 1972 2144 2069 
L 1759 2144 
Q 1053 2284 737 2584 
Q 422 2884 422 3419 
Q 422 4038 858 4394 
Q 1294 4750 2059 4750 
Q 2388 4750 2728 4690 
Q 3069 4631 3425 4513 
z
" transform="scale(0.015625)"/>
       <path id="DejaVuSans-68" d="M 3513 2113 
L 3513 0 
L 2938 0 
L 2938 2094 
Q 2938 2591 2744 2837 
Q 2550 3084 2163 3084 
Q 1697 3084 1428 2787 
Q 1159 2491 1159 1978 
L 1159 0 
L 581 0 
L 581 4863 
L 1159 4863 
L 1159 2956 
Q 1366 3272 1645 3428 
Q 1925 3584 2291 3584 
Q 2894 3584 3203 3211 
Q 3513 2838 3513 2113 
z
" transform="scale(0.015625)"/>
       <path id="DejaVuSans-61" d="M 2194 1759 
Q 1497 1759 1228 1600 
Q 959 1441 959 1056 
Q 959 750 1161 570 
Q 1363 391 1709 391 
Q 2188 391 2477 730 
Q 2766 1069 2766 1631 
L 2766 1759 
L 2194 1759 
z
M 3341 1997 
L 3341 0 
L 2766 0 
L 2766 531 
Q 2569 213 2275 61 
Q 1981 -91 1556 -91 
Q 1019 -91 701 211 
Q 384 513 384 1019 
Q 384 1609 779 1909 
Q 1175 2209 1959 2209 
L 2766 2209 
L 2766 2266 
Q 2766 2663 2505 2880 
Q 2244 3097 1772 3097 
Q 1472 3097 1187 3025 
Q 903 2953 641 2809 
L 641 3341 
Q 956 3463 1253 3523 
Q 1550 3584 1831 3584 
Q 2591 3584 2966 3190 
Q 3341 2797 3341 1997 
z
" transform="scale(0.015625)"/>
      </defs>
      <use xlink:href="#DejaVuSans-4f"/>
      <use xlink:href="#DejaVuSans-70" transform="translate(78.710938 0)"/>
      <use xlink:href="#DejaVuSans-74" transform="translate(142.1875 0)"/>
      <use xlink:href="#DejaVuSans-69" transform="translate(181.396484 0)"/>
      <use xlink:href="#DejaVuSans-6d" transform="translate(209.179688 0)"/>
      <use xlink:href="#DejaVuSans-69" transform="translate(306.591797 0)"/>
      <use xlink:href="#DejaVuSans-7a" transform="translate(334.375 0)"/>
      <use xlink:href="#DejaVuSans-65" transform="translate(386.865234 0)"/>
      <use xlink:href="#DejaVuSans-64" transform="translate(448.388672 0)"/>
      <use xlink:href="#DejaVuSans-20" transform="translate(511.865234 0)"/>
      <use xlink:href="#DejaVuSans-53" transform="translate(543.652344 0)"/>
      <use xlink:href="#DejaVuSans-68" transform="translate(607.128906 0)"/>
      <use xlink:href="#DejaVuSans-61" transform="translate(670.507812 0)"/>
      <use xlink:href="#DejaVuSans-70" transform="translate(731.787109 0)"/>
      <use xlink:href="#DejaVuSans-65" transform="translate(795.263672 0)"/>
     </g>
    </g>
    <g id="patch_11">
     <path d="M 327.31875 42.076563 
L 347.31875 42.076563 
L 347.31875 35.076563 
L 327.31875 35.076563 
z
" style="fill: #f69e5e; opacity: 0.36; stroke: #f69e5e; stroke-linejoin: miter"/>
    </g>
    <g id="text_20">
     <!-- Initial Shape -->
     <g transform="translate(355.31875 42.076563) scale(0.1 -0.1)">
      <defs>
       <path id="DejaVuSans-49" d="M 628 4666 
L 1259 4666 
L 1259 0 
L 628 0 
L 628 4666 
z
" transform="scale(0.015625)"/>
       <path id="DejaVuSans-6e" d="M 3513 2113 
L 3513 0 
L 2938 0 
L 2938 2094 
Q 2938 2591 2744 2837 
Q 2550 3084 2163 3084 
Q 1697 3084 1428 2787 
Q 1159 2491 1159 1978 
L 1159 0 
L 581 0 
L 581 3500 
L 1159 3500 
L 1159 2956 
Q 1366 3272 1645 3428 
Q 1925 3584 2291 3584 
Q 2894 3584 3203 3211 
Q 3513 2838 3513 2113 
z
" transform="scale(0.015625)"/>
       <path id="DejaVuSans-6c" d="M 603 4863 
L 1178 4863 
L 1178 0 
L 603 0 
L 603 4863 
z
" transform="scale(0.015625)"/>
      </defs>
      <use xlink:href="#DejaVuSans-49"/>
      <use xlink:href="#DejaVuSans-6e" transform="translate(29.492188 0)"/>
      <use xlink:href="#DejaVuSans-69" transform="translate(92.871094 0)"/>
      <use xlink:href="#DejaVuSans-74" transform="translate(120.654297 0)"/>
      <use xlink:href="#DejaVuSans-69" transform="translate(159.863281 0)"/>
      <use xlink:href="#DejaVuSans-61" transform="translate(187.646484 0)"/>
      <use xlink:href="#DejaVuSans-6c" transform="translate(248.925781 0)"/>
      <use xlink:href="#DejaVuSans-20" transform="translate(276.708984 0)"/>
      <use xlink:href="#DejaVuSans-53" transform="translate(308.496094 0)"/>
      <use xlink:href="#DejaVuSans-68" transform="translate(371.972656 0)"/>
      <use xlink:href="#DejaVuSans-61" transform="translate(435.351562 0)"/>
      <use xlink:href="#DejaVuSans-70" transform="translate(496.630859 0)"/>
      <use xlink:href="#DejaVuSans-65" transform="translate(560.107422 0)"/>
     </g>
    </g>
   </g>
  </g>
 </g>
 <defs>
  <clipPath id="p183eafc1d5">
   <rect x="42.1" y="10.8" width="407.9" height="306.92"/>
  </clipPath>
 </defs>
</svg>
