<?xml version="1.0" encoding="utf-8" standalone="no"?>
<!DOCTYPE svg PUBLIC "-//W3C//DTD SVG 1.1//EN"
  "http://www.w3.org/Graphics/SVG/1.1/DTD/svg11.dtd">
<svg xmlns:xlink="http://www.w3.org/1999/xlink" width="460.8pt" height="345.6pt" viewBox="0 0 460.8 345.6" xmlns="http://www.w3.org/2000/svg" version="1.1">
 <metadata>
  <rdf:RDF xmlns:dc="http://purl.org/dc/elements/1.1/" xmlns:cc="http://creativecommons.org/ns#" xmlns:rdf="http://www.w3.org/1999/02/22-rdf-syntax-ns#">
   <cc:Work>
    <dc:type rdf:resource="http://purl.org/dc/dcmitype/StillImage"/>
    <dc:date>2025-06-09T23:33:27.528564</dc:date>
    <dc:format>image/svg+xml</dc:format>
    <dc:creator>
     <cc:Agent>
      <dc:title>Matplotlib v3.10.0, https://matplotlib.org/</dc:title>
     </cc:Agent>
    </dc:creator>
   </cc:Work>
  </rdf:RDF>
 </metadata>
 <defs>
  <style type="text/css">*{stroke-linejoin: round; stroke-linecap: butt}</style>
 </defs>
 <g id="figure_1">
  <g id="patch_1">
   <path d="M 0 345.6 
L 460.8 345.6 
L 460.8 0 
L 0 0 
z
" style="fill: #ffffff"/>
  </g>
  <g id="axes_1">
   <g id="patch_2">
    <path d="M 42.1 317.72 
L 450 317.72 
L 450 10.8 
L 42.1 10.8 
z
" style="fill: #ffffff"/>
   </g>
   <g id="patch_3">
    <path d="M 424.374792 201.901664 
L 424.344675 201.772368 
L 424.229247 201.637303 
L 424.028284 201.496036 
L 423.741673 201.348073 
L 423.369189 201.19291 
L 422.910484 201.030001 
L 422.365297 200.858736 
L 421.733237 200.678513 
L 421.013795 200.488645 
L 420.206535 200.288422 
L 419.310982 200.077087 
L 418.326497 199.853848 
L 417.252459 199.617846 
L 416.088296 199.368198 
L 414.833299 199.103947 
L 413.486826 198.824134 
L 412.048168 198.527704 
L 410.516584 198.213592 
L 408.891375 197.880672 
L 407.171867 197.527778 
L 405.357361 197.153727 
L 403.447161 196.757274 
L 401.440637 196.337157 
L 399.337192 195.892095 
L 397.136286 195.420792 
L 394.837436 194.921925 
L 392.440191 194.394202 
L 389.944247 193.836318 
L 387.349369 193.247013 
L 384.655411 192.625044 
L 381.862349 191.969225 
L 378.97033 191.278452 
L 375.979567 190.551687 
L 372.890489 189.787993 
L 369.703736 188.98657 
L 366.41995 188.146719 
L 363.040155 187.267934 
L 359.565486 186.349847 
L 355.997283 185.392306 
L 352.337087 184.395335 
L 348.586776 183.3592 
L 344.748263 182.28441 
L 340.823805 181.171667 
L 336.815875 180.021961 
L 332.727174 178.836531 
L 328.560683 177.616871 
L 324.319407 176.364706 
L 320.006792 175.08203 
L 315.62639 173.771061 
L 311.181912 172.434251 
L 306.677289 171.074238 
L 302.116517 169.693842 
L 297.503899 168.296069 
L 292.843753 166.884041 
L 288.140455 165.460968 
L 283.398554 164.030167 
L 278.622622 162.594974 
L 273.817323 161.158772 
L 268.98722 159.724898 
L 264.136997 158.296639 
L 259.271234 156.877232 
L 254.394576 155.469808 
L 249.51153 154.077369 
L 244.626555 152.70277 
L 239.743998 151.348699 
L 234.868244 150.017692 
L 230.003481 148.712093 
L 225.153786 147.434006 
L 220.323163 146.185369 
L 215.51553 144.967936 
L 210.734557 143.783177 
L 205.983977 142.632455 
L 201.267274 141.516865 
L 196.587882 140.437326 
L 191.949124 139.394603 
L 187.354162 138.389243 
L 182.80603 137.421639 
L 178.307809 136.492071 
L 173.86229 135.600628 
L 169.47219 134.747267 
L 165.140349 133.9319 
L 160.869248 133.154253 
L 156.661429 132.413999 
L 152.519206 131.710707 
L 148.444989 131.043928 
L 144.441065 130.413108 
L 140.509479 129.817639 
L 136.652358 129.256907 
L 132.871785 128.730273 
L 129.169636 128.237023 
L 125.547792 127.776483 
L 122.008029 127.347982 
L 118.552025 126.95077 
L 115.181488 126.584198 
L 111.897893 126.247576 
L 108.702816 125.940237 
L 105.597638 125.66156 
L 102.583667 125.410894 
L 99.662262 125.187692 
L 96.834583 124.991384 
L 94.101788 124.821449 
L 91.464947 124.677392 
L 88.925004 124.558781 
L 86.483017 124.465219 
L 84.139739 124.396305 
L 81.896094 124.35178 
L 79.752834 124.331304 
L 77.71068 124.334702 
L 75.770217 124.361733 
L 73.932199 124.412317 
L 72.19712 124.486318 
L 70.565521 124.583703 
L 69.038021 124.704477 
L 67.615024 124.848677 
L 66.297059 125.016424 
L 65.08452 125.207821 
L 63.977834 125.423083 
L 62.977519 125.662429 
L 62.083891 125.926146 
L 61.297477 126.214549 
L 60.618626 126.527991 
L 60.04779 126.866896 
L 59.585427 127.231671 
L 59.231968 127.622847 
L 58.987939 128.040914 
L 58.853791 128.486413 
L 58.830008 128.959941 
L 58.917163 129.462089 
L 59.115798 129.993508 
L 59.426518 130.554836 
L 59.849853 131.146744 
L 60.386478 131.769895 
L 61.036966 132.424973 
L 61.802016 133.112672 
L 62.682212 133.833604 
L 63.678308 134.588461 
L 64.7909 135.377831 
L 66.020607 136.202296 
L 67.368148 137.062399 
L 68.834054 137.958573 
L 70.418965 138.891243 
L 72.123398 139.860726 
L 73.947814 140.867209 
L 75.892642 141.910808 
L 77.958219 142.991483 
L 80.144815 144.109099 
L 82.452531 145.263294 
L 84.881377 146.453586 
L 87.431322 147.679317 
L 90.10197 148.939568 
L 92.89294 150.233265 
L 95.803656 151.55914 
L 98.8333 152.915611 
L 101.9808 154.300939 
L 105.245022 155.713133 
L 108.624424 157.149901 
L 112.117419 158.608841 
L 115.721961 160.087191 
L 119.435866 161.582047 
L 123.256817 163.090322 
L 127.182035 164.608694 
L 131.208527 166.133677 
L 135.333325 167.661758 
L 139.552703 169.189136 
L 143.86323 170.712119 
L 148.260958 172.226882 
L 152.741814 173.72962 
L 157.301455 175.216556 
L 161.935489 176.684001 
L 166.639156 178.128351 
L 171.407973 179.546253 
L 176.23668 180.934348 
L 181.120666 182.289699 
L 186.054428 183.609397 
L 191.033096 184.890974 
L 196.051342 186.132146 
L 201.103923 187.330934 
L 206.185418 188.485646 
L 211.29076 189.59496 
L 216.414564 190.657795 
L 221.551534 191.673383 
L 226.696455 192.641258 
L 231.844017 193.561215 
L 236.98938 194.433373 
L 242.127074 195.257989 
L 247.252393 196.035653 
L 252.360316 196.767121 
L 257.446013 197.45331 
L 262.504769 198.095318 
L 267.531957 198.694402 
L 272.523 199.251916 
L 277.473795 199.769334 
L 282.379739 200.248146 
L 287.237008 200.689982 
L 292.041547 201.096473 
L 296.789576 201.469264 
L 301.477352 201.810025 
L 306.101643 202.120433 
L 310.658809 202.40213 
L 315.145949 202.656746 
L 319.560023 202.885865 
L 323.898249 203.091055 
L 328.157998 203.27381 
L 332.336751 203.435585 
L 336.432478 203.577788 
L 340.442816 203.701741 
L 344.366093 203.808739 
L 348.200499 203.899995 
L 351.944476 203.976665 
L 355.596572 204.039833 
L 359.155775 204.090529 
L 362.620769 204.129728 
L 365.990821 204.15832 
L 369.265157 204.17717 
L 372.443124 204.187045 
L 375.524237 204.188696 
L 378.508193 204.182787 
L 381.394609 204.16995 
L 384.183632 204.150763 
L 386.875026 204.125745 
L 389.468981 204.095386 
L 391.965656 204.060117 
L 394.365353 204.020325 
L 396.668299 203.976376 
L 398.874954 203.928571 
L 400.985745 203.877202 
L 403.001202 203.822506 
L 404.921853 203.764691 
L 406.748284 203.703946 
L 408.481045 203.640407 
L 410.120756 203.574188 
L 411.668135 203.505393 
L 413.123657 203.434072 
L 414.488108 203.360259 
L 415.761983 203.283966 
L 416.945947 203.205178 
L 418.040572 203.123855 
L 419.046444 203.039923 
L 419.964047 202.95331 
L 420.793921 202.863882 
L 421.536459 202.771521 
L 422.192145 202.676037 
L 422.761373 202.577268 
L 423.244379 202.474987 
L 423.641524 202.368959 
L 423.952998 202.258915 
L 424.178914 202.144579 
L 424.319508 202.025607 
L 424.374747 201.901664 
z
" clip-path="url(#p0024b58e6a)" style="fill: #c9c9f5; opacity: 0.46; stroke: #c9c9f5; stroke-linejoin: miter"/>
   </g>
   <g id="patch_4">
    <path d="M 433.269992 170.00776 
L 433.211198 169.824247 
L 433.036032 169.642679 
L 432.744606 169.46263 
L 432.337055 169.283631 
L 431.813582 169.105213 
L 431.174411 168.926877 
L 430.419768 168.748128 
L 429.549945 168.568439 
L 428.565257 168.387277 
L 427.466109 168.204106 
L 426.252838 168.018379 
L 424.925986 167.829521 
L 423.486023 167.63699 
L 421.933513 167.440212 
L 420.269108 167.238633 
L 418.493506 167.031685 
L 416.607472 166.818831 
L 414.611793 166.599521 
L 412.507482 166.373234 
L 410.29546 166.139468 
L 407.976922 165.897737 
L 405.552969 165.647586 
L 403.024929 165.388591 
L 400.394174 165.120369 
L 397.662189 164.842572 
L 394.830573 164.554909 
L 391.901034 164.257124 
L 388.875396 163.949022 
L 385.755504 163.63048 
L 382.543494 163.301411 
L 379.24137 162.961826 
L 375.851495 162.61178 
L 372.376072 162.251418 
L 368.817623 161.880945 
L 365.178667 161.500651 
L 361.461792 161.110898 
L 357.669653 160.71213 
L 353.80513 160.30486 
L 349.87099 159.889679 
L 345.870137 159.467247 
L 341.805579 159.038306 
L 337.680309 158.603651 
L 333.497359 158.164141 
L 329.259812 157.72069 
L 324.970784 157.274275 
L 320.633414 156.825914 
L 316.250812 156.376655 
L 311.826128 155.927602 
L 307.362423 155.479854 
L 302.862914 155.03457 
L 298.330622 154.592889 
L 293.768624 154.155966 
L 289.179991 153.724972 
L 284.567704 153.301049 
L 279.934773 152.885342 
L 275.28405 152.478969 
L 270.618482 152.083034 
L 265.940915 151.6986 
L 261.254172 151.326709 
L 256.560956 150.968353 
L 251.864028 150.6245 
L 247.166078 150.296061 
L 242.469755 149.983899 
L 237.777634 149.688835 
L 233.092312 149.411641 
L 228.416353 149.15303 
L 223.752311 148.913663 
L 219.102662 148.694161 
L 214.469852 148.49506 
L 209.856544 148.316896 
L 205.265019 148.160093 
L 200.697871 148.025066 
L 196.157583 147.912159 
L 191.646683 147.82168 
L 187.16765 147.753884 
L 182.723037 147.708967 
L 178.315375 147.687101 
L 173.947297 147.688403 
L 169.621317 147.712944 
L 165.34013 147.760783 
L 161.10642 147.831904 
L 156.922784 147.926295 
L 152.792035 148.043881 
L 148.716829 148.184571 
L 144.699921 148.348242 
L 140.744159 148.534748 
L 136.852185 148.743908 
L 133.02688 148.975544 
L 129.270989 149.229421 
L 125.587303 149.505321 
L 121.978655 149.802976 
L 118.447634 150.122134 
L 114.997029 150.462507 
L 111.629497 150.823801 
L 108.347646 151.205719 
L 105.154041 151.607937 
L 102.051159 152.030141 
L 99.041429 152.471989 
L 96.127191 152.933136 
L 93.310672 153.413251 
L 90.594033 153.911954 
L 87.979321 154.428894 
L 85.468426 154.963696 
L 83.063216 155.515979 
L 80.765378 156.085328 
L 78.576487 156.671369 
L 76.498029 157.273665 
L 74.531308 157.891795 
L 72.677517 158.525296 
L 70.937848 159.173717 
L 69.313157 159.836572 
L 67.804388 160.513347 
L 66.412239 161.203526 
L 65.137339 161.906542 
L 63.980208 162.621798 
L 62.941271 163.348701 
L 62.020822 164.08659 
L 61.21913 164.834782 
L 60.536241 165.592552 
L 59.972289 166.359149 
L 59.527207 167.133764 
L 59.200906 167.915557 
L 58.993226 168.703639 
L 58.903922 169.497093 
L 58.932723 170.294937 
L 59.079268 171.096142 
L 59.343154 171.89967 
L 59.723997 172.704422 
L 60.221212 173.509241 
L 60.83435 174.31295 
L 61.562825 175.114366 
L 62.406075 175.912204 
L 63.363425 176.705222 
L 64.434177 177.492125 
L 65.617679 178.271575 
L 66.913189 179.042284 
L 68.319918 179.80289 
L 69.837057 180.552065 
L 71.463819 181.288506 
L 73.199235 182.010872 
L 75.042473 182.717893 
L 76.992499 183.408297 
L 79.048345 184.080836 
L 81.208975 184.73434 
L 83.473242 185.367661 
L 85.840089 185.979713 
L 88.308255 186.569478 
L 90.876414 187.135978 
L 93.543372 187.678341 
L 96.307644 188.195756 
L 99.167724 188.687487 
L 102.122216 189.152898 
L 105.169364 189.591426 
L 108.30755 190.0026 
L 111.53504 190.386053 
L 114.849876 190.74147 
L 118.250237 191.068689 
L 121.733985 191.367563 
L 125.299072 191.638091 
L 128.943315 191.880332 
L 132.664398 192.094435 
L 136.459934 192.280604 
L 140.327596 192.439159 
L 144.264672 192.570443 
L 148.268653 192.674913 
L 152.336896 192.75304 
L 156.466637 192.805382 
L 160.654993 192.832534 
L 164.899138 192.835139 
L 169.196103 192.813876 
L 173.543093 192.769471 
L 177.936816 192.702662 
L 182.374544 192.614212 
L 186.852863 192.504928 
L 191.368943 192.375595 
L 195.919607 192.227041 
L 200.501712 192.060082 
L 205.112061 191.87555 
L 209.747698 191.674267 
L 214.405453 191.457058 
L 219.082217 191.224724 
L 223.774909 190.978091 
L 228.480382 190.717952 
L 233.195862 190.445077 
L 237.918008 190.160261 
L 242.644093 189.864239 
L 247.371041 189.557766 
L 252.095955 189.241544 
L 256.815912 188.916305 
L 261.528067 188.582725 
L 266.229453 188.241466 
L 270.917564 187.89317 
L 275.58919 187.5385 
L 280.241842 187.178048 
L 284.872675 186.812416 
L 289.478938 186.442187 
L 294.057811 186.067926 
L 298.606849 185.69016 
L 303.122963 185.309469 
L 307.603701 184.926314 
L 312.046306 184.541235 
L 316.448017 184.154705 
L 320.80615 183.767197 
L 325.117926 183.379187 
L 329.380887 182.991099 
L 333.591985 182.603394 
L 337.748722 182.216481 
L 341.848375 181.830767 
L 345.888205 181.446661 
L 349.865433 181.064547 
L 353.777657 180.684784 
L 357.621862 180.307766 
L 361.395663 179.933797 
L 365.096315 179.563243 
L 368.721321 179.196406 
L 372.26807 178.833598 
L 375.73411 178.475103 
L 379.116875 178.12121 
L 382.414229 177.772155 
L 385.623583 177.428201 
L 388.742846 177.089547 
L 391.769812 176.756416 
L 394.70241 176.428984 
L 397.538617 176.107413 
L 400.276497 175.791849 
L 402.914249 175.482428 
L 405.450209 175.179234 
L 407.88278 174.882358 
L 410.210386 174.591854 
L 412.4317 174.307763 
L 414.545327 174.030093 
L 416.550231 173.758825 
L 418.44513 173.493958 
L 420.229215 173.235399 
L 421.90145 172.98309 
L 423.461138 172.736918 
L 424.907513 172.496765 
L 426.239923 172.262479 
L 427.457896 172.033894 
L 428.560914 171.810805 
L 429.548617 171.593006 
L 430.420645 171.38025 
L 431.176706 171.172283 
L 431.816642 170.968823 
L 432.34025 170.76957 
L 432.747441 170.574184 
L 433.038147 170.382343 
L 433.212323 170.193662 
z
" clip-path="url(#p0024b58e6a)" style="fill: #f69e5e; opacity: 0.36; stroke: #f69e5e; stroke-linejoin: miter"/>
   </g>
   <g id="matplotlib.axis_1">
    <g id="xtick_1">
     <g id="line2d_1">
      <defs>
       <path id="md99a9a7707" d="M 0 0 
L 0 3.5 
" style="stroke: #000000; stroke-width: 0.8"/>
      </defs>
      <g>
       <use xlink:href="#md99a9a7707" x="58.830008" y="317.72" style="stroke: #000000; stroke-width: 0.8"/>
      </g>
     </g>
     <g id="text_1">
      <!-- −1.00 -->
      <g transform="translate(43.507352 332.318437) scale(0.1 -0.1)">
       <defs>
        <path id="DejaVuSans-2212" d="M 678 2272 
L 4684 2272 
L 4684 1741 
L 678 1741 
L 678 2272 
z
" transform="scale(0.015625)"/>
        <path id="DejaVuSans-31" d="M 794 531 
L 1825 531 
L 1825 4091 
L 703 3866 
L 703 4441 
L 1819 4666 
L 2450 4666 
L 2450 531 
L 3481 531 
L 3481 0 
L 794 0 
L 794 531 
z
" transform="scale(0.015625)"/>
        <path id="DejaVuSans-2e" d="M 684 794 
L 1344 794 
L 1344 0 
L 684 0 
L 684 794 
z
" transform="scale(0.015625)"/>
        <path id="DejaVuSans-30" d="M 2034 4250 
Q 1547 4250 1301 3770 
Q 1056 3291 1056 2328 
Q 1056 1369 1301 889 
Q 1547 409 2034 409 
Q 2525 409 2770 889 
Q 3016 1369 3016 2328 
Q 3016 3291 2770 3770 
Q 2525 4250 2034 4250 
z
M 2034 4750 
Q 2819 4750 3233 4129 
Q 3647 3509 3647 2328 
Q 3647 1150 3233 529 
Q 2819 -91 2034 -91 
Q 1250 -91 836 529 
Q 422 1150 422 2328 
Q 422 3509 836 4129 
Q 1250 4750 2034 4750 
z
" transform="scale(0.015625)"/>
       </defs>
       <use xlink:href="#DejaVuSans-2212"/>
       <use xlink:href="#DejaVuSans-31" transform="translate(83.789062 0)"/>
       <use xlink:href="#DejaVuSans-2e" transform="translate(147.412109 0)"/>
       <use xlink:href="#DejaVuSans-30" transform="translate(179.199219 0)"/>
       <use xlink:href="#DejaVuSans-30" transform="translate(242.822266 0)"/>
      </g>
     </g>
    </g>
    <g id="xtick_2">
     <g id="line2d_2">
      <g>
       <use xlink:href="#md99a9a7707" x="106.016912" y="317.72" style="stroke: #000000; stroke-width: 0.8"/>
      </g>
     </g>
     <g id="text_2">
      <!-- −0.75 -->
      <g transform="translate(90.694256 332.318437) scale(0.1 -0.1)">
       <defs>
        <path id="DejaVuSans-37" d="M 525 4666 
L 3525 4666 
L 3525 4397 
L 1831 0 
L 1172 0 
L 2766 4134 
L 525 4134 
L 525 4666 
z
" transform="scale(0.015625)"/>
        <path id="DejaVuSans-35" d="M 691 4666 
L 3169 4666 
L 3169 4134 
L 1269 4134 
L 1269 2991 
Q 1406 3038 1543 3061 
Q 1681 3084 1819 3084 
Q 2600 3084 3056 2656 
Q 3513 2228 3513 1497 
Q 3513 744 3044 326 
Q 2575 -91 1722 -91 
Q 1428 -91 1123 -41 
Q 819 9 494 109 
L 494 744 
Q 775 591 1075 516 
Q 1375 441 1709 441 
Q 2250 441 2565 725 
Q 2881 1009 2881 1497 
Q 2881 1984 2565 2268 
Q 2250 2553 1709 2553 
Q 1456 2553 1204 2497 
Q 953 2441 691 2322 
L 691 4666 
z
" transform="scale(0.015625)"/>
       </defs>
       <use xlink:href="#DejaVuSans-2212"/>
       <use xlink:href="#DejaVuSans-30" transform="translate(83.789062 0)"/>
       <use xlink:href="#DejaVuSans-2e" transform="translate(147.412109 0)"/>
       <use xlink:href="#DejaVuSans-37" transform="translate(179.199219 0)"/>
       <use xlink:href="#DejaVuSans-35" transform="translate(242.822266 0)"/>
      </g>
     </g>
    </g>
    <g id="xtick_3">
     <g id="line2d_3">
      <g>
       <use xlink:href="#md99a9a7707" x="153.203816" y="317.72" style="stroke: #000000; stroke-width: 0.8"/>
      </g>
     </g>
     <g id="text_3">
      <!-- −0.50 -->
      <g transform="translate(137.88116 332.318437) scale(0.1 -0.1)">
       <use xlink:href="#DejaVuSans-2212"/>
       <use xlink:href="#DejaVuSans-30" transform="translate(83.789062 0)"/>
       <use xlink:href="#DejaVuSans-2e" transform="translate(147.412109 0)"/>
       <use xlink:href="#DejaVuSans-35" transform="translate(179.199219 0)"/>
       <use xlink:href="#DejaVuSans-30" transform="translate(242.822266 0)"/>
      </g>
     </g>
    </g>
    <g id="xtick_4">
     <g id="line2d_4">
      <g>
       <use xlink:href="#md99a9a7707" x="200.39072" y="317.72" style="stroke: #000000; stroke-width: 0.8"/>
      </g>
     </g>
     <g id="text_4">
      <!-- −0.25 -->
      <g transform="translate(185.068064 332.318437) scale(0.1 -0.1)">
       <defs>
        <path id="DejaVuSans-32" d="M 1228 531 
L 3431 531 
L 3431 0 
L 469 0 
L 469 531 
Q 828 903 1448 1529 
Q 2069 2156 2228 2338 
Q 2531 2678 2651 2914 
Q 2772 3150 2772 3378 
Q 2772 3750 2511 3984 
Q 2250 4219 1831 4219 
Q 1534 4219 1204 4116 
Q 875 4013 500 3803 
L 500 4441 
Q 881 4594 1212 4672 
Q 1544 4750 1819 4750 
Q 2544 4750 2975 4387 
Q 3406 4025 3406 3419 
Q 3406 3131 3298 2873 
Q 3191 2616 2906 2266 
Q 2828 2175 2409 1742 
Q 1991 1309 1228 531 
z
" transform="scale(0.015625)"/>
       </defs>
       <use xlink:href="#DejaVuSans-2212"/>
       <use xlink:href="#DejaVuSans-30" transform="translate(83.789062 0)"/>
       <use xlink:href="#DejaVuSans-2e" transform="translate(147.412109 0)"/>
       <use xlink:href="#DejaVuSans-32" transform="translate(179.199219 0)"/>
       <use xlink:href="#DejaVuSans-35" transform="translate(242.822266 0)"/>
      </g>
     </g>
    </g>
    <g id="xtick_5">
     <g id="line2d_5">
      <g>
       <use xlink:href="#md99a9a7707" x="247.577624" y="317.72" style="stroke: #000000; stroke-width: 0.8"/>
      </g>
     </g>
     <g id="text_5">
      <!-- 0.00 -->
      <g transform="translate(236.444812 332.318437) scale(0.1 -0.1)">
       <use xlink:href="#DejaVuSans-30"/>
       <use xlink:href="#DejaVuSans-2e" transform="translate(63.623047 0)"/>
       <use xlink:href="#DejaVuSans-30" transform="translate(95.410156 0)"/>
       <use xlink:href="#DejaVuSans-30" transform="translate(159.033203 0)"/>
      </g>
     </g>
    </g>
    <g id="xtick_6">
     <g id="line2d_6">
      <g>
       <use xlink:href="#md99a9a7707" x="294.764528" y="317.72" style="stroke: #000000; stroke-width: 0.8"/>
      </g>
     </g>
     <g id="text_6">
      <!-- 0.25 -->
      <g transform="translate(283.631716 332.318437) scale(0.1 -0.1)">
       <use xlink:href="#DejaVuSans-30"/>
       <use xlink:href="#DejaVuSans-2e" transform="translate(63.623047 0)"/>
       <use xlink:href="#DejaVuSans-32" transform="translate(95.410156 0)"/>
       <use xlink:href="#DejaVuSans-35" transform="translate(159.033203 0)"/>
      </g>
     </g>
    </g>
    <g id="xtick_7">
     <g id="line2d_7">
      <g>
       <use xlink:href="#md99a9a7707" x="341.951433" y="317.72" style="stroke: #000000; stroke-width: 0.8"/>
      </g>
     </g>
     <g id="text_7">
      <!-- 0.50 -->
      <g transform="translate(330.81862 332.318437) scale(0.1 -0.1)">
       <use xlink:href="#DejaVuSans-30"/>
       <use xlink:href="#DejaVuSans-2e" transform="translate(63.623047 0)"/>
       <use xlink:href="#DejaVuSans-35" transform="translate(95.410156 0)"/>
       <use xlink:href="#DejaVuSans-30" transform="translate(159.033203 0)"/>
      </g>
     </g>
    </g>
    <g id="xtick_8">
     <g id="line2d_8">
      <g>
       <use xlink:href="#md99a9a7707" x="389.138337" y="317.72" style="stroke: #000000; stroke-width: 0.8"/>
      </g>
     </g>
     <g id="text_8">
      <!-- 0.75 -->
      <g transform="translate(378.005524 332.318437) scale(0.1 -0.1)">
       <use xlink:href="#DejaVuSans-30"/>
       <use xlink:href="#DejaVuSans-2e" transform="translate(63.623047 0)"/>
       <use xlink:href="#DejaVuSans-37" transform="translate(95.410156 0)"/>
       <use xlink:href="#DejaVuSans-35" transform="translate(159.033203 0)"/>
      </g>
     </g>
    </g>
    <g id="xtick_9">
     <g id="line2d_9">
      <g>
       <use xlink:href="#md99a9a7707" x="436.325241" y="317.72" style="stroke: #000000; stroke-width: 0.8"/>
      </g>
     </g>
     <g id="text_9">
      <!-- 1.00 -->
      <g transform="translate(425.192428 332.318437) scale(0.1 -0.1)">
       <use xlink:href="#DejaVuSans-31"/>
       <use xlink:href="#DejaVuSans-2e" transform="translate(63.623047 0)"/>
       <use xlink:href="#DejaVuSans-30" transform="translate(95.410156 0)"/>
       <use xlink:href="#DejaVuSans-30" transform="translate(159.033203 0)"/>
      </g>
     </g>
    </g>
   </g>
   <g id="matplotlib.axis_2">
    <g id="ytick_1">
     <g id="line2d_10">
      <defs>
       <path id="m9fc3e753b1" d="M 0 0 
L -3.5 0 
" style="stroke: #000000; stroke-width: 0.8"/>
      </defs>
      <g>
       <use xlink:href="#m9fc3e753b1" x="42.1" y="283.502027" style="stroke: #000000; stroke-width: 0.8"/>
      </g>
     </g>
     <g id="text_10">
      <!-- −0.6 -->
      <g transform="translate(10.817188 287.301246) scale(0.1 -0.1)">
       <defs>
        <path id="DejaVuSans-36" d="M 2113 2584 
Q 1688 2584 1439 2293 
Q 1191 2003 1191 1497 
Q 1191 994 1439 701 
Q 1688 409 2113 409 
Q 2538 409 2786 701 
Q 3034 994 3034 1497 
Q 3034 2003 2786 2293 
Q 2538 2584 2113 2584 
z
M 3366 4563 
L 3366 3988 
Q 3128 4100 2886 4159 
Q 2644 4219 2406 4219 
Q 1781 4219 1451 3797 
Q 1122 3375 1075 2522 
Q 1259 2794 1537 2939 
Q 1816 3084 2150 3084 
Q 2853 3084 3261 2657 
Q 3669 2231 3669 1497 
Q 3669 778 3244 343 
Q 2819 -91 2113 -91 
Q 1303 -91 875 529 
Q 447 1150 447 2328 
Q 447 3434 972 4092 
Q 1497 4750 2381 4750 
Q 2619 4750 2861 4703 
Q 3103 4656 3366 4563 
z
" transform="scale(0.015625)"/>
       </defs>
       <use xlink:href="#DejaVuSans-2212"/>
       <use xlink:href="#DejaVuSans-30" transform="translate(83.789062 0)"/>
       <use xlink:href="#DejaVuSans-2e" transform="translate(147.412109 0)"/>
       <use xlink:href="#DejaVuSans-36" transform="translate(179.199219 0)"/>
      </g>
     </g>
    </g>
    <g id="ytick_2">
     <g id="line2d_11">
      <g>
       <use xlink:href="#m9fc3e753b1" x="42.1" y="245.752504" style="stroke: #000000; stroke-width: 0.8"/>
      </g>
     </g>
     <g id="text_11">
      <!-- −0.4 -->
      <g transform="translate(10.817188 249.551722) scale(0.1 -0.1)">
       <defs>
        <path id="DejaVuSans-34" d="M 2419 4116 
L 825 1625 
L 2419 1625 
L 2419 4116 
z
M 2253 4666 
L 3047 4666 
L 3047 1625 
L 3713 1625 
L 3713 1100 
L 3047 1100 
L 3047 0 
L 2419 0 
L 2419 1100 
L 313 1100 
L 313 1709 
L 2253 4666 
z
" transform="scale(0.015625)"/>
       </defs>
       <use xlink:href="#DejaVuSans-2212"/>
       <use xlink:href="#DejaVuSans-30" transform="translate(83.789062 0)"/>
       <use xlink:href="#DejaVuSans-2e" transform="translate(147.412109 0)"/>
       <use xlink:href="#DejaVuSans-34" transform="translate(179.199219 0)"/>
      </g>
     </g>
    </g>
    <g id="ytick_3">
     <g id="line2d_12">
      <g>
       <use xlink:href="#m9fc3e753b1" x="42.1" y="208.00298" style="stroke: #000000; stroke-width: 0.8"/>
      </g>
     </g>
     <g id="text_12">
      <!-- −0.2 -->
      <g transform="translate(10.817188 211.802199) scale(0.1 -0.1)">
       <use xlink:href="#DejaVuSans-2212"/>
       <use xlink:href="#DejaVuSans-30" transform="translate(83.789062 0)"/>
       <use xlink:href="#DejaVuSans-2e" transform="translate(147.412109 0)"/>
       <use xlink:href="#DejaVuSans-32" transform="translate(179.199219 0)"/>
      </g>
     </g>
    </g>
    <g id="ytick_4">
     <g id="line2d_13">
      <g>
       <use xlink:href="#m9fc3e753b1" x="42.1" y="170.253457" style="stroke: #000000; stroke-width: 0.8"/>
      </g>
     </g>
     <g id="text_13">
      <!-- 0.0 -->
      <g transform="translate(19.196875 174.052676) scale(0.1 -0.1)">
       <use xlink:href="#DejaVuSans-30"/>
       <use xlink:href="#DejaVuSans-2e" transform="translate(63.623047 0)"/>
       <use xlink:href="#DejaVuSans-30" transform="translate(95.410156 0)"/>
      </g>
     </g>
    </g>
    <g id="ytick_5">
     <g id="line2d_14">
      <g>
       <use xlink:href="#m9fc3e753b1" x="42.1" y="132.503934" style="stroke: #000000; stroke-width: 0.8"/>
      </g>
     </g>
     <g id="text_14">
      <!-- 0.2 -->
      <g transform="translate(19.196875 136.303152) scale(0.1 -0.1)">
       <use xlink:href="#DejaVuSans-30"/>
       <use xlink:href="#DejaVuSans-2e" transform="translate(63.623047 0)"/>
       <use xlink:href="#DejaVuSans-32" transform="translate(95.410156 0)"/>
      </g>
     </g>
    </g>
    <g id="ytick_6">
     <g id="line2d_15">
      <g>
       <use xlink:href="#m9fc3e753b1" x="42.1" y="94.75441" style="stroke: #000000; stroke-width: 0.8"/>
      </g>
     </g>
     <g id="text_15">
      <!-- 0.4 -->
      <g transform="translate(19.196875 98.553629) scale(0.1 -0.1)">
       <use xlink:href="#DejaVuSans-30"/>
       <use xlink:href="#DejaVuSans-2e" transform="translate(63.623047 0)"/>
       <use xlink:href="#DejaVuSans-34" transform="translate(95.410156 0)"/>
      </g>
     </g>
    </g>
    <g id="ytick_7">
     <g id="line2d_16">
      <g>
       <use xlink:href="#m9fc3e753b1" x="42.1" y="57.004887" style="stroke: #000000; stroke-width: 0.8"/>
      </g>
     </g>
     <g id="text_16">
      <!-- 0.6 -->
      <g transform="translate(19.196875 60.804106) scale(0.1 -0.1)">
       <use xlink:href="#DejaVuSans-30"/>
       <use xlink:href="#DejaVuSans-2e" transform="translate(63.623047 0)"/>
       <use xlink:href="#DejaVuSans-36" transform="translate(95.410156 0)"/>
      </g>
     </g>
    </g>
    <g id="ytick_8">
     <g id="line2d_17">
      <g>
       <use xlink:href="#m9fc3e753b1" x="42.1" y="19.255364" style="stroke: #000000; stroke-width: 0.8"/>
      </g>
     </g>
     <g id="text_17">
      <!-- 0.8 -->
      <g transform="translate(19.196875 23.054583) scale(0.1 -0.1)">
       <defs>
        <path id="DejaVuSans-38" d="M 2034 2216 
Q 1584 2216 1326 1975 
Q 1069 1734 1069 1313 
Q 1069 891 1326 650 
Q 1584 409 2034 409 
Q 2484 409 2743 651 
Q 3003 894 3003 1313 
Q 3003 1734 2745 1975 
Q 2488 2216 2034 2216 
z
M 1403 2484 
Q 997 2584 770 2862 
Q 544 3141 544 3541 
Q 544 4100 942 4425 
Q 1341 4750 2034 4750 
Q 2731 4750 3128 4425 
Q 3525 4100 3525 3541 
Q 3525 3141 3298 2862 
Q 3072 2584 2669 2484 
Q 3125 2378 3379 2068 
Q 3634 1759 3634 1313 
Q 3634 634 3220 271 
Q 2806 -91 2034 -91 
Q 1263 -91 848 271 
Q 434 634 434 1313 
Q 434 1759 690 2068 
Q 947 2378 1403 2484 
z
M 1172 3481 
Q 1172 3119 1398 2916 
Q 1625 2713 2034 2713 
Q 2441 2713 2670 2916 
Q 2900 3119 2900 3481 
Q 2900 3844 2670 4047 
Q 2441 4250 2034 4250 
Q 1625 4250 1398 4047 
Q 1172 3844 1172 3481 
z
" transform="scale(0.015625)"/>
       </defs>
       <use xlink:href="#DejaVuSans-30"/>
       <use xlink:href="#DejaVuSans-2e" transform="translate(63.623047 0)"/>
       <use xlink:href="#DejaVuSans-38" transform="translate(95.410156 0)"/>
      </g>
     </g>
    </g>
   </g>
   <g id="line2d_18">
    <path d="M 424.374792 201.901664 
L 424.229247 201.637303 
L 423.741673 201.348073 
L 422.365297 200.858736 
L 419.310982 200.077087 
L 412.048168 198.527704 
L 392.440191 194.394202 
L 378.97033 191.278452 
L 366.41995 188.146719 
L 352.337087 184.395335 
L 336.815875 180.021961 
L 315.62639 173.771061 
L 259.271234 156.877232 
L 239.743998 151.348699 
L 225.153786 147.434006 
L 210.734557 143.783177 
L 196.587882 140.437326 
L 182.80603 137.421639 
L 169.47219 134.747267 
L 156.661429 132.413999 
L 144.441065 130.413108 
L 132.871785 128.730273 
L 122.008029 127.347982 
L 111.897893 126.247576 
L 102.583667 125.410894 
L 94.101788 124.821449 
L 86.483017 124.465219 
L 79.752834 124.331304 
L 73.932199 124.412317 
L 69.038021 124.704477 
L 65.08452 125.207821 
L 62.977519 125.662429 
L 61.297477 126.214549 
L 60.04779 126.866896 
L 59.231968 127.622847 
L 58.853791 128.486413 
L 58.830008 128.959941 
L 59.115798 129.993508 
L 59.849853 131.146744 
L 61.036966 132.424973 
L 62.682212 133.833604 
L 64.7909 135.377831 
L 68.834054 137.958573 
L 73.947814 140.867209 
L 80.144815 144.109099 
L 87.431322 147.679317 
L 95.803656 151.55914 
L 105.245022 155.713133 
L 115.721961 160.087191 
L 127.182035 164.608694 
L 139.552703 169.189136 
L 148.260958 172.226882 
L 157.301455 175.216556 
L 166.639156 178.128351 
L 176.23668 180.934348 
L 186.054428 183.609397 
L 196.051342 186.132146 
L 206.185418 188.485646 
L 216.414564 190.657795 
L 226.696455 192.641258 
L 236.98938 194.433373 
L 247.252393 196.035653 
L 257.446013 197.45331 
L 267.531957 198.694402 
L 282.379739 200.248146 
L 296.789576 201.469264 
L 310.658809 202.40213 
L 323.898249 203.091055 
L 340.442816 203.701741 
L 355.596572 204.039833 
L 372.443124 204.187045 
L 389.468981 204.095386 
L 403.001202 203.822506 
L 413.123657 203.434072 
L 419.964047 202.95331 
L 422.761373 202.577268 
L 423.952998 202.258915 
L 424.319508 202.025607 
L 424.374747 201.901664 
L 424.374747 201.901664 
" clip-path="url(#p0024b58e6a)" style="fill: none; stroke: #000000; stroke-width: 2; stroke-linecap: square"/>
   </g>
   <g id="line2d_19">
    <path d="M 433.269992 170.00776 
L 433.211198 169.824247 
L 432.744606 169.46263 
L 431.813582 169.105213 
L 429.549945 168.568439 
L 424.925986 167.829521 
L 416.607472 166.818831 
L 397.662189 164.842572 
L 349.87099 159.889679 
L 302.862914 155.03457 
L 279.934773 152.885342 
L 261.254172 151.326709 
L 242.469755 149.983899 
L 223.752311 148.913663 
L 209.856544 148.316896 
L 196.157583 147.912159 
L 182.723037 147.708967 
L 169.621317 147.712944 
L 156.922784 147.926295 
L 144.699921 148.348242 
L 133.02688 148.975544 
L 121.978655 149.802976 
L 111.629497 150.823801 
L 102.051159 152.030141 
L 93.310672 153.413251 
L 85.468426 154.963696 
L 80.765378 156.085328 
L 76.498029 157.273665 
L 72.677517 158.525296 
L 69.313157 159.836572 
L 66.412239 161.203526 
L 63.980208 162.621798 
L 62.020822 164.08659 
L 60.536241 165.592552 
L 59.527207 167.133764 
L 59.200906 167.915557 
L 58.993226 168.703639 
L 58.903922 169.497093 
L 58.932723 170.294937 
L 59.079268 171.096142 
L 59.723997 172.704422 
L 60.83435 174.31295 
L 62.406075 175.912204 
L 64.434177 177.492125 
L 66.913189 179.042284 
L 69.837057 180.552065 
L 73.199235 182.010872 
L 76.992499 183.408297 
L 81.208975 184.73434 
L 85.840089 185.979713 
L 90.876414 187.135978 
L 96.307644 188.195756 
L 102.122216 189.152898 
L 108.30755 190.0026 
L 114.849876 190.74147 
L 125.299072 191.638091 
L 136.459934 192.280604 
L 148.268653 192.674913 
L 160.654993 192.832534 
L 173.543093 192.769471 
L 186.852863 192.504928 
L 205.112061 191.87555 
L 223.774909 190.978091 
L 242.644093 189.864239 
L 266.229453 188.241466 
L 294.057811 186.067926 
L 325.117926 183.379187 
L 353.777657 180.684784 
L 382.414229 177.772155 
L 402.914249 175.482428 
L 416.550231 173.758825 
L 424.907513 172.496765 
L 429.548617 171.593006 
L 431.816642 170.968823 
L 432.747441 170.574184 
L 433.212323 170.193662 
L 433.269992 170.00776 
L 433.269992 170.00776 
" clip-path="url(#p0024b58e6a)" style="fill: none; stroke-dasharray: 7.4,3.2; stroke-dashoffset: 0; stroke: #000000; stroke-width: 2"/>
   </g>
   <g id="patch_5">
    <path d="M 42.1 317.72 
L 42.1 10.8 
" style="fill: none; stroke: #000000; stroke-width: 0.8; stroke-linejoin: miter; stroke-linecap: square"/>
   </g>
   <g id="patch_6">
    <path d="M 450 317.72 
L 450 10.8 
" style="fill: none; stroke: #000000; stroke-width: 0.8; stroke-linejoin: miter; stroke-linecap: square"/>
   </g>
   <g id="patch_7">
    <path d="M 42.1 317.72 
L 450 317.72 
" style="fill: none; stroke: #000000; stroke-width: 0.8; stroke-linejoin: miter; stroke-linecap: square"/>
   </g>
   <g id="patch_8">
    <path d="M 42.1 10.8 
L 450 10.8 
" style="fill: none; stroke: #000000; stroke-width: 0.8; stroke-linejoin: miter; stroke-linecap: square"/>
   </g>
   <g id="legend_1">
    <g id="patch_9">
     <path d="M 325.31875 48.15625 
L 443 48.15625 
Q 445 48.15625 445 46.15625 
L 445 17.8 
Q 445 15.8 443 15.8 
L 325.31875 15.8 
Q 323.31875 15.8 323.31875 17.8 
L 323.31875 46.15625 
Q 323.31875 48.15625 325.31875 48.15625 
z
" style="fill: #ffffff; opacity: 0.8; stroke: #cccccc; stroke-linejoin: miter"/>
    </g>
    <g id="patch_10">
     <path d="M 327.31875 27.398438 
L 347.31875 27.398438 
L 347.31875 20.398438 
L 327.31875 20.398438 
z
" style="fill: #c9c9f5; opacity: 0.46; stroke: #c9c9f5; stroke-linejoin: miter"/>
    </g>
    <g id="text_18">
     <!-- Optimized Shape -->
     <g transform="translate(355.31875 27.398438) scale(0.1 -0.1)">
      <defs>
       <path id="DejaVuSans-4f" d="M 2522 4238 
Q 1834 4238 1429 3725 
Q 1025 3213 1025 2328 
Q 1025 1447 1429 934 
Q 1834 422 2522 422 
Q 3209 422 3611 934 
Q 4013 1447 4013 2328 
Q 4013 3213 3611 3725 
Q 3209 4238 2522 4238 
z
M 2522 4750 
Q 3503 4750 4090 4092 
Q 4678 3434 4678 2328 
Q 4678 1225 4090 567 
Q 3503 -91 2522 -91 
Q 1538 -91 948 565 
Q 359 1222 359 2328 
Q 359 3434 948 4092 
Q 1538 4750 2522 4750 
z
" transform="scale(0.015625)"/>
       <path id="DejaVuSans-70" d="M 1159 525 
L 1159 -1331 
L 581 -1331 
L 581 3500 
L 1159 3500 
L 1159 2969 
Q 1341 3281 1617 3432 
Q 1894 3584 2278 3584 
Q 2916 3584 3314 3078 
Q 3713 2572 3713 1747 
Q 3713 922 3314 415 
Q 2916 -91 2278 -91 
Q 1894 -91 1617 61 
Q 1341 213 1159 525 
z
M 3116 1747 
Q 3116 2381 2855 2742 
Q 2594 3103 2138 3103 
Q 1681 3103 1420 2742 
Q 1159 2381 1159 1747 
Q 1159 1113 1420 752 
Q 1681 391 2138 391 
Q 2594 391 2855 752 
Q 3116 1113 3116 1747 
z
" transform="scale(0.015625)"/>
       <path id="DejaVuSans-74" d="M 1172 4494 
L 1172 3500 
L 2356 3500 
L 2356 3053 
L 1172 3053 
L 1172 1153 
Q 1172 725 1289 603 
Q 1406 481 1766 481 
L 2356 481 
L 2356 0 
L 1766 0 
Q 1100 0 847 248 
Q 594 497 594 1153 
L 594 3053 
L 172 3053 
L 172 3500 
L 594 3500 
L 594 4494 
L 1172 4494 
z
" transform="scale(0.015625)"/>
       <path id="DejaVuSans-69" d="M 603 3500 
L 1178 3500 
L 1178 0 
L 603 0 
L 603 3500 
z
M 603 4863 
L 1178 4863 
L 1178 4134 
L 603 4134 
L 603 4863 
z
" transform="scale(0.015625)"/>
       <path id="DejaVuSans-6d" d="M 3328 2828 
Q 3544 3216 3844 3400 
Q 4144 3584 4550 3584 
Q 5097 3584 5394 3201 
Q 5691 2819 5691 2113 
L 5691 0 
L 5113 0 
L 5113 2094 
Q 5113 2597 4934 2840 
Q 4756 3084 4391 3084 
Q 3944 3084 3684 2787 
Q 3425 2491 3425 1978 
L 3425 0 
L 2847 0 
L 2847 2094 
Q 2847 2600 2669 2842 
Q 2491 3084 2119 3084 
Q 1678 3084 1418 2786 
Q 1159 2488 1159 1978 
L 1159 0 
L 581 0 
L 581 3500 
L 1159 3500 
L 1159 2956 
Q 1356 3278 1631 3431 
Q 1906 3584 2284 3584 
Q 2666 3584 2933 3390 
Q 3200 3197 3328 2828 
z
" transform="scale(0.015625)"/>
       <path id="DejaVuSans-7a" d="M 353 3500 
L 3084 3500 
L 3084 2975 
L 922 459 
L 3084 459 
L 3084 0 
L 275 0 
L 275 525 
L 2438 3041 
L 353 3041 
L 353 3500 
z
" transform="scale(0.015625)"/>
       <path id="DejaVuSans-65" d="M 3597 1894 
L 3597 1613 
L 953 1613 
Q 991 1019 1311 708 
Q 1631 397 2203 397 
Q 2534 397 2845 478 
Q 3156 559 3463 722 
L 3463 178 
Q 3153 47 2828 -22 
Q 2503 -91 2169 -91 
Q 1331 -91 842 396 
Q 353 884 353 1716 
Q 353 2575 817 3079 
Q 1281 3584 2069 3584 
Q 2775 3584 3186 3129 
Q 3597 2675 3597 1894 
z
M 3022 2063 
Q 3016 2534 2758 2815 
Q 2500 3097 2075 3097 
Q 1594 3097 1305 2825 
Q 1016 2553 972 2059 
L 3022 2063 
z
" transform="scale(0.015625)"/>
       <path id="DejaVuSans-64" d="M 2906 2969 
L 2906 4863 
L 3481 4863 
L 3481 0 
L 2906 0 
L 2906 525 
Q 2725 213 2448 61 
Q 2172 -91 1784 -91 
Q 1150 -91 751 415 
Q 353 922 353 1747 
Q 353 2572 751 3078 
Q 1150 3584 1784 3584 
Q 2172 3584 2448 3432 
Q 2725 3281 2906 2969 
z
M 947 1747 
Q 947 1113 1208 752 
Q 1469 391 1925 391 
Q 2381 391 2643 752 
Q 2906 1113 2906 1747 
Q 2906 2381 2643 2742 
Q 2381 3103 1925 3103 
Q 1469 3103 1208 2742 
Q 947 2381 947 1747 
z
" transform="scale(0.015625)"/>
       <path id="DejaVuSans-20" transform="scale(0.015625)"/>
       <path id="DejaVuSans-53" d="M 3425 4513 
L 3425 3897 
Q 3066 4069 2747 4153 
Q 2428 4238 2131 4238 
Q 1616 4238 1336 4038 
Q 1056 3838 1056 3469 
Q 1056 3159 1242 3001 
Q 1428 2844 1947 2747 
L 2328 2669 
Q 3034 2534 3370 2195 
Q 3706 1856 3706 1288 
Q 3706 609 3251 259 
Q 2797 -91 1919 -91 
Q 1588 -91 1214 -16 
Q 841 59 441 206 
L 441 856 
Q 825 641 1194 531 
Q 1563 422 1919 422 
Q 2459 422 2753 634 
Q 3047 847 3047 1241 
Q 3047 1584 2836 1778 
Q 2625 1972 2144 2069 
L 1759 2144 
Q 1053 2284 737 2584 
Q 422 2884 422 3419 
Q 422 4038 858 4394 
Q 1294 4750 2059 4750 
Q 2388 4750 2728 4690 
Q 3069 4631 3425 4513 
z
" transform="scale(0.015625)"/>
       <path id="DejaVuSans-68" d="M 3513 2113 
L 3513 0 
L 2938 0 
L 2938 2094 
Q 2938 2591 2744 2837 
Q 2550 3084 2163 3084 
Q 1697 3084 1428 2787 
Q 1159 2491 1159 1978 
L 1159 0 
L 581 0 
L 581 4863 
L 1159 4863 
L 1159 2956 
Q 1366 3272 1645 3428 
Q 1925 3584 2291 3584 
Q 2894 3584 3203 3211 
Q 3513 2838 3513 2113 
z
" transform="scale(0.015625)"/>
       <path id="DejaVuSans-61" d="M 2194 1759 
Q 1497 1759 1228 1600 
Q 959 1441 959 1056 
Q 959 750 1161 570 
Q 1363 391 1709 391 
Q 2188 391 2477 730 
Q 2766 1069 2766 1631 
L 2766 1759 
L 2194 1759 
z
M 3341 1997 
L 3341 0 
L 2766 0 
L 2766 531 
Q 2569 213 2275 61 
Q 1981 -91 1556 -91 
Q 1019 -91 701 211 
Q 384 513 384 1019 
Q 384 1609 779 1909 
Q 1175 2209 1959 2209 
L 2766 2209 
L 2766 2266 
Q 2766 2663 2505 2880 
Q 2244 3097 1772 3097 
Q 1472 3097 1187 3025 
Q 903 2953 641 2809 
L 641 3341 
Q 956 3463 1253 3523 
Q 1550 3584 1831 3584 
Q 2591 3584 2966 3190 
Q 3341 2797 3341 1997 
z
" transform="scale(0.015625)"/>
      </defs>
      <use xlink:href="#DejaVuSans-4f"/>
      <use xlink:href="#DejaVuSans-70" transform="translate(78.710938 0)"/>
      <use xlink:href="#DejaVuSans-74" transform="translate(142.1875 0)"/>
      <use xlink:href="#DejaVuSans-69" transform="translate(181.396484 0)"/>
      <use xlink:href="#DejaVuSans-6d" transform="translate(209.179688 0)"/>
      <use xlink:href="#DejaVuSans-69" transform="translate(306.591797 0)"/>
      <use xlink:href="#DejaVuSans-7a" transform="translate(334.375 0)"/>
      <use xlink:href="#DejaVuSans-65" transform="translate(386.865234 0)"/>
      <use xlink:href="#DejaVuSans-64" transform="translate(448.388672 0)"/>
      <use xlink:href="#DejaVuSans-20" transform="translate(511.865234 0)"/>
      <use xlink:href="#DejaVuSans-53" transform="translate(543.652344 0)"/>
      <use xlink:href="#DejaVuSans-68" transform="translate(607.128906 0)"/>
      <use xlink:href="#DejaVuSans-61" transform="translate(670.507812 0)"/>
      <use xlink:href="#DejaVuSans-70" transform="translate(731.787109 0)"/>
      <use xlink:href="#DejaVuSans-65" transform="translate(795.263672 0)"/>
     </g>
    </g>
    <g id="patch_11">
     <path d="M 327.31875 42.076563 
L 347.31875 42.076563 
L 347.31875 35.076563 
L 327.31875 35.076563 
z
" style="fill: #f69e5e; opacity: 0.36; stroke: #f69e5e; stroke-linejoin: miter"/>
    </g>
    <g id="text_19">
     <!-- Initial Shape -->
     <g transform="translate(355.31875 42.076563) scale(0.1 -0.1)">
      <defs>
       <path id="DejaVuSans-49" d="M 628 4666 
L 1259 4666 
L 1259 0 
L 628 0 
L 628 4666 
z
" transform="scale(0.015625)"/>
       <path id="DejaVuSans-6e" d="M 3513 2113 
L 3513 0 
L 2938 0 
L 2938 2094 
Q 2938 2591 2744 2837 
Q 2550 3084 2163 3084 
Q 1697 3084 1428 2787 
Q 1159 2491 1159 1978 
L 1159 0 
L 581 0 
L 581 3500 
L 1159 3500 
L 1159 2956 
Q 1366 3272 1645 3428 
Q 1925 3584 2291 3584 
Q 2894 3584 3203 3211 
Q 3513 2838 3513 2113 
z
" transform="scale(0.015625)"/>
       <path id="DejaVuSans-6c" d="M 603 4863 
L 1178 4863 
L 1178 0 
L 603 0 
L 603 4863 
z
" transform="scale(0.015625)"/>
      </defs>
      <use xlink:href="#DejaVuSans-49"/>
      <use xlink:href="#DejaVuSans-6e" transform="translate(29.492188 0)"/>
      <use xlink:href="#DejaVuSans-69" transform="translate(92.871094 0)"/>
      <use xlink:href="#DejaVuSans-74" transform="translate(120.654297 0)"/>
      <use xlink:href="#DejaVuSans-69" transform="translate(159.863281 0)"/>
      <use xlink:href="#DejaVuSans-61" transform="translate(187.646484 0)"/>
      <use xlink:href="#DejaVuSans-6c" transform="translate(248.925781 0)"/>
      <use xlink:href="#DejaVuSans-20" transform="translate(276.708984 0)"/>
      <use xlink:href="#DejaVuSans-53" transform="translate(308.496094 0)"/>
      <use xlink:href="#DejaVuSans-68" transform="translate(371.972656 0)"/>
      <use xlink:href="#DejaVuSans-61" transform="translate(435.351562 0)"/>
      <use xlink:href="#DejaVuSans-70" transform="translate(496.630859 0)"/>
      <use xlink:href="#DejaVuSans-65" transform="translate(560.107422 0)"/>
     </g>
    </g>
   </g>
  </g>
 </g>
 <defs>
  <clipPath id="p0024b58e6a">
   <rect x="42.1" y="10.8" width="407.9" height="306.92"/>
  </clipPath>
 </defs>
</svg>
