<?xml version="1.0" encoding="utf-8" standalone="no"?>
<!DOCTYPE svg PUBLIC "-//W3C//DTD SVG 1.1//EN"
  "http://www.w3.org/Graphics/SVG/1.1/DTD/svg11.dtd">
<svg xmlns:xlink="http://www.w3.org/1999/xlink" width="460.8pt" height="345.6pt" viewBox="0 0 460.8 345.6" xmlns="http://www.w3.org/2000/svg" version="1.1">
 <metadata>
  <rdf:RDF xmlns:dc="http://purl.org/dc/elements/1.1/" xmlns:cc="http://creativecommons.org/ns#" xmlns:rdf="http://www.w3.org/1999/02/22-rdf-syntax-ns#">
   <cc:Work>
    <dc:type rdf:resource="http://purl.org/dc/dcmitype/StillImage"/>
    <dc:date>2025-06-09T17:54:42.707646</dc:date>
    <dc:format>image/svg+xml</dc:format>
    <dc:creator>
     <cc:Agent>
      <dc:title>Matplotlib v3.10.0, https://matplotlib.org/</dc:title>
     </cc:Agent>
    </dc:creator>
   </cc:Work>
  </rdf:RDF>
 </metadata>
 <defs>
  <style type="text/css">*{stroke-linejoin: round; stroke-linecap: butt}</style>
 </defs>
 <g id="figure_1">
  <g id="patch_1">
   <path d="M 0 345.6 
L 460.8 345.6 
L 460.8 0 
L 0 0 
z
" style="fill: #ffffff"/>
  </g>
  <g id="axes_1">
   <g id="patch_2">
    <path d="M 42.1 317.72 
L 450 317.72 
L 450 12.632072 
L 42.1 12.632072 
z
" style="fill: #ffffff"/>
   </g>
   <g id="patch_3">
    <path d="M 423.277715 167.50883 
L 423.240358 167.342263 
L 423.104299 167.174696 
L 422.869282 167.00571 
L 422.535051 166.834881 
L 422.101405 166.661759 
L 421.568065 166.485879 
L 420.93472 166.306774 
L 420.201069 166.123956 
L 419.366778 165.936913 
L 418.431489 165.745153 
L 417.394858 165.548142 
L 416.256551 165.345359 
L 415.016244 165.136267 
L 413.673548 164.92034 
L 412.22825 164.697044 
L 410.680039 164.465836 
L 409.028725 164.226212 
L 407.274119 163.977645 
L 405.416143 163.719646 
L 403.454819 163.451731 
L 401.390248 163.173457 
L 399.22253 162.884392 
L 396.951998 162.58415 
L 394.579066 162.272394 
L 392.10429 161.948821 
L 389.528295 161.613192 
L 386.851982 161.265299 
L 384.076298 160.905051 
L 381.202381 160.53237 
L 378.231545 160.147287 
L 375.165238 159.749896 
L 372.005076 159.340395 
L 368.752941 158.919041 
L 365.410706 158.486195 
L 361.980565 158.042309 
L 358.464679 157.587924 
L 354.865579 157.123659 
L 351.185848 156.650239 
L 347.42806 156.168469 
L 343.595078 155.67923 
L 339.689851 155.183494 
L 335.715362 154.682294 
L 331.674722 154.17673 
L 327.57106 153.667958 
L 323.407563 153.157197 
L 319.187562 152.645712 
L 314.914278 152.134786 
L 310.590991 151.625723 
L 306.221032 151.119879 
L 301.80765 150.618568 
L 297.354142 150.123144 
L 292.863672 149.634928 
L 288.339497 149.155236 
L 283.784716 148.685346 
L 279.202416 148.226517 
L 274.595658 147.779952 
L 269.967393 147.346833 
L 265.320583 146.928278 
L 260.658098 146.525343 
L 255.982701 146.139043 
L 251.297199 145.770324 
L 246.604335 145.420077 
L 241.906724 145.089116 
L 237.207082 144.778205 
L 232.507946 144.488029 
L 227.811958 144.219208 
L 223.121796 143.972312 
L 218.439973 143.747838 
L 213.769118 143.546204 
L 209.111956 143.367785 
L 204.47103 143.21289 
L 199.849139 143.081782 
L 195.249005 142.974633 
L 190.673515 142.891601 
L 186.125533 142.832771 
L 181.607973 142.798169 
L 177.123915 142.787804 
L 172.676485 142.801605 
L 168.268813 142.839483 
L 163.904174 142.901301 
L 159.586029 142.986889 
L 155.317691 143.096046 
L 151.102665 143.228511 
L 146.944488 143.38404 
L 142.846754 143.562329 
L 138.813138 143.763053 
L 134.847217 143.985885 
L 130.952713 144.230465 
L 127.133213 144.496412 
L 123.392404 144.783335 
L 119.733898 145.090864 
L 116.161124 145.418565 
L 112.677616 145.766036 
L 109.286748 146.132863 
L 105.991697 146.518616 
L 102.795648 146.922892 
L 99.701554 147.345257 
L 96.712268 147.785294 
L 93.830474 148.242585 
L 91.05859 148.716716 
L 88.398989 149.207271 
L 85.853777 149.713845 
L 83.42487 150.23603 
L 81.113996 150.773416 
L 78.922725 151.325586 
L 76.852338 151.892146 
L 74.904072 152.47266 
L 73.078874 153.066734 
L 71.377468 153.673924 
L 69.800624 154.293786 
L 68.348775 154.925883 
L 67.022222 155.569738 
L 65.821177 156.224865 
L 64.745741 156.890747 
L 63.795891 157.56685 
L 62.971392 158.252609 
L 62.272157 158.947441 
L 61.697773 159.650685 
L 61.247938 160.361699 
L 60.922152 161.079775 
L 60.720013 161.804155 
L 60.640909 162.53405 
L 60.684349 163.268621 
L 60.84971 164.006987 
L 61.136401 164.748228 
L 61.543821 165.491355 
L 62.071277 166.235352 
L 62.718193 166.979188 
L 63.483831 167.721708 
L 64.367534 168.461814 
L 65.368691 169.198315 
L 66.486476 169.929993 
L 67.72031 170.65562 
L 69.069479 171.373956 
L 70.533116 172.083699 
L 72.110551 172.783599 
L 73.800938 173.472353 
L 75.603441 174.148694 
L 77.517157 174.811381 
L 79.541207 175.459148 
L 81.674565 176.090798 
L 83.916185 176.705172 
L 86.264929 177.301136 
L 88.71955 177.877634 
L 91.278777 178.433649 
L 93.941197 178.968262 
L 96.705315 179.480605 
L 99.569484 179.969894 
L 102.531964 180.43545 
L 105.590884 180.876671 
L 108.744206 181.293043 
L 111.989867 181.684169 
L 115.325462 182.049729 
L 118.74864 182.389499 
L 122.256871 182.703395 
L 125.847315 182.991362 
L 129.517242 183.253499 
L 133.263532 183.48994 
L 137.083154 183.700948 
L 140.972845 183.886861 
L 144.929251 184.048075 
L 148.948796 184.185065 
L 153.028136 184.298371 
L 157.163311 184.388586 
L 161.350846 184.456363 
L 165.586901 184.502386 
L 169.8676 184.527388 
L 174.189166 184.532135 
L 178.547688 184.517397 
L 182.939261 184.483995 
L 187.360308 184.432733 
L 191.806703 184.364433 
L 196.275023 184.27993 
L 200.76127 184.180045 
L 205.262051 184.065584 
L 209.773798 183.937367 
L 214.293052 183.796179 
L 218.816447 183.6428 
L 223.340909 183.477979 
L 227.863264 183.302456 
L 232.380516 183.116943 
L 236.889818 182.922118 
L 241.388364 182.718655 
L 245.873788 182.507178 
L 250.343244 182.288307 
L 254.794626 182.062624 
L 259.225569 181.830672 
L 263.633948 181.592995 
L 268.017649 181.350093 
L 272.374739 181.102448 
L 276.703249 180.850532 
L 281.00161 180.594749 
L 285.267758 180.335547 
L 289.500232 180.073304 
L 293.69734 179.808387 
L 297.857444 179.541167 
L 301.97891 179.271989 
L 306.060406 179.00116 
L 310.100077 178.72902 
L 314.096598 178.455848 
L 318.048302 178.181931 
L 321.953669 177.90756 
L 325.811084 177.632991 
L 329.618846 177.35849 
L 333.375514 177.0843 
L 337.079133 176.810674 
L 340.72818 176.537846 
L 344.320841 176.266049 
L 347.855378 175.995492 
L 351.329817 175.726412 
L 354.742566 175.458992 
L 358.091486 175.193472 
L 361.374873 174.930019 
L 364.590753 174.668832 
L 367.737245 174.410095 
L 370.812432 174.15399 
L 373.814453 173.900656 
L 376.74137 173.650272 
L 379.591533 173.40297 
L 382.362916 173.158886 
L 385.053991 172.918139 
L 387.662965 172.680836 
L 390.188301 172.447064 
L 392.628427 172.216909 
L 394.981917 171.990427 
L 397.247357 171.767675 
L 399.42361 171.548667 
L 401.509417 171.333424 
L 403.50373 171.121939 
L 405.405603 170.914183 
L 407.214067 170.710126 
L 408.92853 170.509698 
L 410.548102 170.312824 
L 412.072337 170.119405 
L 413.500644 169.929323 
L 414.832611 169.742436 
L 416.067927 169.558592 
L 417.206223 169.377622 
L 418.247255 169.199337 
L 419.190866 169.02352 
L 420.036822 168.849947 
L 420.785091 168.678369 
L 421.435471 168.508517 
L 421.987929 168.34012 
L 422.442321 168.172879 
L 422.798646 168.006463 
L 423.056681 167.840556 
L 423.216426 167.6748 
z
" clip-path="url(#p14b55f0eff)" style="fill: #c9c9f5; opacity: 0.46; stroke: #c9c9f5; stroke-linejoin: miter"/>
   </g>
   <g id="patch_4">
    <path d="M 431.459091 164.924189 
L 431.400866 164.74177 
L 431.227394 164.561287 
L 430.938787 164.382313 
L 430.535178 164.204381 
L 430.016768 164.027029 
L 429.383779 163.849758 
L 428.636436 163.672075 
L 427.775026 163.493459 
L 426.799862 163.313378 
L 425.711346 163.131301 
L 424.509811 162.946682 
L 423.195792 162.758952 
L 421.769758 162.56757 
L 420.232265 162.371967 
L 418.583959 162.171591 
L 416.825532 161.965878 
L 414.957741 161.754294 
L 412.981365 161.536294 
L 410.897408 161.311358 
L 408.706782 161.078987 
L 406.41067 160.838699 
L 404.010163 160.590041 
L 401.506576 160.332592 
L 398.901267 160.065971 
L 396.195708 159.789833 
L 393.39148 159.503887 
L 390.490278 159.207879 
L 387.493906 158.901617 
L 384.40419 158.584976 
L 381.223249 158.257871 
L 377.953066 157.920313 
L 374.595979 157.572357 
L 371.154173 157.214146 
L 367.630143 156.845884 
L 364.026385 156.46786 
L 360.345462 156.080433 
L 356.590002 155.684046 
L 352.762859 155.279208 
L 348.866773 154.866504 
L 344.904618 154.446594 
L 340.879375 154.020214 
L 336.794007 153.588153 
L 332.651517 153.151266 
L 328.454958 152.710463 
L 324.207416 152.266712 
L 319.911999 151.821027 
L 315.571788 151.374451 
L 311.189903 150.928078 
L 306.769373 150.483003 
L 302.313387 150.040376 
L 297.824933 149.601332 
L 293.307062 149.167017 
L 288.762812 148.738596 
L 284.195138 148.317204 
L 279.60702 147.903978 
L 275.001281 147.500031 
L 270.380841 147.106459 
L 265.748519 146.724319 
L 261.107108 146.354649 
L 256.459288 145.998431 
L 251.807792 145.656632 
L 247.155283 145.330153 
L 242.504385 145.019855 
L 237.857649 144.726552 
L 233.217646 144.451012 
L 228.586916 144.193945 
L 223.967987 143.956007 
L 219.363312 143.737815 
L 214.775313 143.539903 
L 210.206628 143.362802 
L 205.659516 143.206935 
L 201.136544 143.072714 
L 196.640172 142.960481 
L 192.172904 142.870542 
L 187.737195 142.80315 
L 183.335572 142.758502 
L 178.970544 142.736766 
L 174.644716 142.73806 
L 170.36058 142.762455 
L 166.120804 142.810008 
L 161.928044 142.880705 
L 157.784874 142.974532 
L 153.694081 143.091416 
L 149.658292 143.231266 
L 145.680238 143.393961 
L 141.762738 143.579354 
L 137.90841 143.787265 
L 134.120106 144.017518 
L 130.400544 144.269879 
L 126.752488 144.544133 
L 123.178745 144.840011 
L 119.681878 145.157264 
L 116.26465 145.495605 
L 112.92969 145.854743 
L 109.679583 146.23438 
L 106.51687 146.634198 
L 103.444 147.053882 
L 100.463382 147.493092 
L 97.577332 147.951486 
L 94.788056 148.428735 
L 92.097694 148.924462 
L 89.508273 149.438316 
L 87.021665 149.969926 
L 84.639719 150.518912 
L 82.364107 151.084862 
L 80.196389 151.667406 
L 78.138035 152.266106 
L 76.190337 152.880546 
L 74.354477 153.510265 
L 72.631635 154.154816 
L 71.022659 154.813715 
L 69.528483 155.48645 
L 68.1498 156.172509 
L 66.887232 156.871329 
L 65.741293 157.582315 
L 64.712406 158.304879 
L 63.80086 159.038363 
L 63.006922 159.782088 
L 62.330638 160.535336 
L 61.772142 161.297357 
L 61.331365 162.067348 
L 61.008219 162.844474 
L 60.802549 163.627852 
L 60.714108 164.416569 
L 60.74263 165.209651 
L 60.887758 166.006073 
L 61.149091 166.804805 
L 61.526251 167.604753 
L 62.018657 168.404768 
L 62.625864 169.203679 
L 63.347293 170.000311 
L 64.182386 170.793388 
L 65.130476 171.581672 
L 66.190872 172.363878 
L 67.362926 173.138675 
L 68.645905 173.904783 
L 70.039028 174.660849 
L 71.541492 175.405552 
L 73.152518 176.137597 
L 74.871149 176.855651 
L 76.696558 177.558452 
L 78.627722 178.244735 
L 80.663682 178.913259 
L 82.803413 179.562862 
L 85.045779 180.192402 
L 87.389733 180.800801 
L 89.834026 181.387046 
L 92.377343 181.950164 
L 95.018505 182.48929 
L 97.75604 183.003616 
L 100.588455 183.492412 
L 103.514369 183.955045 
L 106.532044 184.390955 
L 109.639875 184.799675 
L 112.836147 185.180839 
L 116.118921 185.534135 
L 119.486391 185.8594 
L 122.936442 186.15649 
L 126.467045 186.425404 
L 130.076039 186.666198 
L 133.76113 186.879023 
L 137.519954 187.064081 
L 141.350205 187.221689 
L 145.249199 187.35219 
L 149.214452 187.456036 
L 153.243343 187.533697 
L 157.33314 187.585726 
L 161.480983 187.612717 
L 165.684077 187.615306 
L 169.939479 187.59417 
L 174.244422 187.55003 
L 178.595646 187.483619 
L 182.99045 187.395698 
L 187.425452 187.287066 
L 191.89785 187.158505 
L 196.404497 187.010838 
L 200.942282 186.844875 
L 205.508037 186.661445 
L 210.098835 186.461363 
L 214.711537 186.245451 
L 219.343065 186.014504 
L 223.990367 185.769343 
L 228.650326 185.510756 
L 233.320194 185.239511 
L 237.996666 184.956394 
L 242.677037 184.66214 
L 247.358263 184.357496 
L 252.037475 184.043162 
L 256.711778 183.719864 
L 261.378354 183.388275 
L 266.034266 183.049053 
L 270.67703 182.702836 
L 275.30347 182.350284 
L 279.911119 181.991984 
L 284.49716 181.628534 
L 289.058868 181.260515 
L 293.593452 180.888488 
L 298.098489 180.512977 
L 302.57092 180.134558 
L 307.008318 179.75369 
L 311.407952 179.37091 
L 315.767086 178.986688 
L 320.083065 178.601492 
L 324.353135 178.215799 
L 328.574862 177.830027 
L 332.745228 177.444636 
L 336.861758 177.060033 
L 340.921757 176.676621 
L 344.922511 176.294808 
L 348.861269 175.914975 
L 352.735652 175.537479 
L 356.542674 175.162712 
L 360.279972 174.790975 
L 363.94483 174.422632 
L 367.534772 174.057986 
L 371.047215 173.697343 
L 374.479729 173.340988 
L 377.829775 172.989208 
L 381.095234 172.642236 
L 384.273546 172.300335 
L 387.362637 171.963702 
L 390.360324 171.63256 
L 393.264557 171.307082 
L 396.07333 170.987431 
L 398.784728 170.673751 
L 401.396966 170.366177 
L 403.908397 170.064793 
L 406.317439 169.769688 
L 408.622531 169.480919 
L 410.822359 169.198524 
L 412.915541 168.922511 
L 414.901053 168.652862 
L 416.777624 168.389576 
L 418.544452 168.132561 
L 420.200512 167.881758 
L 421.745113 167.637056 
L 423.177498 167.398336 
L 424.497021 167.165448 
L 425.703213 166.938228 
L 426.795562 166.71647 
L 427.773711 166.499971 
L 428.637305 166.288485 
L 429.386052 166.08176 
L 430.019798 165.879514 
L 430.538342 165.681451 
L 430.941594 165.487232 
L 431.229489 165.296535 
L 431.40198 165.108981 
z
" clip-path="url(#p14b55f0eff)" style="fill: #f69e5e; opacity: 0.36; stroke: #f69e5e; stroke-linejoin: miter"/>
   </g>
   <g id="matplotlib.axis_1">
    <g id="xtick_1">
     <g id="line2d_1">
      <defs>
       <path id="m6219276fcb" d="M 0 0 
L 0 3.5 
" style="stroke: #000000; stroke-width: 0.8"/>
      </defs>
      <g>
       <use xlink:href="#m6219276fcb" x="60.640909" y="317.72" style="stroke: #000000; stroke-width: 0.8"/>
      </g>
     </g>
     <g id="text_1">
      <!-- −1.00 -->
      <g transform="translate(45.318253 332.318437) scale(0.1 -0.1)">
       <defs>
        <path id="DejaVuSans-2212" d="M 678 2272 
L 4684 2272 
L 4684 1741 
L 678 1741 
L 678 2272 
z
" transform="scale(0.015625)"/>
        <path id="DejaVuSans-31" d="M 794 531 
L 1825 531 
L 1825 4091 
L 703 3866 
L 703 4441 
L 1819 4666 
L 2450 4666 
L 2450 531 
L 3481 531 
L 3481 0 
L 794 0 
L 794 531 
z
" transform="scale(0.015625)"/>
        <path id="DejaVuSans-2e" d="M 684 794 
L 1344 794 
L 1344 0 
L 684 0 
L 684 794 
z
" transform="scale(0.015625)"/>
        <path id="DejaVuSans-30" d="M 2034 4250 
Q 1547 4250 1301 3770 
Q 1056 3291 1056 2328 
Q 1056 1369 1301 889 
Q 1547 409 2034 409 
Q 2525 409 2770 889 
Q 3016 1369 3016 2328 
Q 3016 3291 2770 3770 
Q 2525 4250 2034 4250 
z
M 2034 4750 
Q 2819 4750 3233 4129 
Q 3647 3509 3647 2328 
Q 3647 1150 3233 529 
Q 2819 -91 2034 -91 
Q 1250 -91 836 529 
Q 422 1150 422 2328 
Q 422 3509 836 4129 
Q 1250 4750 2034 4750 
z
" transform="scale(0.015625)"/>
       </defs>
       <use xlink:href="#DejaVuSans-2212"/>
       <use xlink:href="#DejaVuSans-31" transform="translate(83.789062 0)"/>
       <use xlink:href="#DejaVuSans-2e" transform="translate(147.412109 0)"/>
       <use xlink:href="#DejaVuSans-30" transform="translate(179.199219 0)"/>
       <use xlink:href="#DejaVuSans-30" transform="translate(242.822266 0)"/>
      </g>
     </g>
    </g>
    <g id="xtick_2">
     <g id="line2d_2">
      <g>
       <use xlink:href="#m6219276fcb" x="107.371394" y="317.72" style="stroke: #000000; stroke-width: 0.8"/>
      </g>
     </g>
     <g id="text_2">
      <!-- −0.75 -->
      <g transform="translate(92.048738 332.318437) scale(0.1 -0.1)">
       <defs>
        <path id="DejaVuSans-37" d="M 525 4666 
L 3525 4666 
L 3525 4397 
L 1831 0 
L 1172 0 
L 2766 4134 
L 525 4134 
L 525 4666 
z
" transform="scale(0.015625)"/>
        <path id="DejaVuSans-35" d="M 691 4666 
L 3169 4666 
L 3169 4134 
L 1269 4134 
L 1269 2991 
Q 1406 3038 1543 3061 
Q 1681 3084 1819 3084 
Q 2600 3084 3056 2656 
Q 3513 2228 3513 1497 
Q 3513 744 3044 326 
Q 2575 -91 1722 -91 
Q 1428 -91 1123 -41 
Q 819 9 494 109 
L 494 744 
Q 775 591 1075 516 
Q 1375 441 1709 441 
Q 2250 441 2565 725 
Q 2881 1009 2881 1497 
Q 2881 1984 2565 2268 
Q 2250 2553 1709 2553 
Q 1456 2553 1204 2497 
Q 953 2441 691 2322 
L 691 4666 
z
" transform="scale(0.015625)"/>
       </defs>
       <use xlink:href="#DejaVuSans-2212"/>
       <use xlink:href="#DejaVuSans-30" transform="translate(83.789062 0)"/>
       <use xlink:href="#DejaVuSans-2e" transform="translate(147.412109 0)"/>
       <use xlink:href="#DejaVuSans-37" transform="translate(179.199219 0)"/>
       <use xlink:href="#DejaVuSans-35" transform="translate(242.822266 0)"/>
      </g>
     </g>
    </g>
    <g id="xtick_3">
     <g id="line2d_3">
      <g>
       <use xlink:href="#m6219276fcb" x="154.101879" y="317.72" style="stroke: #000000; stroke-width: 0.8"/>
      </g>
     </g>
     <g id="text_3">
      <!-- −0.50 -->
      <g transform="translate(138.779222 332.318437) scale(0.1 -0.1)">
       <use xlink:href="#DejaVuSans-2212"/>
       <use xlink:href="#DejaVuSans-30" transform="translate(83.789062 0)"/>
       <use xlink:href="#DejaVuSans-2e" transform="translate(147.412109 0)"/>
       <use xlink:href="#DejaVuSans-35" transform="translate(179.199219 0)"/>
       <use xlink:href="#DejaVuSans-30" transform="translate(242.822266 0)"/>
      </g>
     </g>
    </g>
    <g id="xtick_4">
     <g id="line2d_4">
      <g>
       <use xlink:href="#m6219276fcb" x="200.832363" y="317.72" style="stroke: #000000; stroke-width: 0.8"/>
      </g>
     </g>
     <g id="text_4">
      <!-- −0.25 -->
      <g transform="translate(185.509707 332.318437) scale(0.1 -0.1)">
       <defs>
        <path id="DejaVuSans-32" d="M 1228 531 
L 3431 531 
L 3431 0 
L 469 0 
L 469 531 
Q 828 903 1448 1529 
Q 2069 2156 2228 2338 
Q 2531 2678 2651 2914 
Q 2772 3150 2772 3378 
Q 2772 3750 2511 3984 
Q 2250 4219 1831 4219 
Q 1534 4219 1204 4116 
Q 875 4013 500 3803 
L 500 4441 
Q 881 4594 1212 4672 
Q 1544 4750 1819 4750 
Q 2544 4750 2975 4387 
Q 3406 4025 3406 3419 
Q 3406 3131 3298 2873 
Q 3191 2616 2906 2266 
Q 2828 2175 2409 1742 
Q 1991 1309 1228 531 
z
" transform="scale(0.015625)"/>
       </defs>
       <use xlink:href="#DejaVuSans-2212"/>
       <use xlink:href="#DejaVuSans-30" transform="translate(83.789062 0)"/>
       <use xlink:href="#DejaVuSans-2e" transform="translate(147.412109 0)"/>
       <use xlink:href="#DejaVuSans-32" transform="translate(179.199219 0)"/>
       <use xlink:href="#DejaVuSans-35" transform="translate(242.822266 0)"/>
      </g>
     </g>
    </g>
    <g id="xtick_5">
     <g id="line2d_5">
      <g>
       <use xlink:href="#m6219276fcb" x="247.562848" y="317.72" style="stroke: #000000; stroke-width: 0.8"/>
      </g>
     </g>
     <g id="text_5">
      <!-- 0.00 -->
      <g transform="translate(236.430036 332.318437) scale(0.1 -0.1)">
       <use xlink:href="#DejaVuSans-30"/>
       <use xlink:href="#DejaVuSans-2e" transform="translate(63.623047 0)"/>
       <use xlink:href="#DejaVuSans-30" transform="translate(95.410156 0)"/>
       <use xlink:href="#DejaVuSans-30" transform="translate(159.033203 0)"/>
      </g>
     </g>
    </g>
    <g id="xtick_6">
     <g id="line2d_6">
      <g>
       <use xlink:href="#m6219276fcb" x="294.293333" y="317.72" style="stroke: #000000; stroke-width: 0.8"/>
      </g>
     </g>
     <g id="text_6">
      <!-- 0.25 -->
      <g transform="translate(283.160521 332.318437) scale(0.1 -0.1)">
       <use xlink:href="#DejaVuSans-30"/>
       <use xlink:href="#DejaVuSans-2e" transform="translate(63.623047 0)"/>
       <use xlink:href="#DejaVuSans-32" transform="translate(95.410156 0)"/>
       <use xlink:href="#DejaVuSans-35" transform="translate(159.033203 0)"/>
      </g>
     </g>
    </g>
    <g id="xtick_7">
     <g id="line2d_7">
      <g>
       <use xlink:href="#m6219276fcb" x="341.023818" y="317.72" style="stroke: #000000; stroke-width: 0.8"/>
      </g>
     </g>
     <g id="text_7">
      <!-- 0.50 -->
      <g transform="translate(329.891005 332.318437) scale(0.1 -0.1)">
       <use xlink:href="#DejaVuSans-30"/>
       <use xlink:href="#DejaVuSans-2e" transform="translate(63.623047 0)"/>
       <use xlink:href="#DejaVuSans-35" transform="translate(95.410156 0)"/>
       <use xlink:href="#DejaVuSans-30" transform="translate(159.033203 0)"/>
      </g>
     </g>
    </g>
    <g id="xtick_8">
     <g id="line2d_8">
      <g>
       <use xlink:href="#m6219276fcb" x="387.754303" y="317.72" style="stroke: #000000; stroke-width: 0.8"/>
      </g>
     </g>
     <g id="text_8">
      <!-- 0.75 -->
      <g transform="translate(376.62149 332.318437) scale(0.1 -0.1)">
       <use xlink:href="#DejaVuSans-30"/>
       <use xlink:href="#DejaVuSans-2e" transform="translate(63.623047 0)"/>
       <use xlink:href="#DejaVuSans-37" transform="translate(95.410156 0)"/>
       <use xlink:href="#DejaVuSans-35" transform="translate(159.033203 0)"/>
      </g>
     </g>
    </g>
    <g id="xtick_9">
     <g id="line2d_9">
      <g>
       <use xlink:href="#m6219276fcb" x="434.484787" y="317.72" style="stroke: #000000; stroke-width: 0.8"/>
      </g>
     </g>
     <g id="text_9">
      <!-- 1.00 -->
      <g transform="translate(423.351975 332.318437) scale(0.1 -0.1)">
       <use xlink:href="#DejaVuSans-31"/>
       <use xlink:href="#DejaVuSans-2e" transform="translate(63.623047 0)"/>
       <use xlink:href="#DejaVuSans-30" transform="translate(95.410156 0)"/>
       <use xlink:href="#DejaVuSans-30" transform="translate(159.033203 0)"/>
      </g>
     </g>
    </g>
   </g>
   <g id="matplotlib.axis_2">
    <g id="ytick_1">
     <g id="line2d_10">
      <defs>
       <path id="me8fd0c962e" d="M 0 0 
L -3.5 0 
" style="stroke: #000000; stroke-width: 0.8"/>
      </defs>
      <g>
       <use xlink:href="#me8fd0c962e" x="42.1" y="315.265172" style="stroke: #000000; stroke-width: 0.8"/>
      </g>
     </g>
     <g id="text_10">
      <!-- −0.8 -->
      <g transform="translate(10.817188 319.064391) scale(0.1 -0.1)">
       <defs>
        <path id="DejaVuSans-38" d="M 2034 2216 
Q 1584 2216 1326 1975 
Q 1069 1734 1069 1313 
Q 1069 891 1326 650 
Q 1584 409 2034 409 
Q 2484 409 2743 651 
Q 3003 894 3003 1313 
Q 3003 1734 2745 1975 
Q 2488 2216 2034 2216 
z
M 1403 2484 
Q 997 2584 770 2862 
Q 544 3141 544 3541 
Q 544 4100 942 4425 
Q 1341 4750 2034 4750 
Q 2731 4750 3128 4425 
Q 3525 4100 3525 3541 
Q 3525 3141 3298 2862 
Q 3072 2584 2669 2484 
Q 3125 2378 3379 2068 
Q 3634 1759 3634 1313 
Q 3634 634 3220 271 
Q 2806 -91 2034 -91 
Q 1263 -91 848 271 
Q 434 634 434 1313 
Q 434 1759 690 2068 
Q 947 2378 1403 2484 
z
M 1172 3481 
Q 1172 3119 1398 2916 
Q 1625 2713 2034 2713 
Q 2441 2713 2670 2916 
Q 2900 3119 2900 3481 
Q 2900 3844 2670 4047 
Q 2441 4250 2034 4250 
Q 1625 4250 1398 4047 
Q 1172 3844 1172 3481 
z
" transform="scale(0.015625)"/>
       </defs>
       <use xlink:href="#DejaVuSans-2212"/>
       <use xlink:href="#DejaVuSans-30" transform="translate(83.789062 0)"/>
       <use xlink:href="#DejaVuSans-2e" transform="translate(147.412109 0)"/>
       <use xlink:href="#DejaVuSans-38" transform="translate(179.199219 0)"/>
      </g>
     </g>
    </g>
    <g id="ytick_2">
     <g id="line2d_11">
      <g>
       <use xlink:href="#me8fd0c962e" x="42.1" y="277.740984" style="stroke: #000000; stroke-width: 0.8"/>
      </g>
     </g>
     <g id="text_11">
      <!-- −0.6 -->
      <g transform="translate(10.817188 281.540202) scale(0.1 -0.1)">
       <defs>
        <path id="DejaVuSans-36" d="M 2113 2584 
Q 1688 2584 1439 2293 
Q 1191 2003 1191 1497 
Q 1191 994 1439 701 
Q 1688 409 2113 409 
Q 2538 409 2786 701 
Q 3034 994 3034 1497 
Q 3034 2003 2786 2293 
Q 2538 2584 2113 2584 
z
M 3366 4563 
L 3366 3988 
Q 3128 4100 2886 4159 
Q 2644 4219 2406 4219 
Q 1781 4219 1451 3797 
Q 1122 3375 1075 2522 
Q 1259 2794 1537 2939 
Q 1816 3084 2150 3084 
Q 2853 3084 3261 2657 
Q 3669 2231 3669 1497 
Q 3669 778 3244 343 
Q 2819 -91 2113 -91 
Q 1303 -91 875 529 
Q 447 1150 447 2328 
Q 447 3434 972 4092 
Q 1497 4750 2381 4750 
Q 2619 4750 2861 4703 
Q 3103 4656 3366 4563 
z
" transform="scale(0.015625)"/>
       </defs>
       <use xlink:href="#DejaVuSans-2212"/>
       <use xlink:href="#DejaVuSans-30" transform="translate(83.789062 0)"/>
       <use xlink:href="#DejaVuSans-2e" transform="translate(147.412109 0)"/>
       <use xlink:href="#DejaVuSans-36" transform="translate(179.199219 0)"/>
      </g>
     </g>
    </g>
    <g id="ytick_3">
     <g id="line2d_12">
      <g>
       <use xlink:href="#me8fd0c962e" x="42.1" y="240.216795" style="stroke: #000000; stroke-width: 0.8"/>
      </g>
     </g>
     <g id="text_12">
      <!-- −0.4 -->
      <g transform="translate(10.817188 244.016014) scale(0.1 -0.1)">
       <defs>
        <path id="DejaVuSans-34" d="M 2419 4116 
L 825 1625 
L 2419 1625 
L 2419 4116 
z
M 2253 4666 
L 3047 4666 
L 3047 1625 
L 3713 1625 
L 3713 1100 
L 3047 1100 
L 3047 0 
L 2419 0 
L 2419 1100 
L 313 1100 
L 313 1709 
L 2253 4666 
z
" transform="scale(0.015625)"/>
       </defs>
       <use xlink:href="#DejaVuSans-2212"/>
       <use xlink:href="#DejaVuSans-30" transform="translate(83.789062 0)"/>
       <use xlink:href="#DejaVuSans-2e" transform="translate(147.412109 0)"/>
       <use xlink:href="#DejaVuSans-34" transform="translate(179.199219 0)"/>
      </g>
     </g>
    </g>
    <g id="ytick_4">
     <g id="line2d_13">
      <g>
       <use xlink:href="#me8fd0c962e" x="42.1" y="202.692607" style="stroke: #000000; stroke-width: 0.8"/>
      </g>
     </g>
     <g id="text_13">
      <!-- −0.2 -->
      <g transform="translate(10.817188 206.491826) scale(0.1 -0.1)">
       <use xlink:href="#DejaVuSans-2212"/>
       <use xlink:href="#DejaVuSans-30" transform="translate(83.789062 0)"/>
       <use xlink:href="#DejaVuSans-2e" transform="translate(147.412109 0)"/>
       <use xlink:href="#DejaVuSans-32" transform="translate(179.199219 0)"/>
      </g>
     </g>
    </g>
    <g id="ytick_5">
     <g id="line2d_14">
      <g>
       <use xlink:href="#me8fd0c962e" x="42.1" y="165.168419" style="stroke: #000000; stroke-width: 0.8"/>
      </g>
     </g>
     <g id="text_14">
      <!-- 0.0 -->
      <g transform="translate(19.196875 168.967637) scale(0.1 -0.1)">
       <use xlink:href="#DejaVuSans-30"/>
       <use xlink:href="#DejaVuSans-2e" transform="translate(63.623047 0)"/>
       <use xlink:href="#DejaVuSans-30" transform="translate(95.410156 0)"/>
      </g>
     </g>
    </g>
    <g id="ytick_6">
     <g id="line2d_15">
      <g>
       <use xlink:href="#me8fd0c962e" x="42.1" y="127.64423" style="stroke: #000000; stroke-width: 0.8"/>
      </g>
     </g>
     <g id="text_15">
      <!-- 0.2 -->
      <g transform="translate(19.196875 131.443449) scale(0.1 -0.1)">
       <use xlink:href="#DejaVuSans-30"/>
       <use xlink:href="#DejaVuSans-2e" transform="translate(63.623047 0)"/>
       <use xlink:href="#DejaVuSans-32" transform="translate(95.410156 0)"/>
      </g>
     </g>
    </g>
    <g id="ytick_7">
     <g id="line2d_16">
      <g>
       <use xlink:href="#me8fd0c962e" x="42.1" y="90.120042" style="stroke: #000000; stroke-width: 0.8"/>
      </g>
     </g>
     <g id="text_16">
      <!-- 0.4 -->
      <g transform="translate(19.196875 93.919261) scale(0.1 -0.1)">
       <use xlink:href="#DejaVuSans-30"/>
       <use xlink:href="#DejaVuSans-2e" transform="translate(63.623047 0)"/>
       <use xlink:href="#DejaVuSans-34" transform="translate(95.410156 0)"/>
      </g>
     </g>
    </g>
    <g id="ytick_8">
     <g id="line2d_17">
      <g>
       <use xlink:href="#me8fd0c962e" x="42.1" y="52.595854" style="stroke: #000000; stroke-width: 0.8"/>
      </g>
     </g>
     <g id="text_17">
      <!-- 0.6 -->
      <g transform="translate(19.196875 56.395073) scale(0.1 -0.1)">
       <use xlink:href="#DejaVuSans-30"/>
       <use xlink:href="#DejaVuSans-2e" transform="translate(63.623047 0)"/>
       <use xlink:href="#DejaVuSans-36" transform="translate(95.410156 0)"/>
      </g>
     </g>
    </g>
    <g id="ytick_9">
     <g id="line2d_18">
      <g>
       <use xlink:href="#me8fd0c962e" x="42.1" y="15.071666" style="stroke: #000000; stroke-width: 0.8"/>
      </g>
     </g>
     <g id="text_18">
      <!-- 0.8 -->
      <g transform="translate(19.196875 18.870884) scale(0.1 -0.1)">
       <use xlink:href="#DejaVuSans-30"/>
       <use xlink:href="#DejaVuSans-2e" transform="translate(63.623047 0)"/>
       <use xlink:href="#DejaVuSans-38" transform="translate(95.410156 0)"/>
      </g>
     </g>
    </g>
   </g>
   <g id="line2d_19">
    <path d="M 423.277715 167.50883 
L 423.104299 167.174696 
L 422.535051 166.834881 
L 420.93472 166.306774 
L 418.431489 165.745153 
L 413.673548 164.92034 
L 403.454819 163.451731 
L 375.165238 159.749896 
L 327.57106 153.667958 
L 301.80765 150.618568 
L 283.784716 148.685346 
L 265.320583 146.928278 
L 246.604335 145.420077 
L 232.507946 144.488029 
L 218.439973 143.747838 
L 204.47103 143.21289 
L 190.673515 142.891601 
L 177.123915 142.787804 
L 163.904174 142.901301 
L 151.102665 143.228511 
L 138.813138 143.763053 
L 127.133213 144.496412 
L 116.161124 145.418565 
L 105.991697 146.518616 
L 96.712268 147.785294 
L 88.398989 149.207271 
L 83.42487 150.23603 
L 78.922725 151.325586 
L 74.904072 152.47266 
L 71.377468 153.673924 
L 68.348775 154.925883 
L 65.821177 156.224865 
L 63.795891 157.56685 
L 62.272157 158.947441 
L 61.247938 160.361699 
L 60.922152 161.079775 
L 60.720013 161.804155 
L 60.640909 162.53405 
L 60.684349 163.268621 
L 60.84971 164.006987 
L 61.136401 164.748228 
L 62.071277 166.235352 
L 63.483831 167.721708 
L 65.368691 169.198315 
L 67.72031 170.65562 
L 70.533116 172.083699 
L 73.800938 173.472353 
L 77.517157 174.811381 
L 81.674565 176.090798 
L 86.264929 177.301136 
L 91.278777 178.433649 
L 96.705315 179.480605 
L 102.531964 180.43545 
L 108.744206 181.293043 
L 118.74864 182.389499 
L 129.517242 183.253499 
L 140.972845 183.886861 
L 153.028136 184.298371 
L 165.586901 184.502386 
L 178.547688 184.517397 
L 196.275023 184.27993 
L 214.293052 183.796179 
L 236.889818 182.922118 
L 259.225569 181.830672 
L 285.267758 180.335547 
L 314.096598 178.455848 
L 344.320841 176.266049 
L 373.814453 173.900656 
L 394.981917 171.990427 
L 408.92853 170.509698 
L 416.067927 169.558592 
L 420.036822 168.849947 
L 421.987929 168.34012 
L 423.056681 167.840556 
L 423.277715 167.50883 
L 423.277715 167.50883 
" clip-path="url(#p14b55f0eff)" style="fill: none; stroke: #000000; stroke-width: 2; stroke-linecap: square"/>
   </g>
   <g id="line2d_20">
    <path d="M 431.459091 164.924189 
L 431.227394 164.561287 
L 430.535178 164.204381 
L 428.636436 163.672075 
L 425.711346 163.131301 
L 420.232265 162.371967 
L 408.706782 161.078987 
L 302.313387 150.040376 
L 279.60702 147.903978 
L 261.107108 146.354649 
L 242.504385 145.019855 
L 223.967987 143.956007 
L 210.206628 143.362802 
L 196.640172 142.960481 
L 183.335572 142.758502 
L 170.36058 142.762455 
L 157.784874 142.974532 
L 145.680238 143.393961 
L 134.120106 144.017518 
L 123.178745 144.840011 
L 112.92969 145.854743 
L 103.444 147.053882 
L 94.788056 148.428735 
L 87.021665 149.969926 
L 82.364107 151.084862 
L 78.138035 152.266106 
L 74.354477 153.510265 
L 71.022659 154.813715 
L 68.1498 156.172509 
L 65.741293 157.582315 
L 63.80086 159.038363 
L 62.330638 160.535336 
L 61.331365 162.067348 
L 60.802549 163.627852 
L 60.714108 164.416569 
L 60.74263 165.209651 
L 60.887758 166.006073 
L 61.526251 167.604753 
L 62.625864 169.203679 
L 64.182386 170.793388 
L 66.190872 172.363878 
L 68.645905 173.904783 
L 71.541492 175.405552 
L 74.871149 176.855651 
L 78.627722 178.244735 
L 82.803413 179.562862 
L 87.389733 180.800801 
L 92.377343 181.950164 
L 97.75604 183.003616 
L 103.514369 183.955045 
L 109.639875 184.799675 
L 116.118921 185.534135 
L 126.467045 186.425404 
L 137.519954 187.064081 
L 149.214452 187.456036 
L 161.480983 187.612717 
L 174.244422 187.55003 
L 187.425452 187.287066 
L 205.508037 186.661445 
L 223.990367 185.769343 
L 242.677037 184.66214 
L 266.034266 183.049053 
L 293.593452 180.888488 
L 324.353135 178.215799 
L 352.735652 175.537479 
L 381.095234 172.642236 
L 401.396966 170.366177 
L 414.901053 168.652862 
L 423.177498 167.398336 
L 427.773711 166.499971 
L 430.019798 165.879514 
L 430.941594 165.487232 
L 431.40198 165.108981 
L 431.459091 164.924189 
L 431.459091 164.924189 
" clip-path="url(#p14b55f0eff)" style="fill: none; stroke-dasharray: 7.4,3.2; stroke-dashoffset: 0; stroke: #000000; stroke-width: 2"/>
   </g>
   <g id="patch_5">
    <path d="M 42.1 317.72 
L 42.1 12.632072 
" style="fill: none; stroke: #000000; stroke-width: 0.8; stroke-linejoin: miter; stroke-linecap: square"/>
   </g>
   <g id="patch_6">
    <path d="M 450 317.72 
L 450 12.632072 
" style="fill: none; stroke: #000000; stroke-width: 0.8; stroke-linejoin: miter; stroke-linecap: square"/>
   </g>
   <g id="patch_7">
    <path d="M 42.1 317.72 
L 450 317.72 
" style="fill: none; stroke: #000000; stroke-width: 0.8; stroke-linejoin: miter; stroke-linecap: square"/>
   </g>
   <g id="patch_8">
    <path d="M 42.1 12.632072 
L 450 12.632072 
" style="fill: none; stroke: #000000; stroke-width: 0.8; stroke-linejoin: miter; stroke-linecap: square"/>
   </g>
   <g id="legend_1">
    <g id="patch_9">
     <path d="M 325.31875 49.988322 
L 443 49.988322 
Q 445 49.988322 445 47.988322 
L 445 19.632072 
Q 445 17.632072 443 17.632072 
L 325.31875 17.632072 
Q 323.31875 17.632072 323.31875 19.632072 
L 323.31875 47.988322 
Q 323.31875 49.988322 325.31875 49.988322 
z
" style="fill: #ffffff; opacity: 0.8; stroke: #cccccc; stroke-linejoin: miter"/>
    </g>
    <g id="patch_10">
     <path d="M 327.31875 29.230509 
L 347.31875 29.230509 
L 347.31875 22.230509 
L 327.31875 22.230509 
z
" style="fill: #c9c9f5; opacity: 0.46; stroke: #c9c9f5; stroke-linejoin: miter"/>
    </g>
    <g id="text_19">
     <!-- Optimized Shape -->
     <g transform="translate(355.31875 29.230509) scale(0.1 -0.1)">
      <defs>
       <path id="DejaVuSans-4f" d="M 2522 4238 
Q 1834 4238 1429 3725 
Q 1025 3213 1025 2328 
Q 1025 1447 1429 934 
Q 1834 422 2522 422 
Q 3209 422 3611 934 
Q 4013 1447 4013 2328 
Q 4013 3213 3611 3725 
Q 3209 4238 2522 4238 
z
M 2522 4750 
Q 3503 4750 4090 4092 
Q 4678 3434 4678 2328 
Q 4678 1225 4090 567 
Q 3503 -91 2522 -91 
Q 1538 -91 948 565 
Q 359 1222 359 2328 
Q 359 3434 948 4092 
Q 1538 4750 2522 4750 
z
" transform="scale(0.015625)"/>
       <path id="DejaVuSans-70" d="M 1159 525 
L 1159 -1331 
L 581 -1331 
L 581 3500 
L 1159 3500 
L 1159 2969 
Q 1341 3281 1617 3432 
Q 1894 3584 2278 3584 
Q 2916 3584 3314 3078 
Q 3713 2572 3713 1747 
Q 3713 922 3314 415 
Q 2916 -91 2278 -91 
Q 1894 -91 1617 61 
Q 1341 213 1159 525 
z
M 3116 1747 
Q 3116 2381 2855 2742 
Q 2594 3103 2138 3103 
Q 1681 3103 1420 2742 
Q 1159 2381 1159 1747 
Q 1159 1113 1420 752 
Q 1681 391 2138 391 
Q 2594 391 2855 752 
Q 3116 1113 3116 1747 
z
" transform="scale(0.015625)"/>
       <path id="DejaVuSans-74" d="M 1172 4494 
L 1172 3500 
L 2356 3500 
L 2356 3053 
L 1172 3053 
L 1172 1153 
Q 1172 725 1289 603 
Q 1406 481 1766 481 
L 2356 481 
L 2356 0 
L 1766 0 
Q 1100 0 847 248 
Q 594 497 594 1153 
L 594 3053 
L 172 3053 
L 172 3500 
L 594 3500 
L 594 4494 
L 1172 4494 
z
" transform="scale(0.015625)"/>
       <path id="DejaVuSans-69" d="M 603 3500 
L 1178 3500 
L 1178 0 
L 603 0 
L 603 3500 
z
M 603 4863 
L 1178 4863 
L 1178 4134 
L 603 4134 
L 603 4863 
z
" transform="scale(0.015625)"/>
       <path id="DejaVuSans-6d" d="M 3328 2828 
Q 3544 3216 3844 3400 
Q 4144 3584 4550 3584 
Q 5097 3584 5394 3201 
Q 5691 2819 5691 2113 
L 5691 0 
L 5113 0 
L 5113 2094 
Q 5113 2597 4934 2840 
Q 4756 3084 4391 3084 
Q 3944 3084 3684 2787 
Q 3425 2491 3425 1978 
L 3425 0 
L 2847 0 
L 2847 2094 
Q 2847 2600 2669 2842 
Q 2491 3084 2119 3084 
Q 1678 3084 1418 2786 
Q 1159 2488 1159 1978 
L 1159 0 
L 581 0 
L 581 3500 
L 1159 3500 
L 1159 2956 
Q 1356 3278 1631 3431 
Q 1906 3584 2284 3584 
Q 2666 3584 2933 3390 
Q 3200 3197 3328 2828 
z
" transform="scale(0.015625)"/>
       <path id="DejaVuSans-7a" d="M 353 3500 
L 3084 3500 
L 3084 2975 
L 922 459 
L 3084 459 
L 3084 0 
L 275 0 
L 275 525 
L 2438 3041 
L 353 3041 
L 353 3500 
z
" transform="scale(0.015625)"/>
       <path id="DejaVuSans-65" d="M 3597 1894 
L 3597 1613 
L 953 1613 
Q 991 1019 1311 708 
Q 1631 397 2203 397 
Q 2534 397 2845 478 
Q 3156 559 3463 722 
L 3463 178 
Q 3153 47 2828 -22 
Q 2503 -91 2169 -91 
Q 1331 -91 842 396 
Q 353 884 353 1716 
Q 353 2575 817 3079 
Q 1281 3584 2069 3584 
Q 2775 3584 3186 3129 
Q 3597 2675 3597 1894 
z
M 3022 2063 
Q 3016 2534 2758 2815 
Q 2500 3097 2075 3097 
Q 1594 3097 1305 2825 
Q 1016 2553 972 2059 
L 3022 2063 
z
" transform="scale(0.015625)"/>
       <path id="DejaVuSans-64" d="M 2906 2969 
L 2906 4863 
L 3481 4863 
L 3481 0 
L 2906 0 
L 2906 525 
Q 2725 213 2448 61 
Q 2172 -91 1784 -91 
Q 1150 -91 751 415 
Q 353 922 353 1747 
Q 353 2572 751 3078 
Q 1150 3584 1784 3584 
Q 2172 3584 2448 3432 
Q 2725 3281 2906 2969 
z
M 947 1747 
Q 947 1113 1208 752 
Q 1469 391 1925 391 
Q 2381 391 2643 752 
Q 2906 1113 2906 1747 
Q 2906 2381 2643 2742 
Q 2381 3103 1925 3103 
Q 1469 3103 1208 2742 
Q 947 2381 947 1747 
z
" transform="scale(0.015625)"/>
       <path id="DejaVuSans-20" transform="scale(0.015625)"/>
       <path id="DejaVuSans-53" d="M 3425 4513 
L 3425 3897 
Q 3066 4069 2747 4153 
Q 2428 4238 2131 4238 
Q 1616 4238 1336 4038 
Q 1056 3838 1056 3469 
Q 1056 3159 1242 3001 
Q 1428 2844 1947 2747 
L 2328 2669 
Q 3034 2534 3370 2195 
Q 3706 1856 3706 1288 
Q 3706 609 3251 259 
Q 2797 -91 1919 -91 
Q 1588 -91 1214 -16 
Q 841 59 441 206 
L 441 856 
Q 825 641 1194 531 
Q 1563 422 1919 422 
Q 2459 422 2753 634 
Q 3047 847 3047 1241 
Q 3047 1584 2836 1778 
Q 2625 1972 2144 2069 
L 1759 2144 
Q 1053 2284 737 2584 
Q 422 2884 422 3419 
Q 422 4038 858 4394 
Q 1294 4750 2059 4750 
Q 2388 4750 2728 4690 
Q 3069 4631 3425 4513 
z
" transform="scale(0.015625)"/>
       <path id="DejaVuSans-68" d="M 3513 2113 
L 3513 0 
L 2938 0 
L 2938 2094 
Q 2938 2591 2744 2837 
Q 2550 3084 2163 3084 
Q 1697 3084 1428 2787 
Q 1159 2491 1159 1978 
L 1159 0 
L 581 0 
L 581 4863 
L 1159 4863 
L 1159 2956 
Q 1366 3272 1645 3428 
Q 1925 3584 2291 3584 
Q 2894 3584 3203 3211 
Q 3513 2838 3513 2113 
z
" transform="scale(0.015625)"/>
       <path id="DejaVuSans-61" d="M 2194 1759 
Q 1497 1759 1228 1600 
Q 959 1441 959 1056 
Q 959 750 1161 570 
Q 1363 391 1709 391 
Q 2188 391 2477 730 
Q 2766 1069 2766 1631 
L 2766 1759 
L 2194 1759 
z
M 3341 1997 
L 3341 0 
L 2766 0 
L 2766 531 
Q 2569 213 2275 61 
Q 1981 -91 1556 -91 
Q 1019 -91 701 211 
Q 384 513 384 1019 
Q 384 1609 779 1909 
Q 1175 2209 1959 2209 
L 2766 2209 
L 2766 2266 
Q 2766 2663 2505 2880 
Q 2244 3097 1772 3097 
Q 1472 3097 1187 3025 
Q 903 2953 641 2809 
L 641 3341 
Q 956 3463 1253 3523 
Q 1550 3584 1831 3584 
Q 2591 3584 2966 3190 
Q 3341 2797 3341 1997 
z
" transform="scale(0.015625)"/>
      </defs>
      <use xlink:href="#DejaVuSans-4f"/>
      <use xlink:href="#DejaVuSans-70" transform="translate(78.710938 0)"/>
      <use xlink:href="#DejaVuSans-74" transform="translate(142.1875 0)"/>
      <use xlink:href="#DejaVuSans-69" transform="translate(181.396484 0)"/>
      <use xlink:href="#DejaVuSans-6d" transform="translate(209.179688 0)"/>
      <use xlink:href="#DejaVuSans-69" transform="translate(306.591797 0)"/>
      <use xlink:href="#DejaVuSans-7a" transform="translate(334.375 0)"/>
      <use xlink:href="#DejaVuSans-65" transform="translate(386.865234 0)"/>
      <use xlink:href="#DejaVuSans-64" transform="translate(448.388672 0)"/>
      <use xlink:href="#DejaVuSans-20" transform="translate(511.865234 0)"/>
      <use xlink:href="#DejaVuSans-53" transform="translate(543.652344 0)"/>
      <use xlink:href="#DejaVuSans-68" transform="translate(607.128906 0)"/>
      <use xlink:href="#DejaVuSans-61" transform="translate(670.507812 0)"/>
      <use xlink:href="#DejaVuSans-70" transform="translate(731.787109 0)"/>
      <use xlink:href="#DejaVuSans-65" transform="translate(795.263672 0)"/>
     </g>
    </g>
    <g id="patch_11">
     <path d="M 327.31875 43.908634 
L 347.31875 43.908634 
L 347.31875 36.908634 
L 327.31875 36.908634 
z
" style="fill: #f69e5e; opacity: 0.36; stroke: #f69e5e; stroke-linejoin: miter"/>
    </g>
    <g id="text_20">
     <!-- Initial Shape -->
     <g transform="translate(355.31875 43.908634) scale(0.1 -0.1)">
      <defs>
       <path id="DejaVuSans-49" d="M 628 4666 
L 1259 4666 
L 1259 0 
L 628 0 
L 628 4666 
z
" transform="scale(0.015625)"/>
       <path id="DejaVuSans-6e" d="M 3513 2113 
L 3513 0 
L 2938 0 
L 2938 2094 
Q 2938 2591 2744 2837 
Q 2550 3084 2163 3084 
Q 1697 3084 1428 2787 
Q 1159 2491 1159 1978 
L 1159 0 
L 581 0 
L 581 3500 
L 1159 3500 
L 1159 2956 
Q 1366 3272 1645 3428 
Q 1925 3584 2291 3584 
Q 2894 3584 3203 3211 
Q 3513 2838 3513 2113 
z
" transform="scale(0.015625)"/>
       <path id="DejaVuSans-6c" d="M 603 4863 
L 1178 4863 
L 1178 0 
L 603 0 
L 603 4863 
z
" transform="scale(0.015625)"/>
      </defs>
      <use xlink:href="#DejaVuSans-49"/>
      <use xlink:href="#DejaVuSans-6e" transform="translate(29.492188 0)"/>
      <use xlink:href="#DejaVuSans-69" transform="translate(92.871094 0)"/>
      <use xlink:href="#DejaVuSans-74" transform="translate(120.654297 0)"/>
      <use xlink:href="#DejaVuSans-69" transform="translate(159.863281 0)"/>
      <use xlink:href="#DejaVuSans-61" transform="translate(187.646484 0)"/>
      <use xlink:href="#DejaVuSans-6c" transform="translate(248.925781 0)"/>
      <use xlink:href="#DejaVuSans-20" transform="translate(276.708984 0)"/>
      <use xlink:href="#DejaVuSans-53" transform="translate(308.496094 0)"/>
      <use xlink:href="#DejaVuSans-68" transform="translate(371.972656 0)"/>
      <use xlink:href="#DejaVuSans-61" transform="translate(435.351562 0)"/>
      <use xlink:href="#DejaVuSans-70" transform="translate(496.630859 0)"/>
      <use xlink:href="#DejaVuSans-65" transform="translate(560.107422 0)"/>
     </g>
    </g>
   </g>
  </g>
 </g>
 <defs>
  <clipPath id="p14b55f0eff">
   <rect x="42.1" y="12.632072" width="407.9" height="305.087928"/>
  </clipPath>
 </defs>
</svg>
