<?xml version="1.0" encoding="utf-8" standalone="no"?>
<!DOCTYPE svg PUBLIC "-//W3C//DTD SVG 1.1//EN"
  "http://www.w3.org/Graphics/SVG/1.1/DTD/svg11.dtd">
<svg xmlns:xlink="http://www.w3.org/1999/xlink" width="460.8pt" height="345.6pt" viewBox="0 0 460.8 345.6" xmlns="http://www.w3.org/2000/svg" version="1.1">
 <metadata>
  <rdf:RDF xmlns:dc="http://purl.org/dc/elements/1.1/" xmlns:cc="http://creativecommons.org/ns#" xmlns:rdf="http://www.w3.org/1999/02/22-rdf-syntax-ns#">
   <cc:Work>
    <dc:type rdf:resource="http://purl.org/dc/dcmitype/StillImage"/>
    <dc:date>2025-06-09T21:46:44.581071</dc:date>
    <dc:format>image/svg+xml</dc:format>
    <dc:creator>
     <cc:Agent>
      <dc:title>Matplotlib v3.10.0, https://matplotlib.org/</dc:title>
     </cc:Agent>
    </dc:creator>
   </cc:Work>
  </rdf:RDF>
 </metadata>
 <defs>
  <style type="text/css">*{stroke-linejoin: round; stroke-linecap: butt}</style>
 </defs>
 <g id="figure_1">
  <g id="patch_1">
   <path d="M 0 345.6 
L 460.8 345.6 
L 460.8 0 
L 0 0 
z
" style="fill: #ffffff"/>
  </g>
  <g id="axes_1">
   <g id="patch_2">
    <path d="M 42.1 317.72 
L 450 317.72 
L 450 10.8 
L 42.1 10.8 
z
" style="fill: #ffffff"/>
   </g>
   <g id="patch_3">
    <path d="M 433.256286 177.455581 
L 433.269992 177.260858 
L 433.170756 177.063302 
L 432.95869 176.862258 
L 432.63385 176.657039 
L 432.196302 176.446928 
L 431.64608 176.23118 
L 430.983207 176.00903 
L 430.207659 175.779669 
L 429.319505 175.542263 
L 428.318799 175.295957 
L 427.205497 175.039882 
L 425.979667 174.773142 
L 424.641408 174.494815 
L 423.190765 174.203991 
L 421.627917 173.899729 
L 419.953053 173.58111 
L 418.166397 173.2472 
L 416.268217 172.897087 
L 414.258982 172.529871 
L 412.139092 172.144703 
L 409.909152 171.740735 
L 407.569807 171.317208 
L 405.121863 170.873388 
L 402.566144 170.408627 
L 399.903824 169.922354 
L 397.135939 169.414082 
L 394.263907 168.883439 
L 391.289124 168.330138 
L 388.213252 167.754051 
L 385.038044 167.155161 
L 381.765431 166.533583 
L 378.397567 165.8896 
L 374.936617 165.223621 
L 371.385081 164.536249 
L 367.745471 163.828206 
L 364.020477 163.10039 
L 360.212966 162.353851 
L 356.325953 161.589805 
L 352.362485 160.809581 
L 348.325776 160.014679 
L 344.219185 159.206712 
L 340.046062 158.387412 
L 335.809877 157.558602 
L 331.51418 156.722196 
L 327.162502 155.880181 
L 322.758495 155.034603 
L 318.305746 154.187535 
L 313.807894 153.341074 
L 309.268549 152.497306 
L 304.691334 151.65833 
L 300.07982 150.826186 
L 295.437484 150.002876 
L 290.767915 149.190358 
L 286.074432 148.3905 
L 281.360473 147.605088 
L 276.62929 146.835827 
L 271.88418 146.084321 
L 267.128303 145.352059 
L 262.364722 144.640419 
L 257.596529 143.950683 
L 252.826666 143.284003 
L 248.058072 142.641412 
L 243.293595 142.023851 
L 238.536055 141.432134 
L 233.788106 140.866934 
L 229.052596 140.328886 
L 224.33217 139.818477 
L 219.629419 139.336099 
L 214.947027 138.882077 
L 210.287662 138.456631 
L 205.653783 138.059903 
L 201.048087 137.691971 
L 196.473191 137.352842 
L 191.931703 137.042466 
L 187.426245 136.760731 
L 182.959433 136.507491 
L 178.533917 136.282534 
L 174.152456 136.08563 
L 169.817632 135.916499 
L 165.532175 135.77485 
L 161.298931 135.660379 
L 157.120523 135.57274 
L 152.999774 135.511582 
L 148.939359 135.476571 
L 144.942127 135.467324 
L 141.010882 135.483503 
L 137.148245 135.524744 
L 133.356975 135.590685 
L 129.639771 135.681 
L 125.999279 135.795348 
L 122.438145 135.933431 
L 118.958823 136.094936 
L 115.563848 136.279598 
L 112.255596 136.487155 
L 109.036346 136.717369 
L 105.908351 136.970035 
L 102.873687 137.244967 
L 99.934363 137.541988 
L 97.092322 137.86098 
L 94.349204 138.201831 
L 91.706717 138.564453 
L 89.16639 138.94878 
L 86.729507 139.354781 
L 84.397373 139.782437 
L 82.171093 140.231752 
L 80.051683 140.702767 
L 78.039959 141.195494 
L 76.136689 141.710024 
L 74.34251 142.246409 
L 72.657903 142.804692 
L 71.083313 143.385002 
L 69.619009 143.987373 
L 68.265269 144.611897 
L 67.022172 145.258612 
L 65.889818 145.92758 
L 64.868218 146.618814 
L 63.957238 147.332326 
L 63.156812 148.06806 
L 62.466705 148.825958 
L 61.886749 149.605893 
L 61.416699 150.407687 
L 61.056232 151.231109 
L 60.80509 152.075864 
L 60.662927 152.941599 
L 60.629321 153.82784 
L 60.704046 154.734058 
L 60.886657 155.659626 
L 61.176708 156.603842 
L 61.573896 157.565836 
L 62.077776 158.544697 
L 62.68789 159.539398 
L 63.403891 160.54874 
L 64.225245 161.571463 
L 65.151627 162.60619 
L 66.182424 163.651364 
L 67.317301 164.705406 
L 68.555643 165.76654 
L 69.89705 166.832934 
L 71.340918 167.902679 
L 72.886744 168.973685 
L 74.533894 170.043877 
L 76.281809 171.111066 
L 78.129908 172.172997 
L 80.0775 173.227422 
L 82.123903 174.272008 
L 84.268459 175.304464 
L 86.510364 176.322483 
L 88.848916 177.323782 
L 91.283255 178.306144 
L 93.812588 179.267405 
L 96.435989 180.205467 
L 99.152587 181.118375 
L 101.961323 182.004222 
L 104.861269 182.861287 
L 107.851377 183.687977 
L 110.930385 184.482815 
L 114.097233 185.244554 
L 117.350537 185.972028 
L 120.689025 186.664314 
L 124.111334 187.320642 
L 127.615936 187.940406 
L 131.201201 188.523177 
L 134.865634 189.068717 
L 138.607215 189.576901 
L 142.424301 190.047827 
L 146.314864 190.481693 
L 150.276825 190.87886 
L 154.308004 191.239805 
L 158.406178 191.56512 
L 162.568821 191.855522 
L 166.793756 192.111817 
L 171.078052 192.334872 
L 175.419332 192.525672 
L 179.814556 192.685202 
L 184.261071 192.814559 
L 188.755865 192.914841 
L 193.295957 192.987173 
L 197.878083 193.032728 
L 202.499369 193.052676 
L 207.156466 193.048195 
L 211.846126 193.020459 
L 216.565057 192.97064 
L 221.309818 192.899902 
L 226.0773 192.80938 
L 230.863757 192.700206 
L 235.666058 192.573474 
L 240.480652 192.430254 
L 245.30411 192.271595 
L 250.132957 192.098513 
L 254.96376 191.912001 
L 259.79295 191.713005 
L 264.617325 191.502454 
L 269.433071 191.281239 
L 274.236974 191.050223 
L 279.025521 190.810221 
L 283.795202 190.562057 
L 288.542497 190.306493 
L 293.264221 190.04425 
L 297.956543 189.776066 
L 302.616319 189.502614 
L 307.239999 189.224549 
L 311.824167 188.942517 
L 316.365398 188.657112 
L 320.860175 188.368928 
L 325.305402 188.078512 
L 329.697338 187.786414 
L 334.032921 187.49315 
L 338.308712 187.199202 
L 342.521519 186.905037 
L 346.667945 186.611116 
L 350.745103 186.317852 
L 354.749555 186.025658 
L 358.678457 185.734906 
L 362.528771 185.445969 
L 366.297619 185.159168 
L 369.982187 184.874833 
L 373.579796 184.593246 
L 377.08778 184.314686 
L 380.503895 184.039383 
L 383.825518 183.767562 
L 387.050606 183.499424 
L 390.177061 183.235131 
L 393.202907 182.974826 
L 396.126326 182.718637 
L 398.945687 182.466655 
L 401.659451 182.218946 
L 404.266277 181.97555 
L 406.76495 181.736471 
L 409.154375 181.501711 
L 411.433526 181.271219 
L 413.601599 181.044942 
L 415.657981 180.822773 
L 417.601922 180.604614 
L 419.433079 180.390286 
L 421.150969 180.179643 
L 422.755349 179.972481 
L 424.245983 179.768557 
L 425.622726 179.567643 
L 426.885523 179.369442 
L 428.03434 179.173641 
L 429.069189 178.979932 
L 429.990124 178.78793 
L 430.797258 178.59725 
L 431.490669 178.407474 
L 432.070458 178.218168 
L 432.536835 178.028838 
L 432.889825 177.838995 
L 433.129616 177.648094 
z
" clip-path="url(#p991e4bfb58)" style="fill: #c9c9f5; opacity: 0.46; stroke: #c9c9f5; stroke-linejoin: miter"/>
   </g>
   <g id="patch_4">
    <path d="M 430.238877 166.935327 
L 430.180548 166.753262 
L 430.006766 166.573129 
L 429.717642 166.394503 
L 429.31331 166.216917 
L 428.793972 166.039909 
L 428.15985 165.862982 
L 427.411168 165.685644 
L 426.548215 165.507375 
L 425.571306 165.327643 
L 424.48084 165.14592 
L 423.277154 164.961659 
L 421.960782 164.774293 
L 420.532194 164.583283 
L 418.991948 164.38806 
L 417.340691 164.188073 
L 415.579115 163.98276 
L 413.707978 163.771587 
L 411.728064 163.55401 
L 409.640375 163.32951 
L 407.445827 163.097591 
L 405.145603 162.85777 
L 402.740797 162.609594 
L 400.232727 162.352645 
L 397.622753 162.086542 
L 394.912349 161.810939 
L 392.1031 161.525549 
L 389.196702 161.230116 
L 386.194964 160.924448 
L 383.099717 160.608422 
L 379.913079 160.281952 
L 376.63704 159.945049 
L 373.273941 159.597769 
L 369.825972 159.240254 
L 366.295632 158.872707 
L 362.685421 158.495416 
L 358.997906 158.108742 
L 355.235722 157.713125 
L 351.401726 157.309072 
L 347.498663 156.89717 
L 343.529413 156.478075 
L 339.496962 156.052523 
L 335.404279 155.6213 
L 331.254371 155.185262 
L 327.050297 154.745315 
L 322.795149 154.302426 
L 318.49204 153.857606 
L 314.144057 153.411897 
L 309.754325 152.966391 
L 305.32588 152.52218 
L 300.861914 152.080413 
L 296.365424 151.64222 
L 291.839462 151.208749 
L 287.287075 150.78116 
L 282.711222 150.360586 
L 278.114887 149.948162 
L 273.500901 149.544999 
L 268.872187 149.152192 
L 264.23157 148.770794 
L 259.581848 148.401841 
L 254.925706 148.046315 
L 250.26588 147.705179 
L 245.60504 147.379334 
L 240.945814 147.069639 
L 236.290756 146.776905 
L 231.642445 146.5019 
L 227.003422 146.245333 
L 222.376223 146.007856 
L 217.763302 145.790088 
L 213.167088 145.59256 
L 208.590222 145.415803 
L 204.034967 145.260239 
L 199.503895 145.126279 
L 194.999472 145.014263 
L 190.524205 144.924499 
L 186.080552 144.857238 
L 181.671048 144.812676 
L 177.298203 144.790983 
L 172.96463 144.792275 
L 168.672822 144.816622 
L 164.425453 144.864083 
L 160.225185 144.934642 
L 156.074597 145.028287 
L 151.976478 145.144945 
L 147.933463 145.284523 
L 143.948286 145.446901 
L 140.023771 145.631935 
L 136.16254 145.839443 
L 132.367453 146.069248 
L 128.64123 146.32112 
L 124.986642 146.594841 
L 121.4065 146.890144 
L 117.903371 147.206781 
L 114.480023 147.544465 
L 111.139092 147.902906 
L 107.883165 148.281806 
L 104.714788 148.680847 
L 101.636416 149.099717 
L 98.65046 149.538074 
L 95.759242 149.995578 
L 92.964971 150.471901 
L 90.269792 150.966665 
L 87.675734 151.479521 
L 85.184673 152.010099 
L 82.798462 152.558019 
L 80.518775 153.12287 
L 78.347175 153.704283 
L 76.285135 154.30182 
L 74.33395 154.915068 
L 72.494802 155.543564 
L 70.768875 156.186864 
L 69.157018 156.844483 
L 67.660167 157.515912 
L 66.279015 158.200639 
L 65.014186 158.898102 
L 63.866195 159.607708 
L 62.835465 160.328869 
L 61.922287 161.060929 
L 61.126928 161.80321 
L 60.449433 162.554995 
L 59.889936 163.315536 
L 59.44837 164.084033 
L 59.124646 164.85965 
L 58.918607 165.641507 
L 58.830008 166.428693 
L 58.858581 167.220234 
L 59.003969 168.015111 
L 59.26577 168.812292 
L 59.643605 169.610687 
L 60.136892 170.409148 
L 60.745187 171.206508 
L 61.467908 172.001594 
L 62.304497 172.79313 
L 63.254284 173.579883 
L 64.316578 174.360571 
L 65.490732 175.133864 
L 66.776008 175.898484 
L 68.171625 176.653082 
L 69.67678 177.39634 
L 71.290691 178.126963 
L 73.012399 178.843623 
L 74.841077 179.545059 
L 76.775699 180.23001 
L 78.815305 180.897236 
L 80.958868 181.545578 
L 83.205249 182.173896 
L 85.5534 182.781113 
L 88.00207 183.36622 
L 90.549942 183.928245 
L 93.195833 184.466323 
L 95.93827 184.979651 
L 98.775757 185.467498 
L 101.706911 185.929232 
L 104.729989 186.364297 
L 107.843386 186.772222 
L 111.045381 187.152646 
L 114.334033 187.505256 
L 117.707533 187.82989 
L 121.163762 188.126403 
L 124.700688 188.394795 
L 128.316144 188.635121 
L 132.007833 188.847533 
L 135.773388 189.032232 
L 139.610499 189.189534 
L 143.516475 189.319782 
L 147.488827 189.423426 
L 151.524934 189.500937 
L 155.622054 189.552865 
L 159.777324 189.579803 
L 163.987944 189.582387 
L 168.250967 189.561292 
L 172.563619 189.517238 
L 176.922634 189.450956 
L 181.325308 189.363205 
L 185.768252 189.254784 
L 190.248659 189.126473 
L 194.763376 188.979092 
L 199.309286 188.813452 
L 203.883217 188.630378 
L 208.482235 188.430684 
L 213.103197 188.215192 
L 217.743019 187.984693 
L 222.398643 187.740008 
L 227.066946 187.481923 
L 231.745177 187.211205 
L 236.430022 186.928638 
L 241.118774 186.634954 
L 245.808383 186.330902 
L 250.495974 186.017178 
L 255.178647 185.694509 
L 259.85358 185.363563 
L 264.517829 185.025 
L 269.168907 184.679455 
L 273.803631 184.327587 
L 278.419531 183.969983 
L 283.013784 183.607238 
L 287.58366 183.239934 
L 292.126364 182.868629 
L 296.639469 182.493847 
L 301.119909 182.116163 
L 305.565253 181.736035 
L 309.972765 181.353998 
L 314.339705 180.970522 
L 318.663412 180.586074 
L 322.941128 180.20113 
L 327.170416 179.816107 
L 331.348249 179.431464 
L 335.472151 179.047608 
L 339.53942 178.664941 
L 343.547338 178.283869 
L 347.493149 177.904773 
L 351.37447 177.52801 
L 355.188309 177.153971 
L 358.9323 176.782956 
L 362.60372 176.415328 
L 366.200091 176.051389 
L 369.718823 175.691446 
L 373.157484 175.335784 
L 376.513528 174.984686 
L 379.784835 174.638388 
L 382.968838 174.297152 
L 386.063461 173.961172 
L 389.066516 173.630673 
L 391.97595 173.305827 
L 394.789752 172.986796 
L 397.506005 172.673725 
L 400.122921 172.366749 
L 402.638849 172.06595 
L 405.052205 171.771418 
L 407.361425 171.483209 
L 409.565192 171.201363 
L 411.662122 170.925886 
L 413.651189 170.656761 
L 415.531121 170.393986 
L 417.301113 170.13747 
L 418.960138 169.887154 
L 420.507505 169.642926 
L 421.942455 169.40467 
L 423.26434 169.172235 
L 424.472692 168.945455 
L 425.566997 168.724128 
L 426.546898 168.50805 
L 427.412038 168.296974 
L 428.162127 168.090651 
L 428.797008 167.888797 
L 429.31648 167.691118 
L 429.720454 167.497276 
L 430.008864 167.30695 
L 430.181664 167.11976 
z
" clip-path="url(#p991e4bfb58)" style="fill: #f69e5e; opacity: 0.36; stroke: #f69e5e; stroke-linejoin: miter"/>
   </g>
   <g id="matplotlib.axis_1">
    <g id="xtick_1">
     <g id="line2d_1">
      <defs>
       <path id="macc226bf52" d="M 0 0 
L 0 3.5 
" style="stroke: #000000; stroke-width: 0.8"/>
      </defs>
      <g>
       <use xlink:href="#macc226bf52" x="58.756678" y="317.72" style="stroke: #000000; stroke-width: 0.8"/>
      </g>
     </g>
     <g id="text_1">
      <!-- −1.00 -->
      <g transform="translate(43.434021 332.318437) scale(0.1 -0.1)">
       <defs>
        <path id="DejaVuSans-2212" d="M 678 2272 
L 4684 2272 
L 4684 1741 
L 678 1741 
L 678 2272 
z
" transform="scale(0.015625)"/>
        <path id="DejaVuSans-31" d="M 794 531 
L 1825 531 
L 1825 4091 
L 703 3866 
L 703 4441 
L 1819 4666 
L 2450 4666 
L 2450 531 
L 3481 531 
L 3481 0 
L 794 0 
L 794 531 
z
" transform="scale(0.015625)"/>
        <path id="DejaVuSans-2e" d="M 684 794 
L 1344 794 
L 1344 0 
L 684 0 
L 684 794 
z
" transform="scale(0.015625)"/>
        <path id="DejaVuSans-30" d="M 2034 4250 
Q 1547 4250 1301 3770 
Q 1056 3291 1056 2328 
Q 1056 1369 1301 889 
Q 1547 409 2034 409 
Q 2525 409 2770 889 
Q 3016 1369 3016 2328 
Q 3016 3291 2770 3770 
Q 2525 4250 2034 4250 
z
M 2034 4750 
Q 2819 4750 3233 4129 
Q 3647 3509 3647 2328 
Q 3647 1150 3233 529 
Q 2819 -91 2034 -91 
Q 1250 -91 836 529 
Q 422 1150 422 2328 
Q 422 3509 836 4129 
Q 1250 4750 2034 4750 
z
" transform="scale(0.015625)"/>
       </defs>
       <use xlink:href="#DejaVuSans-2212"/>
       <use xlink:href="#DejaVuSans-31" transform="translate(83.789062 0)"/>
       <use xlink:href="#DejaVuSans-2e" transform="translate(147.412109 0)"/>
       <use xlink:href="#DejaVuSans-30" transform="translate(179.199219 0)"/>
       <use xlink:href="#DejaVuSans-30" transform="translate(242.822266 0)"/>
      </g>
     </g>
    </g>
    <g id="xtick_2">
     <g id="line2d_2">
      <g>
       <use xlink:href="#macc226bf52" x="105.570842" y="317.72" style="stroke: #000000; stroke-width: 0.8"/>
      </g>
     </g>
     <g id="text_2">
      <!-- −0.75 -->
      <g transform="translate(90.248186 332.318437) scale(0.1 -0.1)">
       <defs>
        <path id="DejaVuSans-37" d="M 525 4666 
L 3525 4666 
L 3525 4397 
L 1831 0 
L 1172 0 
L 2766 4134 
L 525 4134 
L 525 4666 
z
" transform="scale(0.015625)"/>
        <path id="DejaVuSans-35" d="M 691 4666 
L 3169 4666 
L 3169 4134 
L 1269 4134 
L 1269 2991 
Q 1406 3038 1543 3061 
Q 1681 3084 1819 3084 
Q 2600 3084 3056 2656 
Q 3513 2228 3513 1497 
Q 3513 744 3044 326 
Q 2575 -91 1722 -91 
Q 1428 -91 1123 -41 
Q 819 9 494 109 
L 494 744 
Q 775 591 1075 516 
Q 1375 441 1709 441 
Q 2250 441 2565 725 
Q 2881 1009 2881 1497 
Q 2881 1984 2565 2268 
Q 2250 2553 1709 2553 
Q 1456 2553 1204 2497 
Q 953 2441 691 2322 
L 691 4666 
z
" transform="scale(0.015625)"/>
       </defs>
       <use xlink:href="#DejaVuSans-2212"/>
       <use xlink:href="#DejaVuSans-30" transform="translate(83.789062 0)"/>
       <use xlink:href="#DejaVuSans-2e" transform="translate(147.412109 0)"/>
       <use xlink:href="#DejaVuSans-37" transform="translate(179.199219 0)"/>
       <use xlink:href="#DejaVuSans-35" transform="translate(242.822266 0)"/>
      </g>
     </g>
    </g>
    <g id="xtick_3">
     <g id="line2d_3">
      <g>
       <use xlink:href="#macc226bf52" x="152.385006" y="317.72" style="stroke: #000000; stroke-width: 0.8"/>
      </g>
     </g>
     <g id="text_3">
      <!-- −0.50 -->
      <g transform="translate(137.06235 332.318437) scale(0.1 -0.1)">
       <use xlink:href="#DejaVuSans-2212"/>
       <use xlink:href="#DejaVuSans-30" transform="translate(83.789062 0)"/>
       <use xlink:href="#DejaVuSans-2e" transform="translate(147.412109 0)"/>
       <use xlink:href="#DejaVuSans-35" transform="translate(179.199219 0)"/>
       <use xlink:href="#DejaVuSans-30" transform="translate(242.822266 0)"/>
      </g>
     </g>
    </g>
    <g id="xtick_4">
     <g id="line2d_4">
      <g>
       <use xlink:href="#macc226bf52" x="199.199171" y="317.72" style="stroke: #000000; stroke-width: 0.8"/>
      </g>
     </g>
     <g id="text_4">
      <!-- −0.25 -->
      <g transform="translate(183.876514 332.318437) scale(0.1 -0.1)">
       <defs>
        <path id="DejaVuSans-32" d="M 1228 531 
L 3431 531 
L 3431 0 
L 469 0 
L 469 531 
Q 828 903 1448 1529 
Q 2069 2156 2228 2338 
Q 2531 2678 2651 2914 
Q 2772 3150 2772 3378 
Q 2772 3750 2511 3984 
Q 2250 4219 1831 4219 
Q 1534 4219 1204 4116 
Q 875 4013 500 3803 
L 500 4441 
Q 881 4594 1212 4672 
Q 1544 4750 1819 4750 
Q 2544 4750 2975 4387 
Q 3406 4025 3406 3419 
Q 3406 3131 3298 2873 
Q 3191 2616 2906 2266 
Q 2828 2175 2409 1742 
Q 1991 1309 1228 531 
z
" transform="scale(0.015625)"/>
       </defs>
       <use xlink:href="#DejaVuSans-2212"/>
       <use xlink:href="#DejaVuSans-30" transform="translate(83.789062 0)"/>
       <use xlink:href="#DejaVuSans-2e" transform="translate(147.412109 0)"/>
       <use xlink:href="#DejaVuSans-32" transform="translate(179.199219 0)"/>
       <use xlink:href="#DejaVuSans-35" transform="translate(242.822266 0)"/>
      </g>
     </g>
    </g>
    <g id="xtick_5">
     <g id="line2d_5">
      <g>
       <use xlink:href="#macc226bf52" x="246.013335" y="317.72" style="stroke: #000000; stroke-width: 0.8"/>
      </g>
     </g>
     <g id="text_5">
      <!-- 0.00 -->
      <g transform="translate(234.880522 332.318437) scale(0.1 -0.1)">
       <use xlink:href="#DejaVuSans-30"/>
       <use xlink:href="#DejaVuSans-2e" transform="translate(63.623047 0)"/>
       <use xlink:href="#DejaVuSans-30" transform="translate(95.410156 0)"/>
       <use xlink:href="#DejaVuSans-30" transform="translate(159.033203 0)"/>
      </g>
     </g>
    </g>
    <g id="xtick_6">
     <g id="line2d_6">
      <g>
       <use xlink:href="#macc226bf52" x="292.827499" y="317.72" style="stroke: #000000; stroke-width: 0.8"/>
      </g>
     </g>
     <g id="text_6">
      <!-- 0.25 -->
      <g transform="translate(281.694687 332.318437) scale(0.1 -0.1)">
       <use xlink:href="#DejaVuSans-30"/>
       <use xlink:href="#DejaVuSans-2e" transform="translate(63.623047 0)"/>
       <use xlink:href="#DejaVuSans-32" transform="translate(95.410156 0)"/>
       <use xlink:href="#DejaVuSans-35" transform="translate(159.033203 0)"/>
      </g>
     </g>
    </g>
    <g id="xtick_7">
     <g id="line2d_7">
      <g>
       <use xlink:href="#macc226bf52" x="339.641664" y="317.72" style="stroke: #000000; stroke-width: 0.8"/>
      </g>
     </g>
     <g id="text_7">
      <!-- 0.50 -->
      <g transform="translate(328.508851 332.318437) scale(0.1 -0.1)">
       <use xlink:href="#DejaVuSans-30"/>
       <use xlink:href="#DejaVuSans-2e" transform="translate(63.623047 0)"/>
       <use xlink:href="#DejaVuSans-35" transform="translate(95.410156 0)"/>
       <use xlink:href="#DejaVuSans-30" transform="translate(159.033203 0)"/>
      </g>
     </g>
    </g>
    <g id="xtick_8">
     <g id="line2d_8">
      <g>
       <use xlink:href="#macc226bf52" x="386.455828" y="317.72" style="stroke: #000000; stroke-width: 0.8"/>
      </g>
     </g>
     <g id="text_8">
      <!-- 0.75 -->
      <g transform="translate(375.323015 332.318437) scale(0.1 -0.1)">
       <use xlink:href="#DejaVuSans-30"/>
       <use xlink:href="#DejaVuSans-2e" transform="translate(63.623047 0)"/>
       <use xlink:href="#DejaVuSans-37" transform="translate(95.410156 0)"/>
       <use xlink:href="#DejaVuSans-35" transform="translate(159.033203 0)"/>
      </g>
     </g>
    </g>
    <g id="xtick_9">
     <g id="line2d_9">
      <g>
       <use xlink:href="#macc226bf52" x="433.269992" y="317.72" style="stroke: #000000; stroke-width: 0.8"/>
      </g>
     </g>
     <g id="text_9">
      <!-- 1.00 -->
      <g transform="translate(422.13718 332.318437) scale(0.1 -0.1)">
       <use xlink:href="#DejaVuSans-31"/>
       <use xlink:href="#DejaVuSans-2e" transform="translate(63.623047 0)"/>
       <use xlink:href="#DejaVuSans-30" transform="translate(95.410156 0)"/>
       <use xlink:href="#DejaVuSans-30" transform="translate(159.033203 0)"/>
      </g>
     </g>
    </g>
   </g>
   <g id="matplotlib.axis_2">
    <g id="ytick_1">
     <g id="line2d_10">
      <defs>
       <path id="m7acaa14125" d="M 0 0 
L -3.5 0 
" style="stroke: #000000; stroke-width: 0.8"/>
      </defs>
      <g>
       <use xlink:href="#m7acaa14125" x="42.1" y="316.984408" style="stroke: #000000; stroke-width: 0.8"/>
      </g>
     </g>
     <g id="text_10">
      <!-- −0.8 -->
      <g transform="translate(10.817188 320.783627) scale(0.1 -0.1)">
       <defs>
        <path id="DejaVuSans-38" d="M 2034 2216 
Q 1584 2216 1326 1975 
Q 1069 1734 1069 1313 
Q 1069 891 1326 650 
Q 1584 409 2034 409 
Q 2484 409 2743 651 
Q 3003 894 3003 1313 
Q 3003 1734 2745 1975 
Q 2488 2216 2034 2216 
z
M 1403 2484 
Q 997 2584 770 2862 
Q 544 3141 544 3541 
Q 544 4100 942 4425 
Q 1341 4750 2034 4750 
Q 2731 4750 3128 4425 
Q 3525 4100 3525 3541 
Q 3525 3141 3298 2862 
Q 3072 2584 2669 2484 
Q 3125 2378 3379 2068 
Q 3634 1759 3634 1313 
Q 3634 634 3220 271 
Q 2806 -91 2034 -91 
Q 1263 -91 848 271 
Q 434 634 434 1313 
Q 434 1759 690 2068 
Q 947 2378 1403 2484 
z
M 1172 3481 
Q 1172 3119 1398 2916 
Q 1625 2713 2034 2713 
Q 2441 2713 2670 2916 
Q 2900 3119 2900 3481 
Q 2900 3844 2670 4047 
Q 2441 4250 2034 4250 
Q 1625 4250 1398 4047 
Q 1172 3844 1172 3481 
z
" transform="scale(0.015625)"/>
       </defs>
       <use xlink:href="#DejaVuSans-2212"/>
       <use xlink:href="#DejaVuSans-30" transform="translate(83.789062 0)"/>
       <use xlink:href="#DejaVuSans-2e" transform="translate(147.412109 0)"/>
       <use xlink:href="#DejaVuSans-38" transform="translate(179.199219 0)"/>
      </g>
     </g>
    </g>
    <g id="ytick_2">
     <g id="line2d_11">
      <g>
       <use xlink:href="#m7acaa14125" x="42.1" y="279.533077" style="stroke: #000000; stroke-width: 0.8"/>
      </g>
     </g>
     <g id="text_11">
      <!-- −0.6 -->
      <g transform="translate(10.817188 283.332295) scale(0.1 -0.1)">
       <defs>
        <path id="DejaVuSans-36" d="M 2113 2584 
Q 1688 2584 1439 2293 
Q 1191 2003 1191 1497 
Q 1191 994 1439 701 
Q 1688 409 2113 409 
Q 2538 409 2786 701 
Q 3034 994 3034 1497 
Q 3034 2003 2786 2293 
Q 2538 2584 2113 2584 
z
M 3366 4563 
L 3366 3988 
Q 3128 4100 2886 4159 
Q 2644 4219 2406 4219 
Q 1781 4219 1451 3797 
Q 1122 3375 1075 2522 
Q 1259 2794 1537 2939 
Q 1816 3084 2150 3084 
Q 2853 3084 3261 2657 
Q 3669 2231 3669 1497 
Q 3669 778 3244 343 
Q 2819 -91 2113 -91 
Q 1303 -91 875 529 
Q 447 1150 447 2328 
Q 447 3434 972 4092 
Q 1497 4750 2381 4750 
Q 2619 4750 2861 4703 
Q 3103 4656 3366 4563 
z
" transform="scale(0.015625)"/>
       </defs>
       <use xlink:href="#DejaVuSans-2212"/>
       <use xlink:href="#DejaVuSans-30" transform="translate(83.789062 0)"/>
       <use xlink:href="#DejaVuSans-2e" transform="translate(147.412109 0)"/>
       <use xlink:href="#DejaVuSans-36" transform="translate(179.199219 0)"/>
      </g>
     </g>
    </g>
    <g id="ytick_3">
     <g id="line2d_12">
      <g>
       <use xlink:href="#m7acaa14125" x="42.1" y="242.081745" style="stroke: #000000; stroke-width: 0.8"/>
      </g>
     </g>
     <g id="text_12">
      <!-- −0.4 -->
      <g transform="translate(10.817188 245.880964) scale(0.1 -0.1)">
       <defs>
        <path id="DejaVuSans-34" d="M 2419 4116 
L 825 1625 
L 2419 1625 
L 2419 4116 
z
M 2253 4666 
L 3047 4666 
L 3047 1625 
L 3713 1625 
L 3713 1100 
L 3047 1100 
L 3047 0 
L 2419 0 
L 2419 1100 
L 313 1100 
L 313 1709 
L 2253 4666 
z
" transform="scale(0.015625)"/>
       </defs>
       <use xlink:href="#DejaVuSans-2212"/>
       <use xlink:href="#DejaVuSans-30" transform="translate(83.789062 0)"/>
       <use xlink:href="#DejaVuSans-2e" transform="translate(147.412109 0)"/>
       <use xlink:href="#DejaVuSans-34" transform="translate(179.199219 0)"/>
      </g>
     </g>
    </g>
    <g id="ytick_4">
     <g id="line2d_13">
      <g>
       <use xlink:href="#m7acaa14125" x="42.1" y="204.630414" style="stroke: #000000; stroke-width: 0.8"/>
      </g>
     </g>
     <g id="text_13">
      <!-- −0.2 -->
      <g transform="translate(10.817188 208.429633) scale(0.1 -0.1)">
       <use xlink:href="#DejaVuSans-2212"/>
       <use xlink:href="#DejaVuSans-30" transform="translate(83.789062 0)"/>
       <use xlink:href="#DejaVuSans-2e" transform="translate(147.412109 0)"/>
       <use xlink:href="#DejaVuSans-32" transform="translate(179.199219 0)"/>
      </g>
     </g>
    </g>
    <g id="ytick_5">
     <g id="line2d_14">
      <g>
       <use xlink:href="#m7acaa14125" x="42.1" y="167.179082" style="stroke: #000000; stroke-width: 0.8"/>
      </g>
     </g>
     <g id="text_14">
      <!-- 0.0 -->
      <g transform="translate(19.196875 170.978301) scale(0.1 -0.1)">
       <use xlink:href="#DejaVuSans-30"/>
       <use xlink:href="#DejaVuSans-2e" transform="translate(63.623047 0)"/>
       <use xlink:href="#DejaVuSans-30" transform="translate(95.410156 0)"/>
      </g>
     </g>
    </g>
    <g id="ytick_6">
     <g id="line2d_15">
      <g>
       <use xlink:href="#m7acaa14125" x="42.1" y="129.727751" style="stroke: #000000; stroke-width: 0.8"/>
      </g>
     </g>
     <g id="text_15">
      <!-- 0.2 -->
      <g transform="translate(19.196875 133.52697) scale(0.1 -0.1)">
       <use xlink:href="#DejaVuSans-30"/>
       <use xlink:href="#DejaVuSans-2e" transform="translate(63.623047 0)"/>
       <use xlink:href="#DejaVuSans-32" transform="translate(95.410156 0)"/>
      </g>
     </g>
    </g>
    <g id="ytick_7">
     <g id="line2d_16">
      <g>
       <use xlink:href="#m7acaa14125" x="42.1" y="92.27642" style="stroke: #000000; stroke-width: 0.8"/>
      </g>
     </g>
     <g id="text_16">
      <!-- 0.4 -->
      <g transform="translate(19.196875 96.075638) scale(0.1 -0.1)">
       <use xlink:href="#DejaVuSans-30"/>
       <use xlink:href="#DejaVuSans-2e" transform="translate(63.623047 0)"/>
       <use xlink:href="#DejaVuSans-34" transform="translate(95.410156 0)"/>
      </g>
     </g>
    </g>
    <g id="ytick_8">
     <g id="line2d_17">
      <g>
       <use xlink:href="#m7acaa14125" x="42.1" y="54.825088" style="stroke: #000000; stroke-width: 0.8"/>
      </g>
     </g>
     <g id="text_17">
      <!-- 0.6 -->
      <g transform="translate(19.196875 58.624307) scale(0.1 -0.1)">
       <use xlink:href="#DejaVuSans-30"/>
       <use xlink:href="#DejaVuSans-2e" transform="translate(63.623047 0)"/>
       <use xlink:href="#DejaVuSans-36" transform="translate(95.410156 0)"/>
      </g>
     </g>
    </g>
    <g id="ytick_9">
     <g id="line2d_18">
      <g>
       <use xlink:href="#m7acaa14125" x="42.1" y="17.373757" style="stroke: #000000; stroke-width: 0.8"/>
      </g>
     </g>
     <g id="text_18">
      <!-- 0.8 -->
      <g transform="translate(19.196875 21.172975) scale(0.1 -0.1)">
       <use xlink:href="#DejaVuSans-30"/>
       <use xlink:href="#DejaVuSans-2e" transform="translate(63.623047 0)"/>
       <use xlink:href="#DejaVuSans-38" transform="translate(95.410156 0)"/>
      </g>
     </g>
    </g>
   </g>
   <g id="line2d_19">
    <path d="M 433.256286 177.455581 
L 433.269992 177.260858 
L 432.95869 176.862258 
L 432.196302 176.446928 
L 430.207659 175.779669 
L 427.205497 175.039882 
L 421.627917 173.899729 
L 407.569807 171.317208 
L 381.765431 166.533583 
L 352.362485 160.809581 
L 318.305746 154.187535 
L 300.07982 150.826186 
L 281.360473 147.605088 
L 267.128303 145.352059 
L 252.826666 143.284003 
L 238.536055 141.432134 
L 224.33217 139.818477 
L 210.287662 138.456631 
L 196.473191 137.352842 
L 182.959433 136.507491 
L 169.817632 135.916499 
L 157.120523 135.57274 
L 144.942127 135.467324 
L 133.356975 135.590685 
L 122.438145 135.933431 
L 112.255596 136.487155 
L 102.873687 137.244967 
L 94.349204 138.201831 
L 86.729507 139.354781 
L 82.171093 140.231752 
L 78.039959 141.195494 
L 74.34251 142.246409 
L 71.083313 143.385002 
L 68.265269 144.611897 
L 65.889818 145.92758 
L 63.957238 147.332326 
L 62.466705 148.825958 
L 61.416699 150.407687 
L 60.80509 152.075864 
L 60.629321 153.82784 
L 60.886657 155.659626 
L 61.573896 157.565836 
L 62.68789 159.539398 
L 64.225245 161.571463 
L 66.182424 163.651364 
L 68.555643 165.76654 
L 71.340918 167.902679 
L 74.533894 170.043877 
L 78.129908 172.172997 
L 82.123903 174.272008 
L 86.510364 176.322483 
L 91.283255 178.306144 
L 96.435989 180.205467 
L 101.961323 182.004222 
L 107.851377 183.687977 
L 114.097233 185.244554 
L 120.689025 186.664314 
L 127.615936 187.940406 
L 134.865634 189.068717 
L 142.424301 190.047827 
L 150.276825 190.87886 
L 158.406178 191.56512 
L 166.793756 192.111817 
L 179.814556 192.685202 
L 193.295957 192.987173 
L 207.156466 193.048195 
L 221.309818 192.899902 
L 240.480652 192.430254 
L 259.79295 191.713005 
L 283.795202 190.562057 
L 311.824167 188.942517 
L 342.521519 186.905037 
L 373.579796 184.593246 
L 396.126326 182.718637 
L 411.433526 181.271219 
L 421.150969 180.179643 
L 426.885523 179.369442 
L 430.797258 178.59725 
L 432.536835 178.028838 
L 433.129616 177.648094 
L 433.256286 177.455581 
L 433.256286 177.455581 
" clip-path="url(#p991e4bfb58)" style="fill: none; stroke: #000000; stroke-width: 2; stroke-linecap: square"/>
   </g>
   <g id="line2d_20">
    <path d="M 430.238877 166.935327 
L 430.006766 166.573129 
L 429.31331 166.216917 
L 427.411168 165.685644 
L 424.48084 165.14592 
L 418.991948 164.38806 
L 407.445827 163.097591 
L 300.861914 152.080413 
L 278.114887 149.948162 
L 259.581848 148.401841 
L 240.945814 147.069639 
L 222.376223 146.007856 
L 208.590222 145.415803 
L 194.999472 145.014263 
L 181.671048 144.812676 
L 168.672822 144.816622 
L 156.074597 145.028287 
L 143.948286 145.446901 
L 132.367453 146.069248 
L 121.4065 146.890144 
L 111.139092 147.902906 
L 101.636416 149.099717 
L 92.964971 150.471901 
L 85.184673 152.010099 
L 80.518775 153.12287 
L 76.285135 154.30182 
L 72.494802 155.543564 
L 69.157018 156.844483 
L 66.279015 158.200639 
L 63.866195 159.607708 
L 61.922287 161.060929 
L 60.449433 162.554995 
L 59.44837 164.084033 
L 58.918607 165.641507 
L 58.830008 166.428693 
L 58.858581 167.220234 
L 59.003969 168.015111 
L 59.643605 169.610687 
L 60.745187 171.206508 
L 62.304497 172.79313 
L 64.316578 174.360571 
L 66.776008 175.898484 
L 69.67678 177.39634 
L 73.012399 178.843623 
L 76.775699 180.23001 
L 80.958868 181.545578 
L 85.5534 182.781113 
L 90.549942 183.928245 
L 95.93827 184.979651 
L 101.706911 185.929232 
L 107.843386 186.772222 
L 114.334033 187.505256 
L 124.700688 188.394795 
L 135.773388 189.032232 
L 147.488827 189.423426 
L 159.777324 189.579803 
L 172.563619 189.517238 
L 185.768252 189.254784 
L 203.883217 188.630378 
L 222.398643 187.740008 
L 241.118774 186.634954 
L 264.517829 185.025 
L 292.126364 182.868629 
L 322.941128 180.20113 
L 355.188309 177.153971 
L 382.968838 174.297152 
L 402.638849 172.06595 
L 415.531121 170.393986 
L 423.26434 169.172235 
L 427.412038 168.296974 
L 429.31648 167.691118 
L 430.008864 167.30695 
L 430.238877 166.935327 
L 430.238877 166.935327 
" clip-path="url(#p991e4bfb58)" style="fill: none; stroke-dasharray: 7.4,3.2; stroke-dashoffset: 0; stroke: #000000; stroke-width: 2"/>
   </g>
   <g id="patch_5">
    <path d="M 42.1 317.72 
L 42.1 10.8 
" style="fill: none; stroke: #000000; stroke-width: 0.8; stroke-linejoin: miter; stroke-linecap: square"/>
   </g>
   <g id="patch_6">
    <path d="M 450 317.72 
L 450 10.8 
" style="fill: none; stroke: #000000; stroke-width: 0.8; stroke-linejoin: miter; stroke-linecap: square"/>
   </g>
   <g id="patch_7">
    <path d="M 42.1 317.72 
L 450 317.72 
" style="fill: none; stroke: #000000; stroke-width: 0.8; stroke-linejoin: miter; stroke-linecap: square"/>
   </g>
   <g id="patch_8">
    <path d="M 42.1 10.8 
L 450 10.8 
" style="fill: none; stroke: #000000; stroke-width: 0.8; stroke-linejoin: miter; stroke-linecap: square"/>
   </g>
   <g id="legend_1">
    <g id="patch_9">
     <path d="M 325.31875 48.15625 
L 443 48.15625 
Q 445 48.15625 445 46.15625 
L 445 17.8 
Q 445 15.8 443 15.8 
L 325.31875 15.8 
Q 323.31875 15.8 323.31875 17.8 
L 323.31875 46.15625 
Q 323.31875 48.15625 325.31875 48.15625 
z
" style="fill: #ffffff; opacity: 0.8; stroke: #cccccc; stroke-linejoin: miter"/>
    </g>
    <g id="patch_10">
     <path d="M 327.31875 27.398438 
L 347.31875 27.398438 
L 347.31875 20.398438 
L 327.31875 20.398438 
z
" style="fill: #c9c9f5; opacity: 0.46; stroke: #c9c9f5; stroke-linejoin: miter"/>
    </g>
    <g id="text_19">
     <!-- Optimized Shape -->
     <g transform="translate(355.31875 27.398438) scale(0.1 -0.1)">
      <defs>
       <path id="DejaVuSans-4f" d="M 2522 4238 
Q 1834 4238 1429 3725 
Q 1025 3213 1025 2328 
Q 1025 1447 1429 934 
Q 1834 422 2522 422 
Q 3209 422 3611 934 
Q 4013 1447 4013 2328 
Q 4013 3213 3611 3725 
Q 3209 4238 2522 4238 
z
M 2522 4750 
Q 3503 4750 4090 4092 
Q 4678 3434 4678 2328 
Q 4678 1225 4090 567 
Q 3503 -91 2522 -91 
Q 1538 -91 948 565 
Q 359 1222 359 2328 
Q 359 3434 948 4092 
Q 1538 4750 2522 4750 
z
" transform="scale(0.015625)"/>
       <path id="DejaVuSans-70" d="M 1159 525 
L 1159 -1331 
L 581 -1331 
L 581 3500 
L 1159 3500 
L 1159 2969 
Q 1341 3281 1617 3432 
Q 1894 3584 2278 3584 
Q 2916 3584 3314 3078 
Q 3713 2572 3713 1747 
Q 3713 922 3314 415 
Q 2916 -91 2278 -91 
Q 1894 -91 1617 61 
Q 1341 213 1159 525 
z
M 3116 1747 
Q 3116 2381 2855 2742 
Q 2594 3103 2138 3103 
Q 1681 3103 1420 2742 
Q 1159 2381 1159 1747 
Q 1159 1113 1420 752 
Q 1681 391 2138 391 
Q 2594 391 2855 752 
Q 3116 1113 3116 1747 
z
" transform="scale(0.015625)"/>
       <path id="DejaVuSans-74" d="M 1172 4494 
L 1172 3500 
L 2356 3500 
L 2356 3053 
L 1172 3053 
L 1172 1153 
Q 1172 725 1289 603 
Q 1406 481 1766 481 
L 2356 481 
L 2356 0 
L 1766 0 
Q 1100 0 847 248 
Q 594 497 594 1153 
L 594 3053 
L 172 3053 
L 172 3500 
L 594 3500 
L 594 4494 
L 1172 4494 
z
" transform="scale(0.015625)"/>
       <path id="DejaVuSans-69" d="M 603 3500 
L 1178 3500 
L 1178 0 
L 603 0 
L 603 3500 
z
M 603 4863 
L 1178 4863 
L 1178 4134 
L 603 4134 
L 603 4863 
z
" transform="scale(0.015625)"/>
       <path id="DejaVuSans-6d" d="M 3328 2828 
Q 3544 3216 3844 3400 
Q 4144 3584 4550 3584 
Q 5097 3584 5394 3201 
Q 5691 2819 5691 2113 
L 5691 0 
L 5113 0 
L 5113 2094 
Q 5113 2597 4934 2840 
Q 4756 3084 4391 3084 
Q 3944 3084 3684 2787 
Q 3425 2491 3425 1978 
L 3425 0 
L 2847 0 
L 2847 2094 
Q 2847 2600 2669 2842 
Q 2491 3084 2119 3084 
Q 1678 3084 1418 2786 
Q 1159 2488 1159 1978 
L 1159 0 
L 581 0 
L 581 3500 
L 1159 3500 
L 1159 2956 
Q 1356 3278 1631 3431 
Q 1906 3584 2284 3584 
Q 2666 3584 2933 3390 
Q 3200 3197 3328 2828 
z
" transform="scale(0.015625)"/>
       <path id="DejaVuSans-7a" d="M 353 3500 
L 3084 3500 
L 3084 2975 
L 922 459 
L 3084 459 
L 3084 0 
L 275 0 
L 275 525 
L 2438 3041 
L 353 3041 
L 353 3500 
z
" transform="scale(0.015625)"/>
       <path id="DejaVuSans-65" d="M 3597 1894 
L 3597 1613 
L 953 1613 
Q 991 1019 1311 708 
Q 1631 397 2203 397 
Q 2534 397 2845 478 
Q 3156 559 3463 722 
L 3463 178 
Q 3153 47 2828 -22 
Q 2503 -91 2169 -91 
Q 1331 -91 842 396 
Q 353 884 353 1716 
Q 353 2575 817 3079 
Q 1281 3584 2069 3584 
Q 2775 3584 3186 3129 
Q 3597 2675 3597 1894 
z
M 3022 2063 
Q 3016 2534 2758 2815 
Q 2500 3097 2075 3097 
Q 1594 3097 1305 2825 
Q 1016 2553 972 2059 
L 3022 2063 
z
" transform="scale(0.015625)"/>
       <path id="DejaVuSans-64" d="M 2906 2969 
L 2906 4863 
L 3481 4863 
L 3481 0 
L 2906 0 
L 2906 525 
Q 2725 213 2448 61 
Q 2172 -91 1784 -91 
Q 1150 -91 751 415 
Q 353 922 353 1747 
Q 353 2572 751 3078 
Q 1150 3584 1784 3584 
Q 2172 3584 2448 3432 
Q 2725 3281 2906 2969 
z
M 947 1747 
Q 947 1113 1208 752 
Q 1469 391 1925 391 
Q 2381 391 2643 752 
Q 2906 1113 2906 1747 
Q 2906 2381 2643 2742 
Q 2381 3103 1925 3103 
Q 1469 3103 1208 2742 
Q 947 2381 947 1747 
z
" transform="scale(0.015625)"/>
       <path id="DejaVuSans-20" transform="scale(0.015625)"/>
       <path id="DejaVuSans-53" d="M 3425 4513 
L 3425 3897 
Q 3066 4069 2747 4153 
Q 2428 4238 2131 4238 
Q 1616 4238 1336 4038 
Q 1056 3838 1056 3469 
Q 1056 3159 1242 3001 
Q 1428 2844 1947 2747 
L 2328 2669 
Q 3034 2534 3370 2195 
Q 3706 1856 3706 1288 
Q 3706 609 3251 259 
Q 2797 -91 1919 -91 
Q 1588 -91 1214 -16 
Q 841 59 441 206 
L 441 856 
Q 825 641 1194 531 
Q 1563 422 1919 422 
Q 2459 422 2753 634 
Q 3047 847 3047 1241 
Q 3047 1584 2836 1778 
Q 2625 1972 2144 2069 
L 1759 2144 
Q 1053 2284 737 2584 
Q 422 2884 422 3419 
Q 422 4038 858 4394 
Q 1294 4750 2059 4750 
Q 2388 4750 2728 4690 
Q 3069 4631 3425 4513 
z
" transform="scale(0.015625)"/>
       <path id="DejaVuSans-68" d="M 3513 2113 
L 3513 0 
L 2938 0 
L 2938 2094 
Q 2938 2591 2744 2837 
Q 2550 3084 2163 3084 
Q 1697 3084 1428 2787 
Q 1159 2491 1159 1978 
L 1159 0 
L 581 0 
L 581 4863 
L 1159 4863 
L 1159 2956 
Q 1366 3272 1645 3428 
Q 1925 3584 2291 3584 
Q 2894 3584 3203 3211 
Q 3513 2838 3513 2113 
z
" transform="scale(0.015625)"/>
       <path id="DejaVuSans-61" d="M 2194 1759 
Q 1497 1759 1228 1600 
Q 959 1441 959 1056 
Q 959 750 1161 570 
Q 1363 391 1709 391 
Q 2188 391 2477 730 
Q 2766 1069 2766 1631 
L 2766 1759 
L 2194 1759 
z
M 3341 1997 
L 3341 0 
L 2766 0 
L 2766 531 
Q 2569 213 2275 61 
Q 1981 -91 1556 -91 
Q 1019 -91 701 211 
Q 384 513 384 1019 
Q 384 1609 779 1909 
Q 1175 2209 1959 2209 
L 2766 2209 
L 2766 2266 
Q 2766 2663 2505 2880 
Q 2244 3097 1772 3097 
Q 1472 3097 1187 3025 
Q 903 2953 641 2809 
L 641 3341 
Q 956 3463 1253 3523 
Q 1550 3584 1831 3584 
Q 2591 3584 2966 3190 
Q 3341 2797 3341 1997 
z
" transform="scale(0.015625)"/>
      </defs>
      <use xlink:href="#DejaVuSans-4f"/>
      <use xlink:href="#DejaVuSans-70" transform="translate(78.710938 0)"/>
      <use xlink:href="#DejaVuSans-74" transform="translate(142.1875 0)"/>
      <use xlink:href="#DejaVuSans-69" transform="translate(181.396484 0)"/>
      <use xlink:href="#DejaVuSans-6d" transform="translate(209.179688 0)"/>
      <use xlink:href="#DejaVuSans-69" transform="translate(306.591797 0)"/>
      <use xlink:href="#DejaVuSans-7a" transform="translate(334.375 0)"/>
      <use xlink:href="#DejaVuSans-65" transform="translate(386.865234 0)"/>
      <use xlink:href="#DejaVuSans-64" transform="translate(448.388672 0)"/>
      <use xlink:href="#DejaVuSans-20" transform="translate(511.865234 0)"/>
      <use xlink:href="#DejaVuSans-53" transform="translate(543.652344 0)"/>
      <use xlink:href="#DejaVuSans-68" transform="translate(607.128906 0)"/>
      <use xlink:href="#DejaVuSans-61" transform="translate(670.507812 0)"/>
      <use xlink:href="#DejaVuSans-70" transform="translate(731.787109 0)"/>
      <use xlink:href="#DejaVuSans-65" transform="translate(795.263672 0)"/>
     </g>
    </g>
    <g id="patch_11">
     <path d="M 327.31875 42.076563 
L 347.31875 42.076563 
L 347.31875 35.076563 
L 327.31875 35.076563 
z
" style="fill: #f69e5e; opacity: 0.36; stroke: #f69e5e; stroke-linejoin: miter"/>
    </g>
    <g id="text_20">
     <!-- Initial Shape -->
     <g transform="translate(355.31875 42.076563) scale(0.1 -0.1)">
      <defs>
       <path id="DejaVuSans-49" d="M 628 4666 
L 1259 4666 
L 1259 0 
L 628 0 
L 628 4666 
z
" transform="scale(0.015625)"/>
       <path id="DejaVuSans-6e" d="M 3513 2113 
L 3513 0 
L 2938 0 
L 2938 2094 
Q 2938 2591 2744 2837 
Q 2550 3084 2163 3084 
Q 1697 3084 1428 2787 
Q 1159 2491 1159 1978 
L 1159 0 
L 581 0 
L 581 3500 
L 1159 3500 
L 1159 2956 
Q 1366 3272 1645 3428 
Q 1925 3584 2291 3584 
Q 2894 3584 3203 3211 
Q 3513 2838 3513 2113 
z
" transform="scale(0.015625)"/>
       <path id="DejaVuSans-6c" d="M 603 4863 
L 1178 4863 
L 1178 0 
L 603 0 
L 603 4863 
z
" transform="scale(0.015625)"/>
      </defs>
      <use xlink:href="#DejaVuSans-49"/>
      <use xlink:href="#DejaVuSans-6e" transform="translate(29.492188 0)"/>
      <use xlink:href="#DejaVuSans-69" transform="translate(92.871094 0)"/>
      <use xlink:href="#DejaVuSans-74" transform="translate(120.654297 0)"/>
      <use xlink:href="#DejaVuSans-69" transform="translate(159.863281 0)"/>
      <use xlink:href="#DejaVuSans-61" transform="translate(187.646484 0)"/>
      <use xlink:href="#DejaVuSans-6c" transform="translate(248.925781 0)"/>
      <use xlink:href="#DejaVuSans-20" transform="translate(276.708984 0)"/>
      <use xlink:href="#DejaVuSans-53" transform="translate(308.496094 0)"/>
      <use xlink:href="#DejaVuSans-68" transform="translate(371.972656 0)"/>
      <use xlink:href="#DejaVuSans-61" transform="translate(435.351562 0)"/>
      <use xlink:href="#DejaVuSans-70" transform="translate(496.630859 0)"/>
      <use xlink:href="#DejaVuSans-65" transform="translate(560.107422 0)"/>
     </g>
    </g>
   </g>
  </g>
 </g>
 <defs>
  <clipPath id="p991e4bfb58">
   <rect x="42.1" y="10.8" width="407.9" height="306.92"/>
  </clipPath>
 </defs>
</svg>
