<?xml version="1.0" encoding="utf-8" standalone="no"?>
<!DOCTYPE svg PUBLIC "-//W3C//DTD SVG 1.1//EN"
  "http://www.w3.org/Graphics/SVG/1.1/DTD/svg11.dtd">
<svg xmlns:xlink="http://www.w3.org/1999/xlink" width="460.8pt" height="345.6pt" viewBox="0 0 460.8 345.6" xmlns="http://www.w3.org/2000/svg" version="1.1">
 <metadata>
  <rdf:RDF xmlns:dc="http://purl.org/dc/elements/1.1/" xmlns:cc="http://creativecommons.org/ns#" xmlns:rdf="http://www.w3.org/1999/02/22-rdf-syntax-ns#">
   <cc:Work>
    <dc:type rdf:resource="http://purl.org/dc/dcmitype/StillImage"/>
    <dc:date>2025-06-09T22:11:22.629214</dc:date>
    <dc:format>image/svg+xml</dc:format>
    <dc:creator>
     <cc:Agent>
      <dc:title>Matplotlib v3.10.0, https://matplotlib.org/</dc:title>
     </cc:Agent>
    </dc:creator>
   </cc:Work>
  </rdf:RDF>
 </metadata>
 <defs>
  <style type="text/css">*{stroke-linejoin: round; stroke-linecap: butt}</style>
 </defs>
 <g id="figure_1">
  <g id="patch_1">
   <path d="M 0 345.6 
L 460.8 345.6 
L 460.8 0 
L 0 0 
z
" style="fill: #ffffff"/>
  </g>
  <g id="axes_1">
   <g id="patch_2">
    <path d="M 42.1 317.72 
L 450 317.72 
L 450 10.8 
L 42.1 10.8 
z
" style="fill: #ffffff"/>
   </g>
   <g id="patch_3">
    <path d="M 430.471665 174.995232 
L 430.433594 174.818199 
L 430.287341 174.640013 
L 430.032681 174.460107 
L 429.6694 174.277896 
L 429.197148 174.092759 
L 428.615793 173.904051 
L 427.925017 173.711103 
L 427.124709 173.513191 
L 426.214689 173.309584 
L 425.194787 173.09953 
L 424.064904 172.88223 
L 422.824993 172.656879 
L 421.474999 172.42264 
L 420.014977 172.178671 
L 418.444939 171.924097 
L 416.76511 171.658065 
L 414.975659 171.37968 
L 413.076878 171.088076 
L 411.069184 170.782369 
L 408.95297 170.461699 
L 406.728832 170.125245 
L 404.397457 169.772177 
L 401.959554 169.401729 
L 399.416079 169.013171 
L 396.768043 168.605828 
L 394.016517 168.179087 
L 391.162895 167.732416 
L 388.208449 167.265353 
L 385.154797 166.777542 
L 382.003629 166.268727 
L 378.756699 165.738754 
L 375.416054 165.187581 
L 371.983709 164.615323 
L 368.461969 164.022194 
L 364.853186 163.408556 
L 361.159858 162.774903 
L 357.384572 162.121895 
L 353.53014 161.450293 
L 349.599365 160.761031 
L 345.595181 160.055167 
L 341.520661 159.333896 
L 337.378983 158.598528 
L 333.173296 157.850497 
L 328.906921 157.091345 
L 324.583107 156.322719 
L 320.205348 155.546333 
L 315.776974 154.763982 
L 311.301428 153.97753 
L 306.782147 153.188859 
L 302.222663 152.399911 
L 297.626341 151.612632 
L 292.996664 150.82895 
L 288.337044 150.050814 
L 283.650866 149.280126 
L 278.941552 148.518746 
L 274.212341 147.768509 
L 269.46656 147.031173 
L 264.707521 146.308434 
L 259.938403 145.601915 
L 255.162282 144.913136 
L 250.382357 144.243563 
L 245.601741 143.594557 
L 240.823362 142.967359 
L 236.050296 142.363154 
L 231.285441 141.78299 
L 226.531747 141.227864 
L 221.792109 140.698636 
L 217.069331 140.196086 
L 212.366297 139.720915 
L 207.685806 139.273701 
L 203.030647 138.854993 
L 198.403597 138.465206 
L 193.807387 138.104692 
L 189.24486 137.773769 
L 184.718727 137.472649 
L 180.231745 137.201495 
L 175.786643 136.960403 
L 171.386237 136.749436 
L 167.033173 136.568594 
L 162.730256 136.417857 
L 158.480272 136.297145 
L 154.285892 136.206361 
L 150.149951 136.145382 
L 146.075071 136.11405 
L 142.064059 136.1122 
L 138.119614 136.139631 
L 134.244403 136.196163 
L 130.441093 136.281583 
L 126.712315 136.395678 
L 123.060714 136.538235 
L 119.488888 136.709053 
L 115.999234 136.907898 
L 112.594317 137.134568 
L 109.276532 137.388862 
L 106.048176 137.670588 
L 102.911588 137.979556 
L 99.868951 138.315584 
L 96.922391 138.678482 
L 94.073978 139.068109 
L 91.325613 139.484286 
L 88.679209 139.926887 
L 86.136577 140.395744 
L 83.699282 140.890723 
L 81.36902 141.411682 
L 79.1472 141.958483 
L 77.035205 142.530979 
L 75.034385 143.129008 
L 73.145886 143.752439 
L 71.370734 144.401059 
L 69.710076 145.074691 
L 68.164721 145.773124 
L 66.735458 146.4961 
L 65.423107 147.243362 
L 64.22823 148.01457 
L 63.151414 148.809371 
L 62.193209 149.627374 
L 61.353897 150.468094 
L 60.633927 151.331022 
L 60.033502 152.215571 
L 59.552869 153.121065 
L 59.192164 154.046771 
L 58.951398 154.991857 
L 58.830739 155.955428 
L 58.830008 156.936473 
L 58.949193 157.933903 
L 59.188159 158.946499 
L 59.54667 159.972988 
L 60.024513 161.011973 
L 60.621349 162.061931 
L 61.336864 163.121272 
L 62.170686 164.188339 
L 63.12231 165.26128 
L 64.191296 166.338247 
L 65.377037 167.417294 
L 66.678914 168.496346 
L 68.096342 169.573342 
L 69.628501 170.646074 
L 71.27468 171.712385 
L 73.034037 172.770053 
L 74.905648 173.816801 
L 76.888558 174.85042 
L 78.981687 175.868665 
L 81.183999 176.869349 
L 83.494302 177.850331 
L 85.911336 178.809518 
L 88.43383 179.744921 
L 91.060366 180.654631 
L 93.789437 181.53684 
L 96.619557 182.389891 
L 99.549028 183.212227 
L 102.576084 184.002452 
L 105.698958 184.759335 
L 108.915647 185.481761 
L 112.224218 186.168832 
L 115.622576 186.819782 
L 119.108394 187.434011 
L 122.679443 188.011109 
L 126.333227 188.550806 
L 130.067247 189.052991 
L 133.878962 189.517726 
L 137.765558 189.945208 
L 141.724167 190.33576 
L 145.752133 190.689858 
L 149.846105 191.008068 
L 154.003263 191.291088 
L 158.220346 191.539701 
L 162.494114 191.754783 
L 166.821303 191.93727 
L 171.198505 192.088195 
L 175.622232 192.208598 
L 180.089334 192.299609 
L 184.595942 192.362366 
L 189.138939 192.398032 
L 193.714437 192.4078 
L 198.319164 192.392865 
L 202.949519 192.354423 
L 207.602019 192.293669 
L 212.273046 192.211779 
L 216.959374 192.109925 
L 221.65743 191.989255 
L 226.363866 191.850888 
L 231.075343 191.695928 
L 235.78843 191.52545 
L 240.500275 191.340465 
L 245.207226 191.142014 
L 249.906492 190.93104 
L 254.594951 190.708485 
L 259.269588 190.475264 
L 263.927454 190.232235 
L 268.565718 189.980229 
L 273.181488 189.720045 
L 277.772303 189.45243 
L 282.335109 189.17815 
L 286.867556 188.897875 
L 291.367019 188.612276 
L 295.830938 188.321988 
L 300.256809 188.027634 
L 304.642454 187.729764 
L 308.98514 187.428954 
L 313.282825 187.125724 
L 317.533113 186.820575 
L 321.733777 186.513977 
L 325.882576 186.206392 
L 329.977285 185.898265 
L 334.015922 185.589978 
L 337.996109 185.281961 
L 341.915961 184.974554 
L 345.773385 184.668132 
L 349.566289 184.36302 
L 353.292648 184.059551 
L 356.950695 183.758009 
L 360.538193 183.458701 
L 364.053486 183.161881 
L 367.494595 182.867802 
L 370.859766 182.576701 
L 374.147163 182.288806 
L 377.355043 182.004313 
L 380.481652 181.723416 
L 383.525561 181.44628 
L 386.484935 181.17307 
L 389.358346 180.903918 
L 392.144298 180.638935 
L 394.841351 180.378246 
L 397.448165 180.121925 
L 399.963402 179.870048 
L 402.385758 179.622666 
L 404.71414 179.379805 
L 406.947424 179.141486 
L 409.084496 178.907702 
L 411.124389 178.678435 
L 413.066135 178.453648 
L 414.908945 178.233255 
L 416.651854 178.017191 
L 418.29422 177.80534 
L 419.835254 177.597593 
L 421.274362 177.393795 
L 422.61089 177.193775 
L 423.844253 176.99735 
L 424.973889 176.804297 
L 425.999393 176.614379 
L 426.92018 176.42735 
L 427.735912 176.242912 
L 428.44615 176.060763 
L 429.050479 175.880559 
L 429.548583 175.701946 
L 429.940069 175.524538 
L 430.224644 175.347911 
L 430.401936 175.171634 
z
" clip-path="url(#p9b87200704)" style="fill: #c9c9f5; opacity: 0.46; stroke: #c9c9f5; stroke-linejoin: miter"/>
   </g>
   <g id="patch_4">
    <path d="M 433.269992 167.095166 
L 433.211198 166.911652 
L 433.036032 166.730085 
L 432.744606 166.550036 
L 432.337055 166.371036 
L 431.813582 166.192619 
L 431.174411 166.014283 
L 430.419768 165.835533 
L 429.549945 165.655845 
L 428.565257 165.474682 
L 427.466109 165.291512 
L 426.252838 165.105784 
L 424.925986 164.916927 
L 423.486023 164.724396 
L 421.933513 164.527618 
L 420.269108 164.326039 
L 418.493506 164.119091 
L 416.607472 163.906236 
L 414.611793 163.686927 
L 412.507482 163.46064 
L 410.29546 163.226874 
L 407.976922 162.985143 
L 405.552969 162.734991 
L 403.024929 162.475997 
L 400.394174 162.207774 
L 397.662189 161.929978 
L 394.830573 161.642315 
L 391.901034 161.34453 
L 388.875396 161.036428 
L 385.755504 160.717886 
L 382.543494 160.388817 
L 379.24137 160.049231 
L 375.851495 159.699186 
L 372.376072 159.338824 
L 368.817623 158.968351 
L 365.178667 158.588056 
L 361.461792 158.198303 
L 357.669653 157.799536 
L 353.80513 157.392266 
L 349.87099 156.977085 
L 345.870137 156.554652 
L 341.805579 156.125712 
L 337.680309 155.691056 
L 333.497359 155.251546 
L 329.259812 154.808096 
L 324.970784 154.361681 
L 320.633414 153.91332 
L 316.250812 153.464061 
L 311.826128 153.015008 
L 307.362423 152.56726 
L 302.862914 152.121976 
L 298.330622 151.680294 
L 293.768624 151.243372 
L 289.179991 150.812378 
L 284.567704 150.388455 
L 279.934773 149.972748 
L 275.28405 149.566375 
L 270.618482 149.17044 
L 265.940915 148.786005 
L 261.254172 148.414115 
L 256.560956 148.055758 
L 251.864028 147.711906 
L 247.166078 147.383467 
L 242.469755 147.071305 
L 237.777634 146.776241 
L 233.092312 146.499046 
L 228.416353 146.240436 
L 223.752311 146.001069 
L 219.102662 145.781567 
L 214.469852 145.582466 
L 209.856544 145.404302 
L 205.265019 145.247499 
L 200.697871 145.112472 
L 196.157583 144.999565 
L 191.646683 144.909086 
L 187.16765 144.841289 
L 182.723037 144.796373 
L 178.315375 144.774506 
L 173.947297 144.775809 
L 169.621317 144.80035 
L 165.34013 144.848188 
L 161.10642 144.91931 
L 156.922784 145.0137 
L 152.792035 145.131287 
L 148.716829 145.271976 
L 144.699921 145.435648 
L 140.744159 145.622154 
L 136.852185 145.831314 
L 133.02688 146.062949 
L 129.270989 146.316826 
L 125.587303 146.592727 
L 121.978655 146.890382 
L 118.447634 147.20954 
L 114.997029 147.549913 
L 111.629497 147.911207 
L 108.347646 148.293124 
L 105.154041 148.695343 
L 102.051159 149.117547 
L 99.041429 149.559394 
L 96.127191 150.020541 
L 93.310672 150.500656 
L 90.594033 150.99936 
L 87.979321 151.5163 
L 85.468426 152.051102 
L 83.063216 152.603384 
L 80.765378 153.172733 
L 78.576487 153.758775 
L 76.498029 154.36107 
L 74.531308 154.979201 
L 72.677517 155.612701 
L 70.937848 156.261123 
L 69.313157 156.923978 
L 67.804388 157.600753 
L 66.412239 158.290932 
L 65.137339 158.993948 
L 63.980208 159.709204 
L 62.941271 160.436107 
L 62.020822 161.173996 
L 61.21913 161.922187 
L 60.536241 162.679958 
L 59.972289 163.446555 
L 59.527207 164.22117 
L 59.200906 165.002963 
L 58.993226 165.791044 
L 58.903922 166.584498 
L 58.932723 167.382342 
L 59.079268 168.183547 
L 59.343154 168.987076 
L 59.723997 169.791828 
L 60.221212 170.596647 
L 60.83435 171.400355 
L 61.562825 172.201771 
L 62.406075 172.99961 
L 63.363425 173.792628 
L 64.434177 174.579531 
L 65.617679 175.358981 
L 66.913189 176.129689 
L 68.319918 176.890295 
L 69.837057 177.639471 
L 71.463819 178.375911 
L 73.199235 179.098278 
L 75.042473 179.805299 
L 76.992499 180.495703 
L 79.048345 181.168242 
L 81.208975 181.821746 
L 83.473242 182.455066 
L 85.840089 183.067118 
L 88.308255 183.656884 
L 90.876414 184.223384 
L 93.543372 184.765746 
L 96.307644 185.283162 
L 99.167724 185.774892 
L 102.122216 186.240303 
L 105.169364 186.678832 
L 108.30755 187.090006 
L 111.53504 187.473459 
L 114.849876 187.828876 
L 118.250237 188.156095 
L 121.733985 188.454968 
L 125.299072 188.725497 
L 128.943315 188.967737 
L 132.664398 189.18184 
L 136.459934 189.368009 
L 140.327596 189.526564 
L 144.264672 189.657849 
L 148.268653 189.762319 
L 152.336896 189.840446 
L 156.466637 189.892788 
L 160.654993 189.91994 
L 164.899138 189.922545 
L 169.196103 189.901282 
L 173.543093 189.856877 
L 177.936816 189.790067 
L 182.374544 189.701618 
L 186.852863 189.592333 
L 191.368943 189.463001 
L 195.919607 189.314447 
L 200.501712 189.147488 
L 205.112061 188.962956 
L 209.747698 188.761672 
L 214.405453 188.544464 
L 219.082217 188.31213 
L 223.774909 188.065496 
L 228.480382 187.805357 
L 233.195862 187.532483 
L 237.918008 187.247666 
L 242.644093 186.951645 
L 247.371041 186.645171 
L 252.095955 186.32895 
L 256.815912 186.003711 
L 261.528067 185.67013 
L 266.229453 185.328871 
L 270.917564 184.980575 
L 275.58919 184.625906 
L 280.241842 184.265454 
L 284.872675 183.899821 
L 289.478938 183.529593 
L 294.057811 183.155332 
L 298.606849 182.777566 
L 303.122963 182.396875 
L 307.603701 182.01372 
L 312.046306 181.628641 
L 316.448017 181.242111 
L 320.80615 180.854602 
L 325.117926 180.466593 
L 329.380887 180.078505 
L 333.591985 179.690799 
L 337.748722 179.303887 
L 341.848375 178.918173 
L 345.888205 178.534067 
L 349.865433 178.151953 
L 353.777657 177.77219 
L 357.621862 177.395172 
L 361.395663 177.021203 
L 365.096315 176.650648 
L 368.721321 176.283812 
L 372.26807 175.921003 
L 375.73411 175.562509 
L 379.116875 175.208616 
L 382.414229 174.85956 
L 385.623583 174.515607 
L 388.742846 174.176952 
L 391.769812 173.843822 
L 394.70241 173.516389 
L 397.538617 173.194818 
L 400.276497 172.879255 
L 402.914249 172.569834 
L 405.450209 172.26664 
L 407.88278 171.969763 
L 410.210386 171.67926 
L 412.4317 171.395169 
L 414.545327 171.117499 
L 416.550231 170.84623 
L 418.44513 170.581363 
L 420.229215 170.322805 
L 421.90145 170.070496 
L 423.461138 169.824324 
L 424.907513 169.584171 
L 426.239923 169.349885 
L 427.457896 169.1213 
L 428.560914 168.89821 
L 429.548617 168.680411 
L 430.420645 168.467655 
L 431.176706 168.259689 
L 431.816642 168.056229 
L 432.34025 167.856976 
L 432.747441 167.66159 
L 433.038147 167.469748 
L 433.212323 167.281068 
z
" clip-path="url(#p9b87200704)" style="fill: #f69e5e; opacity: 0.36; stroke: #f69e5e; stroke-linejoin: miter"/>
   </g>
   <g id="matplotlib.axis_1">
    <g id="xtick_1">
     <g id="line2d_1">
      <defs>
       <path id="m68ea7133a0" d="M 0 0 
L 0 3.5 
" style="stroke: #000000; stroke-width: 0.8"/>
      </defs>
      <g>
       <use xlink:href="#m68ea7133a0" x="58.830008" y="317.72" style="stroke: #000000; stroke-width: 0.8"/>
      </g>
     </g>
     <g id="text_1">
      <!-- −1.00 -->
      <g transform="translate(43.507352 332.318437) scale(0.1 -0.1)">
       <defs>
        <path id="DejaVuSans-2212" d="M 678 2272 
L 4684 2272 
L 4684 1741 
L 678 1741 
L 678 2272 
z
" transform="scale(0.015625)"/>
        <path id="DejaVuSans-31" d="M 794 531 
L 1825 531 
L 1825 4091 
L 703 3866 
L 703 4441 
L 1819 4666 
L 2450 4666 
L 2450 531 
L 3481 531 
L 3481 0 
L 794 0 
L 794 531 
z
" transform="scale(0.015625)"/>
        <path id="DejaVuSans-2e" d="M 684 794 
L 1344 794 
L 1344 0 
L 684 0 
L 684 794 
z
" transform="scale(0.015625)"/>
        <path id="DejaVuSans-30" d="M 2034 4250 
Q 1547 4250 1301 3770 
Q 1056 3291 1056 2328 
Q 1056 1369 1301 889 
Q 1547 409 2034 409 
Q 2525 409 2770 889 
Q 3016 1369 3016 2328 
Q 3016 3291 2770 3770 
Q 2525 4250 2034 4250 
z
M 2034 4750 
Q 2819 4750 3233 4129 
Q 3647 3509 3647 2328 
Q 3647 1150 3233 529 
Q 2819 -91 2034 -91 
Q 1250 -91 836 529 
Q 422 1150 422 2328 
Q 422 3509 836 4129 
Q 1250 4750 2034 4750 
z
" transform="scale(0.015625)"/>
       </defs>
       <use xlink:href="#DejaVuSans-2212"/>
       <use xlink:href="#DejaVuSans-31" transform="translate(83.789062 0)"/>
       <use xlink:href="#DejaVuSans-2e" transform="translate(147.412109 0)"/>
       <use xlink:href="#DejaVuSans-30" transform="translate(179.199219 0)"/>
       <use xlink:href="#DejaVuSans-30" transform="translate(242.822266 0)"/>
      </g>
     </g>
    </g>
    <g id="xtick_2">
     <g id="line2d_2">
      <g>
       <use xlink:href="#m68ea7133a0" x="106.016912" y="317.72" style="stroke: #000000; stroke-width: 0.8"/>
      </g>
     </g>
     <g id="text_2">
      <!-- −0.75 -->
      <g transform="translate(90.694256 332.318437) scale(0.1 -0.1)">
       <defs>
        <path id="DejaVuSans-37" d="M 525 4666 
L 3525 4666 
L 3525 4397 
L 1831 0 
L 1172 0 
L 2766 4134 
L 525 4134 
L 525 4666 
z
" transform="scale(0.015625)"/>
        <path id="DejaVuSans-35" d="M 691 4666 
L 3169 4666 
L 3169 4134 
L 1269 4134 
L 1269 2991 
Q 1406 3038 1543 3061 
Q 1681 3084 1819 3084 
Q 2600 3084 3056 2656 
Q 3513 2228 3513 1497 
Q 3513 744 3044 326 
Q 2575 -91 1722 -91 
Q 1428 -91 1123 -41 
Q 819 9 494 109 
L 494 744 
Q 775 591 1075 516 
Q 1375 441 1709 441 
Q 2250 441 2565 725 
Q 2881 1009 2881 1497 
Q 2881 1984 2565 2268 
Q 2250 2553 1709 2553 
Q 1456 2553 1204 2497 
Q 953 2441 691 2322 
L 691 4666 
z
" transform="scale(0.015625)"/>
       </defs>
       <use xlink:href="#DejaVuSans-2212"/>
       <use xlink:href="#DejaVuSans-30" transform="translate(83.789062 0)"/>
       <use xlink:href="#DejaVuSans-2e" transform="translate(147.412109 0)"/>
       <use xlink:href="#DejaVuSans-37" transform="translate(179.199219 0)"/>
       <use xlink:href="#DejaVuSans-35" transform="translate(242.822266 0)"/>
      </g>
     </g>
    </g>
    <g id="xtick_3">
     <g id="line2d_3">
      <g>
       <use xlink:href="#m68ea7133a0" x="153.203816" y="317.72" style="stroke: #000000; stroke-width: 0.8"/>
      </g>
     </g>
     <g id="text_3">
      <!-- −0.50 -->
      <g transform="translate(137.88116 332.318437) scale(0.1 -0.1)">
       <use xlink:href="#DejaVuSans-2212"/>
       <use xlink:href="#DejaVuSans-30" transform="translate(83.789062 0)"/>
       <use xlink:href="#DejaVuSans-2e" transform="translate(147.412109 0)"/>
       <use xlink:href="#DejaVuSans-35" transform="translate(179.199219 0)"/>
       <use xlink:href="#DejaVuSans-30" transform="translate(242.822266 0)"/>
      </g>
     </g>
    </g>
    <g id="xtick_4">
     <g id="line2d_4">
      <g>
       <use xlink:href="#m68ea7133a0" x="200.39072" y="317.72" style="stroke: #000000; stroke-width: 0.8"/>
      </g>
     </g>
     <g id="text_4">
      <!-- −0.25 -->
      <g transform="translate(185.068064 332.318437) scale(0.1 -0.1)">
       <defs>
        <path id="DejaVuSans-32" d="M 1228 531 
L 3431 531 
L 3431 0 
L 469 0 
L 469 531 
Q 828 903 1448 1529 
Q 2069 2156 2228 2338 
Q 2531 2678 2651 2914 
Q 2772 3150 2772 3378 
Q 2772 3750 2511 3984 
Q 2250 4219 1831 4219 
Q 1534 4219 1204 4116 
Q 875 4013 500 3803 
L 500 4441 
Q 881 4594 1212 4672 
Q 1544 4750 1819 4750 
Q 2544 4750 2975 4387 
Q 3406 4025 3406 3419 
Q 3406 3131 3298 2873 
Q 3191 2616 2906 2266 
Q 2828 2175 2409 1742 
Q 1991 1309 1228 531 
z
" transform="scale(0.015625)"/>
       </defs>
       <use xlink:href="#DejaVuSans-2212"/>
       <use xlink:href="#DejaVuSans-30" transform="translate(83.789062 0)"/>
       <use xlink:href="#DejaVuSans-2e" transform="translate(147.412109 0)"/>
       <use xlink:href="#DejaVuSans-32" transform="translate(179.199219 0)"/>
       <use xlink:href="#DejaVuSans-35" transform="translate(242.822266 0)"/>
      </g>
     </g>
    </g>
    <g id="xtick_5">
     <g id="line2d_5">
      <g>
       <use xlink:href="#m68ea7133a0" x="247.577624" y="317.72" style="stroke: #000000; stroke-width: 0.8"/>
      </g>
     </g>
     <g id="text_5">
      <!-- 0.00 -->
      <g transform="translate(236.444812 332.318437) scale(0.1 -0.1)">
       <use xlink:href="#DejaVuSans-30"/>
       <use xlink:href="#DejaVuSans-2e" transform="translate(63.623047 0)"/>
       <use xlink:href="#DejaVuSans-30" transform="translate(95.410156 0)"/>
       <use xlink:href="#DejaVuSans-30" transform="translate(159.033203 0)"/>
      </g>
     </g>
    </g>
    <g id="xtick_6">
     <g id="line2d_6">
      <g>
       <use xlink:href="#m68ea7133a0" x="294.764528" y="317.72" style="stroke: #000000; stroke-width: 0.8"/>
      </g>
     </g>
     <g id="text_6">
      <!-- 0.25 -->
      <g transform="translate(283.631716 332.318437) scale(0.1 -0.1)">
       <use xlink:href="#DejaVuSans-30"/>
       <use xlink:href="#DejaVuSans-2e" transform="translate(63.623047 0)"/>
       <use xlink:href="#DejaVuSans-32" transform="translate(95.410156 0)"/>
       <use xlink:href="#DejaVuSans-35" transform="translate(159.033203 0)"/>
      </g>
     </g>
    </g>
    <g id="xtick_7">
     <g id="line2d_7">
      <g>
       <use xlink:href="#m68ea7133a0" x="341.951433" y="317.72" style="stroke: #000000; stroke-width: 0.8"/>
      </g>
     </g>
     <g id="text_7">
      <!-- 0.50 -->
      <g transform="translate(330.81862 332.318437) scale(0.1 -0.1)">
       <use xlink:href="#DejaVuSans-30"/>
       <use xlink:href="#DejaVuSans-2e" transform="translate(63.623047 0)"/>
       <use xlink:href="#DejaVuSans-35" transform="translate(95.410156 0)"/>
       <use xlink:href="#DejaVuSans-30" transform="translate(159.033203 0)"/>
      </g>
     </g>
    </g>
    <g id="xtick_8">
     <g id="line2d_8">
      <g>
       <use xlink:href="#m68ea7133a0" x="389.138337" y="317.72" style="stroke: #000000; stroke-width: 0.8"/>
      </g>
     </g>
     <g id="text_8">
      <!-- 0.75 -->
      <g transform="translate(378.005524 332.318437) scale(0.1 -0.1)">
       <use xlink:href="#DejaVuSans-30"/>
       <use xlink:href="#DejaVuSans-2e" transform="translate(63.623047 0)"/>
       <use xlink:href="#DejaVuSans-37" transform="translate(95.410156 0)"/>
       <use xlink:href="#DejaVuSans-35" transform="translate(159.033203 0)"/>
      </g>
     </g>
    </g>
    <g id="xtick_9">
     <g id="line2d_9">
      <g>
       <use xlink:href="#m68ea7133a0" x="436.325241" y="317.72" style="stroke: #000000; stroke-width: 0.8"/>
      </g>
     </g>
     <g id="text_9">
      <!-- 1.00 -->
      <g transform="translate(425.192428 332.318437) scale(0.1 -0.1)">
       <use xlink:href="#DejaVuSans-31"/>
       <use xlink:href="#DejaVuSans-2e" transform="translate(63.623047 0)"/>
       <use xlink:href="#DejaVuSans-30" transform="translate(95.410156 0)"/>
       <use xlink:href="#DejaVuSans-30" transform="translate(159.033203 0)"/>
      </g>
     </g>
    </g>
   </g>
   <g id="matplotlib.axis_2">
    <g id="ytick_1">
     <g id="line2d_10">
      <defs>
       <path id="me4e0607c84" d="M 0 0 
L -3.5 0 
" style="stroke: #000000; stroke-width: 0.8"/>
      </defs>
      <g>
       <use xlink:href="#me4e0607c84" x="42.1" y="280.589433" style="stroke: #000000; stroke-width: 0.8"/>
      </g>
     </g>
     <g id="text_10">
      <!-- −0.6 -->
      <g transform="translate(10.817188 284.388651) scale(0.1 -0.1)">
       <defs>
        <path id="DejaVuSans-36" d="M 2113 2584 
Q 1688 2584 1439 2293 
Q 1191 2003 1191 1497 
Q 1191 994 1439 701 
Q 1688 409 2113 409 
Q 2538 409 2786 701 
Q 3034 994 3034 1497 
Q 3034 2003 2786 2293 
Q 2538 2584 2113 2584 
z
M 3366 4563 
L 3366 3988 
Q 3128 4100 2886 4159 
Q 2644 4219 2406 4219 
Q 1781 4219 1451 3797 
Q 1122 3375 1075 2522 
Q 1259 2794 1537 2939 
Q 1816 3084 2150 3084 
Q 2853 3084 3261 2657 
Q 3669 2231 3669 1497 
Q 3669 778 3244 343 
Q 2819 -91 2113 -91 
Q 1303 -91 875 529 
Q 447 1150 447 2328 
Q 447 3434 972 4092 
Q 1497 4750 2381 4750 
Q 2619 4750 2861 4703 
Q 3103 4656 3366 4563 
z
" transform="scale(0.015625)"/>
       </defs>
       <use xlink:href="#DejaVuSans-2212"/>
       <use xlink:href="#DejaVuSans-30" transform="translate(83.789062 0)"/>
       <use xlink:href="#DejaVuSans-2e" transform="translate(147.412109 0)"/>
       <use xlink:href="#DejaVuSans-36" transform="translate(179.199219 0)"/>
      </g>
     </g>
    </g>
    <g id="ytick_2">
     <g id="line2d_11">
      <g>
       <use xlink:href="#me4e0607c84" x="42.1" y="242.839909" style="stroke: #000000; stroke-width: 0.8"/>
      </g>
     </g>
     <g id="text_11">
      <!-- −0.4 -->
      <g transform="translate(10.817188 246.639128) scale(0.1 -0.1)">
       <defs>
        <path id="DejaVuSans-34" d="M 2419 4116 
L 825 1625 
L 2419 1625 
L 2419 4116 
z
M 2253 4666 
L 3047 4666 
L 3047 1625 
L 3713 1625 
L 3713 1100 
L 3047 1100 
L 3047 0 
L 2419 0 
L 2419 1100 
L 313 1100 
L 313 1709 
L 2253 4666 
z
" transform="scale(0.015625)"/>
       </defs>
       <use xlink:href="#DejaVuSans-2212"/>
       <use xlink:href="#DejaVuSans-30" transform="translate(83.789062 0)"/>
       <use xlink:href="#DejaVuSans-2e" transform="translate(147.412109 0)"/>
       <use xlink:href="#DejaVuSans-34" transform="translate(179.199219 0)"/>
      </g>
     </g>
    </g>
    <g id="ytick_3">
     <g id="line2d_12">
      <g>
       <use xlink:href="#me4e0607c84" x="42.1" y="205.090386" style="stroke: #000000; stroke-width: 0.8"/>
      </g>
     </g>
     <g id="text_12">
      <!-- −0.2 -->
      <g transform="translate(10.817188 208.889605) scale(0.1 -0.1)">
       <use xlink:href="#DejaVuSans-2212"/>
       <use xlink:href="#DejaVuSans-30" transform="translate(83.789062 0)"/>
       <use xlink:href="#DejaVuSans-2e" transform="translate(147.412109 0)"/>
       <use xlink:href="#DejaVuSans-32" transform="translate(179.199219 0)"/>
      </g>
     </g>
    </g>
    <g id="ytick_4">
     <g id="line2d_13">
      <g>
       <use xlink:href="#me4e0607c84" x="42.1" y="167.340863" style="stroke: #000000; stroke-width: 0.8"/>
      </g>
     </g>
     <g id="text_13">
      <!-- 0.0 -->
      <g transform="translate(19.196875 171.140081) scale(0.1 -0.1)">
       <use xlink:href="#DejaVuSans-30"/>
       <use xlink:href="#DejaVuSans-2e" transform="translate(63.623047 0)"/>
       <use xlink:href="#DejaVuSans-30" transform="translate(95.410156 0)"/>
      </g>
     </g>
    </g>
    <g id="ytick_5">
     <g id="line2d_14">
      <g>
       <use xlink:href="#me4e0607c84" x="42.1" y="129.591339" style="stroke: #000000; stroke-width: 0.8"/>
      </g>
     </g>
     <g id="text_14">
      <!-- 0.2 -->
      <g transform="translate(19.196875 133.390558) scale(0.1 -0.1)">
       <use xlink:href="#DejaVuSans-30"/>
       <use xlink:href="#DejaVuSans-2e" transform="translate(63.623047 0)"/>
       <use xlink:href="#DejaVuSans-32" transform="translate(95.410156 0)"/>
      </g>
     </g>
    </g>
    <g id="ytick_6">
     <g id="line2d_15">
      <g>
       <use xlink:href="#me4e0607c84" x="42.1" y="91.841816" style="stroke: #000000; stroke-width: 0.8"/>
      </g>
     </g>
     <g id="text_15">
      <!-- 0.4 -->
      <g transform="translate(19.196875 95.641035) scale(0.1 -0.1)">
       <use xlink:href="#DejaVuSans-30"/>
       <use xlink:href="#DejaVuSans-2e" transform="translate(63.623047 0)"/>
       <use xlink:href="#DejaVuSans-34" transform="translate(95.410156 0)"/>
      </g>
     </g>
    </g>
    <g id="ytick_7">
     <g id="line2d_16">
      <g>
       <use xlink:href="#me4e0607c84" x="42.1" y="54.092293" style="stroke: #000000; stroke-width: 0.8"/>
      </g>
     </g>
     <g id="text_16">
      <!-- 0.6 -->
      <g transform="translate(19.196875 57.891512) scale(0.1 -0.1)">
       <use xlink:href="#DejaVuSans-30"/>
       <use xlink:href="#DejaVuSans-2e" transform="translate(63.623047 0)"/>
       <use xlink:href="#DejaVuSans-36" transform="translate(95.410156 0)"/>
      </g>
     </g>
    </g>
    <g id="ytick_8">
     <g id="line2d_17">
      <g>
       <use xlink:href="#me4e0607c84" x="42.1" y="16.34277" style="stroke: #000000; stroke-width: 0.8"/>
      </g>
     </g>
     <g id="text_17">
      <!-- 0.8 -->
      <g transform="translate(19.196875 20.141988) scale(0.1 -0.1)">
       <defs>
        <path id="DejaVuSans-38" d="M 2034 2216 
Q 1584 2216 1326 1975 
Q 1069 1734 1069 1313 
Q 1069 891 1326 650 
Q 1584 409 2034 409 
Q 2484 409 2743 651 
Q 3003 894 3003 1313 
Q 3003 1734 2745 1975 
Q 2488 2216 2034 2216 
z
M 1403 2484 
Q 997 2584 770 2862 
Q 544 3141 544 3541 
Q 544 4100 942 4425 
Q 1341 4750 2034 4750 
Q 2731 4750 3128 4425 
Q 3525 4100 3525 3541 
Q 3525 3141 3298 2862 
Q 3072 2584 2669 2484 
Q 3125 2378 3379 2068 
Q 3634 1759 3634 1313 
Q 3634 634 3220 271 
Q 2806 -91 2034 -91 
Q 1263 -91 848 271 
Q 434 634 434 1313 
Q 434 1759 690 2068 
Q 947 2378 1403 2484 
z
M 1172 3481 
Q 1172 3119 1398 2916 
Q 1625 2713 2034 2713 
Q 2441 2713 2670 2916 
Q 2900 3119 2900 3481 
Q 2900 3844 2670 4047 
Q 2441 4250 2034 4250 
Q 1625 4250 1398 4047 
Q 1172 3844 1172 3481 
z
" transform="scale(0.015625)"/>
       </defs>
       <use xlink:href="#DejaVuSans-30"/>
       <use xlink:href="#DejaVuSans-2e" transform="translate(63.623047 0)"/>
       <use xlink:href="#DejaVuSans-38" transform="translate(95.410156 0)"/>
      </g>
     </g>
    </g>
   </g>
   <g id="line2d_18">
    <path d="M 430.471665 174.995232 
L 430.287341 174.640013 
L 429.6694 174.277896 
L 427.925017 173.711103 
L 425.194787 173.09953 
L 420.014977 172.178671 
L 406.728832 170.125245 
L 382.003629 166.268727 
L 361.159858 162.774903 
L 328.906921 157.091345 
L 297.626341 151.612632 
L 278.941552 148.518746 
L 259.938403 145.601915 
L 245.601741 143.594557 
L 231.285441 141.78299 
L 217.069331 140.196086 
L 203.030647 138.854993 
L 189.24486 137.773769 
L 175.786643 136.960403 
L 162.730256 136.417857 
L 150.149951 136.145382 
L 138.119614 136.139631 
L 126.712315 136.395678 
L 115.999234 136.907898 
L 106.048176 137.670588 
L 96.922391 138.678482 
L 91.325613 139.484286 
L 86.136577 140.395744 
L 81.36902 141.411682 
L 77.035205 142.530979 
L 73.145886 143.752439 
L 69.710076 145.074691 
L 66.735458 146.4961 
L 64.22823 148.01457 
L 62.193209 149.627374 
L 60.633927 151.331022 
L 59.552869 153.121065 
L 59.192164 154.046771 
L 58.951398 154.991857 
L 58.830739 155.955428 
L 58.830008 156.936473 
L 58.949193 157.933903 
L 59.188159 158.946499 
L 60.024513 161.011973 
L 61.336864 163.121272 
L 63.12231 165.26128 
L 65.377037 167.417294 
L 68.096342 169.573342 
L 71.27468 171.712385 
L 74.905648 173.816801 
L 78.981687 175.868665 
L 83.494302 177.850331 
L 88.43383 179.744921 
L 93.789437 181.53684 
L 99.549028 183.212227 
L 105.698958 184.759335 
L 112.224218 186.168832 
L 119.108394 187.434011 
L 126.333227 188.550806 
L 133.878962 189.517726 
L 141.724167 190.33576 
L 149.846105 191.008068 
L 158.220346 191.539701 
L 171.198505 192.088195 
L 184.595942 192.362366 
L 198.319164 192.392865 
L 212.273046 192.211779 
L 231.075343 191.695928 
L 249.906492 190.93104 
L 273.181488 189.720045 
L 295.830938 188.321988 
L 321.733777 186.513977 
L 349.566289 184.36302 
L 377.355043 182.004313 
L 399.963402 179.870048 
L 414.908945 178.233255 
L 422.61089 177.193775 
L 426.92018 176.42735 
L 429.050479 175.880559 
L 430.224644 175.347911 
L 430.471665 174.995232 
L 430.471665 174.995232 
" clip-path="url(#p9b87200704)" style="fill: none; stroke: #000000; stroke-width: 2; stroke-linecap: square"/>
   </g>
   <g id="line2d_19">
    <path d="M 433.269992 167.095166 
L 433.211198 166.911652 
L 432.744606 166.550036 
L 431.813582 166.192619 
L 429.549945 165.655845 
L 424.925986 164.916927 
L 416.607472 163.906236 
L 397.662189 161.929978 
L 349.87099 156.977085 
L 302.862914 152.121976 
L 279.934773 149.972748 
L 261.254172 148.414115 
L 242.469755 147.071305 
L 223.752311 146.001069 
L 209.856544 145.404302 
L 196.157583 144.999565 
L 182.723037 144.796373 
L 169.621317 144.80035 
L 156.922784 145.0137 
L 144.699921 145.435648 
L 133.02688 146.062949 
L 121.978655 146.890382 
L 111.629497 147.911207 
L 102.051159 149.117547 
L 93.310672 150.500656 
L 85.468426 152.051102 
L 80.765378 153.172733 
L 76.498029 154.36107 
L 72.677517 155.612701 
L 69.313157 156.923978 
L 66.412239 158.290932 
L 63.980208 159.709204 
L 62.020822 161.173996 
L 60.536241 162.679958 
L 59.527207 164.22117 
L 59.200906 165.002963 
L 58.993226 165.791044 
L 58.903922 166.584498 
L 58.932723 167.382342 
L 59.079268 168.183547 
L 59.723997 169.791828 
L 60.83435 171.400355 
L 62.406075 172.99961 
L 64.434177 174.579531 
L 66.913189 176.129689 
L 69.837057 177.639471 
L 73.199235 179.098278 
L 76.992499 180.495703 
L 81.208975 181.821746 
L 85.840089 183.067118 
L 90.876414 184.223384 
L 96.307644 185.283162 
L 102.122216 186.240303 
L 108.30755 187.090006 
L 114.849876 187.828876 
L 125.299072 188.725497 
L 136.459934 189.368009 
L 148.268653 189.762319 
L 160.654993 189.91994 
L 173.543093 189.856877 
L 186.852863 189.592333 
L 205.112061 188.962956 
L 223.774909 188.065496 
L 242.644093 186.951645 
L 266.229453 185.328871 
L 294.057811 183.155332 
L 325.117926 180.466593 
L 353.777657 177.77219 
L 382.414229 174.85956 
L 402.914249 172.569834 
L 416.550231 170.84623 
L 424.907513 169.584171 
L 429.548617 168.680411 
L 431.816642 168.056229 
L 432.747441 167.66159 
L 433.212323 167.281068 
L 433.269992 167.095166 
L 433.269992 167.095166 
" clip-path="url(#p9b87200704)" style="fill: none; stroke-dasharray: 7.4,3.2; stroke-dashoffset: 0; stroke: #000000; stroke-width: 2"/>
   </g>
   <g id="patch_5">
    <path d="M 42.1 317.72 
L 42.1 10.8 
" style="fill: none; stroke: #000000; stroke-width: 0.8; stroke-linejoin: miter; stroke-linecap: square"/>
   </g>
   <g id="patch_6">
    <path d="M 450 317.72 
L 450 10.8 
" style="fill: none; stroke: #000000; stroke-width: 0.8; stroke-linejoin: miter; stroke-linecap: square"/>
   </g>
   <g id="patch_7">
    <path d="M 42.1 317.72 
L 450 317.72 
" style="fill: none; stroke: #000000; stroke-width: 0.8; stroke-linejoin: miter; stroke-linecap: square"/>
   </g>
   <g id="patch_8">
    <path d="M 42.1 10.8 
L 450 10.8 
" style="fill: none; stroke: #000000; stroke-width: 0.8; stroke-linejoin: miter; stroke-linecap: square"/>
   </g>
   <g id="legend_1">
    <g id="patch_9">
     <path d="M 325.31875 48.15625 
L 443 48.15625 
Q 445 48.15625 445 46.15625 
L 445 17.8 
Q 445 15.8 443 15.8 
L 325.31875 15.8 
Q 323.31875 15.8 323.31875 17.8 
L 323.31875 46.15625 
Q 323.31875 48.15625 325.31875 48.15625 
z
" style="fill: #ffffff; opacity: 0.8; stroke: #cccccc; stroke-linejoin: miter"/>
    </g>
    <g id="patch_10">
     <path d="M 327.31875 27.398438 
L 347.31875 27.398438 
L 347.31875 20.398438 
L 327.31875 20.398438 
z
" style="fill: #c9c9f5; opacity: 0.46; stroke: #c9c9f5; stroke-linejoin: miter"/>
    </g>
    <g id="text_18">
     <!-- Optimized Shape -->
     <g transform="translate(355.31875 27.398438) scale(0.1 -0.1)">
      <defs>
       <path id="DejaVuSans-4f" d="M 2522 4238 
Q 1834 4238 1429 3725 
Q 1025 3213 1025 2328 
Q 1025 1447 1429 934 
Q 1834 422 2522 422 
Q 3209 422 3611 934 
Q 4013 1447 4013 2328 
Q 4013 3213 3611 3725 
Q 3209 4238 2522 4238 
z
M 2522 4750 
Q 3503 4750 4090 4092 
Q 4678 3434 4678 2328 
Q 4678 1225 4090 567 
Q 3503 -91 2522 -91 
Q 1538 -91 948 565 
Q 359 1222 359 2328 
Q 359 3434 948 4092 
Q 1538 4750 2522 4750 
z
" transform="scale(0.015625)"/>
       <path id="DejaVuSans-70" d="M 1159 525 
L 1159 -1331 
L 581 -1331 
L 581 3500 
L 1159 3500 
L 1159 2969 
Q 1341 3281 1617 3432 
Q 1894 3584 2278 3584 
Q 2916 3584 3314 3078 
Q 3713 2572 3713 1747 
Q 3713 922 3314 415 
Q 2916 -91 2278 -91 
Q 1894 -91 1617 61 
Q 1341 213 1159 525 
z
M 3116 1747 
Q 3116 2381 2855 2742 
Q 2594 3103 2138 3103 
Q 1681 3103 1420 2742 
Q 1159 2381 1159 1747 
Q 1159 1113 1420 752 
Q 1681 391 2138 391 
Q 2594 391 2855 752 
Q 3116 1113 3116 1747 
z
" transform="scale(0.015625)"/>
       <path id="DejaVuSans-74" d="M 1172 4494 
L 1172 3500 
L 2356 3500 
L 2356 3053 
L 1172 3053 
L 1172 1153 
Q 1172 725 1289 603 
Q 1406 481 1766 481 
L 2356 481 
L 2356 0 
L 1766 0 
Q 1100 0 847 248 
Q 594 497 594 1153 
L 594 3053 
L 172 3053 
L 172 3500 
L 594 3500 
L 594 4494 
L 1172 4494 
z
" transform="scale(0.015625)"/>
       <path id="DejaVuSans-69" d="M 603 3500 
L 1178 3500 
L 1178 0 
L 603 0 
L 603 3500 
z
M 603 4863 
L 1178 4863 
L 1178 4134 
L 603 4134 
L 603 4863 
z
" transform="scale(0.015625)"/>
       <path id="DejaVuSans-6d" d="M 3328 2828 
Q 3544 3216 3844 3400 
Q 4144 3584 4550 3584 
Q 5097 3584 5394 3201 
Q 5691 2819 5691 2113 
L 5691 0 
L 5113 0 
L 5113 2094 
Q 5113 2597 4934 2840 
Q 4756 3084 4391 3084 
Q 3944 3084 3684 2787 
Q 3425 2491 3425 1978 
L 3425 0 
L 2847 0 
L 2847 2094 
Q 2847 2600 2669 2842 
Q 2491 3084 2119 3084 
Q 1678 3084 1418 2786 
Q 1159 2488 1159 1978 
L 1159 0 
L 581 0 
L 581 3500 
L 1159 3500 
L 1159 2956 
Q 1356 3278 1631 3431 
Q 1906 3584 2284 3584 
Q 2666 3584 2933 3390 
Q 3200 3197 3328 2828 
z
" transform="scale(0.015625)"/>
       <path id="DejaVuSans-7a" d="M 353 3500 
L 3084 3500 
L 3084 2975 
L 922 459 
L 3084 459 
L 3084 0 
L 275 0 
L 275 525 
L 2438 3041 
L 353 3041 
L 353 3500 
z
" transform="scale(0.015625)"/>
       <path id="DejaVuSans-65" d="M 3597 1894 
L 3597 1613 
L 953 1613 
Q 991 1019 1311 708 
Q 1631 397 2203 397 
Q 2534 397 2845 478 
Q 3156 559 3463 722 
L 3463 178 
Q 3153 47 2828 -22 
Q 2503 -91 2169 -91 
Q 1331 -91 842 396 
Q 353 884 353 1716 
Q 353 2575 817 3079 
Q 1281 3584 2069 3584 
Q 2775 3584 3186 3129 
Q 3597 2675 3597 1894 
z
M 3022 2063 
Q 3016 2534 2758 2815 
Q 2500 3097 2075 3097 
Q 1594 3097 1305 2825 
Q 1016 2553 972 2059 
L 3022 2063 
z
" transform="scale(0.015625)"/>
       <path id="DejaVuSans-64" d="M 2906 2969 
L 2906 4863 
L 3481 4863 
L 3481 0 
L 2906 0 
L 2906 525 
Q 2725 213 2448 61 
Q 2172 -91 1784 -91 
Q 1150 -91 751 415 
Q 353 922 353 1747 
Q 353 2572 751 3078 
Q 1150 3584 1784 3584 
Q 2172 3584 2448 3432 
Q 2725 3281 2906 2969 
z
M 947 1747 
Q 947 1113 1208 752 
Q 1469 391 1925 391 
Q 2381 391 2643 752 
Q 2906 1113 2906 1747 
Q 2906 2381 2643 2742 
Q 2381 3103 1925 3103 
Q 1469 3103 1208 2742 
Q 947 2381 947 1747 
z
" transform="scale(0.015625)"/>
       <path id="DejaVuSans-20" transform="scale(0.015625)"/>
       <path id="DejaVuSans-53" d="M 3425 4513 
L 3425 3897 
Q 3066 4069 2747 4153 
Q 2428 4238 2131 4238 
Q 1616 4238 1336 4038 
Q 1056 3838 1056 3469 
Q 1056 3159 1242 3001 
Q 1428 2844 1947 2747 
L 2328 2669 
Q 3034 2534 3370 2195 
Q 3706 1856 3706 1288 
Q 3706 609 3251 259 
Q 2797 -91 1919 -91 
Q 1588 -91 1214 -16 
Q 841 59 441 206 
L 441 856 
Q 825 641 1194 531 
Q 1563 422 1919 422 
Q 2459 422 2753 634 
Q 3047 847 3047 1241 
Q 3047 1584 2836 1778 
Q 2625 1972 2144 2069 
L 1759 2144 
Q 1053 2284 737 2584 
Q 422 2884 422 3419 
Q 422 4038 858 4394 
Q 1294 4750 2059 4750 
Q 2388 4750 2728 4690 
Q 3069 4631 3425 4513 
z
" transform="scale(0.015625)"/>
       <path id="DejaVuSans-68" d="M 3513 2113 
L 3513 0 
L 2938 0 
L 2938 2094 
Q 2938 2591 2744 2837 
Q 2550 3084 2163 3084 
Q 1697 3084 1428 2787 
Q 1159 2491 1159 1978 
L 1159 0 
L 581 0 
L 581 4863 
L 1159 4863 
L 1159 2956 
Q 1366 3272 1645 3428 
Q 1925 3584 2291 3584 
Q 2894 3584 3203 3211 
Q 3513 2838 3513 2113 
z
" transform="scale(0.015625)"/>
       <path id="DejaVuSans-61" d="M 2194 1759 
Q 1497 1759 1228 1600 
Q 959 1441 959 1056 
Q 959 750 1161 570 
Q 1363 391 1709 391 
Q 2188 391 2477 730 
Q 2766 1069 2766 1631 
L 2766 1759 
L 2194 1759 
z
M 3341 1997 
L 3341 0 
L 2766 0 
L 2766 531 
Q 2569 213 2275 61 
Q 1981 -91 1556 -91 
Q 1019 -91 701 211 
Q 384 513 384 1019 
Q 384 1609 779 1909 
Q 1175 2209 1959 2209 
L 2766 2209 
L 2766 2266 
Q 2766 2663 2505 2880 
Q 2244 3097 1772 3097 
Q 1472 3097 1187 3025 
Q 903 2953 641 2809 
L 641 3341 
Q 956 3463 1253 3523 
Q 1550 3584 1831 3584 
Q 2591 3584 2966 3190 
Q 3341 2797 3341 1997 
z
" transform="scale(0.015625)"/>
      </defs>
      <use xlink:href="#DejaVuSans-4f"/>
      <use xlink:href="#DejaVuSans-70" transform="translate(78.710938 0)"/>
      <use xlink:href="#DejaVuSans-74" transform="translate(142.1875 0)"/>
      <use xlink:href="#DejaVuSans-69" transform="translate(181.396484 0)"/>
      <use xlink:href="#DejaVuSans-6d" transform="translate(209.179688 0)"/>
      <use xlink:href="#DejaVuSans-69" transform="translate(306.591797 0)"/>
      <use xlink:href="#DejaVuSans-7a" transform="translate(334.375 0)"/>
      <use xlink:href="#DejaVuSans-65" transform="translate(386.865234 0)"/>
      <use xlink:href="#DejaVuSans-64" transform="translate(448.388672 0)"/>
      <use xlink:href="#DejaVuSans-20" transform="translate(511.865234 0)"/>
      <use xlink:href="#DejaVuSans-53" transform="translate(543.652344 0)"/>
      <use xlink:href="#DejaVuSans-68" transform="translate(607.128906 0)"/>
      <use xlink:href="#DejaVuSans-61" transform="translate(670.507812 0)"/>
      <use xlink:href="#DejaVuSans-70" transform="translate(731.787109 0)"/>
      <use xlink:href="#DejaVuSans-65" transform="translate(795.263672 0)"/>
     </g>
    </g>
    <g id="patch_11">
     <path d="M 327.31875 42.076563 
L 347.31875 42.076563 
L 347.31875 35.076563 
L 327.31875 35.076563 
z
" style="fill: #f69e5e; opacity: 0.36; stroke: #f69e5e; stroke-linejoin: miter"/>
    </g>
    <g id="text_19">
     <!-- Initial Shape -->
     <g transform="translate(355.31875 42.076563) scale(0.1 -0.1)">
      <defs>
       <path id="DejaVuSans-49" d="M 628 4666 
L 1259 4666 
L 1259 0 
L 628 0 
L 628 4666 
z
" transform="scale(0.015625)"/>
       <path id="DejaVuSans-6e" d="M 3513 2113 
L 3513 0 
L 2938 0 
L 2938 2094 
Q 2938 2591 2744 2837 
Q 2550 3084 2163 3084 
Q 1697 3084 1428 2787 
Q 1159 2491 1159 1978 
L 1159 0 
L 581 0 
L 581 3500 
L 1159 3500 
L 1159 2956 
Q 1366 3272 1645 3428 
Q 1925 3584 2291 3584 
Q 2894 3584 3203 3211 
Q 3513 2838 3513 2113 
z
" transform="scale(0.015625)"/>
       <path id="DejaVuSans-6c" d="M 603 4863 
L 1178 4863 
L 1178 0 
L 603 0 
L 603 4863 
z
" transform="scale(0.015625)"/>
      </defs>
      <use xlink:href="#DejaVuSans-49"/>
      <use xlink:href="#DejaVuSans-6e" transform="translate(29.492188 0)"/>
      <use xlink:href="#DejaVuSans-69" transform="translate(92.871094 0)"/>
      <use xlink:href="#DejaVuSans-74" transform="translate(120.654297 0)"/>
      <use xlink:href="#DejaVuSans-69" transform="translate(159.863281 0)"/>
      <use xlink:href="#DejaVuSans-61" transform="translate(187.646484 0)"/>
      <use xlink:href="#DejaVuSans-6c" transform="translate(248.925781 0)"/>
      <use xlink:href="#DejaVuSans-20" transform="translate(276.708984 0)"/>
      <use xlink:href="#DejaVuSans-53" transform="translate(308.496094 0)"/>
      <use xlink:href="#DejaVuSans-68" transform="translate(371.972656 0)"/>
      <use xlink:href="#DejaVuSans-61" transform="translate(435.351562 0)"/>
      <use xlink:href="#DejaVuSans-70" transform="translate(496.630859 0)"/>
      <use xlink:href="#DejaVuSans-65" transform="translate(560.107422 0)"/>
     </g>
    </g>
   </g>
  </g>
 </g>
 <defs>
  <clipPath id="p9b87200704">
   <rect x="42.1" y="10.8" width="407.9" height="306.92"/>
  </clipPath>
 </defs>
</svg>
